%TF.GenerationSoftware,KiCad,Pcbnew,9.0.7*%
%TF.CreationDate,2026-04-30T22:30:34-05:00*%
%TF.ProjectId,bps_board_v2,6270735f-626f-4617-9264-5f76322e6b69,rev?*%
%TF.SameCoordinates,Original*%
%TF.FileFunction,Legend,Top*%
%TF.FilePolarity,Positive*%
%FSLAX46Y46*%
G04 Gerber Fmt 4.6, Leading zero omitted, Abs format (unit mm)*
G04 Created by KiCad (PCBNEW 9.0.7) date 2026-04-30 22:30:34*
%MOMM*%
%LPD*%
G01*
G04 APERTURE LIST*
%ADD10C,0.100000*%
%ADD11C,0.150000*%
%ADD12C,0.120000*%
G04 APERTURE END LIST*
D10*
X87203884Y-146442419D02*
X87203884Y-145442419D01*
X87203884Y-145442419D02*
X87584836Y-145442419D01*
X87584836Y-145442419D02*
X87680074Y-145490038D01*
X87680074Y-145490038D02*
X87727693Y-145537657D01*
X87727693Y-145537657D02*
X87775312Y-145632895D01*
X87775312Y-145632895D02*
X87775312Y-145775752D01*
X87775312Y-145775752D02*
X87727693Y-145870990D01*
X87727693Y-145870990D02*
X87680074Y-145918609D01*
X87680074Y-145918609D02*
X87584836Y-145966228D01*
X87584836Y-145966228D02*
X87203884Y-145966228D01*
X88394360Y-145442419D02*
X88584836Y-145442419D01*
X88584836Y-145442419D02*
X88680074Y-145490038D01*
X88680074Y-145490038D02*
X88775312Y-145585276D01*
X88775312Y-145585276D02*
X88822931Y-145775752D01*
X88822931Y-145775752D02*
X88822931Y-146109085D01*
X88822931Y-146109085D02*
X88775312Y-146299561D01*
X88775312Y-146299561D02*
X88680074Y-146394800D01*
X88680074Y-146394800D02*
X88584836Y-146442419D01*
X88584836Y-146442419D02*
X88394360Y-146442419D01*
X88394360Y-146442419D02*
X88299122Y-146394800D01*
X88299122Y-146394800D02*
X88203884Y-146299561D01*
X88203884Y-146299561D02*
X88156265Y-146109085D01*
X88156265Y-146109085D02*
X88156265Y-145775752D01*
X88156265Y-145775752D02*
X88203884Y-145585276D01*
X88203884Y-145585276D02*
X88299122Y-145490038D01*
X88299122Y-145490038D02*
X88394360Y-145442419D01*
X89203884Y-146394800D02*
X89346741Y-146442419D01*
X89346741Y-146442419D02*
X89584836Y-146442419D01*
X89584836Y-146442419D02*
X89680074Y-146394800D01*
X89680074Y-146394800D02*
X89727693Y-146347180D01*
X89727693Y-146347180D02*
X89775312Y-146251942D01*
X89775312Y-146251942D02*
X89775312Y-146156704D01*
X89775312Y-146156704D02*
X89727693Y-146061466D01*
X89727693Y-146061466D02*
X89680074Y-146013847D01*
X89680074Y-146013847D02*
X89584836Y-145966228D01*
X89584836Y-145966228D02*
X89394360Y-145918609D01*
X89394360Y-145918609D02*
X89299122Y-145870990D01*
X89299122Y-145870990D02*
X89251503Y-145823371D01*
X89251503Y-145823371D02*
X89203884Y-145728133D01*
X89203884Y-145728133D02*
X89203884Y-145632895D01*
X89203884Y-145632895D02*
X89251503Y-145537657D01*
X89251503Y-145537657D02*
X89299122Y-145490038D01*
X89299122Y-145490038D02*
X89394360Y-145442419D01*
X89394360Y-145442419D02*
X89632455Y-145442419D01*
X89632455Y-145442419D02*
X89775312Y-145490038D01*
X109003884Y-143172419D02*
X109003884Y-142172419D01*
X109003884Y-142172419D02*
X109384836Y-142172419D01*
X109384836Y-142172419D02*
X109480074Y-142220038D01*
X109480074Y-142220038D02*
X109527693Y-142267657D01*
X109527693Y-142267657D02*
X109575312Y-142362895D01*
X109575312Y-142362895D02*
X109575312Y-142505752D01*
X109575312Y-142505752D02*
X109527693Y-142600990D01*
X109527693Y-142600990D02*
X109480074Y-142648609D01*
X109480074Y-142648609D02*
X109384836Y-142696228D01*
X109384836Y-142696228D02*
X109003884Y-142696228D01*
X110194360Y-142172419D02*
X110384836Y-142172419D01*
X110384836Y-142172419D02*
X110480074Y-142220038D01*
X110480074Y-142220038D02*
X110575312Y-142315276D01*
X110575312Y-142315276D02*
X110622931Y-142505752D01*
X110622931Y-142505752D02*
X110622931Y-142839085D01*
X110622931Y-142839085D02*
X110575312Y-143029561D01*
X110575312Y-143029561D02*
X110480074Y-143124800D01*
X110480074Y-143124800D02*
X110384836Y-143172419D01*
X110384836Y-143172419D02*
X110194360Y-143172419D01*
X110194360Y-143172419D02*
X110099122Y-143124800D01*
X110099122Y-143124800D02*
X110003884Y-143029561D01*
X110003884Y-143029561D02*
X109956265Y-142839085D01*
X109956265Y-142839085D02*
X109956265Y-142505752D01*
X109956265Y-142505752D02*
X110003884Y-142315276D01*
X110003884Y-142315276D02*
X110099122Y-142220038D01*
X110099122Y-142220038D02*
X110194360Y-142172419D01*
X111003884Y-143124800D02*
X111146741Y-143172419D01*
X111146741Y-143172419D02*
X111384836Y-143172419D01*
X111384836Y-143172419D02*
X111480074Y-143124800D01*
X111480074Y-143124800D02*
X111527693Y-143077180D01*
X111527693Y-143077180D02*
X111575312Y-142981942D01*
X111575312Y-142981942D02*
X111575312Y-142886704D01*
X111575312Y-142886704D02*
X111527693Y-142791466D01*
X111527693Y-142791466D02*
X111480074Y-142743847D01*
X111480074Y-142743847D02*
X111384836Y-142696228D01*
X111384836Y-142696228D02*
X111194360Y-142648609D01*
X111194360Y-142648609D02*
X111099122Y-142600990D01*
X111099122Y-142600990D02*
X111051503Y-142553371D01*
X111051503Y-142553371D02*
X111003884Y-142458133D01*
X111003884Y-142458133D02*
X111003884Y-142362895D01*
X111003884Y-142362895D02*
X111051503Y-142267657D01*
X111051503Y-142267657D02*
X111099122Y-142220038D01*
X111099122Y-142220038D02*
X111194360Y-142172419D01*
X111194360Y-142172419D02*
X111432455Y-142172419D01*
X111432455Y-142172419D02*
X111575312Y-142220038D01*
X121303884Y-143272419D02*
X121303884Y-142272419D01*
X121303884Y-142272419D02*
X121875312Y-143272419D01*
X121875312Y-143272419D02*
X121875312Y-142272419D01*
X122351503Y-142748609D02*
X122684836Y-142748609D01*
X122827693Y-143272419D02*
X122351503Y-143272419D01*
X122351503Y-143272419D02*
X122351503Y-142272419D01*
X122351503Y-142272419D02*
X122827693Y-142272419D01*
X123780074Y-142320038D02*
X123684836Y-142272419D01*
X123684836Y-142272419D02*
X123541979Y-142272419D01*
X123541979Y-142272419D02*
X123399122Y-142320038D01*
X123399122Y-142320038D02*
X123303884Y-142415276D01*
X123303884Y-142415276D02*
X123256265Y-142510514D01*
X123256265Y-142510514D02*
X123208646Y-142700990D01*
X123208646Y-142700990D02*
X123208646Y-142843847D01*
X123208646Y-142843847D02*
X123256265Y-143034323D01*
X123256265Y-143034323D02*
X123303884Y-143129561D01*
X123303884Y-143129561D02*
X123399122Y-143224800D01*
X123399122Y-143224800D02*
X123541979Y-143272419D01*
X123541979Y-143272419D02*
X123637217Y-143272419D01*
X123637217Y-143272419D02*
X123780074Y-143224800D01*
X123780074Y-143224800D02*
X123827693Y-143177180D01*
X123827693Y-143177180D02*
X123827693Y-142843847D01*
X123827693Y-142843847D02*
X123637217Y-142843847D01*
X145003884Y-146572419D02*
X145003884Y-145572419D01*
X145003884Y-145572419D02*
X145575312Y-146572419D01*
X145575312Y-146572419D02*
X145575312Y-145572419D01*
X146051503Y-146048609D02*
X146384836Y-146048609D01*
X146527693Y-146572419D02*
X146051503Y-146572419D01*
X146051503Y-146572419D02*
X146051503Y-145572419D01*
X146051503Y-145572419D02*
X146527693Y-145572419D01*
X147480074Y-145620038D02*
X147384836Y-145572419D01*
X147384836Y-145572419D02*
X147241979Y-145572419D01*
X147241979Y-145572419D02*
X147099122Y-145620038D01*
X147099122Y-145620038D02*
X147003884Y-145715276D01*
X147003884Y-145715276D02*
X146956265Y-145810514D01*
X146956265Y-145810514D02*
X146908646Y-146000990D01*
X146908646Y-146000990D02*
X146908646Y-146143847D01*
X146908646Y-146143847D02*
X146956265Y-146334323D01*
X146956265Y-146334323D02*
X147003884Y-146429561D01*
X147003884Y-146429561D02*
X147099122Y-146524800D01*
X147099122Y-146524800D02*
X147241979Y-146572419D01*
X147241979Y-146572419D02*
X147337217Y-146572419D01*
X147337217Y-146572419D02*
X147480074Y-146524800D01*
X147480074Y-146524800D02*
X147527693Y-146477180D01*
X147527693Y-146477180D02*
X147527693Y-146143847D01*
X147527693Y-146143847D02*
X147337217Y-146143847D01*
D11*
X113707142Y-106784819D02*
X113373809Y-106308628D01*
X113135714Y-106784819D02*
X113135714Y-105784819D01*
X113135714Y-105784819D02*
X113516666Y-105784819D01*
X113516666Y-105784819D02*
X113611904Y-105832438D01*
X113611904Y-105832438D02*
X113659523Y-105880057D01*
X113659523Y-105880057D02*
X113707142Y-105975295D01*
X113707142Y-105975295D02*
X113707142Y-106118152D01*
X113707142Y-106118152D02*
X113659523Y-106213390D01*
X113659523Y-106213390D02*
X113611904Y-106261009D01*
X113611904Y-106261009D02*
X113516666Y-106308628D01*
X113516666Y-106308628D02*
X113135714Y-106308628D01*
X114659523Y-106784819D02*
X114088095Y-106784819D01*
X114373809Y-106784819D02*
X114373809Y-105784819D01*
X114373809Y-105784819D02*
X114278571Y-105927676D01*
X114278571Y-105927676D02*
X114183333Y-106022914D01*
X114183333Y-106022914D02*
X114088095Y-106070533D01*
X114992857Y-105784819D02*
X115611904Y-105784819D01*
X115611904Y-105784819D02*
X115278571Y-106165771D01*
X115278571Y-106165771D02*
X115421428Y-106165771D01*
X115421428Y-106165771D02*
X115516666Y-106213390D01*
X115516666Y-106213390D02*
X115564285Y-106261009D01*
X115564285Y-106261009D02*
X115611904Y-106356247D01*
X115611904Y-106356247D02*
X115611904Y-106594342D01*
X115611904Y-106594342D02*
X115564285Y-106689580D01*
X115564285Y-106689580D02*
X115516666Y-106737200D01*
X115516666Y-106737200D02*
X115421428Y-106784819D01*
X115421428Y-106784819D02*
X115135714Y-106784819D01*
X115135714Y-106784819D02*
X115040476Y-106737200D01*
X115040476Y-106737200D02*
X114992857Y-106689580D01*
X123633333Y-131709580D02*
X123585714Y-131757200D01*
X123585714Y-131757200D02*
X123442857Y-131804819D01*
X123442857Y-131804819D02*
X123347619Y-131804819D01*
X123347619Y-131804819D02*
X123204762Y-131757200D01*
X123204762Y-131757200D02*
X123109524Y-131661961D01*
X123109524Y-131661961D02*
X123061905Y-131566723D01*
X123061905Y-131566723D02*
X123014286Y-131376247D01*
X123014286Y-131376247D02*
X123014286Y-131233390D01*
X123014286Y-131233390D02*
X123061905Y-131042914D01*
X123061905Y-131042914D02*
X123109524Y-130947676D01*
X123109524Y-130947676D02*
X123204762Y-130852438D01*
X123204762Y-130852438D02*
X123347619Y-130804819D01*
X123347619Y-130804819D02*
X123442857Y-130804819D01*
X123442857Y-130804819D02*
X123585714Y-130852438D01*
X123585714Y-130852438D02*
X123633333Y-130900057D01*
X124014286Y-130900057D02*
X124061905Y-130852438D01*
X124061905Y-130852438D02*
X124157143Y-130804819D01*
X124157143Y-130804819D02*
X124395238Y-130804819D01*
X124395238Y-130804819D02*
X124490476Y-130852438D01*
X124490476Y-130852438D02*
X124538095Y-130900057D01*
X124538095Y-130900057D02*
X124585714Y-130995295D01*
X124585714Y-130995295D02*
X124585714Y-131090533D01*
X124585714Y-131090533D02*
X124538095Y-131233390D01*
X124538095Y-131233390D02*
X123966667Y-131804819D01*
X123966667Y-131804819D02*
X124585714Y-131804819D01*
X106254819Y-102842857D02*
X105778628Y-103176190D01*
X106254819Y-103414285D02*
X105254819Y-103414285D01*
X105254819Y-103414285D02*
X105254819Y-103033333D01*
X105254819Y-103033333D02*
X105302438Y-102938095D01*
X105302438Y-102938095D02*
X105350057Y-102890476D01*
X105350057Y-102890476D02*
X105445295Y-102842857D01*
X105445295Y-102842857D02*
X105588152Y-102842857D01*
X105588152Y-102842857D02*
X105683390Y-102890476D01*
X105683390Y-102890476D02*
X105731009Y-102938095D01*
X105731009Y-102938095D02*
X105778628Y-103033333D01*
X105778628Y-103033333D02*
X105778628Y-103414285D01*
X106254819Y-101890476D02*
X106254819Y-102461904D01*
X106254819Y-102176190D02*
X105254819Y-102176190D01*
X105254819Y-102176190D02*
X105397676Y-102271428D01*
X105397676Y-102271428D02*
X105492914Y-102366666D01*
X105492914Y-102366666D02*
X105540533Y-102461904D01*
X105254819Y-101557142D02*
X105254819Y-100890476D01*
X105254819Y-100890476D02*
X106254819Y-101319047D01*
X97038095Y-124354819D02*
X97038095Y-125164342D01*
X97038095Y-125164342D02*
X97085714Y-125259580D01*
X97085714Y-125259580D02*
X97133333Y-125307200D01*
X97133333Y-125307200D02*
X97228571Y-125354819D01*
X97228571Y-125354819D02*
X97419047Y-125354819D01*
X97419047Y-125354819D02*
X97514285Y-125307200D01*
X97514285Y-125307200D02*
X97561904Y-125259580D01*
X97561904Y-125259580D02*
X97609523Y-125164342D01*
X97609523Y-125164342D02*
X97609523Y-124354819D01*
X98133333Y-125354819D02*
X98323809Y-125354819D01*
X98323809Y-125354819D02*
X98419047Y-125307200D01*
X98419047Y-125307200D02*
X98466666Y-125259580D01*
X98466666Y-125259580D02*
X98561904Y-125116723D01*
X98561904Y-125116723D02*
X98609523Y-124926247D01*
X98609523Y-124926247D02*
X98609523Y-124545295D01*
X98609523Y-124545295D02*
X98561904Y-124450057D01*
X98561904Y-124450057D02*
X98514285Y-124402438D01*
X98514285Y-124402438D02*
X98419047Y-124354819D01*
X98419047Y-124354819D02*
X98228571Y-124354819D01*
X98228571Y-124354819D02*
X98133333Y-124402438D01*
X98133333Y-124402438D02*
X98085714Y-124450057D01*
X98085714Y-124450057D02*
X98038095Y-124545295D01*
X98038095Y-124545295D02*
X98038095Y-124783390D01*
X98038095Y-124783390D02*
X98085714Y-124878628D01*
X98085714Y-124878628D02*
X98133333Y-124926247D01*
X98133333Y-124926247D02*
X98228571Y-124973866D01*
X98228571Y-124973866D02*
X98419047Y-124973866D01*
X98419047Y-124973866D02*
X98514285Y-124926247D01*
X98514285Y-124926247D02*
X98561904Y-124878628D01*
X98561904Y-124878628D02*
X98609523Y-124783390D01*
X132004819Y-131898094D02*
X131004819Y-131898094D01*
X131004819Y-131898094D02*
X131004819Y-131659999D01*
X131004819Y-131659999D02*
X131052438Y-131517142D01*
X131052438Y-131517142D02*
X131147676Y-131421904D01*
X131147676Y-131421904D02*
X131242914Y-131374285D01*
X131242914Y-131374285D02*
X131433390Y-131326666D01*
X131433390Y-131326666D02*
X131576247Y-131326666D01*
X131576247Y-131326666D02*
X131766723Y-131374285D01*
X131766723Y-131374285D02*
X131861961Y-131421904D01*
X131861961Y-131421904D02*
X131957200Y-131517142D01*
X131957200Y-131517142D02*
X132004819Y-131659999D01*
X132004819Y-131659999D02*
X132004819Y-131898094D01*
X131004819Y-130993332D02*
X131004819Y-130326666D01*
X131004819Y-130326666D02*
X132004819Y-130755237D01*
X120287142Y-112834819D02*
X119953809Y-112358628D01*
X119715714Y-112834819D02*
X119715714Y-111834819D01*
X119715714Y-111834819D02*
X120096666Y-111834819D01*
X120096666Y-111834819D02*
X120191904Y-111882438D01*
X120191904Y-111882438D02*
X120239523Y-111930057D01*
X120239523Y-111930057D02*
X120287142Y-112025295D01*
X120287142Y-112025295D02*
X120287142Y-112168152D01*
X120287142Y-112168152D02*
X120239523Y-112263390D01*
X120239523Y-112263390D02*
X120191904Y-112311009D01*
X120191904Y-112311009D02*
X120096666Y-112358628D01*
X120096666Y-112358628D02*
X119715714Y-112358628D01*
X121239523Y-112834819D02*
X120668095Y-112834819D01*
X120953809Y-112834819D02*
X120953809Y-111834819D01*
X120953809Y-111834819D02*
X120858571Y-111977676D01*
X120858571Y-111977676D02*
X120763333Y-112072914D01*
X120763333Y-112072914D02*
X120668095Y-112120533D01*
X121620476Y-111930057D02*
X121668095Y-111882438D01*
X121668095Y-111882438D02*
X121763333Y-111834819D01*
X121763333Y-111834819D02*
X122001428Y-111834819D01*
X122001428Y-111834819D02*
X122096666Y-111882438D01*
X122096666Y-111882438D02*
X122144285Y-111930057D01*
X122144285Y-111930057D02*
X122191904Y-112025295D01*
X122191904Y-112025295D02*
X122191904Y-112120533D01*
X122191904Y-112120533D02*
X122144285Y-112263390D01*
X122144285Y-112263390D02*
X121572857Y-112834819D01*
X121572857Y-112834819D02*
X122191904Y-112834819D01*
X109167142Y-129234819D02*
X108833809Y-128758628D01*
X108595714Y-129234819D02*
X108595714Y-128234819D01*
X108595714Y-128234819D02*
X108976666Y-128234819D01*
X108976666Y-128234819D02*
X109071904Y-128282438D01*
X109071904Y-128282438D02*
X109119523Y-128330057D01*
X109119523Y-128330057D02*
X109167142Y-128425295D01*
X109167142Y-128425295D02*
X109167142Y-128568152D01*
X109167142Y-128568152D02*
X109119523Y-128663390D01*
X109119523Y-128663390D02*
X109071904Y-128711009D01*
X109071904Y-128711009D02*
X108976666Y-128758628D01*
X108976666Y-128758628D02*
X108595714Y-128758628D01*
X109500476Y-128234819D02*
X110119523Y-128234819D01*
X110119523Y-128234819D02*
X109786190Y-128615771D01*
X109786190Y-128615771D02*
X109929047Y-128615771D01*
X109929047Y-128615771D02*
X110024285Y-128663390D01*
X110024285Y-128663390D02*
X110071904Y-128711009D01*
X110071904Y-128711009D02*
X110119523Y-128806247D01*
X110119523Y-128806247D02*
X110119523Y-129044342D01*
X110119523Y-129044342D02*
X110071904Y-129139580D01*
X110071904Y-129139580D02*
X110024285Y-129187200D01*
X110024285Y-129187200D02*
X109929047Y-129234819D01*
X109929047Y-129234819D02*
X109643333Y-129234819D01*
X109643333Y-129234819D02*
X109548095Y-129187200D01*
X109548095Y-129187200D02*
X109500476Y-129139580D01*
X110452857Y-128234819D02*
X111071904Y-128234819D01*
X111071904Y-128234819D02*
X110738571Y-128615771D01*
X110738571Y-128615771D02*
X110881428Y-128615771D01*
X110881428Y-128615771D02*
X110976666Y-128663390D01*
X110976666Y-128663390D02*
X111024285Y-128711009D01*
X111024285Y-128711009D02*
X111071904Y-128806247D01*
X111071904Y-128806247D02*
X111071904Y-129044342D01*
X111071904Y-129044342D02*
X111024285Y-129139580D01*
X111024285Y-129139580D02*
X110976666Y-129187200D01*
X110976666Y-129187200D02*
X110881428Y-129234819D01*
X110881428Y-129234819D02*
X110595714Y-129234819D01*
X110595714Y-129234819D02*
X110500476Y-129187200D01*
X110500476Y-129187200D02*
X110452857Y-129139580D01*
X95704819Y-102642857D02*
X95228628Y-102976190D01*
X95704819Y-103214285D02*
X94704819Y-103214285D01*
X94704819Y-103214285D02*
X94704819Y-102833333D01*
X94704819Y-102833333D02*
X94752438Y-102738095D01*
X94752438Y-102738095D02*
X94800057Y-102690476D01*
X94800057Y-102690476D02*
X94895295Y-102642857D01*
X94895295Y-102642857D02*
X95038152Y-102642857D01*
X95038152Y-102642857D02*
X95133390Y-102690476D01*
X95133390Y-102690476D02*
X95181009Y-102738095D01*
X95181009Y-102738095D02*
X95228628Y-102833333D01*
X95228628Y-102833333D02*
X95228628Y-103214285D01*
X94800057Y-102261904D02*
X94752438Y-102214285D01*
X94752438Y-102214285D02*
X94704819Y-102119047D01*
X94704819Y-102119047D02*
X94704819Y-101880952D01*
X94704819Y-101880952D02*
X94752438Y-101785714D01*
X94752438Y-101785714D02*
X94800057Y-101738095D01*
X94800057Y-101738095D02*
X94895295Y-101690476D01*
X94895295Y-101690476D02*
X94990533Y-101690476D01*
X94990533Y-101690476D02*
X95133390Y-101738095D01*
X95133390Y-101738095D02*
X95704819Y-102309523D01*
X95704819Y-102309523D02*
X95704819Y-101690476D01*
X94704819Y-100785714D02*
X94704819Y-101261904D01*
X94704819Y-101261904D02*
X95181009Y-101309523D01*
X95181009Y-101309523D02*
X95133390Y-101261904D01*
X95133390Y-101261904D02*
X95085771Y-101166666D01*
X95085771Y-101166666D02*
X95085771Y-100928571D01*
X95085771Y-100928571D02*
X95133390Y-100833333D01*
X95133390Y-100833333D02*
X95181009Y-100785714D01*
X95181009Y-100785714D02*
X95276247Y-100738095D01*
X95276247Y-100738095D02*
X95514342Y-100738095D01*
X95514342Y-100738095D02*
X95609580Y-100785714D01*
X95609580Y-100785714D02*
X95657200Y-100833333D01*
X95657200Y-100833333D02*
X95704819Y-100928571D01*
X95704819Y-100928571D02*
X95704819Y-101166666D01*
X95704819Y-101166666D02*
X95657200Y-101261904D01*
X95657200Y-101261904D02*
X95609580Y-101309523D01*
X128904819Y-127842857D02*
X128428628Y-128176190D01*
X128904819Y-128414285D02*
X127904819Y-128414285D01*
X127904819Y-128414285D02*
X127904819Y-128033333D01*
X127904819Y-128033333D02*
X127952438Y-127938095D01*
X127952438Y-127938095D02*
X128000057Y-127890476D01*
X128000057Y-127890476D02*
X128095295Y-127842857D01*
X128095295Y-127842857D02*
X128238152Y-127842857D01*
X128238152Y-127842857D02*
X128333390Y-127890476D01*
X128333390Y-127890476D02*
X128381009Y-127938095D01*
X128381009Y-127938095D02*
X128428628Y-128033333D01*
X128428628Y-128033333D02*
X128428628Y-128414285D01*
X127904819Y-127509523D02*
X127904819Y-126890476D01*
X127904819Y-126890476D02*
X128285771Y-127223809D01*
X128285771Y-127223809D02*
X128285771Y-127080952D01*
X128285771Y-127080952D02*
X128333390Y-126985714D01*
X128333390Y-126985714D02*
X128381009Y-126938095D01*
X128381009Y-126938095D02*
X128476247Y-126890476D01*
X128476247Y-126890476D02*
X128714342Y-126890476D01*
X128714342Y-126890476D02*
X128809580Y-126938095D01*
X128809580Y-126938095D02*
X128857200Y-126985714D01*
X128857200Y-126985714D02*
X128904819Y-127080952D01*
X128904819Y-127080952D02*
X128904819Y-127366666D01*
X128904819Y-127366666D02*
X128857200Y-127461904D01*
X128857200Y-127461904D02*
X128809580Y-127509523D01*
X127904819Y-126271428D02*
X127904819Y-126176190D01*
X127904819Y-126176190D02*
X127952438Y-126080952D01*
X127952438Y-126080952D02*
X128000057Y-126033333D01*
X128000057Y-126033333D02*
X128095295Y-125985714D01*
X128095295Y-125985714D02*
X128285771Y-125938095D01*
X128285771Y-125938095D02*
X128523866Y-125938095D01*
X128523866Y-125938095D02*
X128714342Y-125985714D01*
X128714342Y-125985714D02*
X128809580Y-126033333D01*
X128809580Y-126033333D02*
X128857200Y-126080952D01*
X128857200Y-126080952D02*
X128904819Y-126176190D01*
X128904819Y-126176190D02*
X128904819Y-126271428D01*
X128904819Y-126271428D02*
X128857200Y-126366666D01*
X128857200Y-126366666D02*
X128809580Y-126414285D01*
X128809580Y-126414285D02*
X128714342Y-126461904D01*
X128714342Y-126461904D02*
X128523866Y-126509523D01*
X128523866Y-126509523D02*
X128285771Y-126509523D01*
X128285771Y-126509523D02*
X128095295Y-126461904D01*
X128095295Y-126461904D02*
X128000057Y-126414285D01*
X128000057Y-126414285D02*
X127952438Y-126366666D01*
X127952438Y-126366666D02*
X127904819Y-126271428D01*
X117104819Y-114382857D02*
X116628628Y-114716190D01*
X117104819Y-114954285D02*
X116104819Y-114954285D01*
X116104819Y-114954285D02*
X116104819Y-114573333D01*
X116104819Y-114573333D02*
X116152438Y-114478095D01*
X116152438Y-114478095D02*
X116200057Y-114430476D01*
X116200057Y-114430476D02*
X116295295Y-114382857D01*
X116295295Y-114382857D02*
X116438152Y-114382857D01*
X116438152Y-114382857D02*
X116533390Y-114430476D01*
X116533390Y-114430476D02*
X116581009Y-114478095D01*
X116581009Y-114478095D02*
X116628628Y-114573333D01*
X116628628Y-114573333D02*
X116628628Y-114954285D01*
X116200057Y-114001904D02*
X116152438Y-113954285D01*
X116152438Y-113954285D02*
X116104819Y-113859047D01*
X116104819Y-113859047D02*
X116104819Y-113620952D01*
X116104819Y-113620952D02*
X116152438Y-113525714D01*
X116152438Y-113525714D02*
X116200057Y-113478095D01*
X116200057Y-113478095D02*
X116295295Y-113430476D01*
X116295295Y-113430476D02*
X116390533Y-113430476D01*
X116390533Y-113430476D02*
X116533390Y-113478095D01*
X116533390Y-113478095D02*
X117104819Y-114049523D01*
X117104819Y-114049523D02*
X117104819Y-113430476D01*
X116104819Y-113097142D02*
X116104819Y-112478095D01*
X116104819Y-112478095D02*
X116485771Y-112811428D01*
X116485771Y-112811428D02*
X116485771Y-112668571D01*
X116485771Y-112668571D02*
X116533390Y-112573333D01*
X116533390Y-112573333D02*
X116581009Y-112525714D01*
X116581009Y-112525714D02*
X116676247Y-112478095D01*
X116676247Y-112478095D02*
X116914342Y-112478095D01*
X116914342Y-112478095D02*
X117009580Y-112525714D01*
X117009580Y-112525714D02*
X117057200Y-112573333D01*
X117057200Y-112573333D02*
X117104819Y-112668571D01*
X117104819Y-112668571D02*
X117104819Y-112954285D01*
X117104819Y-112954285D02*
X117057200Y-113049523D01*
X117057200Y-113049523D02*
X117009580Y-113097142D01*
X83968095Y-128974819D02*
X83968095Y-127974819D01*
X83968095Y-128451009D02*
X84539523Y-128451009D01*
X84539523Y-128974819D02*
X84539523Y-127974819D01*
X85444285Y-128308152D02*
X85444285Y-128974819D01*
X85206190Y-127927200D02*
X84968095Y-128641485D01*
X84968095Y-128641485D02*
X85587142Y-128641485D01*
X125449819Y-102712857D02*
X124973628Y-103046190D01*
X125449819Y-103284285D02*
X124449819Y-103284285D01*
X124449819Y-103284285D02*
X124449819Y-102903333D01*
X124449819Y-102903333D02*
X124497438Y-102808095D01*
X124497438Y-102808095D02*
X124545057Y-102760476D01*
X124545057Y-102760476D02*
X124640295Y-102712857D01*
X124640295Y-102712857D02*
X124783152Y-102712857D01*
X124783152Y-102712857D02*
X124878390Y-102760476D01*
X124878390Y-102760476D02*
X124926009Y-102808095D01*
X124926009Y-102808095D02*
X124973628Y-102903333D01*
X124973628Y-102903333D02*
X124973628Y-103284285D01*
X124545057Y-102331904D02*
X124497438Y-102284285D01*
X124497438Y-102284285D02*
X124449819Y-102189047D01*
X124449819Y-102189047D02*
X124449819Y-101950952D01*
X124449819Y-101950952D02*
X124497438Y-101855714D01*
X124497438Y-101855714D02*
X124545057Y-101808095D01*
X124545057Y-101808095D02*
X124640295Y-101760476D01*
X124640295Y-101760476D02*
X124735533Y-101760476D01*
X124735533Y-101760476D02*
X124878390Y-101808095D01*
X124878390Y-101808095D02*
X125449819Y-102379523D01*
X125449819Y-102379523D02*
X125449819Y-101760476D01*
X124449819Y-101427142D02*
X124449819Y-100760476D01*
X124449819Y-100760476D02*
X125449819Y-101189047D01*
X91583333Y-107497080D02*
X91535714Y-107544700D01*
X91535714Y-107544700D02*
X91392857Y-107592319D01*
X91392857Y-107592319D02*
X91297619Y-107592319D01*
X91297619Y-107592319D02*
X91154762Y-107544700D01*
X91154762Y-107544700D02*
X91059524Y-107449461D01*
X91059524Y-107449461D02*
X91011905Y-107354223D01*
X91011905Y-107354223D02*
X90964286Y-107163747D01*
X90964286Y-107163747D02*
X90964286Y-107020890D01*
X90964286Y-107020890D02*
X91011905Y-106830414D01*
X91011905Y-106830414D02*
X91059524Y-106735176D01*
X91059524Y-106735176D02*
X91154762Y-106639938D01*
X91154762Y-106639938D02*
X91297619Y-106592319D01*
X91297619Y-106592319D02*
X91392857Y-106592319D01*
X91392857Y-106592319D02*
X91535714Y-106639938D01*
X91535714Y-106639938D02*
X91583333Y-106687557D01*
X92154762Y-107020890D02*
X92059524Y-106973271D01*
X92059524Y-106973271D02*
X92011905Y-106925652D01*
X92011905Y-106925652D02*
X91964286Y-106830414D01*
X91964286Y-106830414D02*
X91964286Y-106782795D01*
X91964286Y-106782795D02*
X92011905Y-106687557D01*
X92011905Y-106687557D02*
X92059524Y-106639938D01*
X92059524Y-106639938D02*
X92154762Y-106592319D01*
X92154762Y-106592319D02*
X92345238Y-106592319D01*
X92345238Y-106592319D02*
X92440476Y-106639938D01*
X92440476Y-106639938D02*
X92488095Y-106687557D01*
X92488095Y-106687557D02*
X92535714Y-106782795D01*
X92535714Y-106782795D02*
X92535714Y-106830414D01*
X92535714Y-106830414D02*
X92488095Y-106925652D01*
X92488095Y-106925652D02*
X92440476Y-106973271D01*
X92440476Y-106973271D02*
X92345238Y-107020890D01*
X92345238Y-107020890D02*
X92154762Y-107020890D01*
X92154762Y-107020890D02*
X92059524Y-107068509D01*
X92059524Y-107068509D02*
X92011905Y-107116128D01*
X92011905Y-107116128D02*
X91964286Y-107211366D01*
X91964286Y-107211366D02*
X91964286Y-107401842D01*
X91964286Y-107401842D02*
X92011905Y-107497080D01*
X92011905Y-107497080D02*
X92059524Y-107544700D01*
X92059524Y-107544700D02*
X92154762Y-107592319D01*
X92154762Y-107592319D02*
X92345238Y-107592319D01*
X92345238Y-107592319D02*
X92440476Y-107544700D01*
X92440476Y-107544700D02*
X92488095Y-107497080D01*
X92488095Y-107497080D02*
X92535714Y-107401842D01*
X92535714Y-107401842D02*
X92535714Y-107211366D01*
X92535714Y-107211366D02*
X92488095Y-107116128D01*
X92488095Y-107116128D02*
X92440476Y-107068509D01*
X92440476Y-107068509D02*
X92345238Y-107020890D01*
D10*
X92933333Y-118507419D02*
X92457143Y-118507419D01*
X92457143Y-118507419D02*
X92457143Y-117507419D01*
X93219048Y-117602657D02*
X93266667Y-117555038D01*
X93266667Y-117555038D02*
X93361905Y-117507419D01*
X93361905Y-117507419D02*
X93600000Y-117507419D01*
X93600000Y-117507419D02*
X93695238Y-117555038D01*
X93695238Y-117555038D02*
X93742857Y-117602657D01*
X93742857Y-117602657D02*
X93790476Y-117697895D01*
X93790476Y-117697895D02*
X93790476Y-117793133D01*
X93790476Y-117793133D02*
X93742857Y-117935990D01*
X93742857Y-117935990D02*
X93171429Y-118507419D01*
X93171429Y-118507419D02*
X93790476Y-118507419D01*
D11*
X79638095Y-125704819D02*
X80209523Y-125704819D01*
X79923809Y-126704819D02*
X79923809Y-125704819D01*
X80542857Y-126704819D02*
X80542857Y-125704819D01*
X80542857Y-125704819D02*
X80923809Y-125704819D01*
X80923809Y-125704819D02*
X81019047Y-125752438D01*
X81019047Y-125752438D02*
X81066666Y-125800057D01*
X81066666Y-125800057D02*
X81114285Y-125895295D01*
X81114285Y-125895295D02*
X81114285Y-126038152D01*
X81114285Y-126038152D02*
X81066666Y-126133390D01*
X81066666Y-126133390D02*
X81019047Y-126181009D01*
X81019047Y-126181009D02*
X80923809Y-126228628D01*
X80923809Y-126228628D02*
X80542857Y-126228628D01*
X81495238Y-125800057D02*
X81542857Y-125752438D01*
X81542857Y-125752438D02*
X81638095Y-125704819D01*
X81638095Y-125704819D02*
X81876190Y-125704819D01*
X81876190Y-125704819D02*
X81971428Y-125752438D01*
X81971428Y-125752438D02*
X82019047Y-125800057D01*
X82019047Y-125800057D02*
X82066666Y-125895295D01*
X82066666Y-125895295D02*
X82066666Y-125990533D01*
X82066666Y-125990533D02*
X82019047Y-126133390D01*
X82019047Y-126133390D02*
X81447619Y-126704819D01*
X81447619Y-126704819D02*
X82066666Y-126704819D01*
X142904761Y-122650057D02*
X142809523Y-122602438D01*
X142809523Y-122602438D02*
X142714285Y-122507200D01*
X142714285Y-122507200D02*
X142571428Y-122364342D01*
X142571428Y-122364342D02*
X142476190Y-122316723D01*
X142476190Y-122316723D02*
X142380952Y-122316723D01*
X142428571Y-122554819D02*
X142333333Y-122507200D01*
X142333333Y-122507200D02*
X142238095Y-122411961D01*
X142238095Y-122411961D02*
X142190476Y-122221485D01*
X142190476Y-122221485D02*
X142190476Y-121888152D01*
X142190476Y-121888152D02*
X142238095Y-121697676D01*
X142238095Y-121697676D02*
X142333333Y-121602438D01*
X142333333Y-121602438D02*
X142428571Y-121554819D01*
X142428571Y-121554819D02*
X142619047Y-121554819D01*
X142619047Y-121554819D02*
X142714285Y-121602438D01*
X142714285Y-121602438D02*
X142809523Y-121697676D01*
X142809523Y-121697676D02*
X142857142Y-121888152D01*
X142857142Y-121888152D02*
X142857142Y-122221485D01*
X142857142Y-122221485D02*
X142809523Y-122411961D01*
X142809523Y-122411961D02*
X142714285Y-122507200D01*
X142714285Y-122507200D02*
X142619047Y-122554819D01*
X142619047Y-122554819D02*
X142428571Y-122554819D01*
X143809523Y-122554819D02*
X143238095Y-122554819D01*
X143523809Y-122554819D02*
X143523809Y-121554819D01*
X143523809Y-121554819D02*
X143428571Y-121697676D01*
X143428571Y-121697676D02*
X143333333Y-121792914D01*
X143333333Y-121792914D02*
X143238095Y-121840533D01*
X128904819Y-125072857D02*
X128428628Y-125406190D01*
X128904819Y-125644285D02*
X127904819Y-125644285D01*
X127904819Y-125644285D02*
X127904819Y-125263333D01*
X127904819Y-125263333D02*
X127952438Y-125168095D01*
X127952438Y-125168095D02*
X128000057Y-125120476D01*
X128000057Y-125120476D02*
X128095295Y-125072857D01*
X128095295Y-125072857D02*
X128238152Y-125072857D01*
X128238152Y-125072857D02*
X128333390Y-125120476D01*
X128333390Y-125120476D02*
X128381009Y-125168095D01*
X128381009Y-125168095D02*
X128428628Y-125263333D01*
X128428628Y-125263333D02*
X128428628Y-125644285D01*
X128000057Y-124691904D02*
X127952438Y-124644285D01*
X127952438Y-124644285D02*
X127904819Y-124549047D01*
X127904819Y-124549047D02*
X127904819Y-124310952D01*
X127904819Y-124310952D02*
X127952438Y-124215714D01*
X127952438Y-124215714D02*
X128000057Y-124168095D01*
X128000057Y-124168095D02*
X128095295Y-124120476D01*
X128095295Y-124120476D02*
X128190533Y-124120476D01*
X128190533Y-124120476D02*
X128333390Y-124168095D01*
X128333390Y-124168095D02*
X128904819Y-124739523D01*
X128904819Y-124739523D02*
X128904819Y-124120476D01*
X128904819Y-123644285D02*
X128904819Y-123453809D01*
X128904819Y-123453809D02*
X128857200Y-123358571D01*
X128857200Y-123358571D02*
X128809580Y-123310952D01*
X128809580Y-123310952D02*
X128666723Y-123215714D01*
X128666723Y-123215714D02*
X128476247Y-123168095D01*
X128476247Y-123168095D02*
X128095295Y-123168095D01*
X128095295Y-123168095D02*
X128000057Y-123215714D01*
X128000057Y-123215714D02*
X127952438Y-123263333D01*
X127952438Y-123263333D02*
X127904819Y-123358571D01*
X127904819Y-123358571D02*
X127904819Y-123549047D01*
X127904819Y-123549047D02*
X127952438Y-123644285D01*
X127952438Y-123644285D02*
X128000057Y-123691904D01*
X128000057Y-123691904D02*
X128095295Y-123739523D01*
X128095295Y-123739523D02*
X128333390Y-123739523D01*
X128333390Y-123739523D02*
X128428628Y-123691904D01*
X128428628Y-123691904D02*
X128476247Y-123644285D01*
X128476247Y-123644285D02*
X128523866Y-123549047D01*
X128523866Y-123549047D02*
X128523866Y-123358571D01*
X128523866Y-123358571D02*
X128476247Y-123263333D01*
X128476247Y-123263333D02*
X128428628Y-123215714D01*
X128428628Y-123215714D02*
X128333390Y-123168095D01*
X83254819Y-119242857D02*
X82778628Y-119576190D01*
X83254819Y-119814285D02*
X82254819Y-119814285D01*
X82254819Y-119814285D02*
X82254819Y-119433333D01*
X82254819Y-119433333D02*
X82302438Y-119338095D01*
X82302438Y-119338095D02*
X82350057Y-119290476D01*
X82350057Y-119290476D02*
X82445295Y-119242857D01*
X82445295Y-119242857D02*
X82588152Y-119242857D01*
X82588152Y-119242857D02*
X82683390Y-119290476D01*
X82683390Y-119290476D02*
X82731009Y-119338095D01*
X82731009Y-119338095D02*
X82778628Y-119433333D01*
X82778628Y-119433333D02*
X82778628Y-119814285D01*
X83254819Y-118290476D02*
X83254819Y-118861904D01*
X83254819Y-118576190D02*
X82254819Y-118576190D01*
X82254819Y-118576190D02*
X82397676Y-118671428D01*
X82397676Y-118671428D02*
X82492914Y-118766666D01*
X82492914Y-118766666D02*
X82540533Y-118861904D01*
X82254819Y-117671428D02*
X82254819Y-117576190D01*
X82254819Y-117576190D02*
X82302438Y-117480952D01*
X82302438Y-117480952D02*
X82350057Y-117433333D01*
X82350057Y-117433333D02*
X82445295Y-117385714D01*
X82445295Y-117385714D02*
X82635771Y-117338095D01*
X82635771Y-117338095D02*
X82873866Y-117338095D01*
X82873866Y-117338095D02*
X83064342Y-117385714D01*
X83064342Y-117385714D02*
X83159580Y-117433333D01*
X83159580Y-117433333D02*
X83207200Y-117480952D01*
X83207200Y-117480952D02*
X83254819Y-117576190D01*
X83254819Y-117576190D02*
X83254819Y-117671428D01*
X83254819Y-117671428D02*
X83207200Y-117766666D01*
X83207200Y-117766666D02*
X83159580Y-117814285D01*
X83159580Y-117814285D02*
X83064342Y-117861904D01*
X83064342Y-117861904D02*
X82873866Y-117909523D01*
X82873866Y-117909523D02*
X82635771Y-117909523D01*
X82635771Y-117909523D02*
X82445295Y-117861904D01*
X82445295Y-117861904D02*
X82350057Y-117814285D01*
X82350057Y-117814285D02*
X82302438Y-117766666D01*
X82302438Y-117766666D02*
X82254819Y-117671428D01*
X93827142Y-125177080D02*
X93779523Y-125224700D01*
X93779523Y-125224700D02*
X93636666Y-125272319D01*
X93636666Y-125272319D02*
X93541428Y-125272319D01*
X93541428Y-125272319D02*
X93398571Y-125224700D01*
X93398571Y-125224700D02*
X93303333Y-125129461D01*
X93303333Y-125129461D02*
X93255714Y-125034223D01*
X93255714Y-125034223D02*
X93208095Y-124843747D01*
X93208095Y-124843747D02*
X93208095Y-124700890D01*
X93208095Y-124700890D02*
X93255714Y-124510414D01*
X93255714Y-124510414D02*
X93303333Y-124415176D01*
X93303333Y-124415176D02*
X93398571Y-124319938D01*
X93398571Y-124319938D02*
X93541428Y-124272319D01*
X93541428Y-124272319D02*
X93636666Y-124272319D01*
X93636666Y-124272319D02*
X93779523Y-124319938D01*
X93779523Y-124319938D02*
X93827142Y-124367557D01*
X94779523Y-125272319D02*
X94208095Y-125272319D01*
X94493809Y-125272319D02*
X94493809Y-124272319D01*
X94493809Y-124272319D02*
X94398571Y-124415176D01*
X94398571Y-124415176D02*
X94303333Y-124510414D01*
X94303333Y-124510414D02*
X94208095Y-124558033D01*
X95112857Y-124272319D02*
X95731904Y-124272319D01*
X95731904Y-124272319D02*
X95398571Y-124653271D01*
X95398571Y-124653271D02*
X95541428Y-124653271D01*
X95541428Y-124653271D02*
X95636666Y-124700890D01*
X95636666Y-124700890D02*
X95684285Y-124748509D01*
X95684285Y-124748509D02*
X95731904Y-124843747D01*
X95731904Y-124843747D02*
X95731904Y-125081842D01*
X95731904Y-125081842D02*
X95684285Y-125177080D01*
X95684285Y-125177080D02*
X95636666Y-125224700D01*
X95636666Y-125224700D02*
X95541428Y-125272319D01*
X95541428Y-125272319D02*
X95255714Y-125272319D01*
X95255714Y-125272319D02*
X95160476Y-125224700D01*
X95160476Y-125224700D02*
X95112857Y-125177080D01*
X109863333Y-123784819D02*
X109530000Y-123308628D01*
X109291905Y-123784819D02*
X109291905Y-122784819D01*
X109291905Y-122784819D02*
X109672857Y-122784819D01*
X109672857Y-122784819D02*
X109768095Y-122832438D01*
X109768095Y-122832438D02*
X109815714Y-122880057D01*
X109815714Y-122880057D02*
X109863333Y-122975295D01*
X109863333Y-122975295D02*
X109863333Y-123118152D01*
X109863333Y-123118152D02*
X109815714Y-123213390D01*
X109815714Y-123213390D02*
X109768095Y-123261009D01*
X109768095Y-123261009D02*
X109672857Y-123308628D01*
X109672857Y-123308628D02*
X109291905Y-123308628D01*
X110768095Y-122784819D02*
X110291905Y-122784819D01*
X110291905Y-122784819D02*
X110244286Y-123261009D01*
X110244286Y-123261009D02*
X110291905Y-123213390D01*
X110291905Y-123213390D02*
X110387143Y-123165771D01*
X110387143Y-123165771D02*
X110625238Y-123165771D01*
X110625238Y-123165771D02*
X110720476Y-123213390D01*
X110720476Y-123213390D02*
X110768095Y-123261009D01*
X110768095Y-123261009D02*
X110815714Y-123356247D01*
X110815714Y-123356247D02*
X110815714Y-123594342D01*
X110815714Y-123594342D02*
X110768095Y-123689580D01*
X110768095Y-123689580D02*
X110720476Y-123737200D01*
X110720476Y-123737200D02*
X110625238Y-123784819D01*
X110625238Y-123784819D02*
X110387143Y-123784819D01*
X110387143Y-123784819D02*
X110291905Y-123737200D01*
X110291905Y-123737200D02*
X110244286Y-123689580D01*
D10*
X92014285Y-142733609D02*
X92157142Y-142781228D01*
X92157142Y-142781228D02*
X92204761Y-142828847D01*
X92204761Y-142828847D02*
X92252380Y-142924085D01*
X92252380Y-142924085D02*
X92252380Y-143066942D01*
X92252380Y-143066942D02*
X92204761Y-143162180D01*
X92204761Y-143162180D02*
X92157142Y-143209800D01*
X92157142Y-143209800D02*
X92061904Y-143257419D01*
X92061904Y-143257419D02*
X91680952Y-143257419D01*
X91680952Y-143257419D02*
X91680952Y-142257419D01*
X91680952Y-142257419D02*
X92014285Y-142257419D01*
X92014285Y-142257419D02*
X92109523Y-142305038D01*
X92109523Y-142305038D02*
X92157142Y-142352657D01*
X92157142Y-142352657D02*
X92204761Y-142447895D01*
X92204761Y-142447895D02*
X92204761Y-142543133D01*
X92204761Y-142543133D02*
X92157142Y-142638371D01*
X92157142Y-142638371D02*
X92109523Y-142685990D01*
X92109523Y-142685990D02*
X92014285Y-142733609D01*
X92014285Y-142733609D02*
X91680952Y-142733609D01*
X92538095Y-142257419D02*
X93109523Y-142257419D01*
X92823809Y-143257419D02*
X92823809Y-142257419D01*
X93966666Y-143257419D02*
X93395238Y-143257419D01*
X93680952Y-143257419D02*
X93680952Y-142257419D01*
X93680952Y-142257419D02*
X93585714Y-142400276D01*
X93585714Y-142400276D02*
X93490476Y-142495514D01*
X93490476Y-142495514D02*
X93395238Y-142543133D01*
D11*
X112653333Y-123844819D02*
X112320000Y-123368628D01*
X112081905Y-123844819D02*
X112081905Y-122844819D01*
X112081905Y-122844819D02*
X112462857Y-122844819D01*
X112462857Y-122844819D02*
X112558095Y-122892438D01*
X112558095Y-122892438D02*
X112605714Y-122940057D01*
X112605714Y-122940057D02*
X112653333Y-123035295D01*
X112653333Y-123035295D02*
X112653333Y-123178152D01*
X112653333Y-123178152D02*
X112605714Y-123273390D01*
X112605714Y-123273390D02*
X112558095Y-123321009D01*
X112558095Y-123321009D02*
X112462857Y-123368628D01*
X112462857Y-123368628D02*
X112081905Y-123368628D01*
X112986667Y-122844819D02*
X113605714Y-122844819D01*
X113605714Y-122844819D02*
X113272381Y-123225771D01*
X113272381Y-123225771D02*
X113415238Y-123225771D01*
X113415238Y-123225771D02*
X113510476Y-123273390D01*
X113510476Y-123273390D02*
X113558095Y-123321009D01*
X113558095Y-123321009D02*
X113605714Y-123416247D01*
X113605714Y-123416247D02*
X113605714Y-123654342D01*
X113605714Y-123654342D02*
X113558095Y-123749580D01*
X113558095Y-123749580D02*
X113510476Y-123797200D01*
X113510476Y-123797200D02*
X113415238Y-123844819D01*
X113415238Y-123844819D02*
X113129524Y-123844819D01*
X113129524Y-123844819D02*
X113034286Y-123797200D01*
X113034286Y-123797200D02*
X112986667Y-123749580D01*
X130749819Y-102812857D02*
X130273628Y-103146190D01*
X130749819Y-103384285D02*
X129749819Y-103384285D01*
X129749819Y-103384285D02*
X129749819Y-103003333D01*
X129749819Y-103003333D02*
X129797438Y-102908095D01*
X129797438Y-102908095D02*
X129845057Y-102860476D01*
X129845057Y-102860476D02*
X129940295Y-102812857D01*
X129940295Y-102812857D02*
X130083152Y-102812857D01*
X130083152Y-102812857D02*
X130178390Y-102860476D01*
X130178390Y-102860476D02*
X130226009Y-102908095D01*
X130226009Y-102908095D02*
X130273628Y-103003333D01*
X130273628Y-103003333D02*
X130273628Y-103384285D01*
X130749819Y-101860476D02*
X130749819Y-102431904D01*
X130749819Y-102146190D02*
X129749819Y-102146190D01*
X129749819Y-102146190D02*
X129892676Y-102241428D01*
X129892676Y-102241428D02*
X129987914Y-102336666D01*
X129987914Y-102336666D02*
X130035533Y-102431904D01*
X129749819Y-101003333D02*
X129749819Y-101193809D01*
X129749819Y-101193809D02*
X129797438Y-101289047D01*
X129797438Y-101289047D02*
X129845057Y-101336666D01*
X129845057Y-101336666D02*
X129987914Y-101431904D01*
X129987914Y-101431904D02*
X130178390Y-101479523D01*
X130178390Y-101479523D02*
X130559342Y-101479523D01*
X130559342Y-101479523D02*
X130654580Y-101431904D01*
X130654580Y-101431904D02*
X130702200Y-101384285D01*
X130702200Y-101384285D02*
X130749819Y-101289047D01*
X130749819Y-101289047D02*
X130749819Y-101098571D01*
X130749819Y-101098571D02*
X130702200Y-101003333D01*
X130702200Y-101003333D02*
X130654580Y-100955714D01*
X130654580Y-100955714D02*
X130559342Y-100908095D01*
X130559342Y-100908095D02*
X130321247Y-100908095D01*
X130321247Y-100908095D02*
X130226009Y-100955714D01*
X130226009Y-100955714D02*
X130178390Y-101003333D01*
X130178390Y-101003333D02*
X130130771Y-101098571D01*
X130130771Y-101098571D02*
X130130771Y-101289047D01*
X130130771Y-101289047D02*
X130178390Y-101384285D01*
X130178390Y-101384285D02*
X130226009Y-101431904D01*
X130226009Y-101431904D02*
X130321247Y-101479523D01*
X136973333Y-130254819D02*
X136640000Y-129778628D01*
X136401905Y-130254819D02*
X136401905Y-129254819D01*
X136401905Y-129254819D02*
X136782857Y-129254819D01*
X136782857Y-129254819D02*
X136878095Y-129302438D01*
X136878095Y-129302438D02*
X136925714Y-129350057D01*
X136925714Y-129350057D02*
X136973333Y-129445295D01*
X136973333Y-129445295D02*
X136973333Y-129588152D01*
X136973333Y-129588152D02*
X136925714Y-129683390D01*
X136925714Y-129683390D02*
X136878095Y-129731009D01*
X136878095Y-129731009D02*
X136782857Y-129778628D01*
X136782857Y-129778628D02*
X136401905Y-129778628D01*
X137925714Y-130254819D02*
X137354286Y-130254819D01*
X137640000Y-130254819D02*
X137640000Y-129254819D01*
X137640000Y-129254819D02*
X137544762Y-129397676D01*
X137544762Y-129397676D02*
X137449524Y-129492914D01*
X137449524Y-129492914D02*
X137354286Y-129540533D01*
X136199819Y-102812857D02*
X135723628Y-103146190D01*
X136199819Y-103384285D02*
X135199819Y-103384285D01*
X135199819Y-103384285D02*
X135199819Y-103003333D01*
X135199819Y-103003333D02*
X135247438Y-102908095D01*
X135247438Y-102908095D02*
X135295057Y-102860476D01*
X135295057Y-102860476D02*
X135390295Y-102812857D01*
X135390295Y-102812857D02*
X135533152Y-102812857D01*
X135533152Y-102812857D02*
X135628390Y-102860476D01*
X135628390Y-102860476D02*
X135676009Y-102908095D01*
X135676009Y-102908095D02*
X135723628Y-103003333D01*
X135723628Y-103003333D02*
X135723628Y-103384285D01*
X135295057Y-102431904D02*
X135247438Y-102384285D01*
X135247438Y-102384285D02*
X135199819Y-102289047D01*
X135199819Y-102289047D02*
X135199819Y-102050952D01*
X135199819Y-102050952D02*
X135247438Y-101955714D01*
X135247438Y-101955714D02*
X135295057Y-101908095D01*
X135295057Y-101908095D02*
X135390295Y-101860476D01*
X135390295Y-101860476D02*
X135485533Y-101860476D01*
X135485533Y-101860476D02*
X135628390Y-101908095D01*
X135628390Y-101908095D02*
X136199819Y-102479523D01*
X136199819Y-102479523D02*
X136199819Y-101860476D01*
X135628390Y-101289047D02*
X135580771Y-101384285D01*
X135580771Y-101384285D02*
X135533152Y-101431904D01*
X135533152Y-101431904D02*
X135437914Y-101479523D01*
X135437914Y-101479523D02*
X135390295Y-101479523D01*
X135390295Y-101479523D02*
X135295057Y-101431904D01*
X135295057Y-101431904D02*
X135247438Y-101384285D01*
X135247438Y-101384285D02*
X135199819Y-101289047D01*
X135199819Y-101289047D02*
X135199819Y-101098571D01*
X135199819Y-101098571D02*
X135247438Y-101003333D01*
X135247438Y-101003333D02*
X135295057Y-100955714D01*
X135295057Y-100955714D02*
X135390295Y-100908095D01*
X135390295Y-100908095D02*
X135437914Y-100908095D01*
X135437914Y-100908095D02*
X135533152Y-100955714D01*
X135533152Y-100955714D02*
X135580771Y-101003333D01*
X135580771Y-101003333D02*
X135628390Y-101098571D01*
X135628390Y-101098571D02*
X135628390Y-101289047D01*
X135628390Y-101289047D02*
X135676009Y-101384285D01*
X135676009Y-101384285D02*
X135723628Y-101431904D01*
X135723628Y-101431904D02*
X135818866Y-101479523D01*
X135818866Y-101479523D02*
X136009342Y-101479523D01*
X136009342Y-101479523D02*
X136104580Y-101431904D01*
X136104580Y-101431904D02*
X136152200Y-101384285D01*
X136152200Y-101384285D02*
X136199819Y-101289047D01*
X136199819Y-101289047D02*
X136199819Y-101098571D01*
X136199819Y-101098571D02*
X136152200Y-101003333D01*
X136152200Y-101003333D02*
X136104580Y-100955714D01*
X136104580Y-100955714D02*
X136009342Y-100908095D01*
X136009342Y-100908095D02*
X135818866Y-100908095D01*
X135818866Y-100908095D02*
X135723628Y-100955714D01*
X135723628Y-100955714D02*
X135676009Y-101003333D01*
X135676009Y-101003333D02*
X135628390Y-101098571D01*
X127028333Y-107029580D02*
X126980714Y-107077200D01*
X126980714Y-107077200D02*
X126837857Y-107124819D01*
X126837857Y-107124819D02*
X126742619Y-107124819D01*
X126742619Y-107124819D02*
X126599762Y-107077200D01*
X126599762Y-107077200D02*
X126504524Y-106981961D01*
X126504524Y-106981961D02*
X126456905Y-106886723D01*
X126456905Y-106886723D02*
X126409286Y-106696247D01*
X126409286Y-106696247D02*
X126409286Y-106553390D01*
X126409286Y-106553390D02*
X126456905Y-106362914D01*
X126456905Y-106362914D02*
X126504524Y-106267676D01*
X126504524Y-106267676D02*
X126599762Y-106172438D01*
X126599762Y-106172438D02*
X126742619Y-106124819D01*
X126742619Y-106124819D02*
X126837857Y-106124819D01*
X126837857Y-106124819D02*
X126980714Y-106172438D01*
X126980714Y-106172438D02*
X127028333Y-106220057D01*
X127885476Y-106124819D02*
X127695000Y-106124819D01*
X127695000Y-106124819D02*
X127599762Y-106172438D01*
X127599762Y-106172438D02*
X127552143Y-106220057D01*
X127552143Y-106220057D02*
X127456905Y-106362914D01*
X127456905Y-106362914D02*
X127409286Y-106553390D01*
X127409286Y-106553390D02*
X127409286Y-106934342D01*
X127409286Y-106934342D02*
X127456905Y-107029580D01*
X127456905Y-107029580D02*
X127504524Y-107077200D01*
X127504524Y-107077200D02*
X127599762Y-107124819D01*
X127599762Y-107124819D02*
X127790238Y-107124819D01*
X127790238Y-107124819D02*
X127885476Y-107077200D01*
X127885476Y-107077200D02*
X127933095Y-107029580D01*
X127933095Y-107029580D02*
X127980714Y-106934342D01*
X127980714Y-106934342D02*
X127980714Y-106696247D01*
X127980714Y-106696247D02*
X127933095Y-106601009D01*
X127933095Y-106601009D02*
X127885476Y-106553390D01*
X127885476Y-106553390D02*
X127790238Y-106505771D01*
X127790238Y-106505771D02*
X127599762Y-106505771D01*
X127599762Y-106505771D02*
X127504524Y-106553390D01*
X127504524Y-106553390D02*
X127456905Y-106601009D01*
X127456905Y-106601009D02*
X127409286Y-106696247D01*
X100617142Y-124814580D02*
X100569523Y-124862200D01*
X100569523Y-124862200D02*
X100426666Y-124909819D01*
X100426666Y-124909819D02*
X100331428Y-124909819D01*
X100331428Y-124909819D02*
X100188571Y-124862200D01*
X100188571Y-124862200D02*
X100093333Y-124766961D01*
X100093333Y-124766961D02*
X100045714Y-124671723D01*
X100045714Y-124671723D02*
X99998095Y-124481247D01*
X99998095Y-124481247D02*
X99998095Y-124338390D01*
X99998095Y-124338390D02*
X100045714Y-124147914D01*
X100045714Y-124147914D02*
X100093333Y-124052676D01*
X100093333Y-124052676D02*
X100188571Y-123957438D01*
X100188571Y-123957438D02*
X100331428Y-123909819D01*
X100331428Y-123909819D02*
X100426666Y-123909819D01*
X100426666Y-123909819D02*
X100569523Y-123957438D01*
X100569523Y-123957438D02*
X100617142Y-124005057D01*
X101569523Y-124909819D02*
X100998095Y-124909819D01*
X101283809Y-124909819D02*
X101283809Y-123909819D01*
X101283809Y-123909819D02*
X101188571Y-124052676D01*
X101188571Y-124052676D02*
X101093333Y-124147914D01*
X101093333Y-124147914D02*
X100998095Y-124195533D01*
X102521904Y-124909819D02*
X101950476Y-124909819D01*
X102236190Y-124909819D02*
X102236190Y-123909819D01*
X102236190Y-123909819D02*
X102140952Y-124052676D01*
X102140952Y-124052676D02*
X102045714Y-124147914D01*
X102045714Y-124147914D02*
X101950476Y-124195533D01*
X110766666Y-115954819D02*
X110766666Y-116669104D01*
X110766666Y-116669104D02*
X110719047Y-116811961D01*
X110719047Y-116811961D02*
X110623809Y-116907200D01*
X110623809Y-116907200D02*
X110480952Y-116954819D01*
X110480952Y-116954819D02*
X110385714Y-116954819D01*
X111195238Y-116050057D02*
X111242857Y-116002438D01*
X111242857Y-116002438D02*
X111338095Y-115954819D01*
X111338095Y-115954819D02*
X111576190Y-115954819D01*
X111576190Y-115954819D02*
X111671428Y-116002438D01*
X111671428Y-116002438D02*
X111719047Y-116050057D01*
X111719047Y-116050057D02*
X111766666Y-116145295D01*
X111766666Y-116145295D02*
X111766666Y-116240533D01*
X111766666Y-116240533D02*
X111719047Y-116383390D01*
X111719047Y-116383390D02*
X111147619Y-116954819D01*
X111147619Y-116954819D02*
X111766666Y-116954819D01*
D10*
X103838095Y-131757419D02*
X103838095Y-132566942D01*
X103838095Y-132566942D02*
X103885714Y-132662180D01*
X103885714Y-132662180D02*
X103933333Y-132709800D01*
X103933333Y-132709800D02*
X104028571Y-132757419D01*
X104028571Y-132757419D02*
X104219047Y-132757419D01*
X104219047Y-132757419D02*
X104314285Y-132709800D01*
X104314285Y-132709800D02*
X104361904Y-132662180D01*
X104361904Y-132662180D02*
X104409523Y-132566942D01*
X104409523Y-132566942D02*
X104409523Y-131757419D01*
X104790476Y-131757419D02*
X105457142Y-131757419D01*
X105457142Y-131757419D02*
X105028571Y-132757419D01*
D11*
X144918095Y-129164819D02*
X144918095Y-128164819D01*
X144918095Y-128641009D02*
X145489523Y-128641009D01*
X145489523Y-129164819D02*
X145489523Y-128164819D01*
X145870476Y-128164819D02*
X146489523Y-128164819D01*
X146489523Y-128164819D02*
X146156190Y-128545771D01*
X146156190Y-128545771D02*
X146299047Y-128545771D01*
X146299047Y-128545771D02*
X146394285Y-128593390D01*
X146394285Y-128593390D02*
X146441904Y-128641009D01*
X146441904Y-128641009D02*
X146489523Y-128736247D01*
X146489523Y-128736247D02*
X146489523Y-128974342D01*
X146489523Y-128974342D02*
X146441904Y-129069580D01*
X146441904Y-129069580D02*
X146394285Y-129117200D01*
X146394285Y-129117200D02*
X146299047Y-129164819D01*
X146299047Y-129164819D02*
X146013333Y-129164819D01*
X146013333Y-129164819D02*
X145918095Y-129117200D01*
X145918095Y-129117200D02*
X145870476Y-129069580D01*
X141629580Y-128446666D02*
X141677200Y-128494285D01*
X141677200Y-128494285D02*
X141724819Y-128637142D01*
X141724819Y-128637142D02*
X141724819Y-128732380D01*
X141724819Y-128732380D02*
X141677200Y-128875237D01*
X141677200Y-128875237D02*
X141581961Y-128970475D01*
X141581961Y-128970475D02*
X141486723Y-129018094D01*
X141486723Y-129018094D02*
X141296247Y-129065713D01*
X141296247Y-129065713D02*
X141153390Y-129065713D01*
X141153390Y-129065713D02*
X140962914Y-129018094D01*
X140962914Y-129018094D02*
X140867676Y-128970475D01*
X140867676Y-128970475D02*
X140772438Y-128875237D01*
X140772438Y-128875237D02*
X140724819Y-128732380D01*
X140724819Y-128732380D02*
X140724819Y-128637142D01*
X140724819Y-128637142D02*
X140772438Y-128494285D01*
X140772438Y-128494285D02*
X140820057Y-128446666D01*
X141724819Y-127494285D02*
X141724819Y-128065713D01*
X141724819Y-127779999D02*
X140724819Y-127779999D01*
X140724819Y-127779999D02*
X140867676Y-127875237D01*
X140867676Y-127875237D02*
X140962914Y-127970475D01*
X140962914Y-127970475D02*
X141010533Y-128065713D01*
X113254819Y-102662857D02*
X112778628Y-102996190D01*
X113254819Y-103234285D02*
X112254819Y-103234285D01*
X112254819Y-103234285D02*
X112254819Y-102853333D01*
X112254819Y-102853333D02*
X112302438Y-102758095D01*
X112302438Y-102758095D02*
X112350057Y-102710476D01*
X112350057Y-102710476D02*
X112445295Y-102662857D01*
X112445295Y-102662857D02*
X112588152Y-102662857D01*
X112588152Y-102662857D02*
X112683390Y-102710476D01*
X112683390Y-102710476D02*
X112731009Y-102758095D01*
X112731009Y-102758095D02*
X112778628Y-102853333D01*
X112778628Y-102853333D02*
X112778628Y-103234285D01*
X112350057Y-102281904D02*
X112302438Y-102234285D01*
X112302438Y-102234285D02*
X112254819Y-102139047D01*
X112254819Y-102139047D02*
X112254819Y-101900952D01*
X112254819Y-101900952D02*
X112302438Y-101805714D01*
X112302438Y-101805714D02*
X112350057Y-101758095D01*
X112350057Y-101758095D02*
X112445295Y-101710476D01*
X112445295Y-101710476D02*
X112540533Y-101710476D01*
X112540533Y-101710476D02*
X112683390Y-101758095D01*
X112683390Y-101758095D02*
X113254819Y-102329523D01*
X113254819Y-102329523D02*
X113254819Y-101710476D01*
X112350057Y-101329523D02*
X112302438Y-101281904D01*
X112302438Y-101281904D02*
X112254819Y-101186666D01*
X112254819Y-101186666D02*
X112254819Y-100948571D01*
X112254819Y-100948571D02*
X112302438Y-100853333D01*
X112302438Y-100853333D02*
X112350057Y-100805714D01*
X112350057Y-100805714D02*
X112445295Y-100758095D01*
X112445295Y-100758095D02*
X112540533Y-100758095D01*
X112540533Y-100758095D02*
X112683390Y-100805714D01*
X112683390Y-100805714D02*
X113254819Y-101377142D01*
X113254819Y-101377142D02*
X113254819Y-100758095D01*
X84938095Y-100094819D02*
X84938095Y-99094819D01*
X84938095Y-99571009D02*
X85509523Y-99571009D01*
X85509523Y-100094819D02*
X85509523Y-99094819D01*
X85938095Y-99190057D02*
X85985714Y-99142438D01*
X85985714Y-99142438D02*
X86080952Y-99094819D01*
X86080952Y-99094819D02*
X86319047Y-99094819D01*
X86319047Y-99094819D02*
X86414285Y-99142438D01*
X86414285Y-99142438D02*
X86461904Y-99190057D01*
X86461904Y-99190057D02*
X86509523Y-99285295D01*
X86509523Y-99285295D02*
X86509523Y-99380533D01*
X86509523Y-99380533D02*
X86461904Y-99523390D01*
X86461904Y-99523390D02*
X85890476Y-100094819D01*
X85890476Y-100094819D02*
X86509523Y-100094819D01*
X117539580Y-131472857D02*
X117587200Y-131520476D01*
X117587200Y-131520476D02*
X117634819Y-131663333D01*
X117634819Y-131663333D02*
X117634819Y-131758571D01*
X117634819Y-131758571D02*
X117587200Y-131901428D01*
X117587200Y-131901428D02*
X117491961Y-131996666D01*
X117491961Y-131996666D02*
X117396723Y-132044285D01*
X117396723Y-132044285D02*
X117206247Y-132091904D01*
X117206247Y-132091904D02*
X117063390Y-132091904D01*
X117063390Y-132091904D02*
X116872914Y-132044285D01*
X116872914Y-132044285D02*
X116777676Y-131996666D01*
X116777676Y-131996666D02*
X116682438Y-131901428D01*
X116682438Y-131901428D02*
X116634819Y-131758571D01*
X116634819Y-131758571D02*
X116634819Y-131663333D01*
X116634819Y-131663333D02*
X116682438Y-131520476D01*
X116682438Y-131520476D02*
X116730057Y-131472857D01*
X117634819Y-130520476D02*
X117634819Y-131091904D01*
X117634819Y-130806190D02*
X116634819Y-130806190D01*
X116634819Y-130806190D02*
X116777676Y-130901428D01*
X116777676Y-130901428D02*
X116872914Y-130996666D01*
X116872914Y-130996666D02*
X116920533Y-131091904D01*
X116634819Y-129901428D02*
X116634819Y-129806190D01*
X116634819Y-129806190D02*
X116682438Y-129710952D01*
X116682438Y-129710952D02*
X116730057Y-129663333D01*
X116730057Y-129663333D02*
X116825295Y-129615714D01*
X116825295Y-129615714D02*
X117015771Y-129568095D01*
X117015771Y-129568095D02*
X117253866Y-129568095D01*
X117253866Y-129568095D02*
X117444342Y-129615714D01*
X117444342Y-129615714D02*
X117539580Y-129663333D01*
X117539580Y-129663333D02*
X117587200Y-129710952D01*
X117587200Y-129710952D02*
X117634819Y-129806190D01*
X117634819Y-129806190D02*
X117634819Y-129901428D01*
X117634819Y-129901428D02*
X117587200Y-129996666D01*
X117587200Y-129996666D02*
X117539580Y-130044285D01*
X117539580Y-130044285D02*
X117444342Y-130091904D01*
X117444342Y-130091904D02*
X117253866Y-130139523D01*
X117253866Y-130139523D02*
X117015771Y-130139523D01*
X117015771Y-130139523D02*
X116825295Y-130091904D01*
X116825295Y-130091904D02*
X116730057Y-130044285D01*
X116730057Y-130044285D02*
X116682438Y-129996666D01*
X116682438Y-129996666D02*
X116634819Y-129901428D01*
X103753333Y-124817080D02*
X103705714Y-124864700D01*
X103705714Y-124864700D02*
X103562857Y-124912319D01*
X103562857Y-124912319D02*
X103467619Y-124912319D01*
X103467619Y-124912319D02*
X103324762Y-124864700D01*
X103324762Y-124864700D02*
X103229524Y-124769461D01*
X103229524Y-124769461D02*
X103181905Y-124674223D01*
X103181905Y-124674223D02*
X103134286Y-124483747D01*
X103134286Y-124483747D02*
X103134286Y-124340890D01*
X103134286Y-124340890D02*
X103181905Y-124150414D01*
X103181905Y-124150414D02*
X103229524Y-124055176D01*
X103229524Y-124055176D02*
X103324762Y-123959938D01*
X103324762Y-123959938D02*
X103467619Y-123912319D01*
X103467619Y-123912319D02*
X103562857Y-123912319D01*
X103562857Y-123912319D02*
X103705714Y-123959938D01*
X103705714Y-123959938D02*
X103753333Y-124007557D01*
X104086667Y-123912319D02*
X104705714Y-123912319D01*
X104705714Y-123912319D02*
X104372381Y-124293271D01*
X104372381Y-124293271D02*
X104515238Y-124293271D01*
X104515238Y-124293271D02*
X104610476Y-124340890D01*
X104610476Y-124340890D02*
X104658095Y-124388509D01*
X104658095Y-124388509D02*
X104705714Y-124483747D01*
X104705714Y-124483747D02*
X104705714Y-124721842D01*
X104705714Y-124721842D02*
X104658095Y-124817080D01*
X104658095Y-124817080D02*
X104610476Y-124864700D01*
X104610476Y-124864700D02*
X104515238Y-124912319D01*
X104515238Y-124912319D02*
X104229524Y-124912319D01*
X104229524Y-124912319D02*
X104134286Y-124864700D01*
X104134286Y-124864700D02*
X104086667Y-124817080D01*
D10*
X86238095Y-129257419D02*
X86238095Y-130066942D01*
X86238095Y-130066942D02*
X86285714Y-130162180D01*
X86285714Y-130162180D02*
X86333333Y-130209800D01*
X86333333Y-130209800D02*
X86428571Y-130257419D01*
X86428571Y-130257419D02*
X86619047Y-130257419D01*
X86619047Y-130257419D02*
X86714285Y-130209800D01*
X86714285Y-130209800D02*
X86761904Y-130162180D01*
X86761904Y-130162180D02*
X86809523Y-130066942D01*
X86809523Y-130066942D02*
X86809523Y-129257419D01*
X87714285Y-129257419D02*
X87523809Y-129257419D01*
X87523809Y-129257419D02*
X87428571Y-129305038D01*
X87428571Y-129305038D02*
X87380952Y-129352657D01*
X87380952Y-129352657D02*
X87285714Y-129495514D01*
X87285714Y-129495514D02*
X87238095Y-129685990D01*
X87238095Y-129685990D02*
X87238095Y-130066942D01*
X87238095Y-130066942D02*
X87285714Y-130162180D01*
X87285714Y-130162180D02*
X87333333Y-130209800D01*
X87333333Y-130209800D02*
X87428571Y-130257419D01*
X87428571Y-130257419D02*
X87619047Y-130257419D01*
X87619047Y-130257419D02*
X87714285Y-130209800D01*
X87714285Y-130209800D02*
X87761904Y-130162180D01*
X87761904Y-130162180D02*
X87809523Y-130066942D01*
X87809523Y-130066942D02*
X87809523Y-129828847D01*
X87809523Y-129828847D02*
X87761904Y-129733609D01*
X87761904Y-129733609D02*
X87714285Y-129685990D01*
X87714285Y-129685990D02*
X87619047Y-129638371D01*
X87619047Y-129638371D02*
X87428571Y-129638371D01*
X87428571Y-129638371D02*
X87333333Y-129685990D01*
X87333333Y-129685990D02*
X87285714Y-129733609D01*
X87285714Y-129733609D02*
X87238095Y-129828847D01*
D11*
X131654819Y-125061904D02*
X132464342Y-125061904D01*
X132464342Y-125061904D02*
X132559580Y-125014285D01*
X132559580Y-125014285D02*
X132607200Y-124966666D01*
X132607200Y-124966666D02*
X132654819Y-124871428D01*
X132654819Y-124871428D02*
X132654819Y-124680952D01*
X132654819Y-124680952D02*
X132607200Y-124585714D01*
X132607200Y-124585714D02*
X132559580Y-124538095D01*
X132559580Y-124538095D02*
X132464342Y-124490476D01*
X132464342Y-124490476D02*
X131654819Y-124490476D01*
X131750057Y-124061904D02*
X131702438Y-124014285D01*
X131702438Y-124014285D02*
X131654819Y-123919047D01*
X131654819Y-123919047D02*
X131654819Y-123680952D01*
X131654819Y-123680952D02*
X131702438Y-123585714D01*
X131702438Y-123585714D02*
X131750057Y-123538095D01*
X131750057Y-123538095D02*
X131845295Y-123490476D01*
X131845295Y-123490476D02*
X131940533Y-123490476D01*
X131940533Y-123490476D02*
X132083390Y-123538095D01*
X132083390Y-123538095D02*
X132654819Y-124109523D01*
X132654819Y-124109523D02*
X132654819Y-123490476D01*
X134774819Y-131858094D02*
X133774819Y-131858094D01*
X133774819Y-131858094D02*
X133774819Y-131619999D01*
X133774819Y-131619999D02*
X133822438Y-131477142D01*
X133822438Y-131477142D02*
X133917676Y-131381904D01*
X133917676Y-131381904D02*
X134012914Y-131334285D01*
X134012914Y-131334285D02*
X134203390Y-131286666D01*
X134203390Y-131286666D02*
X134346247Y-131286666D01*
X134346247Y-131286666D02*
X134536723Y-131334285D01*
X134536723Y-131334285D02*
X134631961Y-131381904D01*
X134631961Y-131381904D02*
X134727200Y-131477142D01*
X134727200Y-131477142D02*
X134774819Y-131619999D01*
X134774819Y-131619999D02*
X134774819Y-131858094D01*
X133774819Y-130429523D02*
X133774819Y-130619999D01*
X133774819Y-130619999D02*
X133822438Y-130715237D01*
X133822438Y-130715237D02*
X133870057Y-130762856D01*
X133870057Y-130762856D02*
X134012914Y-130858094D01*
X134012914Y-130858094D02*
X134203390Y-130905713D01*
X134203390Y-130905713D02*
X134584342Y-130905713D01*
X134584342Y-130905713D02*
X134679580Y-130858094D01*
X134679580Y-130858094D02*
X134727200Y-130810475D01*
X134727200Y-130810475D02*
X134774819Y-130715237D01*
X134774819Y-130715237D02*
X134774819Y-130524761D01*
X134774819Y-130524761D02*
X134727200Y-130429523D01*
X134727200Y-130429523D02*
X134679580Y-130381904D01*
X134679580Y-130381904D02*
X134584342Y-130334285D01*
X134584342Y-130334285D02*
X134346247Y-130334285D01*
X134346247Y-130334285D02*
X134251009Y-130381904D01*
X134251009Y-130381904D02*
X134203390Y-130429523D01*
X134203390Y-130429523D02*
X134155771Y-130524761D01*
X134155771Y-130524761D02*
X134155771Y-130715237D01*
X134155771Y-130715237D02*
X134203390Y-130810475D01*
X134203390Y-130810475D02*
X134251009Y-130858094D01*
X134251009Y-130858094D02*
X134346247Y-130905713D01*
X101004819Y-102742857D02*
X100528628Y-103076190D01*
X101004819Y-103314285D02*
X100004819Y-103314285D01*
X100004819Y-103314285D02*
X100004819Y-102933333D01*
X100004819Y-102933333D02*
X100052438Y-102838095D01*
X100052438Y-102838095D02*
X100100057Y-102790476D01*
X100100057Y-102790476D02*
X100195295Y-102742857D01*
X100195295Y-102742857D02*
X100338152Y-102742857D01*
X100338152Y-102742857D02*
X100433390Y-102790476D01*
X100433390Y-102790476D02*
X100481009Y-102838095D01*
X100481009Y-102838095D02*
X100528628Y-102933333D01*
X100528628Y-102933333D02*
X100528628Y-103314285D01*
X100100057Y-102361904D02*
X100052438Y-102314285D01*
X100052438Y-102314285D02*
X100004819Y-102219047D01*
X100004819Y-102219047D02*
X100004819Y-101980952D01*
X100004819Y-101980952D02*
X100052438Y-101885714D01*
X100052438Y-101885714D02*
X100100057Y-101838095D01*
X100100057Y-101838095D02*
X100195295Y-101790476D01*
X100195295Y-101790476D02*
X100290533Y-101790476D01*
X100290533Y-101790476D02*
X100433390Y-101838095D01*
X100433390Y-101838095D02*
X101004819Y-102409523D01*
X101004819Y-102409523D02*
X101004819Y-101790476D01*
X100004819Y-100933333D02*
X100004819Y-101123809D01*
X100004819Y-101123809D02*
X100052438Y-101219047D01*
X100052438Y-101219047D02*
X100100057Y-101266666D01*
X100100057Y-101266666D02*
X100242914Y-101361904D01*
X100242914Y-101361904D02*
X100433390Y-101409523D01*
X100433390Y-101409523D02*
X100814342Y-101409523D01*
X100814342Y-101409523D02*
X100909580Y-101361904D01*
X100909580Y-101361904D02*
X100957200Y-101314285D01*
X100957200Y-101314285D02*
X101004819Y-101219047D01*
X101004819Y-101219047D02*
X101004819Y-101028571D01*
X101004819Y-101028571D02*
X100957200Y-100933333D01*
X100957200Y-100933333D02*
X100909580Y-100885714D01*
X100909580Y-100885714D02*
X100814342Y-100838095D01*
X100814342Y-100838095D02*
X100576247Y-100838095D01*
X100576247Y-100838095D02*
X100481009Y-100885714D01*
X100481009Y-100885714D02*
X100433390Y-100933333D01*
X100433390Y-100933333D02*
X100385771Y-101028571D01*
X100385771Y-101028571D02*
X100385771Y-101219047D01*
X100385771Y-101219047D02*
X100433390Y-101314285D01*
X100433390Y-101314285D02*
X100481009Y-101361904D01*
X100481009Y-101361904D02*
X100576247Y-101409523D01*
X118889580Y-102136666D02*
X118937200Y-102184285D01*
X118937200Y-102184285D02*
X118984819Y-102327142D01*
X118984819Y-102327142D02*
X118984819Y-102422380D01*
X118984819Y-102422380D02*
X118937200Y-102565237D01*
X118937200Y-102565237D02*
X118841961Y-102660475D01*
X118841961Y-102660475D02*
X118746723Y-102708094D01*
X118746723Y-102708094D02*
X118556247Y-102755713D01*
X118556247Y-102755713D02*
X118413390Y-102755713D01*
X118413390Y-102755713D02*
X118222914Y-102708094D01*
X118222914Y-102708094D02*
X118127676Y-102660475D01*
X118127676Y-102660475D02*
X118032438Y-102565237D01*
X118032438Y-102565237D02*
X117984819Y-102422380D01*
X117984819Y-102422380D02*
X117984819Y-102327142D01*
X117984819Y-102327142D02*
X118032438Y-102184285D01*
X118032438Y-102184285D02*
X118080057Y-102136666D01*
X118318152Y-101279523D02*
X118984819Y-101279523D01*
X117937200Y-101517618D02*
X118651485Y-101755713D01*
X118651485Y-101755713D02*
X118651485Y-101136666D01*
X91057142Y-125197080D02*
X91009523Y-125244700D01*
X91009523Y-125244700D02*
X90866666Y-125292319D01*
X90866666Y-125292319D02*
X90771428Y-125292319D01*
X90771428Y-125292319D02*
X90628571Y-125244700D01*
X90628571Y-125244700D02*
X90533333Y-125149461D01*
X90533333Y-125149461D02*
X90485714Y-125054223D01*
X90485714Y-125054223D02*
X90438095Y-124863747D01*
X90438095Y-124863747D02*
X90438095Y-124720890D01*
X90438095Y-124720890D02*
X90485714Y-124530414D01*
X90485714Y-124530414D02*
X90533333Y-124435176D01*
X90533333Y-124435176D02*
X90628571Y-124339938D01*
X90628571Y-124339938D02*
X90771428Y-124292319D01*
X90771428Y-124292319D02*
X90866666Y-124292319D01*
X90866666Y-124292319D02*
X91009523Y-124339938D01*
X91009523Y-124339938D02*
X91057142Y-124387557D01*
X92009523Y-125292319D02*
X91438095Y-125292319D01*
X91723809Y-125292319D02*
X91723809Y-124292319D01*
X91723809Y-124292319D02*
X91628571Y-124435176D01*
X91628571Y-124435176D02*
X91533333Y-124530414D01*
X91533333Y-124530414D02*
X91438095Y-124578033D01*
X92390476Y-124387557D02*
X92438095Y-124339938D01*
X92438095Y-124339938D02*
X92533333Y-124292319D01*
X92533333Y-124292319D02*
X92771428Y-124292319D01*
X92771428Y-124292319D02*
X92866666Y-124339938D01*
X92866666Y-124339938D02*
X92914285Y-124387557D01*
X92914285Y-124387557D02*
X92961904Y-124482795D01*
X92961904Y-124482795D02*
X92961904Y-124578033D01*
X92961904Y-124578033D02*
X92914285Y-124720890D01*
X92914285Y-124720890D02*
X92342857Y-125292319D01*
X92342857Y-125292319D02*
X92961904Y-125292319D01*
X105409580Y-106266666D02*
X105457200Y-106314285D01*
X105457200Y-106314285D02*
X105504819Y-106457142D01*
X105504819Y-106457142D02*
X105504819Y-106552380D01*
X105504819Y-106552380D02*
X105457200Y-106695237D01*
X105457200Y-106695237D02*
X105361961Y-106790475D01*
X105361961Y-106790475D02*
X105266723Y-106838094D01*
X105266723Y-106838094D02*
X105076247Y-106885713D01*
X105076247Y-106885713D02*
X104933390Y-106885713D01*
X104933390Y-106885713D02*
X104742914Y-106838094D01*
X104742914Y-106838094D02*
X104647676Y-106790475D01*
X104647676Y-106790475D02*
X104552438Y-106695237D01*
X104552438Y-106695237D02*
X104504819Y-106552380D01*
X104504819Y-106552380D02*
X104504819Y-106457142D01*
X104504819Y-106457142D02*
X104552438Y-106314285D01*
X104552438Y-106314285D02*
X104600057Y-106266666D01*
X104504819Y-105933332D02*
X104504819Y-105266666D01*
X104504819Y-105266666D02*
X105504819Y-105695237D01*
X133880833Y-122121819D02*
X133547500Y-121645628D01*
X133309405Y-122121819D02*
X133309405Y-121121819D01*
X133309405Y-121121819D02*
X133690357Y-121121819D01*
X133690357Y-121121819D02*
X133785595Y-121169438D01*
X133785595Y-121169438D02*
X133833214Y-121217057D01*
X133833214Y-121217057D02*
X133880833Y-121312295D01*
X133880833Y-121312295D02*
X133880833Y-121455152D01*
X133880833Y-121455152D02*
X133833214Y-121550390D01*
X133833214Y-121550390D02*
X133785595Y-121598009D01*
X133785595Y-121598009D02*
X133690357Y-121645628D01*
X133690357Y-121645628D02*
X133309405Y-121645628D01*
X134261786Y-121217057D02*
X134309405Y-121169438D01*
X134309405Y-121169438D02*
X134404643Y-121121819D01*
X134404643Y-121121819D02*
X134642738Y-121121819D01*
X134642738Y-121121819D02*
X134737976Y-121169438D01*
X134737976Y-121169438D02*
X134785595Y-121217057D01*
X134785595Y-121217057D02*
X134833214Y-121312295D01*
X134833214Y-121312295D02*
X134833214Y-121407533D01*
X134833214Y-121407533D02*
X134785595Y-121550390D01*
X134785595Y-121550390D02*
X134214167Y-122121819D01*
X134214167Y-122121819D02*
X134833214Y-122121819D01*
X96688095Y-108804819D02*
X96688095Y-109614342D01*
X96688095Y-109614342D02*
X96735714Y-109709580D01*
X96735714Y-109709580D02*
X96783333Y-109757200D01*
X96783333Y-109757200D02*
X96878571Y-109804819D01*
X96878571Y-109804819D02*
X97069047Y-109804819D01*
X97069047Y-109804819D02*
X97164285Y-109757200D01*
X97164285Y-109757200D02*
X97211904Y-109709580D01*
X97211904Y-109709580D02*
X97259523Y-109614342D01*
X97259523Y-109614342D02*
X97259523Y-108804819D01*
X98211904Y-108804819D02*
X97735714Y-108804819D01*
X97735714Y-108804819D02*
X97688095Y-109281009D01*
X97688095Y-109281009D02*
X97735714Y-109233390D01*
X97735714Y-109233390D02*
X97830952Y-109185771D01*
X97830952Y-109185771D02*
X98069047Y-109185771D01*
X98069047Y-109185771D02*
X98164285Y-109233390D01*
X98164285Y-109233390D02*
X98211904Y-109281009D01*
X98211904Y-109281009D02*
X98259523Y-109376247D01*
X98259523Y-109376247D02*
X98259523Y-109614342D01*
X98259523Y-109614342D02*
X98211904Y-109709580D01*
X98211904Y-109709580D02*
X98164285Y-109757200D01*
X98164285Y-109757200D02*
X98069047Y-109804819D01*
X98069047Y-109804819D02*
X97830952Y-109804819D01*
X97830952Y-109804819D02*
X97735714Y-109757200D01*
X97735714Y-109757200D02*
X97688095Y-109709580D01*
X111097142Y-108354819D02*
X110763809Y-107878628D01*
X110525714Y-108354819D02*
X110525714Y-107354819D01*
X110525714Y-107354819D02*
X110906666Y-107354819D01*
X110906666Y-107354819D02*
X111001904Y-107402438D01*
X111001904Y-107402438D02*
X111049523Y-107450057D01*
X111049523Y-107450057D02*
X111097142Y-107545295D01*
X111097142Y-107545295D02*
X111097142Y-107688152D01*
X111097142Y-107688152D02*
X111049523Y-107783390D01*
X111049523Y-107783390D02*
X111001904Y-107831009D01*
X111001904Y-107831009D02*
X110906666Y-107878628D01*
X110906666Y-107878628D02*
X110525714Y-107878628D01*
X112049523Y-108354819D02*
X111478095Y-108354819D01*
X111763809Y-108354819D02*
X111763809Y-107354819D01*
X111763809Y-107354819D02*
X111668571Y-107497676D01*
X111668571Y-107497676D02*
X111573333Y-107592914D01*
X111573333Y-107592914D02*
X111478095Y-107640533D01*
X112906666Y-107688152D02*
X112906666Y-108354819D01*
X112668571Y-107307200D02*
X112430476Y-108021485D01*
X112430476Y-108021485D02*
X113049523Y-108021485D01*
X90354819Y-102692857D02*
X89878628Y-103026190D01*
X90354819Y-103264285D02*
X89354819Y-103264285D01*
X89354819Y-103264285D02*
X89354819Y-102883333D01*
X89354819Y-102883333D02*
X89402438Y-102788095D01*
X89402438Y-102788095D02*
X89450057Y-102740476D01*
X89450057Y-102740476D02*
X89545295Y-102692857D01*
X89545295Y-102692857D02*
X89688152Y-102692857D01*
X89688152Y-102692857D02*
X89783390Y-102740476D01*
X89783390Y-102740476D02*
X89831009Y-102788095D01*
X89831009Y-102788095D02*
X89878628Y-102883333D01*
X89878628Y-102883333D02*
X89878628Y-103264285D01*
X90354819Y-101740476D02*
X90354819Y-102311904D01*
X90354819Y-102026190D02*
X89354819Y-102026190D01*
X89354819Y-102026190D02*
X89497676Y-102121428D01*
X89497676Y-102121428D02*
X89592914Y-102216666D01*
X89592914Y-102216666D02*
X89640533Y-102311904D01*
X89783390Y-101169047D02*
X89735771Y-101264285D01*
X89735771Y-101264285D02*
X89688152Y-101311904D01*
X89688152Y-101311904D02*
X89592914Y-101359523D01*
X89592914Y-101359523D02*
X89545295Y-101359523D01*
X89545295Y-101359523D02*
X89450057Y-101311904D01*
X89450057Y-101311904D02*
X89402438Y-101264285D01*
X89402438Y-101264285D02*
X89354819Y-101169047D01*
X89354819Y-101169047D02*
X89354819Y-100978571D01*
X89354819Y-100978571D02*
X89402438Y-100883333D01*
X89402438Y-100883333D02*
X89450057Y-100835714D01*
X89450057Y-100835714D02*
X89545295Y-100788095D01*
X89545295Y-100788095D02*
X89592914Y-100788095D01*
X89592914Y-100788095D02*
X89688152Y-100835714D01*
X89688152Y-100835714D02*
X89735771Y-100883333D01*
X89735771Y-100883333D02*
X89783390Y-100978571D01*
X89783390Y-100978571D02*
X89783390Y-101169047D01*
X89783390Y-101169047D02*
X89831009Y-101264285D01*
X89831009Y-101264285D02*
X89878628Y-101311904D01*
X89878628Y-101311904D02*
X89973866Y-101359523D01*
X89973866Y-101359523D02*
X90164342Y-101359523D01*
X90164342Y-101359523D02*
X90259580Y-101311904D01*
X90259580Y-101311904D02*
X90307200Y-101264285D01*
X90307200Y-101264285D02*
X90354819Y-101169047D01*
X90354819Y-101169047D02*
X90354819Y-100978571D01*
X90354819Y-100978571D02*
X90307200Y-100883333D01*
X90307200Y-100883333D02*
X90259580Y-100835714D01*
X90259580Y-100835714D02*
X90164342Y-100788095D01*
X90164342Y-100788095D02*
X89973866Y-100788095D01*
X89973866Y-100788095D02*
X89878628Y-100835714D01*
X89878628Y-100835714D02*
X89831009Y-100883333D01*
X89831009Y-100883333D02*
X89783390Y-100978571D01*
X146566666Y-116154819D02*
X146566666Y-116869104D01*
X146566666Y-116869104D02*
X146519047Y-117011961D01*
X146519047Y-117011961D02*
X146423809Y-117107200D01*
X146423809Y-117107200D02*
X146280952Y-117154819D01*
X146280952Y-117154819D02*
X146185714Y-117154819D01*
X147471428Y-116488152D02*
X147471428Y-117154819D01*
X147233333Y-116107200D02*
X146995238Y-116821485D01*
X146995238Y-116821485D02*
X147614285Y-116821485D01*
X120018095Y-121564819D02*
X120018095Y-122374342D01*
X120018095Y-122374342D02*
X120065714Y-122469580D01*
X120065714Y-122469580D02*
X120113333Y-122517200D01*
X120113333Y-122517200D02*
X120208571Y-122564819D01*
X120208571Y-122564819D02*
X120399047Y-122564819D01*
X120399047Y-122564819D02*
X120494285Y-122517200D01*
X120494285Y-122517200D02*
X120541904Y-122469580D01*
X120541904Y-122469580D02*
X120589523Y-122374342D01*
X120589523Y-122374342D02*
X120589523Y-121564819D01*
X121208571Y-121993390D02*
X121113333Y-121945771D01*
X121113333Y-121945771D02*
X121065714Y-121898152D01*
X121065714Y-121898152D02*
X121018095Y-121802914D01*
X121018095Y-121802914D02*
X121018095Y-121755295D01*
X121018095Y-121755295D02*
X121065714Y-121660057D01*
X121065714Y-121660057D02*
X121113333Y-121612438D01*
X121113333Y-121612438D02*
X121208571Y-121564819D01*
X121208571Y-121564819D02*
X121399047Y-121564819D01*
X121399047Y-121564819D02*
X121494285Y-121612438D01*
X121494285Y-121612438D02*
X121541904Y-121660057D01*
X121541904Y-121660057D02*
X121589523Y-121755295D01*
X121589523Y-121755295D02*
X121589523Y-121802914D01*
X121589523Y-121802914D02*
X121541904Y-121898152D01*
X121541904Y-121898152D02*
X121494285Y-121945771D01*
X121494285Y-121945771D02*
X121399047Y-121993390D01*
X121399047Y-121993390D02*
X121208571Y-121993390D01*
X121208571Y-121993390D02*
X121113333Y-122041009D01*
X121113333Y-122041009D02*
X121065714Y-122088628D01*
X121065714Y-122088628D02*
X121018095Y-122183866D01*
X121018095Y-122183866D02*
X121018095Y-122374342D01*
X121018095Y-122374342D02*
X121065714Y-122469580D01*
X121065714Y-122469580D02*
X121113333Y-122517200D01*
X121113333Y-122517200D02*
X121208571Y-122564819D01*
X121208571Y-122564819D02*
X121399047Y-122564819D01*
X121399047Y-122564819D02*
X121494285Y-122517200D01*
X121494285Y-122517200D02*
X121541904Y-122469580D01*
X121541904Y-122469580D02*
X121589523Y-122374342D01*
X121589523Y-122374342D02*
X121589523Y-122183866D01*
X121589523Y-122183866D02*
X121541904Y-122088628D01*
X121541904Y-122088628D02*
X121494285Y-122041009D01*
X121494285Y-122041009D02*
X121399047Y-121993390D01*
X118550595Y-103374819D02*
X118550595Y-104184342D01*
X118550595Y-104184342D02*
X118598214Y-104279580D01*
X118598214Y-104279580D02*
X118645833Y-104327200D01*
X118645833Y-104327200D02*
X118741071Y-104374819D01*
X118741071Y-104374819D02*
X118931547Y-104374819D01*
X118931547Y-104374819D02*
X119026785Y-104327200D01*
X119026785Y-104327200D02*
X119074404Y-104279580D01*
X119074404Y-104279580D02*
X119122023Y-104184342D01*
X119122023Y-104184342D02*
X119122023Y-103374819D01*
X119502976Y-103374819D02*
X120122023Y-103374819D01*
X120122023Y-103374819D02*
X119788690Y-103755771D01*
X119788690Y-103755771D02*
X119931547Y-103755771D01*
X119931547Y-103755771D02*
X120026785Y-103803390D01*
X120026785Y-103803390D02*
X120074404Y-103851009D01*
X120074404Y-103851009D02*
X120122023Y-103946247D01*
X120122023Y-103946247D02*
X120122023Y-104184342D01*
X120122023Y-104184342D02*
X120074404Y-104279580D01*
X120074404Y-104279580D02*
X120026785Y-104327200D01*
X120026785Y-104327200D02*
X119931547Y-104374819D01*
X119931547Y-104374819D02*
X119645833Y-104374819D01*
X119645833Y-104374819D02*
X119550595Y-104327200D01*
X119550595Y-104327200D02*
X119502976Y-104279580D01*
X126237142Y-131794819D02*
X125903809Y-131318628D01*
X125665714Y-131794819D02*
X125665714Y-130794819D01*
X125665714Y-130794819D02*
X126046666Y-130794819D01*
X126046666Y-130794819D02*
X126141904Y-130842438D01*
X126141904Y-130842438D02*
X126189523Y-130890057D01*
X126189523Y-130890057D02*
X126237142Y-130985295D01*
X126237142Y-130985295D02*
X126237142Y-131128152D01*
X126237142Y-131128152D02*
X126189523Y-131223390D01*
X126189523Y-131223390D02*
X126141904Y-131271009D01*
X126141904Y-131271009D02*
X126046666Y-131318628D01*
X126046666Y-131318628D02*
X125665714Y-131318628D01*
X126570476Y-130794819D02*
X127189523Y-130794819D01*
X127189523Y-130794819D02*
X126856190Y-131175771D01*
X126856190Y-131175771D02*
X126999047Y-131175771D01*
X126999047Y-131175771D02*
X127094285Y-131223390D01*
X127094285Y-131223390D02*
X127141904Y-131271009D01*
X127141904Y-131271009D02*
X127189523Y-131366247D01*
X127189523Y-131366247D02*
X127189523Y-131604342D01*
X127189523Y-131604342D02*
X127141904Y-131699580D01*
X127141904Y-131699580D02*
X127094285Y-131747200D01*
X127094285Y-131747200D02*
X126999047Y-131794819D01*
X126999047Y-131794819D02*
X126713333Y-131794819D01*
X126713333Y-131794819D02*
X126618095Y-131747200D01*
X126618095Y-131747200D02*
X126570476Y-131699580D01*
X128141904Y-131794819D02*
X127570476Y-131794819D01*
X127856190Y-131794819D02*
X127856190Y-130794819D01*
X127856190Y-130794819D02*
X127760952Y-130937676D01*
X127760952Y-130937676D02*
X127665714Y-131032914D01*
X127665714Y-131032914D02*
X127570476Y-131080533D01*
X141649819Y-102812857D02*
X141173628Y-103146190D01*
X141649819Y-103384285D02*
X140649819Y-103384285D01*
X140649819Y-103384285D02*
X140649819Y-103003333D01*
X140649819Y-103003333D02*
X140697438Y-102908095D01*
X140697438Y-102908095D02*
X140745057Y-102860476D01*
X140745057Y-102860476D02*
X140840295Y-102812857D01*
X140840295Y-102812857D02*
X140983152Y-102812857D01*
X140983152Y-102812857D02*
X141078390Y-102860476D01*
X141078390Y-102860476D02*
X141126009Y-102908095D01*
X141126009Y-102908095D02*
X141173628Y-103003333D01*
X141173628Y-103003333D02*
X141173628Y-103384285D01*
X141649819Y-101860476D02*
X141649819Y-102431904D01*
X141649819Y-102146190D02*
X140649819Y-102146190D01*
X140649819Y-102146190D02*
X140792676Y-102241428D01*
X140792676Y-102241428D02*
X140887914Y-102336666D01*
X140887914Y-102336666D02*
X140935533Y-102431904D01*
X140649819Y-100955714D02*
X140649819Y-101431904D01*
X140649819Y-101431904D02*
X141126009Y-101479523D01*
X141126009Y-101479523D02*
X141078390Y-101431904D01*
X141078390Y-101431904D02*
X141030771Y-101336666D01*
X141030771Y-101336666D02*
X141030771Y-101098571D01*
X141030771Y-101098571D02*
X141078390Y-101003333D01*
X141078390Y-101003333D02*
X141126009Y-100955714D01*
X141126009Y-100955714D02*
X141221247Y-100908095D01*
X141221247Y-100908095D02*
X141459342Y-100908095D01*
X141459342Y-100908095D02*
X141554580Y-100955714D01*
X141554580Y-100955714D02*
X141602200Y-101003333D01*
X141602200Y-101003333D02*
X141649819Y-101098571D01*
X141649819Y-101098571D02*
X141649819Y-101336666D01*
X141649819Y-101336666D02*
X141602200Y-101431904D01*
X141602200Y-101431904D02*
X141554580Y-101479523D01*
X117104819Y-111512857D02*
X116628628Y-111846190D01*
X117104819Y-112084285D02*
X116104819Y-112084285D01*
X116104819Y-112084285D02*
X116104819Y-111703333D01*
X116104819Y-111703333D02*
X116152438Y-111608095D01*
X116152438Y-111608095D02*
X116200057Y-111560476D01*
X116200057Y-111560476D02*
X116295295Y-111512857D01*
X116295295Y-111512857D02*
X116438152Y-111512857D01*
X116438152Y-111512857D02*
X116533390Y-111560476D01*
X116533390Y-111560476D02*
X116581009Y-111608095D01*
X116581009Y-111608095D02*
X116628628Y-111703333D01*
X116628628Y-111703333D02*
X116628628Y-112084285D01*
X116200057Y-111131904D02*
X116152438Y-111084285D01*
X116152438Y-111084285D02*
X116104819Y-110989047D01*
X116104819Y-110989047D02*
X116104819Y-110750952D01*
X116104819Y-110750952D02*
X116152438Y-110655714D01*
X116152438Y-110655714D02*
X116200057Y-110608095D01*
X116200057Y-110608095D02*
X116295295Y-110560476D01*
X116295295Y-110560476D02*
X116390533Y-110560476D01*
X116390533Y-110560476D02*
X116533390Y-110608095D01*
X116533390Y-110608095D02*
X117104819Y-111179523D01*
X117104819Y-111179523D02*
X117104819Y-110560476D01*
X116438152Y-109703333D02*
X117104819Y-109703333D01*
X116057200Y-109941428D02*
X116771485Y-110179523D01*
X116771485Y-110179523D02*
X116771485Y-109560476D01*
X121083333Y-131709580D02*
X121035714Y-131757200D01*
X121035714Y-131757200D02*
X120892857Y-131804819D01*
X120892857Y-131804819D02*
X120797619Y-131804819D01*
X120797619Y-131804819D02*
X120654762Y-131757200D01*
X120654762Y-131757200D02*
X120559524Y-131661961D01*
X120559524Y-131661961D02*
X120511905Y-131566723D01*
X120511905Y-131566723D02*
X120464286Y-131376247D01*
X120464286Y-131376247D02*
X120464286Y-131233390D01*
X120464286Y-131233390D02*
X120511905Y-131042914D01*
X120511905Y-131042914D02*
X120559524Y-130947676D01*
X120559524Y-130947676D02*
X120654762Y-130852438D01*
X120654762Y-130852438D02*
X120797619Y-130804819D01*
X120797619Y-130804819D02*
X120892857Y-130804819D01*
X120892857Y-130804819D02*
X121035714Y-130852438D01*
X121035714Y-130852438D02*
X121083333Y-130900057D01*
X121559524Y-131804819D02*
X121750000Y-131804819D01*
X121750000Y-131804819D02*
X121845238Y-131757200D01*
X121845238Y-131757200D02*
X121892857Y-131709580D01*
X121892857Y-131709580D02*
X121988095Y-131566723D01*
X121988095Y-131566723D02*
X122035714Y-131376247D01*
X122035714Y-131376247D02*
X122035714Y-130995295D01*
X122035714Y-130995295D02*
X121988095Y-130900057D01*
X121988095Y-130900057D02*
X121940476Y-130852438D01*
X121940476Y-130852438D02*
X121845238Y-130804819D01*
X121845238Y-130804819D02*
X121654762Y-130804819D01*
X121654762Y-130804819D02*
X121559524Y-130852438D01*
X121559524Y-130852438D02*
X121511905Y-130900057D01*
X121511905Y-130900057D02*
X121464286Y-130995295D01*
X121464286Y-130995295D02*
X121464286Y-131233390D01*
X121464286Y-131233390D02*
X121511905Y-131328628D01*
X121511905Y-131328628D02*
X121559524Y-131376247D01*
X121559524Y-131376247D02*
X121654762Y-131423866D01*
X121654762Y-131423866D02*
X121845238Y-131423866D01*
X121845238Y-131423866D02*
X121940476Y-131376247D01*
X121940476Y-131376247D02*
X121988095Y-131328628D01*
X121988095Y-131328628D02*
X122035714Y-131233390D01*
X140454580Y-106436666D02*
X140502200Y-106484285D01*
X140502200Y-106484285D02*
X140549819Y-106627142D01*
X140549819Y-106627142D02*
X140549819Y-106722380D01*
X140549819Y-106722380D02*
X140502200Y-106865237D01*
X140502200Y-106865237D02*
X140406961Y-106960475D01*
X140406961Y-106960475D02*
X140311723Y-107008094D01*
X140311723Y-107008094D02*
X140121247Y-107055713D01*
X140121247Y-107055713D02*
X139978390Y-107055713D01*
X139978390Y-107055713D02*
X139787914Y-107008094D01*
X139787914Y-107008094D02*
X139692676Y-106960475D01*
X139692676Y-106960475D02*
X139597438Y-106865237D01*
X139597438Y-106865237D02*
X139549819Y-106722380D01*
X139549819Y-106722380D02*
X139549819Y-106627142D01*
X139549819Y-106627142D02*
X139597438Y-106484285D01*
X139597438Y-106484285D02*
X139645057Y-106436666D01*
X139549819Y-105531904D02*
X139549819Y-106008094D01*
X139549819Y-106008094D02*
X140026009Y-106055713D01*
X140026009Y-106055713D02*
X139978390Y-106008094D01*
X139978390Y-106008094D02*
X139930771Y-105912856D01*
X139930771Y-105912856D02*
X139930771Y-105674761D01*
X139930771Y-105674761D02*
X139978390Y-105579523D01*
X139978390Y-105579523D02*
X140026009Y-105531904D01*
X140026009Y-105531904D02*
X140121247Y-105484285D01*
X140121247Y-105484285D02*
X140359342Y-105484285D01*
X140359342Y-105484285D02*
X140454580Y-105531904D01*
X140454580Y-105531904D02*
X140502200Y-105579523D01*
X140502200Y-105579523D02*
X140549819Y-105674761D01*
X140549819Y-105674761D02*
X140549819Y-105912856D01*
X140549819Y-105912856D02*
X140502200Y-106008094D01*
X140502200Y-106008094D02*
X140454580Y-106055713D01*
X112147142Y-129234819D02*
X111813809Y-128758628D01*
X111575714Y-129234819D02*
X111575714Y-128234819D01*
X111575714Y-128234819D02*
X111956666Y-128234819D01*
X111956666Y-128234819D02*
X112051904Y-128282438D01*
X112051904Y-128282438D02*
X112099523Y-128330057D01*
X112099523Y-128330057D02*
X112147142Y-128425295D01*
X112147142Y-128425295D02*
X112147142Y-128568152D01*
X112147142Y-128568152D02*
X112099523Y-128663390D01*
X112099523Y-128663390D02*
X112051904Y-128711009D01*
X112051904Y-128711009D02*
X111956666Y-128758628D01*
X111956666Y-128758628D02*
X111575714Y-128758628D01*
X112480476Y-128234819D02*
X113099523Y-128234819D01*
X113099523Y-128234819D02*
X112766190Y-128615771D01*
X112766190Y-128615771D02*
X112909047Y-128615771D01*
X112909047Y-128615771D02*
X113004285Y-128663390D01*
X113004285Y-128663390D02*
X113051904Y-128711009D01*
X113051904Y-128711009D02*
X113099523Y-128806247D01*
X113099523Y-128806247D02*
X113099523Y-129044342D01*
X113099523Y-129044342D02*
X113051904Y-129139580D01*
X113051904Y-129139580D02*
X113004285Y-129187200D01*
X113004285Y-129187200D02*
X112909047Y-129234819D01*
X112909047Y-129234819D02*
X112623333Y-129234819D01*
X112623333Y-129234819D02*
X112528095Y-129187200D01*
X112528095Y-129187200D02*
X112480476Y-129139580D01*
X113480476Y-128330057D02*
X113528095Y-128282438D01*
X113528095Y-128282438D02*
X113623333Y-128234819D01*
X113623333Y-128234819D02*
X113861428Y-128234819D01*
X113861428Y-128234819D02*
X113956666Y-128282438D01*
X113956666Y-128282438D02*
X114004285Y-128330057D01*
X114004285Y-128330057D02*
X114051904Y-128425295D01*
X114051904Y-128425295D02*
X114051904Y-128520533D01*
X114051904Y-128520533D02*
X114004285Y-128663390D01*
X114004285Y-128663390D02*
X113432857Y-129234819D01*
X113432857Y-129234819D02*
X114051904Y-129234819D01*
X131908095Y-108674819D02*
X131908095Y-109484342D01*
X131908095Y-109484342D02*
X131955714Y-109579580D01*
X131955714Y-109579580D02*
X132003333Y-109627200D01*
X132003333Y-109627200D02*
X132098571Y-109674819D01*
X132098571Y-109674819D02*
X132289047Y-109674819D01*
X132289047Y-109674819D02*
X132384285Y-109627200D01*
X132384285Y-109627200D02*
X132431904Y-109579580D01*
X132431904Y-109579580D02*
X132479523Y-109484342D01*
X132479523Y-109484342D02*
X132479523Y-108674819D01*
X133384285Y-109008152D02*
X133384285Y-109674819D01*
X133146190Y-108627200D02*
X132908095Y-109341485D01*
X132908095Y-109341485D02*
X133527142Y-109341485D01*
X143698095Y-100124819D02*
X143698095Y-99124819D01*
X143698095Y-99601009D02*
X144269523Y-99601009D01*
X144269523Y-100124819D02*
X144269523Y-99124819D01*
X145269523Y-100124819D02*
X144698095Y-100124819D01*
X144983809Y-100124819D02*
X144983809Y-99124819D01*
X144983809Y-99124819D02*
X144888571Y-99267676D01*
X144888571Y-99267676D02*
X144793333Y-99362914D01*
X144793333Y-99362914D02*
X144698095Y-99410533D01*
D10*
X128733333Y-118257419D02*
X128257143Y-118257419D01*
X128257143Y-118257419D02*
X128257143Y-117257419D01*
X129590476Y-118257419D02*
X129019048Y-118257419D01*
X129304762Y-118257419D02*
X129304762Y-117257419D01*
X129304762Y-117257419D02*
X129209524Y-117400276D01*
X129209524Y-117400276D02*
X129114286Y-117495514D01*
X129114286Y-117495514D02*
X129019048Y-117543133D01*
D11*
X78916666Y-117314819D02*
X78916666Y-118029104D01*
X78916666Y-118029104D02*
X78869047Y-118171961D01*
X78869047Y-118171961D02*
X78773809Y-118267200D01*
X78773809Y-118267200D02*
X78630952Y-118314819D01*
X78630952Y-118314819D02*
X78535714Y-118314819D01*
X79916666Y-118314819D02*
X79345238Y-118314819D01*
X79630952Y-118314819D02*
X79630952Y-117314819D01*
X79630952Y-117314819D02*
X79535714Y-117457676D01*
X79535714Y-117457676D02*
X79440476Y-117552914D01*
X79440476Y-117552914D02*
X79345238Y-117600533D01*
X88333333Y-110954819D02*
X88000000Y-110478628D01*
X87761905Y-110954819D02*
X87761905Y-109954819D01*
X87761905Y-109954819D02*
X88142857Y-109954819D01*
X88142857Y-109954819D02*
X88238095Y-110002438D01*
X88238095Y-110002438D02*
X88285714Y-110050057D01*
X88285714Y-110050057D02*
X88333333Y-110145295D01*
X88333333Y-110145295D02*
X88333333Y-110288152D01*
X88333333Y-110288152D02*
X88285714Y-110383390D01*
X88285714Y-110383390D02*
X88238095Y-110431009D01*
X88238095Y-110431009D02*
X88142857Y-110478628D01*
X88142857Y-110478628D02*
X87761905Y-110478628D01*
X88809524Y-110954819D02*
X89000000Y-110954819D01*
X89000000Y-110954819D02*
X89095238Y-110907200D01*
X89095238Y-110907200D02*
X89142857Y-110859580D01*
X89142857Y-110859580D02*
X89238095Y-110716723D01*
X89238095Y-110716723D02*
X89285714Y-110526247D01*
X89285714Y-110526247D02*
X89285714Y-110145295D01*
X89285714Y-110145295D02*
X89238095Y-110050057D01*
X89238095Y-110050057D02*
X89190476Y-110002438D01*
X89190476Y-110002438D02*
X89095238Y-109954819D01*
X89095238Y-109954819D02*
X88904762Y-109954819D01*
X88904762Y-109954819D02*
X88809524Y-110002438D01*
X88809524Y-110002438D02*
X88761905Y-110050057D01*
X88761905Y-110050057D02*
X88714286Y-110145295D01*
X88714286Y-110145295D02*
X88714286Y-110383390D01*
X88714286Y-110383390D02*
X88761905Y-110478628D01*
X88761905Y-110478628D02*
X88809524Y-110526247D01*
X88809524Y-110526247D02*
X88904762Y-110573866D01*
X88904762Y-110573866D02*
X89095238Y-110573866D01*
X89095238Y-110573866D02*
X89190476Y-110526247D01*
X89190476Y-110526247D02*
X89238095Y-110478628D01*
X89238095Y-110478628D02*
X89285714Y-110383390D01*
D12*
%TO.C,R13*%
X113440000Y-105602936D02*
X113440000Y-107057064D01*
X115260000Y-105602936D02*
X115260000Y-107057064D01*
%TO.C,C2*%
X122880000Y-132041252D02*
X122880000Y-130618748D01*
X124700000Y-132041252D02*
X124700000Y-130618748D01*
D10*
%TO.C,D5*%
X102458500Y-108239000D02*
X109641500Y-108239000D01*
X102458500Y-111361000D02*
X102458500Y-108239000D01*
X109641500Y-108239000D02*
X109641500Y-111361000D01*
X109641500Y-111361000D02*
X102458500Y-111361000D01*
X109641500Y-111361000D02*
X102458500Y-111361000D01*
X102458500Y-108239000D01*
X109641500Y-108239000D01*
X109641500Y-111361000D01*
D12*
%TO.C,R17*%
X106527064Y-101290000D02*
X105072936Y-101290000D01*
X106527064Y-103110000D02*
X105072936Y-103110000D01*
%TO.C,U9*%
X97250000Y-125907500D02*
X98550000Y-125907500D01*
X97250000Y-128227500D02*
X98300000Y-128227500D01*
X98660000Y-128507500D02*
X98660000Y-128227500D01*
X98940000Y-128227500D01*
X98660000Y-128507500D01*
G36*
X98660000Y-128507500D02*
G01*
X98660000Y-128227500D01*
X98940000Y-128227500D01*
X98660000Y-128507500D01*
G37*
%TO.C,D7*%
X129385000Y-129500000D02*
X129385000Y-131960000D01*
X130855000Y-129500000D02*
X129385000Y-129500000D01*
X130855000Y-131960000D02*
X130855000Y-129500000D01*
%TO.C,R12*%
X120020000Y-111652936D02*
X120020000Y-113107064D01*
X121840000Y-111652936D02*
X121840000Y-113107064D01*
%TO.C,R33*%
X108900000Y-128052936D02*
X108900000Y-129507064D01*
X110720000Y-128052936D02*
X110720000Y-129507064D01*
%TO.C,R25*%
X95977064Y-101090000D02*
X94522936Y-101090000D01*
X95977064Y-102910000D02*
X94522936Y-102910000D01*
%TO.C,R30*%
X129177064Y-126290000D02*
X127722936Y-126290000D01*
X129177064Y-128110000D02*
X127722936Y-128110000D01*
%TO.C,R23*%
X117377064Y-112830000D02*
X115922936Y-112830000D01*
X117377064Y-114650000D02*
X115922936Y-114650000D01*
%TO.C,R27*%
X124267936Y-101160000D02*
X125722064Y-101160000D01*
X124267936Y-102980000D02*
X125722064Y-102980000D01*
%TO.C,C8*%
X90840000Y-107848752D02*
X90840000Y-106426248D01*
X92660000Y-107848752D02*
X92660000Y-106426248D01*
%TO.C,TP2*%
X79350000Y-122250000D02*
X82250000Y-122250000D01*
X79350000Y-125150000D02*
X79350000Y-122250000D01*
X82250000Y-122250000D02*
X82250000Y-125150000D01*
X82250000Y-125150000D02*
X79350000Y-125150000D01*
%TO.C,Q1*%
X142050000Y-123097000D02*
X143870000Y-123097000D01*
X142050000Y-123147000D02*
X142050000Y-123097000D01*
X142050000Y-126217000D02*
X142050000Y-126167000D01*
X143870000Y-123097000D02*
X143870000Y-123147000D01*
X143870000Y-126167000D02*
X143870000Y-126217000D01*
X143870000Y-126217000D02*
X142050000Y-126217000D01*
X141510000Y-123147000D02*
X141270000Y-122817000D01*
X141750000Y-122817000D01*
X141510000Y-123147000D01*
G36*
X141510000Y-123147000D02*
G01*
X141270000Y-122817000D01*
X141750000Y-122817000D01*
X141510000Y-123147000D01*
G37*
D10*
%TO.C,D4*%
X138403500Y-108309000D02*
X145586500Y-108309000D01*
X138403500Y-111431000D02*
X138403500Y-108309000D01*
X145586500Y-108309000D02*
X145586500Y-111431000D01*
X145586500Y-111431000D02*
X138403500Y-111431000D01*
X145586500Y-111431000D02*
X138403500Y-111431000D01*
X138403500Y-108309000D01*
X145586500Y-108309000D01*
X145586500Y-111431000D01*
D12*
%TO.C,R29*%
X129177064Y-123520000D02*
X127722936Y-123520000D01*
X129177064Y-125340000D02*
X127722936Y-125340000D01*
%TO.C,R10*%
X82072936Y-117690000D02*
X83527064Y-117690000D01*
X82072936Y-119510000D02*
X83527064Y-119510000D01*
%TO.C,C13*%
X93560000Y-125528752D02*
X93560000Y-124106248D01*
X95380000Y-125528752D02*
X95380000Y-124106248D01*
%TO.C,R5*%
X109120000Y-122602936D02*
X109120000Y-124057064D01*
X110940000Y-122602936D02*
X110940000Y-124057064D01*
%TO.C,R3*%
X111910000Y-124117064D02*
X111910000Y-122662936D01*
X113730000Y-124117064D02*
X113730000Y-122662936D01*
%TO.C,R16*%
X131022064Y-101260000D02*
X129567936Y-101260000D01*
X131022064Y-103080000D02*
X129567936Y-103080000D01*
%TO.C,R1*%
X136210000Y-129072936D02*
X136210000Y-130527064D01*
X138030000Y-129072936D02*
X138030000Y-130527064D01*
%TO.C,R28*%
X135017936Y-101260000D02*
X136472064Y-101260000D01*
X135017936Y-103080000D02*
X136472064Y-103080000D01*
%TO.C,C6*%
X126285000Y-107381252D02*
X126285000Y-105958748D01*
X128105000Y-107381252D02*
X128105000Y-105958748D01*
%TO.C,C11*%
X100350000Y-125166252D02*
X100350000Y-123743748D01*
X102170000Y-125166252D02*
X102170000Y-123743748D01*
%TO.C,J2*%
X101970000Y-114450000D02*
X102970000Y-114450000D01*
X102470000Y-115260000D02*
X101970000Y-115260000D01*
X102470000Y-116470000D02*
X102470000Y-115260000D01*
X102970000Y-114450000D02*
X102970000Y-112950000D01*
X108690000Y-114450000D02*
X108690000Y-112950000D01*
X109190000Y-115260000D02*
X109190000Y-116470000D01*
X109190000Y-116470000D02*
X102470000Y-116470000D01*
X109690000Y-114450000D02*
X108690000Y-114450000D01*
X109690000Y-115260000D02*
X109190000Y-115260000D01*
X109990000Y-112650000D02*
X107490000Y-112650000D01*
X109990000Y-115150000D02*
X109990000Y-112650000D01*
X109690000Y-116970000D02*
X101970000Y-116970000D01*
X101970000Y-112950000D01*
X109690000Y-112950000D01*
X109690000Y-116970000D01*
%TO.C,C1*%
X140538748Y-127380000D02*
X141961252Y-127380000D01*
X140538748Y-129200000D02*
X141961252Y-129200000D01*
%TO.C,R22*%
X113527064Y-101110000D02*
X112072936Y-101110000D01*
X113527064Y-102930000D02*
X112072936Y-102930000D01*
%TO.C,C10*%
X117891252Y-129920000D02*
X116468748Y-129920000D01*
X117891252Y-131740000D02*
X116468748Y-131740000D01*
%TO.C,C3*%
X103010000Y-125168752D02*
X103010000Y-123746248D01*
X104830000Y-125168752D02*
X104830000Y-123746248D01*
%TO.C,U2*%
X133100000Y-123447000D02*
X133150000Y-123447000D01*
X133100000Y-125267000D02*
X133100000Y-123447000D01*
X133150000Y-125267000D02*
X133100000Y-125267000D01*
X136170000Y-123447000D02*
X136220000Y-123447000D01*
X136220000Y-123447000D02*
X136220000Y-125267000D01*
X136220000Y-125267000D02*
X136170000Y-125267000D01*
X136500000Y-123147000D02*
X136170000Y-122907000D01*
X136500000Y-122667000D01*
X136500000Y-123147000D01*
G36*
X136500000Y-123147000D02*
G01*
X136170000Y-122907000D01*
X136500000Y-122667000D01*
X136500000Y-123147000D01*
G37*
%TO.C,D6*%
X132155000Y-129460000D02*
X132155000Y-131920000D01*
X133625000Y-129460000D02*
X132155000Y-129460000D01*
X133625000Y-131920000D02*
X133625000Y-129460000D01*
%TO.C,R26*%
X101277064Y-101190000D02*
X99822936Y-101190000D01*
X101277064Y-103010000D02*
X99822936Y-103010000D01*
%TO.C,C4*%
X117818748Y-101060000D02*
X119241252Y-101060000D01*
X117818748Y-102880000D02*
X119241252Y-102880000D01*
%TO.C,C12*%
X90790000Y-125548752D02*
X90790000Y-124126248D01*
X92610000Y-125548752D02*
X92610000Y-124126248D01*
%TO.C,C7*%
X105761252Y-105190000D02*
X104338748Y-105190000D01*
X105761252Y-107010000D02*
X104338748Y-107010000D01*
%TO.C,R2*%
X134774564Y-118927000D02*
X133320436Y-118927000D01*
X134774564Y-120747000D02*
X133320436Y-120747000D01*
%TO.C,U5*%
X97900000Y-108160000D02*
X97100000Y-108160000D01*
X97900000Y-108160000D02*
X98700000Y-108160000D01*
X98900000Y-104940000D02*
X97100000Y-104940000D01*
X99440000Y-108440000D02*
X98960000Y-108440000D01*
X99200000Y-108110000D01*
X99440000Y-108440000D01*
G36*
X99440000Y-108440000D02*
G01*
X98960000Y-108440000D01*
X99200000Y-108110000D01*
X99440000Y-108440000D01*
G37*
%TO.C,R14*%
X110830000Y-108627064D02*
X110830000Y-107172936D01*
X112650000Y-108627064D02*
X112650000Y-107172936D01*
%TO.C,R18*%
X90627064Y-101140000D02*
X89172936Y-101140000D01*
X90627064Y-102960000D02*
X89172936Y-102960000D01*
%TO.C,J4*%
X137710000Y-114360000D02*
X138710000Y-114360000D01*
X138210000Y-115170000D02*
X137710000Y-115170000D01*
X138210000Y-116380000D02*
X138210000Y-115170000D01*
X138710000Y-114360000D02*
X138710000Y-112860000D01*
X144430000Y-114360000D02*
X144430000Y-112860000D01*
X144930000Y-115170000D02*
X144930000Y-116380000D01*
X144930000Y-116380000D02*
X138210000Y-116380000D01*
X145430000Y-114360000D02*
X144430000Y-114360000D01*
X145430000Y-115170000D02*
X144930000Y-115170000D01*
X145730000Y-112560000D02*
X143230000Y-112560000D01*
X145730000Y-115060000D02*
X145730000Y-112560000D01*
X145430000Y-116880000D02*
X137710000Y-116880000D01*
X137710000Y-112860000D01*
X145430000Y-112860000D01*
X145430000Y-116880000D01*
%TO.C,U8*%
X118890000Y-123000000D02*
X123010000Y-123000000D01*
X118890000Y-123095000D02*
X118890000Y-123000000D01*
X118890000Y-128120000D02*
X118890000Y-128025000D01*
X123010000Y-123000000D02*
X123010000Y-123095000D01*
X123010000Y-128025000D02*
X123010000Y-128120000D01*
X123010000Y-128120000D02*
X118890000Y-128120000D01*
X123790000Y-128360000D02*
X123310000Y-128360000D01*
X123550000Y-128030000D01*
X123790000Y-128360000D01*
G36*
X123790000Y-128360000D02*
G01*
X123310000Y-128360000D01*
X123550000Y-128030000D01*
X123790000Y-128360000D01*
G37*
%TO.C,U3*%
X118402500Y-104760000D02*
X120222500Y-104760000D01*
X118402500Y-104810000D02*
X118402500Y-104760000D01*
X118402500Y-107880000D02*
X118402500Y-107830000D01*
X120222500Y-104760000D02*
X120222500Y-104810000D01*
X120222500Y-107830000D02*
X120222500Y-107880000D01*
X120222500Y-107880000D02*
X118402500Y-107880000D01*
X117862500Y-104810000D02*
X117622500Y-104480000D01*
X118102500Y-104480000D01*
X117862500Y-104810000D01*
G36*
X117862500Y-104810000D02*
G01*
X117622500Y-104480000D01*
X118102500Y-104480000D01*
X117862500Y-104810000D01*
G37*
%TO.C,R31*%
X125950000Y-132057064D02*
X125950000Y-130602936D01*
X127770000Y-132057064D02*
X127770000Y-130602936D01*
%TO.C,R15*%
X141922064Y-101260000D02*
X140467936Y-101260000D01*
X141922064Y-103080000D02*
X140467936Y-103080000D01*
%TO.C,R24*%
X117377064Y-109960000D02*
X115922936Y-109960000D01*
X117377064Y-111780000D02*
X115922936Y-111780000D01*
%TO.C,C9*%
X120380000Y-130558748D02*
X120380000Y-131981252D01*
X122200000Y-130558748D02*
X122200000Y-131981252D01*
%TO.C,C5*%
X140806252Y-105360000D02*
X139383748Y-105360000D01*
X140806252Y-107180000D02*
X139383748Y-107180000D01*
%TO.C,R32*%
X111880000Y-129507064D02*
X111880000Y-128052936D01*
X113700000Y-129507064D02*
X113700000Y-128052936D01*
%TO.C,U4*%
X133845000Y-107830000D02*
X133045000Y-107830000D01*
X133845000Y-107830000D02*
X134645000Y-107830000D01*
X134845000Y-104610000D02*
X133045000Y-104610000D01*
X135385000Y-108110000D02*
X134905000Y-108110000D01*
X135145000Y-107780000D01*
X135385000Y-108110000D01*
G36*
X135385000Y-108110000D02*
G01*
X134905000Y-108110000D01*
X135145000Y-107780000D01*
X135385000Y-108110000D01*
G37*
%TO.C,J1*%
X75480000Y-106880000D02*
X75480000Y-116070000D01*
X78210000Y-106880000D02*
X75480000Y-106880000D01*
X78210000Y-116070000D02*
X75480000Y-116070000D01*
X81810000Y-106880000D02*
X80910000Y-106880000D01*
X81810000Y-116070000D02*
X80910000Y-116070000D01*
X84890000Y-107000000D02*
X84890000Y-115950000D01*
%TO.C,R9*%
X87590000Y-111227064D02*
X87590000Y-109772936D01*
X89410000Y-111227064D02*
X89410000Y-109772936D01*
%TD*%
M02*
