%TF.GenerationSoftware,KiCad,Pcbnew,9.0.7*%
%TF.CreationDate,2026-04-30T22:30:34-05:00*%
%TF.ProjectId,bps_board_v2,6270735f-626f-4617-9264-5f76322e6b69,rev?*%
%TF.SameCoordinates,Original*%
%TF.FileFunction,Copper,L2,Bot*%
%TF.FilePolarity,Positive*%
%FSLAX46Y46*%
G04 Gerber Fmt 4.6, Leading zero omitted, Abs format (unit mm)*
G04 Created by KiCad (PCBNEW 9.0.7) date 2026-04-30 22:30:34*
%MOMM*%
%LPD*%
G01*
G04 APERTURE LIST*
G04 Aperture macros list*
%AMRoundRect*
0 Rectangle with rounded corners*
0 $1 Rounding radius*
0 $2 $3 $4 $5 $6 $7 $8 $9 X,Y pos of 4 corners*
0 Add a 4 corners polygon primitive as box body*
4,1,4,$2,$3,$4,$5,$6,$7,$8,$9,$2,$3,0*
0 Add four circle primitives for the rounded corners*
1,1,$1+$1,$2,$3*
1,1,$1+$1,$4,$5*
1,1,$1+$1,$6,$7*
1,1,$1+$1,$8,$9*
0 Add four rect primitives between the rounded corners*
20,1,$1+$1,$2,$3,$4,$5,0*
20,1,$1+$1,$4,$5,$6,$7,0*
20,1,$1+$1,$6,$7,$8,$9,0*
20,1,$1+$1,$8,$9,$2,$3,0*%
G04 Aperture macros list end*
%TA.AperFunction,ComponentPad*%
%ADD10R,2.500000X2.500000*%
%TD*%
%TA.AperFunction,ComponentPad*%
%ADD11O,2.500000X11.000000*%
%TD*%
%TA.AperFunction,ComponentPad*%
%ADD12RoundRect,0.250000X0.600000X0.750000X-0.600000X0.750000X-0.600000X-0.750000X0.600000X-0.750000X0*%
%TD*%
%TA.AperFunction,ComponentPad*%
%ADD13O,1.700000X2.000000*%
%TD*%
%TA.AperFunction,ComponentPad*%
%ADD14C,2.800000*%
%TD*%
%TA.AperFunction,HeatsinkPad*%
%ADD15C,0.500000*%
%TD*%
%TA.AperFunction,HeatsinkPad*%
%ADD16R,1.900000X2.900000*%
%TD*%
%TA.AperFunction,ComponentPad*%
%ADD17C,0.700000*%
%TD*%
%TA.AperFunction,ComponentPad*%
%ADD18O,2.400000X0.900000*%
%TD*%
%TA.AperFunction,ComponentPad*%
%ADD19O,1.700000X0.900000*%
%TD*%
%TA.AperFunction,ViaPad*%
%ADD20C,0.600000*%
%TD*%
%TA.AperFunction,Conductor*%
%ADD21C,0.300000*%
%TD*%
G04 APERTURE END LIST*
D10*
%TO.P,TP2,1,1*%
%TO.N,/VUSB*%
X80800000Y-123700000D03*
%TD*%
D11*
%TO.P,BT1,1,+*%
%TO.N,/CELL P*%
X84500000Y-141000000D03*
%TO.P,BT1,2,-*%
%TO.N,/CELL N*%
X149500000Y-141000000D03*
%TD*%
D12*
%TO.P,J2,1,Pin_1*%
%TO.N,/5V Out*%
X107080000Y-115260000D03*
D13*
%TO.P,J2,2,Pin_2*%
%TO.N,GND*%
X104580000Y-115260000D03*
%TD*%
D14*
%TO.P,U7,1,In*%
%TO.N,Net-(U7-In)*%
X104650000Y-129770001D03*
%TO.P,U7,2,Out*%
%TO.N,VtoBoost*%
X104650000Y-119770000D03*
%TD*%
%TO.P,U6,1,In*%
%TO.N,/CELL P*%
X87000000Y-132290000D03*
%TO.P,U6,2,Out*%
%TO.N,/BAT+*%
X97000000Y-132290000D03*
%TD*%
D12*
%TO.P,J4,1,Pin_1*%
%TO.N,/9V Out*%
X142820000Y-115170000D03*
D13*
%TO.P,J4,2,Pin_2*%
%TO.N,GND*%
X140320000Y-115170000D03*
%TD*%
D15*
%TO.P,U8,9,PAD*%
%TO.N,unconnected-(U8-PAD-Pad9)_5*%
X121650000Y-126760000D03*
X121650000Y-125560000D03*
X121650000Y-124360000D03*
D16*
X120950000Y-125560000D03*
D15*
X120250000Y-126760000D03*
X120250000Y-125560000D03*
X120250000Y-124360000D03*
%TD*%
D17*
%TO.P,J1,A1,GND*%
%TO.N,GND*%
X84210000Y-108500000D03*
%TO.P,J1,A4,VBUS*%
%TO.N,/VUSB*%
X84210000Y-109350000D03*
%TO.P,J1,A5,CC1*%
%TO.N,Net-(J1-CC1)*%
X84210000Y-110200000D03*
%TO.P,J1,A6,D+*%
%TO.N,unconnected-(J1-D+-PadA6)*%
X84210000Y-111050000D03*
%TO.P,J1,A7,D-*%
%TO.N,unconnected-(J1-D--PadA7)*%
X84210000Y-111900000D03*
%TO.P,J1,A8,SBU1*%
%TO.N,GND*%
X84210000Y-112750000D03*
%TO.P,J1,A9,VBUS*%
%TO.N,/VUSB*%
X84210000Y-113600000D03*
%TO.P,J1,A12,GND*%
%TO.N,GND*%
X84210000Y-114450000D03*
%TO.P,J1,B1,GND*%
X82860000Y-114450000D03*
%TO.P,J1,B4,VBUS*%
%TO.N,/VUSB*%
X82860000Y-113600000D03*
%TO.P,J1,B5,CC2*%
%TO.N,Net-(J1-CC2)*%
X82860000Y-112750000D03*
%TO.P,J1,B6,D+*%
%TO.N,unconnected-(J1-D+-PadB6)*%
X82860000Y-111900000D03*
%TO.P,J1,B7,D-*%
%TO.N,unconnected-(J1-D--PadB7)*%
X82860000Y-111050000D03*
%TO.P,J1,B8,SBU2*%
%TO.N,GND*%
X82860000Y-110200000D03*
%TO.P,J1,B9,VBUS*%
%TO.N,/VUSB*%
X82860000Y-109350000D03*
%TO.P,J1,B12,GND*%
%TO.N,GND*%
X82860000Y-108500000D03*
D18*
%TO.P,J1,S1,SHIELD*%
X83230000Y-107150000D03*
D19*
X79850000Y-107150000D03*
D18*
X83230000Y-115800000D03*
D19*
X79850000Y-115800000D03*
%TD*%
D20*
%TO.N,GND*%
X101400000Y-106550000D03*
X117160000Y-122310000D03*
X108350000Y-124880000D03*
X124580000Y-122460000D03*
X102050000Y-106550000D03*
X121300000Y-134230000D03*
X88750000Y-105000000D03*
X113570000Y-113830000D03*
X99270000Y-125720000D03*
X140010000Y-123707000D03*
X89300000Y-105550000D03*
X137270000Y-106220000D03*
X97899884Y-105231757D03*
X136620000Y-106220000D03*
X105470000Y-122890000D03*
X91700000Y-121690000D03*
X109830000Y-131780000D03*
X133790116Y-104684356D03*
X101260000Y-121430000D03*
X115880000Y-129000000D03*
X134112439Y-105977561D03*
X133875000Y-105362760D03*
X98335001Y-106314999D03*
X99640000Y-127820000D03*
X85750000Y-118600000D03*
X120092500Y-100392500D03*
X97927457Y-105828875D03*
X116620000Y-106350000D03*
X86950000Y-108950000D03*
X123790000Y-134290000D03*
X94470000Y-121740000D03*
X96450000Y-125670000D03*
X131017500Y-119837000D03*
%TO.N,Net-(J1-CC1)*%
X86900000Y-111800000D03*
%TO.N,/Enable*%
X120180000Y-104060000D03*
X118120000Y-104060000D03*
%TD*%
D21*
%TO.N,GND*%
X84210000Y-112750000D02*
X84900000Y-112750000D01*
X82860000Y-110200000D02*
X82400000Y-110200000D01*
X109650000Y-131450000D02*
X109450000Y-131450000D01*
X82450000Y-110200000D02*
X81950000Y-109700000D01*
X82860000Y-108500000D02*
X81800000Y-108500000D01*
X84900000Y-112750000D02*
X85200000Y-112450000D01*
X82860000Y-114450000D02*
X81850000Y-114450000D01*
X84210000Y-112750000D02*
X85400000Y-112750000D01*
X82450000Y-110200000D02*
X82860000Y-110200000D01*
X82860000Y-114450000D02*
X84210000Y-114450000D01*
X82860000Y-108500000D02*
X84210000Y-108500000D01*
X82400000Y-110200000D02*
X81950000Y-110650000D01*
%TO.N,Net-(J1-CC1)*%
X86900000Y-111800000D02*
X85300000Y-110200000D01*
X85300000Y-110200000D02*
X84210000Y-110200000D01*
%TO.N,/Enable*%
X120180000Y-104060000D02*
X120175380Y-104055380D01*
X118124620Y-104055380D02*
X118120000Y-104060000D01*
X120175380Y-104055380D02*
X118124620Y-104055380D01*
%TD*%
%TA.AperFunction,Conductor*%
%TO.N,GND*%
G36*
X150003736Y-99000726D02*
G01*
X150293796Y-99018271D01*
X150308659Y-99020076D01*
X150590798Y-99071780D01*
X150605335Y-99075363D01*
X150879172Y-99160695D01*
X150893163Y-99166000D01*
X151154743Y-99283727D01*
X151167989Y-99290680D01*
X151413465Y-99439075D01*
X151425776Y-99447573D01*
X151651573Y-99624473D01*
X151662781Y-99634403D01*
X151865596Y-99837218D01*
X151875526Y-99848426D01*
X151995481Y-100001538D01*
X152052422Y-100074217D01*
X152060928Y-100086540D01*
X152209316Y-100332004D01*
X152216275Y-100345263D01*
X152333997Y-100606831D01*
X152339306Y-100620832D01*
X152424635Y-100894663D01*
X152428219Y-100909201D01*
X152479923Y-101191340D01*
X152481728Y-101206205D01*
X152499274Y-101496263D01*
X152499500Y-101503750D01*
X152499500Y-145496249D01*
X152499274Y-145503736D01*
X152481728Y-145793794D01*
X152479923Y-145808659D01*
X152428219Y-146090798D01*
X152424635Y-146105336D01*
X152339306Y-146379167D01*
X152333997Y-146393168D01*
X152216275Y-146654736D01*
X152209316Y-146667995D01*
X152060928Y-146913459D01*
X152052422Y-146925782D01*
X151875526Y-147151573D01*
X151865596Y-147162781D01*
X151662781Y-147365596D01*
X151651573Y-147375526D01*
X151425782Y-147552422D01*
X151413459Y-147560928D01*
X151167995Y-147709316D01*
X151154736Y-147716275D01*
X150893168Y-147833997D01*
X150879167Y-147839306D01*
X150605336Y-147924635D01*
X150590798Y-147928219D01*
X150308659Y-147979923D01*
X150293794Y-147981728D01*
X150003736Y-147999274D01*
X149996249Y-147999500D01*
X81003751Y-147999500D01*
X80996264Y-147999274D01*
X80706205Y-147981728D01*
X80691340Y-147979923D01*
X80409201Y-147928219D01*
X80394663Y-147924635D01*
X80120832Y-147839306D01*
X80106831Y-147833997D01*
X79845263Y-147716275D01*
X79832004Y-147709316D01*
X79586540Y-147560928D01*
X79574217Y-147552422D01*
X79348426Y-147375526D01*
X79337218Y-147365596D01*
X79134403Y-147162781D01*
X79124473Y-147151573D01*
X79006114Y-147000499D01*
X78947573Y-146925776D01*
X78939075Y-146913465D01*
X78790680Y-146667989D01*
X78783727Y-146654743D01*
X78666000Y-146393163D01*
X78660693Y-146379167D01*
X78612533Y-146224617D01*
X78575363Y-146105335D01*
X78571780Y-146090798D01*
X78520076Y-145808659D01*
X78518271Y-145793794D01*
X78500726Y-145503736D01*
X78500500Y-145496249D01*
X78500500Y-136635258D01*
X82749500Y-136635258D01*
X82749500Y-145364741D01*
X82767308Y-145500000D01*
X82779452Y-145592238D01*
X82779453Y-145592240D01*
X82838842Y-145813887D01*
X82926650Y-146025876D01*
X82926657Y-146025890D01*
X83041392Y-146224617D01*
X83181081Y-146406661D01*
X83181089Y-146406670D01*
X83343330Y-146568911D01*
X83343338Y-146568918D01*
X83525382Y-146708607D01*
X83525385Y-146708608D01*
X83525388Y-146708611D01*
X83724112Y-146823344D01*
X83724117Y-146823346D01*
X83724123Y-146823349D01*
X83815480Y-146861190D01*
X83936113Y-146911158D01*
X84157762Y-146970548D01*
X84385266Y-147000500D01*
X84385273Y-147000500D01*
X84614727Y-147000500D01*
X84614734Y-147000500D01*
X84842238Y-146970548D01*
X85063887Y-146911158D01*
X85275888Y-146823344D01*
X85474612Y-146708611D01*
X85656661Y-146568919D01*
X85656665Y-146568914D01*
X85656670Y-146568911D01*
X85818911Y-146406670D01*
X85818914Y-146406665D01*
X85818919Y-146406661D01*
X85958611Y-146224612D01*
X86073344Y-146025888D01*
X86161158Y-145813887D01*
X86220548Y-145592238D01*
X86250500Y-145364734D01*
X86250500Y-136635266D01*
X86250499Y-136635258D01*
X147749500Y-136635258D01*
X147749500Y-145364741D01*
X147767308Y-145500000D01*
X147779452Y-145592238D01*
X147779453Y-145592240D01*
X147838842Y-145813887D01*
X147926650Y-146025876D01*
X147926657Y-146025890D01*
X148041392Y-146224617D01*
X148181081Y-146406661D01*
X148181089Y-146406670D01*
X148343330Y-146568911D01*
X148343338Y-146568918D01*
X148525382Y-146708607D01*
X148525385Y-146708608D01*
X148525388Y-146708611D01*
X148724112Y-146823344D01*
X148724117Y-146823346D01*
X148724123Y-146823349D01*
X148815480Y-146861190D01*
X148936113Y-146911158D01*
X149157762Y-146970548D01*
X149385266Y-147000500D01*
X149385273Y-147000500D01*
X149614727Y-147000500D01*
X149614734Y-147000500D01*
X149842238Y-146970548D01*
X150063887Y-146911158D01*
X150275888Y-146823344D01*
X150474612Y-146708611D01*
X150656661Y-146568919D01*
X150656665Y-146568914D01*
X150656670Y-146568911D01*
X150818911Y-146406670D01*
X150818914Y-146406665D01*
X150818919Y-146406661D01*
X150958611Y-146224612D01*
X151073344Y-146025888D01*
X151161158Y-145813887D01*
X151220548Y-145592238D01*
X151250500Y-145364734D01*
X151250500Y-136635266D01*
X151220548Y-136407762D01*
X151161158Y-136186113D01*
X151073344Y-135974112D01*
X150958611Y-135775388D01*
X150958608Y-135775385D01*
X150958607Y-135775382D01*
X150818918Y-135593338D01*
X150818911Y-135593330D01*
X150656670Y-135431089D01*
X150656661Y-135431081D01*
X150474617Y-135291392D01*
X150275890Y-135176657D01*
X150275876Y-135176650D01*
X150063887Y-135088842D01*
X149842238Y-135029452D01*
X149804215Y-135024446D01*
X149614741Y-134999500D01*
X149614734Y-134999500D01*
X149385266Y-134999500D01*
X149385258Y-134999500D01*
X149168715Y-135028009D01*
X149157762Y-135029452D01*
X149064076Y-135054554D01*
X148936112Y-135088842D01*
X148724123Y-135176650D01*
X148724109Y-135176657D01*
X148525382Y-135291392D01*
X148343338Y-135431081D01*
X148181081Y-135593338D01*
X148041392Y-135775382D01*
X147926657Y-135974109D01*
X147926650Y-135974123D01*
X147838842Y-136186112D01*
X147779453Y-136407759D01*
X147779451Y-136407770D01*
X147749500Y-136635258D01*
X86250499Y-136635258D01*
X86220548Y-136407762D01*
X86161158Y-136186113D01*
X86073344Y-135974112D01*
X85958611Y-135775388D01*
X85958608Y-135775385D01*
X85958607Y-135775382D01*
X85818918Y-135593338D01*
X85818911Y-135593330D01*
X85656670Y-135431089D01*
X85656661Y-135431081D01*
X85474617Y-135291392D01*
X85275890Y-135176657D01*
X85275876Y-135176650D01*
X85063887Y-135088842D01*
X84842238Y-135029452D01*
X84804215Y-135024446D01*
X84614741Y-134999500D01*
X84614734Y-134999500D01*
X84385266Y-134999500D01*
X84385258Y-134999500D01*
X84168715Y-135028009D01*
X84157762Y-135029452D01*
X84064076Y-135054554D01*
X83936112Y-135088842D01*
X83724123Y-135176650D01*
X83724109Y-135176657D01*
X83525382Y-135291392D01*
X83343338Y-135431081D01*
X83181081Y-135593338D01*
X83041392Y-135775382D01*
X82926657Y-135974109D01*
X82926650Y-135974123D01*
X82838842Y-136186112D01*
X82779453Y-136407759D01*
X82779451Y-136407770D01*
X82749500Y-136635258D01*
X78500500Y-136635258D01*
X78500500Y-131878711D01*
X80149500Y-131878711D01*
X80149500Y-132121288D01*
X80181161Y-132361785D01*
X80243947Y-132596104D01*
X80271062Y-132661565D01*
X80336776Y-132820212D01*
X80458064Y-133030289D01*
X80458066Y-133030292D01*
X80458067Y-133030293D01*
X80605733Y-133222736D01*
X80605739Y-133222743D01*
X80777256Y-133394260D01*
X80777262Y-133394265D01*
X80969711Y-133541936D01*
X81179788Y-133663224D01*
X81403900Y-133756054D01*
X81638211Y-133818838D01*
X81818586Y-133842584D01*
X81878711Y-133850500D01*
X81878712Y-133850500D01*
X82121289Y-133850500D01*
X82169388Y-133844167D01*
X82361789Y-133818838D01*
X82596100Y-133756054D01*
X82820212Y-133663224D01*
X83030289Y-133541936D01*
X83222738Y-133394265D01*
X83394265Y-133222738D01*
X83541936Y-133030289D01*
X83663224Y-132820212D01*
X83756054Y-132596100D01*
X83818838Y-132361789D01*
X83844687Y-132165441D01*
X85099500Y-132165441D01*
X85099500Y-132414558D01*
X85099501Y-132414575D01*
X85132017Y-132661561D01*
X85196498Y-132902207D01*
X85291830Y-133132361D01*
X85291837Y-133132376D01*
X85416400Y-133348126D01*
X85568060Y-133545774D01*
X85568066Y-133545781D01*
X85744218Y-133721933D01*
X85744225Y-133721939D01*
X85941873Y-133873599D01*
X86157623Y-133998162D01*
X86157638Y-133998169D01*
X86256825Y-134039253D01*
X86387793Y-134093502D01*
X86628435Y-134157982D01*
X86875435Y-134190500D01*
X86875442Y-134190500D01*
X87124558Y-134190500D01*
X87124565Y-134190500D01*
X87371565Y-134157982D01*
X87612207Y-134093502D01*
X87842373Y-133998164D01*
X88058127Y-133873599D01*
X88255776Y-133721938D01*
X88431938Y-133545776D01*
X88583599Y-133348127D01*
X88708164Y-133132373D01*
X88803502Y-132902207D01*
X88867982Y-132661565D01*
X88900500Y-132414565D01*
X88900500Y-132165441D01*
X95099500Y-132165441D01*
X95099500Y-132414558D01*
X95099501Y-132414575D01*
X95132017Y-132661561D01*
X95196498Y-132902207D01*
X95291830Y-133132361D01*
X95291837Y-133132376D01*
X95416400Y-133348126D01*
X95568060Y-133545774D01*
X95568066Y-133545781D01*
X95744218Y-133721933D01*
X95744225Y-133721939D01*
X95941873Y-133873599D01*
X96157623Y-133998162D01*
X96157638Y-133998169D01*
X96256825Y-134039253D01*
X96387793Y-134093502D01*
X96628435Y-134157982D01*
X96875435Y-134190500D01*
X96875442Y-134190500D01*
X97124558Y-134190500D01*
X97124565Y-134190500D01*
X97371565Y-134157982D01*
X97612207Y-134093502D01*
X97842373Y-133998164D01*
X98058127Y-133873599D01*
X98255776Y-133721938D01*
X98431938Y-133545776D01*
X98583599Y-133348127D01*
X98708164Y-133132373D01*
X98803502Y-132902207D01*
X98867982Y-132661565D01*
X98900500Y-132414565D01*
X98900500Y-132165435D01*
X98867982Y-131918435D01*
X98857338Y-131878711D01*
X147149500Y-131878711D01*
X147149500Y-132121288D01*
X147181161Y-132361785D01*
X147243947Y-132596104D01*
X147271062Y-132661565D01*
X147336776Y-132820212D01*
X147458064Y-133030289D01*
X147458066Y-133030292D01*
X147458067Y-133030293D01*
X147605733Y-133222736D01*
X147605739Y-133222743D01*
X147777256Y-133394260D01*
X147777262Y-133394265D01*
X147969711Y-133541936D01*
X148179788Y-133663224D01*
X148403900Y-133756054D01*
X148638211Y-133818838D01*
X148818586Y-133842584D01*
X148878711Y-133850500D01*
X148878712Y-133850500D01*
X149121289Y-133850500D01*
X149169388Y-133844167D01*
X149361789Y-133818838D01*
X149596100Y-133756054D01*
X149820212Y-133663224D01*
X150030289Y-133541936D01*
X150222738Y-133394265D01*
X150394265Y-133222738D01*
X150541936Y-133030289D01*
X150663224Y-132820212D01*
X150756054Y-132596100D01*
X150818838Y-132361789D01*
X150850500Y-132121288D01*
X150850500Y-131878712D01*
X150818838Y-131638211D01*
X150756054Y-131403900D01*
X150663224Y-131179788D01*
X150541936Y-130969711D01*
X150394265Y-130777262D01*
X150394260Y-130777256D01*
X150222743Y-130605739D01*
X150222736Y-130605733D01*
X150030293Y-130458067D01*
X150030292Y-130458066D01*
X150030289Y-130458064D01*
X149820212Y-130336776D01*
X149820205Y-130336773D01*
X149596104Y-130243947D01*
X149361785Y-130181161D01*
X149121289Y-130149500D01*
X149121288Y-130149500D01*
X148878712Y-130149500D01*
X148878711Y-130149500D01*
X148638214Y-130181161D01*
X148403895Y-130243947D01*
X148179794Y-130336773D01*
X148179785Y-130336777D01*
X147969706Y-130458067D01*
X147777263Y-130605733D01*
X147777256Y-130605739D01*
X147605739Y-130777256D01*
X147605733Y-130777263D01*
X147458067Y-130969706D01*
X147336777Y-131179785D01*
X147336773Y-131179794D01*
X147243947Y-131403895D01*
X147181161Y-131638214D01*
X147149500Y-131878711D01*
X98857338Y-131878711D01*
X98803502Y-131677793D01*
X98749253Y-131546825D01*
X98708169Y-131447638D01*
X98708162Y-131447623D01*
X98583599Y-131231873D01*
X98431939Y-131034225D01*
X98431933Y-131034218D01*
X98255781Y-130858066D01*
X98255774Y-130858060D01*
X98058126Y-130706400D01*
X97842376Y-130581837D01*
X97842361Y-130581830D01*
X97612207Y-130486498D01*
X97371561Y-130422017D01*
X97124575Y-130389501D01*
X97124570Y-130389500D01*
X97124565Y-130389500D01*
X96875435Y-130389500D01*
X96875429Y-130389500D01*
X96875424Y-130389501D01*
X96628438Y-130422017D01*
X96387792Y-130486498D01*
X96157638Y-130581830D01*
X96157623Y-130581837D01*
X95941873Y-130706400D01*
X95744225Y-130858060D01*
X95744218Y-130858066D01*
X95568066Y-131034218D01*
X95568060Y-131034225D01*
X95416400Y-131231873D01*
X95291837Y-131447623D01*
X95291830Y-131447638D01*
X95196498Y-131677792D01*
X95132017Y-131918438D01*
X95099501Y-132165424D01*
X95099500Y-132165441D01*
X88900500Y-132165441D01*
X88900500Y-132165435D01*
X88867982Y-131918435D01*
X88803502Y-131677793D01*
X88749253Y-131546825D01*
X88708169Y-131447638D01*
X88708162Y-131447623D01*
X88583599Y-131231873D01*
X88431939Y-131034225D01*
X88431933Y-131034218D01*
X88255781Y-130858066D01*
X88255774Y-130858060D01*
X88058126Y-130706400D01*
X87842376Y-130581837D01*
X87842361Y-130581830D01*
X87612207Y-130486498D01*
X87371561Y-130422017D01*
X87124575Y-130389501D01*
X87124570Y-130389500D01*
X87124565Y-130389500D01*
X86875435Y-130389500D01*
X86875429Y-130389500D01*
X86875424Y-130389501D01*
X86628438Y-130422017D01*
X86387792Y-130486498D01*
X86157638Y-130581830D01*
X86157623Y-130581837D01*
X85941873Y-130706400D01*
X85744225Y-130858060D01*
X85744218Y-130858066D01*
X85568066Y-131034218D01*
X85568060Y-131034225D01*
X85416400Y-131231873D01*
X85291837Y-131447623D01*
X85291830Y-131447638D01*
X85196498Y-131677792D01*
X85132017Y-131918438D01*
X85099501Y-132165424D01*
X85099500Y-132165441D01*
X83844687Y-132165441D01*
X83850500Y-132121288D01*
X83850500Y-131878712D01*
X83818838Y-131638211D01*
X83756054Y-131403900D01*
X83663224Y-131179788D01*
X83541936Y-130969711D01*
X83394265Y-130777262D01*
X83394260Y-130777256D01*
X83222743Y-130605739D01*
X83222736Y-130605733D01*
X83030293Y-130458067D01*
X83030292Y-130458066D01*
X83030289Y-130458064D01*
X82820212Y-130336776D01*
X82820205Y-130336773D01*
X82596104Y-130243947D01*
X82361785Y-130181161D01*
X82121289Y-130149500D01*
X82121288Y-130149500D01*
X81878712Y-130149500D01*
X81878711Y-130149500D01*
X81638214Y-130181161D01*
X81403895Y-130243947D01*
X81179794Y-130336773D01*
X81179785Y-130336777D01*
X80969706Y-130458067D01*
X80777263Y-130605733D01*
X80777256Y-130605739D01*
X80605739Y-130777256D01*
X80605733Y-130777263D01*
X80458067Y-130969706D01*
X80336777Y-131179785D01*
X80336773Y-131179794D01*
X80243947Y-131403895D01*
X80181161Y-131638214D01*
X80149500Y-131878711D01*
X78500500Y-131878711D01*
X78500500Y-129645436D01*
X102749500Y-129645436D01*
X102749500Y-129894566D01*
X102782018Y-130141566D01*
X102792628Y-130181162D01*
X102846498Y-130382208D01*
X102941830Y-130612362D01*
X102941837Y-130612377D01*
X103066400Y-130828127D01*
X103218060Y-131025775D01*
X103218066Y-131025782D01*
X103394218Y-131201934D01*
X103394225Y-131201940D01*
X103591873Y-131353600D01*
X103807623Y-131478163D01*
X103807638Y-131478170D01*
X103906825Y-131519254D01*
X104037793Y-131573503D01*
X104278435Y-131637983D01*
X104525435Y-131670501D01*
X104525442Y-131670501D01*
X104774558Y-131670501D01*
X104774565Y-131670501D01*
X105021565Y-131637983D01*
X105262207Y-131573503D01*
X105492373Y-131478165D01*
X105708127Y-131353600D01*
X105905776Y-131201939D01*
X106081938Y-131025777D01*
X106233599Y-130828128D01*
X106358164Y-130612374D01*
X106453502Y-130382208D01*
X106517982Y-130141566D01*
X106550500Y-129894566D01*
X106550500Y-129645436D01*
X106517982Y-129398436D01*
X106453502Y-129157794D01*
X106358164Y-128927628D01*
X106233599Y-128711874D01*
X106081938Y-128514225D01*
X106081933Y-128514219D01*
X105905781Y-128338067D01*
X105905774Y-128338061D01*
X105708126Y-128186401D01*
X105492376Y-128061838D01*
X105492361Y-128061831D01*
X105262207Y-127966499D01*
X105021561Y-127902018D01*
X104774575Y-127869502D01*
X104774570Y-127869501D01*
X104774565Y-127869501D01*
X104525435Y-127869501D01*
X104525429Y-127869501D01*
X104525424Y-127869502D01*
X104278438Y-127902018D01*
X104037792Y-127966499D01*
X103807638Y-128061831D01*
X103807623Y-128061838D01*
X103591873Y-128186401D01*
X103394225Y-128338061D01*
X103394218Y-128338067D01*
X103218066Y-128514219D01*
X103218060Y-128514226D01*
X103066400Y-128711874D01*
X102941837Y-128927624D01*
X102941830Y-128927639D01*
X102846498Y-129157793D01*
X102782017Y-129398439D01*
X102749501Y-129645425D01*
X102749500Y-129645436D01*
X78500500Y-129645436D01*
X78500500Y-122402135D01*
X79049500Y-122402135D01*
X79049500Y-124997870D01*
X79049501Y-124997876D01*
X79055908Y-125057483D01*
X79106202Y-125192328D01*
X79106206Y-125192335D01*
X79192452Y-125307544D01*
X79192455Y-125307547D01*
X79307664Y-125393793D01*
X79307671Y-125393797D01*
X79442517Y-125444091D01*
X79442516Y-125444091D01*
X79449444Y-125444835D01*
X79502127Y-125450500D01*
X82097872Y-125450499D01*
X82157483Y-125444091D01*
X82292331Y-125393796D01*
X82407546Y-125307546D01*
X82493796Y-125192331D01*
X82544091Y-125057483D01*
X82550500Y-124997873D01*
X82550499Y-124062135D01*
X119499500Y-124062135D01*
X119499500Y-127057869D01*
X119499501Y-127057876D01*
X119505908Y-127117483D01*
X119556202Y-127252328D01*
X119556206Y-127252335D01*
X119642452Y-127367544D01*
X119642455Y-127367547D01*
X119757664Y-127453793D01*
X119757671Y-127453797D01*
X119802618Y-127470561D01*
X119892517Y-127504091D01*
X119952127Y-127510500D01*
X120176081Y-127510499D01*
X120176082Y-127510500D01*
X120323918Y-127510500D01*
X120323918Y-127510499D01*
X121569948Y-127510499D01*
X121569968Y-127510500D01*
X121576082Y-127510500D01*
X121731514Y-127510500D01*
X121731530Y-127510499D01*
X121947871Y-127510499D01*
X121947872Y-127510499D01*
X122007483Y-127504091D01*
X122142331Y-127453796D01*
X122257546Y-127367546D01*
X122343796Y-127252331D01*
X122394091Y-127117483D01*
X122400500Y-127057873D01*
X122400500Y-125624069D01*
X122400500Y-125486082D01*
X122400500Y-125476093D01*
X122400499Y-125476079D01*
X122400499Y-124433922D01*
X122400500Y-124433918D01*
X122400500Y-124286082D01*
X122400499Y-124286077D01*
X122400499Y-124062128D01*
X122394091Y-124002517D01*
X122343796Y-123867669D01*
X122343795Y-123867668D01*
X122343793Y-123867664D01*
X122257547Y-123752455D01*
X122257544Y-123752452D01*
X122142335Y-123666206D01*
X122142328Y-123666202D01*
X122007482Y-123615908D01*
X122007483Y-123615908D01*
X121947883Y-123609501D01*
X121947881Y-123609500D01*
X121947873Y-123609500D01*
X121723918Y-123609500D01*
X121576082Y-123609500D01*
X121576081Y-123609500D01*
X120323922Y-123609500D01*
X120323918Y-123609500D01*
X120176082Y-123609500D01*
X120176077Y-123609500D01*
X119952130Y-123609500D01*
X119952123Y-123609501D01*
X119892516Y-123615908D01*
X119757671Y-123666202D01*
X119757664Y-123666206D01*
X119642455Y-123752452D01*
X119642452Y-123752455D01*
X119556206Y-123867664D01*
X119556202Y-123867671D01*
X119505908Y-124002517D01*
X119499857Y-124058806D01*
X119499501Y-124062123D01*
X119499500Y-124062135D01*
X82550499Y-124062135D01*
X82550499Y-123666206D01*
X82550499Y-122402129D01*
X82550498Y-122402123D01*
X82550497Y-122402116D01*
X82544091Y-122342517D01*
X82493796Y-122207669D01*
X82493795Y-122207668D01*
X82493793Y-122207664D01*
X82407547Y-122092455D01*
X82407544Y-122092452D01*
X82292335Y-122006206D01*
X82292328Y-122006202D01*
X82157482Y-121955908D01*
X82157483Y-121955908D01*
X82097883Y-121949501D01*
X82097881Y-121949500D01*
X82097873Y-121949500D01*
X82097864Y-121949500D01*
X79502129Y-121949500D01*
X79502123Y-121949501D01*
X79442516Y-121955908D01*
X79307671Y-122006202D01*
X79307664Y-122006206D01*
X79192455Y-122092452D01*
X79192452Y-122092455D01*
X79106206Y-122207664D01*
X79106202Y-122207671D01*
X79055908Y-122342517D01*
X79049501Y-122402116D01*
X79049501Y-122402123D01*
X79049500Y-122402135D01*
X78500500Y-122402135D01*
X78500500Y-119645441D01*
X102749500Y-119645441D01*
X102749500Y-119894558D01*
X102749501Y-119894575D01*
X102782017Y-120141561D01*
X102846498Y-120382207D01*
X102941830Y-120612361D01*
X102941837Y-120612376D01*
X103066400Y-120828126D01*
X103218060Y-121025774D01*
X103218066Y-121025781D01*
X103394218Y-121201933D01*
X103394225Y-121201939D01*
X103591873Y-121353599D01*
X103807623Y-121478162D01*
X103807638Y-121478169D01*
X103906825Y-121519253D01*
X104037793Y-121573502D01*
X104278435Y-121637982D01*
X104525435Y-121670500D01*
X104525442Y-121670500D01*
X104774558Y-121670500D01*
X104774565Y-121670500D01*
X105021565Y-121637982D01*
X105262207Y-121573502D01*
X105492373Y-121478164D01*
X105708127Y-121353599D01*
X105905776Y-121201938D01*
X106081938Y-121025776D01*
X106233599Y-120828127D01*
X106358164Y-120612373D01*
X106453502Y-120382207D01*
X106517982Y-120141565D01*
X106550500Y-119894565D01*
X106550500Y-119645435D01*
X106517982Y-119398435D01*
X106453502Y-119157793D01*
X106358164Y-118927627D01*
X106233599Y-118711873D01*
X106081938Y-118514224D01*
X106081933Y-118514218D01*
X105905781Y-118338066D01*
X105905774Y-118338060D01*
X105708126Y-118186400D01*
X105492376Y-118061837D01*
X105492361Y-118061830D01*
X105262207Y-117966498D01*
X105021561Y-117902017D01*
X104774575Y-117869501D01*
X104774570Y-117869500D01*
X104774565Y-117869500D01*
X104525435Y-117869500D01*
X104525429Y-117869500D01*
X104525424Y-117869501D01*
X104278438Y-117902017D01*
X104037792Y-117966498D01*
X103807638Y-118061830D01*
X103807623Y-118061837D01*
X103591873Y-118186400D01*
X103394225Y-118338060D01*
X103394218Y-118338066D01*
X103218066Y-118514218D01*
X103218060Y-118514225D01*
X103066400Y-118711873D01*
X102941837Y-118927623D01*
X102941830Y-118927638D01*
X102846498Y-119157792D01*
X102782017Y-119398438D01*
X102749501Y-119645424D01*
X102749500Y-119645441D01*
X78500500Y-119645441D01*
X78500500Y-116493366D01*
X78520185Y-116426327D01*
X78572989Y-116380572D01*
X78642147Y-116370628D01*
X78705703Y-116399653D01*
X78712181Y-116405685D01*
X78844406Y-116537910D01*
X78844410Y-116537913D01*
X78999999Y-116641875D01*
X79000008Y-116641880D01*
X79172894Y-116713491D01*
X79172902Y-116713493D01*
X79356428Y-116749999D01*
X79356431Y-116750000D01*
X79600000Y-116750000D01*
X79600000Y-116100000D01*
X80100000Y-116100000D01*
X80100000Y-116750000D01*
X80343569Y-116750000D01*
X80343571Y-116749999D01*
X80527097Y-116713493D01*
X80527105Y-116713491D01*
X80699991Y-116641880D01*
X80700000Y-116641875D01*
X80855589Y-116537913D01*
X80855593Y-116537910D01*
X80987910Y-116405593D01*
X80987913Y-116405589D01*
X81091875Y-116250000D01*
X81091880Y-116249991D01*
X81163492Y-116077103D01*
X81163493Y-116077100D01*
X81168884Y-116050000D01*
X80416988Y-116050000D01*
X80434205Y-116040060D01*
X80490060Y-115984205D01*
X80529556Y-115915796D01*
X80550000Y-115839496D01*
X80550000Y-115760504D01*
X80529556Y-115684204D01*
X80490060Y-115615795D01*
X80434205Y-115559940D01*
X80416988Y-115550000D01*
X81168884Y-115550000D01*
X81168884Y-115549999D01*
X81163493Y-115522899D01*
X81163492Y-115522896D01*
X81091880Y-115350008D01*
X81091875Y-115349999D01*
X80987913Y-115194410D01*
X80987910Y-115194406D01*
X80855593Y-115062089D01*
X80855589Y-115062086D01*
X80700000Y-114958124D01*
X80699991Y-114958119D01*
X80527105Y-114886508D01*
X80527097Y-114886506D01*
X80343570Y-114850000D01*
X80100000Y-114850000D01*
X80100000Y-115500000D01*
X79600000Y-115500000D01*
X79600000Y-114850000D01*
X79356430Y-114850000D01*
X79172902Y-114886506D01*
X79172894Y-114886508D01*
X79000008Y-114958119D01*
X78999999Y-114958124D01*
X78844410Y-115062086D01*
X78844406Y-115062089D01*
X78712181Y-115194315D01*
X78650858Y-115227800D01*
X78581166Y-115222816D01*
X78525233Y-115180944D01*
X78500816Y-115115480D01*
X78500500Y-115106634D01*
X78500500Y-107843366D01*
X78520185Y-107776327D01*
X78572989Y-107730572D01*
X78642147Y-107720628D01*
X78705703Y-107749653D01*
X78712181Y-107755685D01*
X78844406Y-107887910D01*
X78844410Y-107887913D01*
X78999999Y-107991875D01*
X79000008Y-107991880D01*
X79172894Y-108063491D01*
X79172902Y-108063493D01*
X79356428Y-108099999D01*
X79356431Y-108100000D01*
X79600000Y-108100000D01*
X79600000Y-107450000D01*
X80100000Y-107450000D01*
X80100000Y-108100000D01*
X80343569Y-108100000D01*
X80343571Y-108099999D01*
X80527097Y-108063493D01*
X80527105Y-108063491D01*
X80699991Y-107991880D01*
X80700000Y-107991875D01*
X80855589Y-107887913D01*
X80855593Y-107887910D01*
X80987910Y-107755593D01*
X80987913Y-107755589D01*
X81091875Y-107600000D01*
X81091880Y-107599991D01*
X81163492Y-107427103D01*
X81163493Y-107427100D01*
X81168884Y-107400000D01*
X80416988Y-107400000D01*
X80434205Y-107390060D01*
X80490060Y-107334205D01*
X80529556Y-107265796D01*
X80550000Y-107189496D01*
X80550000Y-107110504D01*
X80529556Y-107034204D01*
X80490060Y-106965795D01*
X80434205Y-106909940D01*
X80416988Y-106900000D01*
X81168884Y-106900000D01*
X81168884Y-106899999D01*
X81561115Y-106899999D01*
X81561116Y-106900000D01*
X82313012Y-106900000D01*
X82295795Y-106909940D01*
X82239940Y-106965795D01*
X82200444Y-107034204D01*
X82180000Y-107110504D01*
X82180000Y-107189496D01*
X82200444Y-107265796D01*
X82239940Y-107334205D01*
X82295795Y-107390060D01*
X82313012Y-107400000D01*
X81561116Y-107400000D01*
X81566506Y-107427100D01*
X81566507Y-107427103D01*
X81638119Y-107599991D01*
X81638124Y-107600000D01*
X81742086Y-107755589D01*
X81742089Y-107755593D01*
X81874406Y-107887910D01*
X81874410Y-107887913D01*
X82035071Y-107995264D01*
X82034333Y-107996367D01*
X82079324Y-108040546D01*
X82094796Y-108108681D01*
X82085598Y-108148413D01*
X82042666Y-108252059D01*
X82042663Y-108252071D01*
X82010000Y-108416277D01*
X82010000Y-108583722D01*
X82042663Y-108747928D01*
X82042665Y-108747936D01*
X82096081Y-108876893D01*
X82103550Y-108946363D01*
X82096081Y-108971799D01*
X82042184Y-109101917D01*
X82042182Y-109101925D01*
X82009500Y-109266228D01*
X82009500Y-109433771D01*
X82042182Y-109598074D01*
X82042184Y-109598082D01*
X82096081Y-109728201D01*
X82103550Y-109797671D01*
X82096081Y-109823107D01*
X82042665Y-109952063D01*
X82042663Y-109952071D01*
X82010000Y-110116277D01*
X82010000Y-110283722D01*
X82042663Y-110447928D01*
X82042665Y-110447936D01*
X82096081Y-110576893D01*
X82103550Y-110646363D01*
X82096081Y-110671799D01*
X82042184Y-110801917D01*
X82042182Y-110801925D01*
X82009500Y-110966228D01*
X82009500Y-111133771D01*
X82042182Y-111298074D01*
X82042185Y-111298086D01*
X82095810Y-111427548D01*
X82103279Y-111497017D01*
X82095810Y-111522452D01*
X82042185Y-111651913D01*
X82042182Y-111651925D01*
X82009500Y-111816228D01*
X82009500Y-111983771D01*
X82042182Y-112148074D01*
X82042185Y-112148086D01*
X82095810Y-112277548D01*
X82103279Y-112347017D01*
X82095810Y-112372452D01*
X82042185Y-112501913D01*
X82042182Y-112501925D01*
X82009500Y-112666228D01*
X82009500Y-112833771D01*
X82042182Y-112998074D01*
X82042185Y-112998086D01*
X82095810Y-113127548D01*
X82103279Y-113197017D01*
X82095810Y-113222452D01*
X82042185Y-113351913D01*
X82042182Y-113351925D01*
X82009500Y-113516228D01*
X82009500Y-113683771D01*
X82042182Y-113848074D01*
X82042184Y-113848082D01*
X82096081Y-113978201D01*
X82103550Y-114047671D01*
X82096081Y-114073107D01*
X82042665Y-114202063D01*
X82042663Y-114202071D01*
X82010000Y-114366277D01*
X82010000Y-114533722D01*
X82042663Y-114697928D01*
X82042666Y-114697940D01*
X82085597Y-114801586D01*
X82093066Y-114871056D01*
X82061790Y-114933535D01*
X82034790Y-114954316D01*
X82035071Y-114954736D01*
X81874410Y-115062086D01*
X81874406Y-115062089D01*
X81742089Y-115194406D01*
X81742086Y-115194410D01*
X81638124Y-115349999D01*
X81638119Y-115350008D01*
X81566507Y-115522896D01*
X81566506Y-115522899D01*
X81561115Y-115549999D01*
X81561116Y-115550000D01*
X82313012Y-115550000D01*
X82295795Y-115559940D01*
X82239940Y-115615795D01*
X82200444Y-115684204D01*
X82180000Y-115760504D01*
X82180000Y-115839496D01*
X82200444Y-115915796D01*
X82239940Y-115984205D01*
X82295795Y-116040060D01*
X82313012Y-116050000D01*
X81561116Y-116050000D01*
X81566506Y-116077100D01*
X81566507Y-116077103D01*
X81638119Y-116249991D01*
X81638124Y-116250000D01*
X81742086Y-116405589D01*
X81742089Y-116405593D01*
X81874406Y-116537910D01*
X81874410Y-116537913D01*
X82029999Y-116641875D01*
X82030008Y-116641880D01*
X82202894Y-116713491D01*
X82202902Y-116713493D01*
X82386428Y-116749999D01*
X82386431Y-116750000D01*
X82980000Y-116750000D01*
X82980000Y-116100000D01*
X83480000Y-116100000D01*
X83480000Y-116750000D01*
X84073569Y-116750000D01*
X84073571Y-116749999D01*
X84257097Y-116713493D01*
X84257105Y-116713491D01*
X84429991Y-116641880D01*
X84430000Y-116641875D01*
X84585589Y-116537913D01*
X84585593Y-116537910D01*
X84717910Y-116405593D01*
X84717913Y-116405589D01*
X84821875Y-116250000D01*
X84821880Y-116249991D01*
X84893492Y-116077103D01*
X84893493Y-116077100D01*
X84898884Y-116050000D01*
X84146988Y-116050000D01*
X84164205Y-116040060D01*
X84220060Y-115984205D01*
X84259556Y-115915796D01*
X84280000Y-115839496D01*
X84280000Y-115760504D01*
X84259556Y-115684204D01*
X84220060Y-115615795D01*
X84164205Y-115559940D01*
X84146988Y-115550000D01*
X84898884Y-115550000D01*
X84898884Y-115549999D01*
X84893493Y-115522899D01*
X84893491Y-115522892D01*
X84886532Y-115506092D01*
X84886531Y-115506090D01*
X84821882Y-115350012D01*
X84821878Y-115350005D01*
X84771427Y-115274501D01*
X84715217Y-115268965D01*
X84692198Y-115259670D01*
X84667944Y-115254394D01*
X84654842Y-115244586D01*
X84650429Y-115242804D01*
X84639690Y-115233243D01*
X84410200Y-115003753D01*
X103230000Y-115003753D01*
X103230000Y-115010000D01*
X104146988Y-115010000D01*
X104114075Y-115067007D01*
X104080000Y-115194174D01*
X104080000Y-115325826D01*
X104114075Y-115452993D01*
X104146988Y-115510000D01*
X103230000Y-115510000D01*
X103230000Y-115516246D01*
X103263242Y-115726127D01*
X103263242Y-115726130D01*
X103328904Y-115928217D01*
X103425379Y-116117557D01*
X103550272Y-116289459D01*
X103550276Y-116289464D01*
X103700535Y-116439723D01*
X103700540Y-116439727D01*
X103872442Y-116564620D01*
X104061782Y-116661095D01*
X104263871Y-116726757D01*
X104330000Y-116737231D01*
X104330000Y-115693012D01*
X104387007Y-115725925D01*
X104514174Y-115760000D01*
X104645826Y-115760000D01*
X104772993Y-115725925D01*
X104830000Y-115693012D01*
X104830000Y-116737230D01*
X104896126Y-116726757D01*
X104896129Y-116726757D01*
X105098217Y-116661095D01*
X105287557Y-116564620D01*
X105459458Y-116439728D01*
X105598330Y-116300856D01*
X105659653Y-116267371D01*
X105729345Y-116272355D01*
X105785279Y-116314226D01*
X105791551Y-116323440D01*
X105795185Y-116329331D01*
X105795186Y-116329334D01*
X105887288Y-116478656D01*
X106011344Y-116602712D01*
X106160666Y-116694814D01*
X106327203Y-116749999D01*
X106429991Y-116760500D01*
X107730008Y-116760499D01*
X107832797Y-116749999D01*
X107999334Y-116694814D01*
X108148656Y-116602712D01*
X108272712Y-116478656D01*
X108364814Y-116329334D01*
X108419999Y-116162797D01*
X108430500Y-116060009D01*
X108430499Y-114913753D01*
X138970000Y-114913753D01*
X138970000Y-114920000D01*
X139886988Y-114920000D01*
X139854075Y-114977007D01*
X139820000Y-115104174D01*
X139820000Y-115235826D01*
X139854075Y-115362993D01*
X139886988Y-115420000D01*
X138970000Y-115420000D01*
X138970000Y-115426246D01*
X139003242Y-115636127D01*
X139003242Y-115636130D01*
X139068904Y-115838217D01*
X139165379Y-116027557D01*
X139290272Y-116199459D01*
X139290276Y-116199464D01*
X139440535Y-116349723D01*
X139440540Y-116349727D01*
X139612442Y-116474620D01*
X139801782Y-116571095D01*
X140003871Y-116636757D01*
X140070000Y-116647231D01*
X140070000Y-115603012D01*
X140127007Y-115635925D01*
X140254174Y-115670000D01*
X140385826Y-115670000D01*
X140512993Y-115635925D01*
X140570000Y-115603012D01*
X140570000Y-116647230D01*
X140636126Y-116636757D01*
X140636129Y-116636757D01*
X140838217Y-116571095D01*
X141027557Y-116474620D01*
X141199458Y-116349728D01*
X141338330Y-116210856D01*
X141399653Y-116177371D01*
X141469345Y-116182355D01*
X141525279Y-116224226D01*
X141531551Y-116233440D01*
X141535185Y-116239331D01*
X141535186Y-116239334D01*
X141627288Y-116388656D01*
X141751344Y-116512712D01*
X141900666Y-116604814D01*
X142067203Y-116659999D01*
X142169991Y-116670500D01*
X143470008Y-116670499D01*
X143572797Y-116659999D01*
X143739334Y-116604814D01*
X143888656Y-116512712D01*
X144012712Y-116388656D01*
X144104814Y-116239334D01*
X144159999Y-116072797D01*
X144170500Y-115970009D01*
X144170499Y-114369992D01*
X144159999Y-114267203D01*
X144104814Y-114100666D01*
X144012712Y-113951344D01*
X143888656Y-113827288D01*
X143739334Y-113735186D01*
X143572797Y-113680001D01*
X143572795Y-113680000D01*
X143470010Y-113669500D01*
X142169998Y-113669500D01*
X142169981Y-113669501D01*
X142067203Y-113680000D01*
X142067200Y-113680001D01*
X141900668Y-113735185D01*
X141900663Y-113735187D01*
X141751342Y-113827289D01*
X141627289Y-113951342D01*
X141531551Y-114106559D01*
X141479603Y-114153283D01*
X141410640Y-114164506D01*
X141346558Y-114136662D01*
X141338331Y-114129143D01*
X141199464Y-113990276D01*
X141199459Y-113990272D01*
X141027557Y-113865379D01*
X140838215Y-113768903D01*
X140636124Y-113703241D01*
X140570000Y-113692768D01*
X140570000Y-114736988D01*
X140512993Y-114704075D01*
X140385826Y-114670000D01*
X140254174Y-114670000D01*
X140127007Y-114704075D01*
X140070000Y-114736988D01*
X140070000Y-113692768D01*
X140069999Y-113692768D01*
X140003875Y-113703241D01*
X139801784Y-113768903D01*
X139612442Y-113865379D01*
X139440540Y-113990272D01*
X139440535Y-113990276D01*
X139290276Y-114140535D01*
X139290272Y-114140540D01*
X139165379Y-114312442D01*
X139068904Y-114501782D01*
X139003242Y-114703869D01*
X139003242Y-114703872D01*
X138970000Y-114913753D01*
X108430499Y-114913753D01*
X108430499Y-114459992D01*
X108426269Y-114418587D01*
X108419999Y-114357203D01*
X108419998Y-114357200D01*
X108413208Y-114336709D01*
X108364814Y-114190666D01*
X108272712Y-114041344D01*
X108148656Y-113917288D01*
X107999334Y-113825186D01*
X107832797Y-113770001D01*
X107832795Y-113770000D01*
X107730010Y-113759500D01*
X106429998Y-113759500D01*
X106429981Y-113759501D01*
X106327203Y-113770000D01*
X106327200Y-113770001D01*
X106160668Y-113825185D01*
X106160663Y-113825187D01*
X106011342Y-113917289D01*
X105887289Y-114041342D01*
X105791551Y-114196559D01*
X105739603Y-114243283D01*
X105670640Y-114254506D01*
X105606558Y-114226662D01*
X105598331Y-114219143D01*
X105459464Y-114080276D01*
X105459459Y-114080272D01*
X105287557Y-113955379D01*
X105098215Y-113858903D01*
X104896124Y-113793241D01*
X104830000Y-113782768D01*
X104830000Y-114826988D01*
X104772993Y-114794075D01*
X104645826Y-114760000D01*
X104514174Y-114760000D01*
X104387007Y-114794075D01*
X104330000Y-114826988D01*
X104330000Y-113782768D01*
X104329999Y-113782768D01*
X104263875Y-113793241D01*
X104061784Y-113858903D01*
X103872442Y-113955379D01*
X103700540Y-114080272D01*
X103700535Y-114080276D01*
X103550276Y-114230535D01*
X103550272Y-114230540D01*
X103425379Y-114402442D01*
X103328904Y-114591782D01*
X103263242Y-114793869D01*
X103263242Y-114793872D01*
X103230000Y-115003753D01*
X84410200Y-115003753D01*
X84210000Y-114803553D01*
X83781493Y-115232060D01*
X83720170Y-115265545D01*
X83650478Y-115260561D01*
X83606131Y-115232060D01*
X83535000Y-115160929D01*
X83463868Y-115232061D01*
X83402545Y-115265545D01*
X83332853Y-115260561D01*
X83288506Y-115232060D01*
X82770904Y-114714457D01*
X82766565Y-114706511D01*
X82759317Y-114701085D01*
X82750082Y-114676325D01*
X82737419Y-114653134D01*
X82738064Y-114644103D01*
X82734901Y-114635621D01*
X82739881Y-114612724D01*
X82746709Y-114619552D01*
X82820218Y-114650000D01*
X82899782Y-114650000D01*
X82973291Y-114619552D01*
X83029552Y-114563291D01*
X83060000Y-114489782D01*
X83060000Y-114427380D01*
X83104204Y-114418587D01*
X83173795Y-114424814D01*
X83216076Y-114452523D01*
X83535000Y-114771446D01*
X83535001Y-114771446D01*
X83853923Y-114452523D01*
X83915246Y-114419038D01*
X83965794Y-114418587D01*
X84010000Y-114427380D01*
X84010000Y-114489782D01*
X84040448Y-114563291D01*
X84096709Y-114619552D01*
X84170218Y-114650000D01*
X84249782Y-114650000D01*
X84323291Y-114619552D01*
X84379552Y-114563291D01*
X84410000Y-114489782D01*
X84410000Y-114427380D01*
X84454205Y-114418587D01*
X84523796Y-114424814D01*
X84566077Y-114452523D01*
X84964114Y-114850561D01*
X85027334Y-114697936D01*
X85027336Y-114697928D01*
X85059999Y-114533722D01*
X85060000Y-114533720D01*
X85060000Y-114366279D01*
X85059999Y-114366277D01*
X85027336Y-114202071D01*
X85027334Y-114202063D01*
X84973918Y-114073105D01*
X84966449Y-114003636D01*
X84973913Y-113978211D01*
X85027816Y-113848082D01*
X85060500Y-113683767D01*
X85060500Y-113516233D01*
X85027816Y-113351918D01*
X84973917Y-113221797D01*
X84966449Y-113152330D01*
X84973918Y-113126892D01*
X85027335Y-112997932D01*
X85027336Y-112997928D01*
X85059999Y-112833722D01*
X85060000Y-112833720D01*
X85060000Y-112666279D01*
X85059999Y-112666277D01*
X85027336Y-112502071D01*
X85027334Y-112502063D01*
X84973918Y-112373105D01*
X84966449Y-112303636D01*
X84973913Y-112278211D01*
X85027816Y-112148082D01*
X85060500Y-111983767D01*
X85060500Y-111816233D01*
X85027816Y-111651918D01*
X84974188Y-111522451D01*
X84966720Y-111452984D01*
X84974189Y-111427547D01*
X84976978Y-111420814D01*
X85027816Y-111298082D01*
X85057270Y-111150001D01*
X85089654Y-111088093D01*
X85150370Y-111053519D01*
X85220139Y-111057258D01*
X85266568Y-111086514D01*
X86082984Y-111902930D01*
X86116469Y-111964253D01*
X86116920Y-111966420D01*
X86130261Y-112033489D01*
X86130264Y-112033501D01*
X86190602Y-112179172D01*
X86190609Y-112179185D01*
X86278210Y-112310288D01*
X86278213Y-112310292D01*
X86389707Y-112421786D01*
X86389711Y-112421789D01*
X86520814Y-112509390D01*
X86520827Y-112509397D01*
X86618853Y-112550000D01*
X86666503Y-112569737D01*
X86821153Y-112600499D01*
X86821156Y-112600500D01*
X86821158Y-112600500D01*
X86978844Y-112600500D01*
X86978845Y-112600499D01*
X87133497Y-112569737D01*
X87279179Y-112509394D01*
X87410289Y-112421789D01*
X87521789Y-112310289D01*
X87609394Y-112179179D01*
X87669737Y-112033497D01*
X87700500Y-111878842D01*
X87700500Y-111721158D01*
X87700500Y-111721155D01*
X87700499Y-111721153D01*
X87669737Y-111566503D01*
X87631836Y-111475000D01*
X87609397Y-111420827D01*
X87609390Y-111420814D01*
X87521789Y-111289711D01*
X87521786Y-111289707D01*
X87410292Y-111178213D01*
X87410288Y-111178210D01*
X87279185Y-111090609D01*
X87279172Y-111090602D01*
X87133501Y-111030264D01*
X87133489Y-111030261D01*
X87066420Y-111016920D01*
X87004509Y-110984535D01*
X87002930Y-110982984D01*
X85714674Y-109694727D01*
X85714673Y-109694726D01*
X85714669Y-109694723D01*
X85608127Y-109623535D01*
X85489744Y-109574499D01*
X85489738Y-109574497D01*
X85364071Y-109549500D01*
X85364069Y-109549500D01*
X85184500Y-109549500D01*
X85117461Y-109529815D01*
X85071706Y-109477011D01*
X85060500Y-109425500D01*
X85060500Y-109266232D01*
X85060499Y-109266228D01*
X85027817Y-109101925D01*
X85027816Y-109101918D01*
X84973917Y-108971797D01*
X84966449Y-108902330D01*
X84973918Y-108876892D01*
X85027335Y-108747932D01*
X85027336Y-108747928D01*
X85059999Y-108583722D01*
X85060000Y-108583720D01*
X85060000Y-108416279D01*
X85059999Y-108416277D01*
X85027336Y-108252071D01*
X85027334Y-108252063D01*
X84964114Y-108099437D01*
X84566076Y-108497476D01*
X84504753Y-108530961D01*
X84454204Y-108531412D01*
X84410000Y-108522619D01*
X84410000Y-108460218D01*
X84379552Y-108386709D01*
X84323291Y-108330448D01*
X84249782Y-108300000D01*
X84170218Y-108300000D01*
X84096709Y-108330448D01*
X84040448Y-108386709D01*
X84010000Y-108460218D01*
X84010000Y-108522618D01*
X83965794Y-108531412D01*
X83896202Y-108525185D01*
X83853922Y-108497476D01*
X83535001Y-108178553D01*
X83535000Y-108178553D01*
X83216076Y-108497476D01*
X83211314Y-108500075D01*
X83208319Y-108504601D01*
X83180972Y-108516643D01*
X83154753Y-108530961D01*
X83148020Y-108531155D01*
X83144375Y-108532761D01*
X83120380Y-108531955D01*
X83109084Y-108532282D01*
X83106628Y-108531894D01*
X83060000Y-108522619D01*
X83060000Y-108460218D01*
X83029552Y-108386709D01*
X82973291Y-108330448D01*
X82899782Y-108300000D01*
X82820218Y-108300000D01*
X82746709Y-108330448D01*
X82738177Y-108338979D01*
X82742403Y-108279889D01*
X82770904Y-108235542D01*
X83288506Y-107717939D01*
X83349829Y-107684454D01*
X83419520Y-107689438D01*
X83463868Y-107717938D01*
X83535000Y-107789069D01*
X83606131Y-107717939D01*
X83667454Y-107684454D01*
X83737146Y-107689438D01*
X83781493Y-107717939D01*
X84209999Y-108146445D01*
X84639690Y-107716755D01*
X84701013Y-107683270D01*
X84715218Y-107681033D01*
X84771428Y-107675497D01*
X84821880Y-107599991D01*
X84893492Y-107427103D01*
X84893493Y-107427100D01*
X84898884Y-107400000D01*
X84146988Y-107400000D01*
X84164205Y-107390060D01*
X84220060Y-107334205D01*
X84259556Y-107265796D01*
X84280000Y-107189496D01*
X84280000Y-107110504D01*
X84259556Y-107034204D01*
X84220060Y-106965795D01*
X84164205Y-106909940D01*
X84146988Y-106900000D01*
X84898884Y-106900000D01*
X84898884Y-106899999D01*
X84893493Y-106872899D01*
X84893492Y-106872896D01*
X84821880Y-106700008D01*
X84821875Y-106699999D01*
X84717913Y-106544410D01*
X84717910Y-106544406D01*
X84585593Y-106412089D01*
X84585589Y-106412086D01*
X84430000Y-106308124D01*
X84429991Y-106308119D01*
X84257105Y-106236508D01*
X84257097Y-106236506D01*
X84073570Y-106200000D01*
X83480000Y-106200000D01*
X83480000Y-106850000D01*
X82980000Y-106850000D01*
X82980000Y-106200000D01*
X82386430Y-106200000D01*
X82202902Y-106236506D01*
X82202894Y-106236508D01*
X82030008Y-106308119D01*
X82029999Y-106308124D01*
X81874410Y-106412086D01*
X81874406Y-106412089D01*
X81742089Y-106544406D01*
X81742086Y-106544410D01*
X81638124Y-106699999D01*
X81638119Y-106700008D01*
X81566507Y-106872896D01*
X81566506Y-106872899D01*
X81561115Y-106899999D01*
X81168884Y-106899999D01*
X81163493Y-106872899D01*
X81163492Y-106872896D01*
X81091880Y-106700008D01*
X81091875Y-106699999D01*
X80987913Y-106544410D01*
X80987910Y-106544406D01*
X80855593Y-106412089D01*
X80855589Y-106412086D01*
X80700000Y-106308124D01*
X80699991Y-106308119D01*
X80527105Y-106236508D01*
X80527097Y-106236506D01*
X80343570Y-106200000D01*
X80100000Y-106200000D01*
X80100000Y-106850000D01*
X79600000Y-106850000D01*
X79600000Y-106200000D01*
X79356430Y-106200000D01*
X79172902Y-106236506D01*
X79172894Y-106236508D01*
X79000008Y-106308119D01*
X78999999Y-106308124D01*
X78844410Y-106412086D01*
X78844406Y-106412089D01*
X78712181Y-106544315D01*
X78650858Y-106577800D01*
X78581166Y-106572816D01*
X78525233Y-106530944D01*
X78500816Y-106465480D01*
X78500500Y-106456634D01*
X78500500Y-102378711D01*
X80149500Y-102378711D01*
X80149500Y-102621288D01*
X80181161Y-102861785D01*
X80243947Y-103096104D01*
X80311628Y-103259500D01*
X80336776Y-103320212D01*
X80458064Y-103530289D01*
X80458066Y-103530292D01*
X80458067Y-103530293D01*
X80605733Y-103722736D01*
X80605739Y-103722743D01*
X80777256Y-103894260D01*
X80777262Y-103894265D01*
X80969711Y-104041936D01*
X81179788Y-104163224D01*
X81403900Y-104256054D01*
X81638211Y-104318838D01*
X81818586Y-104342584D01*
X81878711Y-104350500D01*
X81878712Y-104350500D01*
X82121289Y-104350500D01*
X82169388Y-104344167D01*
X82361789Y-104318838D01*
X82596100Y-104256054D01*
X82820212Y-104163224D01*
X83030289Y-104041936D01*
X83109503Y-103981153D01*
X117319500Y-103981153D01*
X117319500Y-104138846D01*
X117350261Y-104293489D01*
X117350264Y-104293501D01*
X117410602Y-104439172D01*
X117410609Y-104439185D01*
X117498210Y-104570288D01*
X117498213Y-104570292D01*
X117609707Y-104681786D01*
X117609711Y-104681789D01*
X117740814Y-104769390D01*
X117740827Y-104769397D01*
X117886498Y-104829735D01*
X117886503Y-104829737D01*
X118041153Y-104860499D01*
X118041156Y-104860500D01*
X118041158Y-104860500D01*
X118198844Y-104860500D01*
X118198845Y-104860499D01*
X118353497Y-104829737D01*
X118499179Y-104769394D01*
X118562959Y-104726777D01*
X118629635Y-104705900D01*
X118631849Y-104705880D01*
X119668151Y-104705880D01*
X119735190Y-104725565D01*
X119736990Y-104726743D01*
X119800821Y-104769394D01*
X119800823Y-104769395D01*
X119800827Y-104769397D01*
X119946498Y-104829735D01*
X119946503Y-104829737D01*
X120101153Y-104860499D01*
X120101156Y-104860500D01*
X120101158Y-104860500D01*
X120258844Y-104860500D01*
X120258845Y-104860499D01*
X120413497Y-104829737D01*
X120559179Y-104769394D01*
X120690289Y-104681789D01*
X120801789Y-104570289D01*
X120889394Y-104439179D01*
X120949737Y-104293497D01*
X120980500Y-104138842D01*
X120980500Y-103981158D01*
X120980500Y-103981155D01*
X120980499Y-103981153D01*
X120949738Y-103826510D01*
X120949737Y-103826503D01*
X120906759Y-103722743D01*
X120889397Y-103680827D01*
X120889390Y-103680814D01*
X120801789Y-103549711D01*
X120801786Y-103549707D01*
X120690292Y-103438213D01*
X120690288Y-103438210D01*
X120559185Y-103350609D01*
X120559172Y-103350602D01*
X120413501Y-103290264D01*
X120413489Y-103290261D01*
X120258845Y-103259500D01*
X120258842Y-103259500D01*
X120101158Y-103259500D01*
X120101155Y-103259500D01*
X119946510Y-103290261D01*
X119946498Y-103290264D01*
X119800822Y-103350604D01*
X119800819Y-103350606D01*
X119750869Y-103383982D01*
X119684192Y-103404860D01*
X119681979Y-103404880D01*
X118618021Y-103404880D01*
X118550982Y-103385195D01*
X118549131Y-103383982D01*
X118499180Y-103350606D01*
X118499177Y-103350604D01*
X118353501Y-103290264D01*
X118353489Y-103290261D01*
X118198845Y-103259500D01*
X118198842Y-103259500D01*
X118041158Y-103259500D01*
X118041155Y-103259500D01*
X117886510Y-103290261D01*
X117886498Y-103290264D01*
X117740827Y-103350602D01*
X117740814Y-103350609D01*
X117609711Y-103438210D01*
X117609707Y-103438213D01*
X117498213Y-103549707D01*
X117498210Y-103549711D01*
X117410609Y-103680814D01*
X117410602Y-103680827D01*
X117350264Y-103826498D01*
X117350261Y-103826510D01*
X117319500Y-103981153D01*
X83109503Y-103981153D01*
X83222738Y-103894265D01*
X83222743Y-103894260D01*
X83229619Y-103887385D01*
X83394260Y-103722743D01*
X83394265Y-103722738D01*
X83541936Y-103530289D01*
X83663224Y-103320212D01*
X83756054Y-103096100D01*
X83818838Y-102861789D01*
X83850500Y-102621288D01*
X83850500Y-102378712D01*
X83850500Y-102378711D01*
X147149500Y-102378711D01*
X147149500Y-102621288D01*
X147181161Y-102861785D01*
X147243947Y-103096104D01*
X147311628Y-103259500D01*
X147336776Y-103320212D01*
X147458064Y-103530289D01*
X147458066Y-103530292D01*
X147458067Y-103530293D01*
X147605733Y-103722736D01*
X147605739Y-103722743D01*
X147777256Y-103894260D01*
X147777262Y-103894265D01*
X147969711Y-104041936D01*
X148179788Y-104163224D01*
X148403900Y-104256054D01*
X148638211Y-104318838D01*
X148818586Y-104342584D01*
X148878711Y-104350500D01*
X148878712Y-104350500D01*
X149121289Y-104350500D01*
X149169388Y-104344167D01*
X149361789Y-104318838D01*
X149596100Y-104256054D01*
X149820212Y-104163224D01*
X150030289Y-104041936D01*
X150222738Y-103894265D01*
X150394265Y-103722738D01*
X150541936Y-103530289D01*
X150663224Y-103320212D01*
X150756054Y-103096100D01*
X150818838Y-102861789D01*
X150850500Y-102621288D01*
X150850500Y-102378712D01*
X150818838Y-102138211D01*
X150756054Y-101903900D01*
X150663224Y-101679788D01*
X150541936Y-101469711D01*
X150394265Y-101277262D01*
X150394260Y-101277256D01*
X150222743Y-101105739D01*
X150222736Y-101105733D01*
X150030293Y-100958067D01*
X150030292Y-100958066D01*
X150030289Y-100958064D01*
X149820212Y-100836776D01*
X149820205Y-100836773D01*
X149596104Y-100743947D01*
X149361785Y-100681161D01*
X149121289Y-100649500D01*
X149121288Y-100649500D01*
X148878712Y-100649500D01*
X148878711Y-100649500D01*
X148638214Y-100681161D01*
X148403895Y-100743947D01*
X148179794Y-100836773D01*
X148179785Y-100836777D01*
X147969706Y-100958067D01*
X147777263Y-101105733D01*
X147777256Y-101105739D01*
X147605739Y-101277256D01*
X147605733Y-101277263D01*
X147458067Y-101469706D01*
X147336777Y-101679785D01*
X147336773Y-101679794D01*
X147243947Y-101903895D01*
X147181161Y-102138214D01*
X147149500Y-102378711D01*
X83850500Y-102378711D01*
X83818838Y-102138211D01*
X83756054Y-101903900D01*
X83663224Y-101679788D01*
X83541936Y-101469711D01*
X83394265Y-101277262D01*
X83394260Y-101277256D01*
X83222743Y-101105739D01*
X83222736Y-101105733D01*
X83030293Y-100958067D01*
X83030292Y-100958066D01*
X83030289Y-100958064D01*
X82820212Y-100836776D01*
X82820205Y-100836773D01*
X82596104Y-100743947D01*
X82361785Y-100681161D01*
X82121289Y-100649500D01*
X82121288Y-100649500D01*
X81878712Y-100649500D01*
X81878711Y-100649500D01*
X81638214Y-100681161D01*
X81403895Y-100743947D01*
X81179794Y-100836773D01*
X81179785Y-100836777D01*
X80969706Y-100958067D01*
X80777263Y-101105733D01*
X80777256Y-101105739D01*
X80605739Y-101277256D01*
X80605733Y-101277263D01*
X80458067Y-101469706D01*
X80336777Y-101679785D01*
X80336773Y-101679794D01*
X80243947Y-101903895D01*
X80181161Y-102138214D01*
X80149500Y-102378711D01*
X78500500Y-102378711D01*
X78500500Y-101503750D01*
X78500726Y-101496263D01*
X78518271Y-101206205D01*
X78520076Y-101191340D01*
X78571780Y-100909201D01*
X78575364Y-100894663D01*
X78593402Y-100836777D01*
X78660696Y-100620822D01*
X78665998Y-100606841D01*
X78783731Y-100345249D01*
X78790676Y-100332016D01*
X78939080Y-100086526D01*
X78947567Y-100074230D01*
X79124480Y-99848417D01*
X79134395Y-99837226D01*
X79337226Y-99634395D01*
X79348417Y-99624480D01*
X79574230Y-99447567D01*
X79586526Y-99439080D01*
X79832016Y-99290676D01*
X79845249Y-99283731D01*
X80106841Y-99165998D01*
X80120822Y-99160696D01*
X80394668Y-99075362D01*
X80409197Y-99071780D01*
X80691344Y-99020075D01*
X80706201Y-99018271D01*
X80996264Y-99000726D01*
X81003751Y-99000500D01*
X81065892Y-99000500D01*
X149934108Y-99000500D01*
X149996249Y-99000500D01*
X150003736Y-99000726D01*
G37*
%TD.AperFunction*%
%TD*%
M02*
