%TF.GenerationSoftware,KiCad,Pcbnew,9.0.7*%
%TF.CreationDate,2026-04-30T22:30:34-05:00*%
%TF.ProjectId,bps_board_v2,6270735f-626f-4617-9264-5f76322e6b69,rev?*%
%TF.SameCoordinates,Original*%
%TF.FileFunction,Copper,L1,Top*%
%TF.FilePolarity,Positive*%
%FSLAX46Y46*%
G04 Gerber Fmt 4.6, Leading zero omitted, Abs format (unit mm)*
G04 Created by KiCad (PCBNEW 9.0.7) date 2026-04-30 22:30:34*
%MOMM*%
%LPD*%
G01*
G04 APERTURE LIST*
G04 Aperture macros list*
%AMRoundRect*
0 Rectangle with rounded corners*
0 $1 Rounding radius*
0 $2 $3 $4 $5 $6 $7 $8 $9 X,Y pos of 4 corners*
0 Add a 4 corners polygon primitive as box body*
4,1,4,$2,$3,$4,$5,$6,$7,$8,$9,$2,$3,0*
0 Add four circle primitives for the rounded corners*
1,1,$1+$1,$2,$3*
1,1,$1+$1,$4,$5*
1,1,$1+$1,$6,$7*
1,1,$1+$1,$8,$9*
0 Add four rect primitives between the rounded corners*
20,1,$1+$1,$2,$3,$4,$5,0*
20,1,$1+$1,$4,$5,$6,$7,0*
20,1,$1+$1,$6,$7,$8,$9,0*
20,1,$1+$1,$8,$9,$2,$3,0*%
G04 Aperture macros list end*
%TA.AperFunction,SMDPad,CuDef*%
%ADD10RoundRect,0.250000X-0.625000X0.400000X-0.625000X-0.400000X0.625000X-0.400000X0.625000X0.400000X0*%
%TD*%
%TA.AperFunction,SMDPad,CuDef*%
%ADD11RoundRect,0.250000X0.650000X-0.412500X0.650000X0.412500X-0.650000X0.412500X-0.650000X-0.412500X0*%
%TD*%
%TA.AperFunction,SMDPad,CuDef*%
%ADD12RoundRect,0.330000X-0.770000X1.070000X-0.770000X-1.070000X0.770000X-1.070000X0.770000X1.070000X0*%
%TD*%
%TA.AperFunction,SMDPad,CuDef*%
%ADD13RoundRect,0.250000X0.400000X0.625000X-0.400000X0.625000X-0.400000X-0.625000X0.400000X-0.625000X0*%
%TD*%
%TA.AperFunction,SMDPad,CuDef*%
%ADD14RoundRect,0.050000X0.285000X0.100000X-0.285000X0.100000X-0.285000X-0.100000X0.285000X-0.100000X0*%
%TD*%
%TA.AperFunction,SMDPad,CuDef*%
%ADD15RoundRect,0.237500X-0.237500X0.287500X-0.237500X-0.287500X0.237500X-0.287500X0.237500X0.287500X0*%
%TD*%
%TA.AperFunction,SMDPad,CuDef*%
%ADD16RoundRect,0.450000X-1.050000X-1.050000X1.050000X-1.050000X1.050000X1.050000X-1.050000X1.050000X0*%
%TD*%
%TA.AperFunction,SMDPad,CuDef*%
%ADD17RoundRect,0.250000X-0.400000X-0.625000X0.400000X-0.625000X0.400000X0.625000X-0.400000X0.625000X0*%
%TD*%
%TA.AperFunction,SMDPad,CuDef*%
%ADD18RoundRect,0.450000X-1.050000X2.550000X-1.050000X-2.550000X1.050000X-2.550000X1.050000X2.550000X0*%
%TD*%
%TA.AperFunction,ComponentPad*%
%ADD19R,2.500000X2.500000*%
%TD*%
%TA.AperFunction,SMDPad,CuDef*%
%ADD20RoundRect,0.150000X-0.512500X-0.150000X0.512500X-0.150000X0.512500X0.150000X-0.512500X0.150000X0*%
%TD*%
%TA.AperFunction,ComponentPad*%
%ADD21O,2.500000X11.000000*%
%TD*%
%TA.AperFunction,SMDPad,CuDef*%
%ADD22RoundRect,0.250000X0.625000X-0.400000X0.625000X0.400000X-0.625000X0.400000X-0.625000X-0.400000X0*%
%TD*%
%TA.AperFunction,ComponentPad*%
%ADD23RoundRect,0.250000X0.600000X0.750000X-0.600000X0.750000X-0.600000X-0.750000X0.600000X-0.750000X0*%
%TD*%
%TA.AperFunction,ComponentPad*%
%ADD24O,1.700000X2.000000*%
%TD*%
%TA.AperFunction,ComponentPad*%
%ADD25C,2.800000*%
%TD*%
%TA.AperFunction,SMDPad,CuDef*%
%ADD26RoundRect,0.250000X-0.412500X-0.650000X0.412500X-0.650000X0.412500X0.650000X-0.412500X0.650000X0*%
%TD*%
%TA.AperFunction,SMDPad,CuDef*%
%ADD27RoundRect,0.250000X0.412500X0.650000X-0.412500X0.650000X-0.412500X-0.650000X0.412500X-0.650000X0*%
%TD*%
%TA.AperFunction,SMDPad,CuDef*%
%ADD28RoundRect,0.150000X-0.150000X0.512500X-0.150000X-0.512500X0.150000X-0.512500X0.150000X0.512500X0*%
%TD*%
%TA.AperFunction,SMDPad,CuDef*%
%ADD29RoundRect,0.162500X0.617500X0.162500X-0.617500X0.162500X-0.617500X-0.162500X0.617500X-0.162500X0*%
%TD*%
%TA.AperFunction,SMDPad,CuDef*%
%ADD30RoundRect,0.150000X0.825000X0.150000X-0.825000X0.150000X-0.825000X-0.150000X0.825000X-0.150000X0*%
%TD*%
%TA.AperFunction,HeatsinkPad*%
%ADD31C,0.500000*%
%TD*%
%TA.AperFunction,HeatsinkPad*%
%ADD32R,2.410000X3.300000*%
%TD*%
%TA.AperFunction,SMDPad,CuDef*%
%ADD33RoundRect,0.250000X-0.650000X0.412500X-0.650000X-0.412500X0.650000X-0.412500X0.650000X0.412500X0*%
%TD*%
%TA.AperFunction,ComponentPad*%
%ADD34C,0.700000*%
%TD*%
%TA.AperFunction,ComponentPad*%
%ADD35O,2.400000X0.900000*%
%TD*%
%TA.AperFunction,ComponentPad*%
%ADD36O,1.700000X0.900000*%
%TD*%
%TA.AperFunction,ViaPad*%
%ADD37C,0.600000*%
%TD*%
%TA.AperFunction,Conductor*%
%ADD38C,1.000000*%
%TD*%
%TA.AperFunction,Conductor*%
%ADD39C,0.500000*%
%TD*%
%TA.AperFunction,Conductor*%
%ADD40C,0.750000*%
%TD*%
%TA.AperFunction,Conductor*%
%ADD41C,0.300000*%
%TD*%
%TA.AperFunction,Conductor*%
%ADD42C,0.200000*%
%TD*%
%TA.AperFunction,Conductor*%
%ADD43C,0.635000*%
%TD*%
G04 APERTURE END LIST*
D10*
%TO.P,R13,1*%
%TO.N,Net-(R13-Pad1)*%
X114350000Y-104780000D03*
%TO.P,R13,2*%
%TO.N,Net-(U3-+)*%
X114350000Y-107880000D03*
%TD*%
D11*
%TO.P,C2,1*%
%TO.N,GND*%
X123790000Y-132892500D03*
%TO.P,C2,2*%
%TO.N,Net-(D6-A)*%
X123790000Y-129767500D03*
%TD*%
D12*
%TO.P,D5,1,K*%
%TO.N,/5V Out*%
X108280500Y-109800000D03*
%TO.P,D5,2,A*%
%TO.N,Net-(D5-A)*%
X103819500Y-109800000D03*
%TD*%
D13*
%TO.P,R17,1*%
%TO.N,/5V Out*%
X107350000Y-102200000D03*
%TO.P,R17,2*%
%TO.N,Net-(R17-Pad2)*%
X104250000Y-102200000D03*
%TD*%
D14*
%TO.P,U9,1,GND*%
%TO.N,GND*%
X98640000Y-127817500D03*
%TO.P,U9,2,VOUT*%
%TO.N,Net-(U7-In)*%
X98640000Y-127317500D03*
%TO.P,U9,3,VIN1*%
%TO.N,/BAT+*%
X98640000Y-126817500D03*
%TO.P,U9,4,ON*%
%TO.N,GND*%
X98640000Y-126317500D03*
%TO.P,U9,5,GND*%
X97160000Y-126317500D03*
%TO.P,U9,6,VIN2*%
%TO.N,/VUSB*%
X97160000Y-126817500D03*
%TO.P,U9,7,VOUT*%
%TO.N,Net-(U7-In)*%
X97160000Y-127317500D03*
%TO.P,U9,8,ST*%
%TO.N,unconnected-(U9-ST-Pad8)*%
X97160000Y-127817500D03*
%TD*%
D15*
%TO.P,D7,1,K*%
%TO.N,Net-(D7-K)*%
X130120000Y-130285000D03*
%TO.P,D7,2,A*%
%TO.N,Net-(D6-A)*%
X130120000Y-132035000D03*
%TD*%
D16*
%TO.P,J3,1,Pin_1*%
%TO.N,/CELL P*%
X110240000Y-145300000D03*
%TD*%
D10*
%TO.P,R12,1*%
%TO.N,Net-(U3-+)*%
X120930000Y-110830000D03*
%TO.P,R12,2*%
%TO.N,Net-(R12-Pad2)*%
X120930000Y-113930000D03*
%TD*%
%TO.P,R33,1*%
%TO.N,Net-(R32-Pad2)*%
X109810000Y-127230000D03*
%TO.P,R33,2*%
%TO.N,GND*%
X109810000Y-130330000D03*
%TD*%
D13*
%TO.P,R25,1*%
%TO.N,Net-(U5-FB)*%
X96800000Y-102000000D03*
%TO.P,R25,2*%
%TO.N,Net-(R18-Pad1)*%
X93700000Y-102000000D03*
%TD*%
%TO.P,R30,1*%
%TO.N,Net-(D7-K)*%
X130000000Y-127200000D03*
%TO.P,R30,2*%
%TO.N,Net-(U8-PPR)*%
X126900000Y-127200000D03*
%TD*%
%TO.P,R23,1*%
%TO.N,Net-(R12-Pad2)*%
X118200000Y-113740000D03*
%TO.P,R23,2*%
%TO.N,GND*%
X115100000Y-113740000D03*
%TD*%
D17*
%TO.P,R27,1*%
%TO.N,GND*%
X123445000Y-102070000D03*
%TO.P,R27,2*%
%TO.N,Net-(R16-Pad2)*%
X126545000Y-102070000D03*
%TD*%
D11*
%TO.P,C8,1*%
%TO.N,VtoBoost*%
X91750000Y-108700000D03*
%TO.P,C8,2*%
%TO.N,GND*%
X91750000Y-105575000D03*
%TD*%
D18*
%TO.P,L2,1,1*%
%TO.N,Net-(D5-A)*%
X98300000Y-114000000D03*
%TO.P,L2,2,2*%
%TO.N,VtoBoost*%
X93000000Y-114000000D03*
%TD*%
D19*
%TO.P,TP2,1,1*%
%TO.N,/VUSB*%
X80800000Y-123700000D03*
%TD*%
D20*
%TO.P,Q1,1,D1*%
%TO.N,GND*%
X141822500Y-123707000D03*
%TO.P,Q1,2,S1/D2*%
%TO.N,unconnected-(Q1-S1{slash}D2-Pad2)_1*%
X141822500Y-124657000D03*
%TO.P,Q1,3,S2*%
%TO.N,/CELL N*%
X141822500Y-125607000D03*
%TO.P,Q1,4,G2*%
%TO.N,Net-(Q1-G2)*%
X144097500Y-125607000D03*
%TO.P,Q1,5,S1/D2*%
%TO.N,unconnected-(Q1-S1{slash}D2-Pad2)*%
X144097500Y-124657000D03*
%TO.P,Q1,6,G1*%
%TO.N,Net-(Q1-G1)*%
X144097500Y-123707000D03*
%TD*%
D12*
%TO.P,D4,1,K*%
%TO.N,/9V Out*%
X144225500Y-109870000D03*
%TO.P,D4,2,A*%
%TO.N,Net-(D4-A)*%
X139764500Y-109870000D03*
%TD*%
D13*
%TO.P,R29,1*%
%TO.N,Net-(D6-K)*%
X130000000Y-124430000D03*
%TO.P,R29,2*%
%TO.N,Net-(U8-CHG)*%
X126900000Y-124430000D03*
%TD*%
D17*
%TO.P,R10,1*%
%TO.N,Net-(J1-CC2)*%
X81250000Y-118600000D03*
%TO.P,R10,2*%
%TO.N,GND*%
X84350000Y-118600000D03*
%TD*%
D11*
%TO.P,C13,1*%
%TO.N,/VUSB*%
X94470000Y-126380000D03*
%TO.P,C13,2*%
%TO.N,GND*%
X94470000Y-123255000D03*
%TD*%
D10*
%TO.P,R5,1*%
%TO.N,Net-(R3-Pad2)*%
X110030000Y-121780000D03*
%TO.P,R5,2*%
%TO.N,GND*%
X110030000Y-124880000D03*
%TD*%
D16*
%TO.P,J5,1,Pin_1*%
%TO.N,/CELL N*%
X122440000Y-145380000D03*
%TD*%
D21*
%TO.P,BT1,1,+*%
%TO.N,/CELL P*%
X84500000Y-141000000D03*
%TO.P,BT1,2,-*%
%TO.N,/CELL N*%
X149500000Y-141000000D03*
%TD*%
D22*
%TO.P,R3,1*%
%TO.N,Net-(U8-IMIN)*%
X112820000Y-124940000D03*
%TO.P,R3,2*%
%TO.N,Net-(R3-Pad2)*%
X112820000Y-121840000D03*
%TD*%
D13*
%TO.P,R16,1*%
%TO.N,Net-(U4-FB)*%
X131845000Y-102170000D03*
%TO.P,R16,2*%
%TO.N,Net-(R16-Pad2)*%
X128745000Y-102170000D03*
%TD*%
D10*
%TO.P,R1,1*%
%TO.N,Net-(U2-VCC)*%
X137120000Y-128250000D03*
%TO.P,R1,2*%
%TO.N,/CELL P*%
X137120000Y-131350000D03*
%TD*%
D17*
%TO.P,R28,1*%
%TO.N,Net-(U4-FB)*%
X134195000Y-102170000D03*
%TO.P,R28,2*%
%TO.N,Net-(R15-Pad2)*%
X137295000Y-102170000D03*
%TD*%
D11*
%TO.P,C6,1*%
%TO.N,VtoBoost*%
X127195000Y-108232500D03*
%TO.P,C6,2*%
%TO.N,GND*%
X127195000Y-105107500D03*
%TD*%
%TO.P,C11,1*%
%TO.N,/BAT+*%
X101260000Y-126017500D03*
%TO.P,C11,2*%
%TO.N,GND*%
X101260000Y-122892500D03*
%TD*%
D23*
%TO.P,J2,1,Pin_1*%
%TO.N,/5V Out*%
X107080000Y-115260000D03*
D24*
%TO.P,J2,2,Pin_2*%
%TO.N,GND*%
X104580000Y-115260000D03*
%TD*%
D25*
%TO.P,U7,1,In*%
%TO.N,Net-(U7-In)*%
X104650000Y-129770001D03*
%TO.P,U7,2,Out*%
%TO.N,VtoBoost*%
X104650000Y-119770000D03*
%TD*%
D26*
%TO.P,C1,1*%
%TO.N,Net-(U2-VCC)*%
X139687500Y-128290000D03*
%TO.P,C1,2*%
%TO.N,/CELL N*%
X142812500Y-128290000D03*
%TD*%
D13*
%TO.P,R22,1*%
%TO.N,VtoBoost*%
X114350000Y-102020000D03*
%TO.P,R22,2*%
%TO.N,Net-(R13-Pad1)*%
X111250000Y-102020000D03*
%TD*%
D27*
%TO.P,C10,1*%
%TO.N,/BAT+*%
X118742500Y-130830000D03*
%TO.P,C10,2*%
%TO.N,GND*%
X115617500Y-130830000D03*
%TD*%
D11*
%TO.P,C3,1*%
%TO.N,/BAT+*%
X103920000Y-126020000D03*
%TO.P,C3,2*%
%TO.N,GND*%
X103920000Y-122895000D03*
%TD*%
D25*
%TO.P,U6,1,In*%
%TO.N,/CELL P*%
X87000000Y-132290000D03*
%TO.P,U6,2,Out*%
%TO.N,/BAT+*%
X97000000Y-132290000D03*
%TD*%
D28*
%TO.P,U2,1,OD*%
%TO.N,Net-(Q1-G2)*%
X135610000Y-123219500D03*
%TO.P,U2,2,CS*%
%TO.N,Net-(U2-CS)*%
X134660000Y-123219500D03*
%TO.P,U2,3,OC*%
%TO.N,Net-(Q1-G1)*%
X133710000Y-123219500D03*
%TO.P,U2,4,TD*%
%TO.N,unconnected-(U2-TD-Pad4)*%
X133710000Y-125494500D03*
%TO.P,U2,5,VCC*%
%TO.N,Net-(U2-VCC)*%
X134660000Y-125494500D03*
%TO.P,U2,6,GND*%
%TO.N,/CELL N*%
X135610000Y-125494500D03*
%TD*%
D15*
%TO.P,D6,1,K*%
%TO.N,Net-(D6-K)*%
X132890000Y-130245000D03*
%TO.P,D6,2,A*%
%TO.N,Net-(D6-A)*%
X132890000Y-131995000D03*
%TD*%
D13*
%TO.P,R26,1*%
%TO.N,Net-(R17-Pad2)*%
X102100000Y-102100000D03*
%TO.P,R26,2*%
%TO.N,Net-(U5-FB)*%
X99000000Y-102100000D03*
%TD*%
D26*
%TO.P,C4,1*%
%TO.N,VtoBoost*%
X116967500Y-101970000D03*
%TO.P,C4,2*%
%TO.N,GND*%
X120092500Y-101970000D03*
%TD*%
D11*
%TO.P,C12,1*%
%TO.N,/VUSB*%
X91700000Y-126400000D03*
%TO.P,C12,2*%
%TO.N,GND*%
X91700000Y-123275000D03*
%TD*%
D27*
%TO.P,C7,1*%
%TO.N,/5V Out*%
X106612500Y-106100000D03*
%TO.P,C7,2*%
%TO.N,GND*%
X103487500Y-106100000D03*
%TD*%
D13*
%TO.P,R2,1*%
%TO.N,Net-(U2-CS)*%
X135597500Y-119837000D03*
%TO.P,R2,2*%
%TO.N,GND*%
X132497500Y-119837000D03*
%TD*%
D29*
%TO.P,U5,1,SW*%
%TO.N,Net-(D5-A)*%
X99350000Y-107500000D03*
%TO.P,U5,2,GND*%
%TO.N,GND*%
X99350000Y-106550000D03*
%TO.P,U5,3,FB*%
%TO.N,Net-(U5-FB)*%
X99350000Y-105600000D03*
%TO.P,U5,4,EN*%
%TO.N,/Enable*%
X96650000Y-105600000D03*
%TO.P,U5,5,VIN*%
%TO.N,VtoBoost*%
X96650000Y-106550000D03*
%TO.P,U5,6,FREQ*%
%TO.N,unconnected-(U5-FREQ-Pad6)*%
X96650000Y-107500000D03*
%TD*%
D22*
%TO.P,R14,1*%
%TO.N,Net-(R14-Pad1)*%
X111740000Y-109450000D03*
%TO.P,R14,2*%
%TO.N,/Enable*%
X111740000Y-106350000D03*
%TD*%
D13*
%TO.P,R18,1*%
%TO.N,Net-(R18-Pad1)*%
X91450000Y-102050000D03*
%TO.P,R18,2*%
%TO.N,GND*%
X88350000Y-102050000D03*
%TD*%
D23*
%TO.P,J4,1,Pin_1*%
%TO.N,/9V Out*%
X142820000Y-115170000D03*
D24*
%TO.P,J4,2,Pin_2*%
%TO.N,GND*%
X140320000Y-115170000D03*
%TD*%
D30*
%TO.P,U8,1,VIN*%
%TO.N,Net-(D6-A)*%
X123425000Y-127465000D03*
%TO.P,U8,2,PPR*%
%TO.N,Net-(U8-PPR)*%
X123425000Y-126195000D03*
%TO.P,U8,3,CHG*%
%TO.N,Net-(U8-CHG)*%
X123425000Y-124925000D03*
%TO.P,U8,4,EN*%
%TO.N,GND*%
X123425000Y-123655000D03*
%TO.P,U8,5,GND*%
X118475000Y-123655000D03*
%TO.P,U8,6,IMIN*%
%TO.N,Net-(U8-IMIN)*%
X118475000Y-124925000D03*
%TO.P,U8,7,IREF*%
%TO.N,Net-(U8-IREF)*%
X118475000Y-126195000D03*
%TO.P,U8,8,BAT*%
%TO.N,/BAT+*%
X118475000Y-127465000D03*
D31*
%TO.P,U8,9,PAD*%
%TO.N,unconnected-(U8-PAD-Pad9)_5*%
X121650000Y-126760000D03*
X121650000Y-125560000D03*
X121650000Y-124360000D03*
D32*
X120950000Y-125560000D03*
D31*
X120250000Y-126760000D03*
X120250000Y-125560000D03*
X120250000Y-124360000D03*
%TD*%
D20*
%TO.P,U3,1*%
%TO.N,/Enable*%
X118175000Y-105370000D03*
%TO.P,U3,2,V-*%
%TO.N,GND*%
X118175000Y-106320000D03*
%TO.P,U3,3,+*%
%TO.N,Net-(U3-+)*%
X118175000Y-107270000D03*
%TO.P,U3,4,-*%
%TO.N,Net-(U3--)*%
X120450000Y-107270000D03*
%TO.P,U3,5,Vref*%
X120450000Y-106320000D03*
%TO.P,U3,6,V+*%
%TO.N,VtoBoost*%
X120450000Y-105370000D03*
%TD*%
D22*
%TO.P,R31,1*%
%TO.N,/VUSB*%
X126860000Y-132880000D03*
%TO.P,R31,2*%
%TO.N,Net-(D6-A)*%
X126860000Y-129780000D03*
%TD*%
D13*
%TO.P,R15,1*%
%TO.N,/9V Out*%
X142745000Y-102170000D03*
%TO.P,R15,2*%
%TO.N,Net-(R15-Pad2)*%
X139645000Y-102170000D03*
%TD*%
%TO.P,R24,1*%
%TO.N,Net-(U3-+)*%
X118200000Y-110870000D03*
%TO.P,R24,2*%
%TO.N,Net-(R14-Pad1)*%
X115100000Y-110870000D03*
%TD*%
D33*
%TO.P,C9,1*%
%TO.N,Net-(D6-A)*%
X121290000Y-129707500D03*
%TO.P,C9,2*%
%TO.N,GND*%
X121290000Y-132832500D03*
%TD*%
D27*
%TO.P,C5,1*%
%TO.N,/9V Out*%
X141657500Y-106270000D03*
%TO.P,C5,2*%
%TO.N,GND*%
X138532500Y-106270000D03*
%TD*%
D22*
%TO.P,R32,1*%
%TO.N,Net-(U8-IREF)*%
X112790000Y-130330000D03*
%TO.P,R32,2*%
%TO.N,Net-(R32-Pad2)*%
X112790000Y-127230000D03*
%TD*%
D29*
%TO.P,U4,1,SW*%
%TO.N,Net-(D4-A)*%
X135295000Y-107170000D03*
%TO.P,U4,2,GND*%
%TO.N,GND*%
X135295000Y-106220000D03*
%TO.P,U4,3,FB*%
%TO.N,Net-(U4-FB)*%
X135295000Y-105270000D03*
%TO.P,U4,4,EN*%
%TO.N,/Enable*%
X132595000Y-105270000D03*
%TO.P,U4,5,VIN*%
%TO.N,VtoBoost*%
X132595000Y-106220000D03*
%TO.P,U4,6,FREQ*%
%TO.N,unconnected-(U4-FREQ-Pad6)*%
X132595000Y-107170000D03*
%TD*%
D18*
%TO.P,L1,1,1*%
%TO.N,Net-(D4-A)*%
X134120000Y-113670000D03*
%TO.P,L1,2,2*%
%TO.N,VtoBoost*%
X128820000Y-113670000D03*
%TD*%
D34*
%TO.P,J1,A1,GND*%
%TO.N,GND*%
X84210000Y-108500000D03*
%TO.P,J1,A4,VBUS*%
%TO.N,/VUSB*%
X84210000Y-109350000D03*
%TO.P,J1,A5,CC1*%
%TO.N,Net-(J1-CC1)*%
X84210000Y-110200000D03*
%TO.P,J1,A6,D+*%
%TO.N,unconnected-(J1-D+-PadA6)*%
X84210000Y-111050000D03*
%TO.P,J1,A7,D-*%
%TO.N,unconnected-(J1-D--PadA7)*%
X84210000Y-111900000D03*
%TO.P,J1,A8,SBU1*%
%TO.N,GND*%
X84210000Y-112750000D03*
%TO.P,J1,A9,VBUS*%
%TO.N,/VUSB*%
X84210000Y-113600000D03*
%TO.P,J1,A12,GND*%
%TO.N,GND*%
X84210000Y-114450000D03*
%TO.P,J1,B1,GND*%
X82860000Y-114450000D03*
%TO.P,J1,B4,VBUS*%
%TO.N,/VUSB*%
X82860000Y-113600000D03*
%TO.P,J1,B5,CC2*%
%TO.N,Net-(J1-CC2)*%
X82860000Y-112750000D03*
%TO.P,J1,B6,D+*%
%TO.N,unconnected-(J1-D+-PadB6)*%
X82860000Y-111900000D03*
%TO.P,J1,B7,D-*%
%TO.N,unconnected-(J1-D--PadB7)*%
X82860000Y-111050000D03*
%TO.P,J1,B8,SBU2*%
%TO.N,GND*%
X82860000Y-110200000D03*
%TO.P,J1,B9,VBUS*%
%TO.N,/VUSB*%
X82860000Y-109350000D03*
%TO.P,J1,B12,GND*%
%TO.N,GND*%
X82860000Y-108500000D03*
D35*
%TO.P,J1,S1,SHIELD*%
X83230000Y-107150000D03*
D36*
X79850000Y-107150000D03*
D35*
X83230000Y-115800000D03*
D36*
X79850000Y-115800000D03*
%TD*%
D22*
%TO.P,R9,1*%
%TO.N,Net-(J1-CC1)*%
X88500000Y-112050000D03*
%TO.P,R9,2*%
%TO.N,GND*%
X88500000Y-108950000D03*
%TD*%
D37*
%TO.N,GND*%
X101400000Y-106550000D03*
X117160000Y-122310000D03*
X108350000Y-124880000D03*
X124580000Y-122460000D03*
X102050000Y-106550000D03*
X121300000Y-134230000D03*
X88750000Y-105000000D03*
X113570000Y-113830000D03*
X99270000Y-125720000D03*
X140010000Y-123707000D03*
X89300000Y-105550000D03*
X137270000Y-106220000D03*
X97899884Y-105231757D03*
X136620000Y-106220000D03*
X105470000Y-122890000D03*
X91700000Y-121690000D03*
X109830000Y-131780000D03*
X133790116Y-104684356D03*
X101260000Y-121430000D03*
X115880000Y-129000000D03*
X134112439Y-105977561D03*
X133875000Y-105362760D03*
X98335001Y-106314999D03*
X99640000Y-127820000D03*
X85750000Y-118600000D03*
X120092500Y-100392500D03*
X97927457Y-105828875D03*
X116620000Y-106350000D03*
X86950000Y-108950000D03*
X123790000Y-134290000D03*
X94470000Y-121740000D03*
X96450000Y-125670000D03*
X131017500Y-119837000D03*
%TO.N,Net-(J1-CC1)*%
X86900000Y-111800000D03*
%TO.N,/Enable*%
X120180000Y-104060000D03*
X118120000Y-104060000D03*
%TD*%
D38*
%TO.N,/BAT+*%
X104620000Y-126020000D02*
X107430000Y-128830000D01*
D39*
X99230000Y-126820000D02*
X99450000Y-126820000D01*
D40*
X118742500Y-130830000D02*
X118742500Y-132427500D01*
D38*
X97000000Y-132290000D02*
X99070000Y-134360000D01*
D40*
X118742500Y-132427500D02*
X116810000Y-134360000D01*
X107430000Y-134180000D02*
X107610000Y-134360000D01*
X118742500Y-130830000D02*
X118742500Y-127732500D01*
D38*
X100457500Y-126820000D02*
X101260000Y-126017500D01*
D40*
X103920000Y-126020000D02*
X104620000Y-126020000D01*
X118742500Y-127732500D02*
X118475000Y-127465000D01*
X99450000Y-126820000D02*
X100457500Y-126820000D01*
D38*
X99070000Y-134360000D02*
X107610000Y-134360000D01*
D41*
X99227500Y-126817500D02*
X99230000Y-126820000D01*
D40*
X103917500Y-126017500D02*
X103920000Y-126020000D01*
D38*
X107430000Y-128830000D02*
X107430000Y-134180000D01*
X107610000Y-134360000D02*
X116810000Y-134360000D01*
X101260000Y-126017500D02*
X103917500Y-126017500D01*
D41*
X98640000Y-126817500D02*
X99227500Y-126817500D01*
D38*
%TO.N,/CELL P*%
X87000000Y-132290000D02*
X87000000Y-138500000D01*
X137120000Y-131380000D02*
X127500000Y-141000000D01*
X110240000Y-145300000D02*
X88800000Y-145300000D01*
X88800000Y-145300000D02*
X84500000Y-141000000D01*
X127500000Y-141000000D02*
X84500000Y-141000000D01*
X137120000Y-131350000D02*
X137120000Y-131380000D01*
X87000000Y-138500000D02*
X84500000Y-141000000D01*
D39*
%TO.N,Net-(U2-VCC)*%
X136740000Y-128250000D02*
X134660000Y-126170000D01*
X137120000Y-128250000D02*
X136740000Y-128250000D01*
X137120000Y-128250000D02*
X139647500Y-128250000D01*
D40*
X137120000Y-128250000D02*
X137030000Y-128250000D01*
D39*
X134660000Y-126170000D02*
X134660000Y-125494500D01*
X139647500Y-128250000D02*
X139687500Y-128290000D01*
D41*
%TO.N,GND*%
X96450000Y-125670000D02*
X96480000Y-125670000D01*
D38*
X127195000Y-105107500D02*
X124407500Y-105107500D01*
D41*
X97899884Y-105801302D02*
X97927457Y-105828875D01*
X97927457Y-105907455D02*
X98335001Y-106314999D01*
D39*
X121290000Y-134220000D02*
X121300000Y-134230000D01*
X138482500Y-106220000D02*
X138532500Y-106270000D01*
D41*
X97985001Y-105964999D02*
X97781000Y-105760999D01*
D39*
X121290000Y-132832500D02*
X121290000Y-134220000D01*
D41*
X133790116Y-104684356D02*
X132825760Y-103720000D01*
X134112439Y-105977561D02*
X133875000Y-105740122D01*
D38*
X89325000Y-105575000D02*
X89300000Y-105550000D01*
D41*
X89600000Y-103900000D02*
X88350000Y-102650000D01*
X123425000Y-123655000D02*
X123415000Y-123655000D01*
X97899884Y-105231757D02*
X97899884Y-104949884D01*
X99637500Y-127817500D02*
X98640000Y-127817500D01*
D40*
X118475000Y-123655000D02*
X117160000Y-122340000D01*
D41*
X125095000Y-103720000D02*
X123445000Y-102070000D01*
X99270000Y-125720000D02*
X99240000Y-125720000D01*
D39*
X123790000Y-132892500D02*
X123790000Y-134290000D01*
D41*
X134354878Y-106220000D02*
X134112439Y-105977561D01*
X98570001Y-106550000D02*
X98335001Y-106314999D01*
D39*
X132497500Y-119837000D02*
X131017500Y-119837000D01*
D40*
X103037500Y-106550000D02*
X102050000Y-106550000D01*
D42*
X86950000Y-108950000D02*
X88500000Y-108950000D01*
D40*
X124580000Y-122460000D02*
X124580000Y-122480000D01*
D41*
X133826000Y-105370000D02*
X133826000Y-104848878D01*
X116620000Y-106350000D02*
X118145000Y-106350000D01*
X99240000Y-125720000D02*
X98642500Y-126317500D01*
X118145000Y-106350000D02*
X118175000Y-106320000D01*
X99350000Y-106550000D02*
X98570001Y-106550000D01*
D40*
X117160000Y-122340000D02*
X117160000Y-122310000D01*
D41*
X98335001Y-106314999D02*
X97985001Y-105964999D01*
X109810000Y-130330000D02*
X109810000Y-131760000D01*
X135295000Y-106220000D02*
X134354878Y-106220000D01*
X133826000Y-104848878D02*
X133826000Y-104720240D01*
X97985001Y-105886419D02*
X97927457Y-105828875D01*
D40*
X115617500Y-130830000D02*
X115617500Y-129262500D01*
X123425000Y-123635000D02*
X123425000Y-123655000D01*
D41*
X84350000Y-118600000D02*
X85750000Y-118600000D01*
X98642500Y-126317500D02*
X98640000Y-126317500D01*
X123415000Y-123655000D02*
X123390000Y-123680000D01*
X88350000Y-102650000D02*
X88350000Y-102050000D01*
D40*
X124580000Y-122480000D02*
X123425000Y-123635000D01*
D41*
X120092500Y-100392500D02*
X120092500Y-101970000D01*
X115100000Y-113740000D02*
X113660000Y-113740000D01*
D38*
X105465000Y-122895000D02*
X105470000Y-122890000D01*
D41*
X132825760Y-103720000D02*
X125095000Y-103720000D01*
D38*
X124407500Y-105107500D02*
X123445000Y-104145000D01*
D41*
X113660000Y-113740000D02*
X113570000Y-113830000D01*
D38*
X91700000Y-123275000D02*
X91700000Y-121690000D01*
D41*
X97899884Y-104949884D02*
X96850000Y-103900000D01*
D38*
X103920000Y-122895000D02*
X105465000Y-122895000D01*
D41*
X99640000Y-127820000D02*
X99637500Y-127817500D01*
X97985001Y-105964999D02*
X97985001Y-105886419D01*
D38*
X101260000Y-122892500D02*
X101260000Y-121430000D01*
X88350000Y-104600000D02*
X88750000Y-105000000D01*
X88350000Y-102050000D02*
X88350000Y-104600000D01*
D41*
X96480000Y-125670000D02*
X97127500Y-126317500D01*
X133826000Y-105370000D02*
X133867760Y-105370000D01*
X97899884Y-105231757D02*
X97899884Y-105801302D01*
D39*
X141610000Y-123707000D02*
X140010000Y-123707000D01*
D41*
X133826000Y-104720240D02*
X133790116Y-104684356D01*
X97127500Y-126317500D02*
X97160000Y-126317500D01*
D40*
X102050000Y-106550000D02*
X101400000Y-106550000D01*
D41*
X97927457Y-105828875D02*
X97927457Y-105907455D01*
D39*
X135295000Y-106220000D02*
X138482500Y-106220000D01*
D41*
X96850000Y-103900000D02*
X89600000Y-103900000D01*
D38*
X123445000Y-104145000D02*
X123445000Y-102070000D01*
D41*
X133875000Y-105740122D02*
X133875000Y-105362760D01*
X109810000Y-131760000D02*
X109830000Y-131780000D01*
X110030000Y-124880000D02*
X108350000Y-124880000D01*
D40*
X101400000Y-106550000D02*
X99350000Y-106550000D01*
X115617500Y-129262500D02*
X115880000Y-129000000D01*
D38*
X94470000Y-123255000D02*
X94470000Y-121740000D01*
D41*
X133867760Y-105370000D02*
X133875000Y-105362760D01*
D40*
X103487500Y-106100000D02*
X103037500Y-106550000D01*
D38*
X88750000Y-105000000D02*
X89300000Y-105550000D01*
X91750000Y-105575000D02*
X89325000Y-105575000D01*
%TO.N,VtoBoost*%
X127195000Y-111045000D02*
X127195000Y-108232500D01*
D41*
X120450000Y-105370000D02*
X121112499Y-105370000D01*
D38*
X130020000Y-112470000D02*
X130020000Y-107370000D01*
X91750000Y-111750000D02*
X91750000Y-108700000D01*
X122720000Y-119770000D02*
X124725000Y-117765000D01*
X128820000Y-113670000D02*
X130020000Y-112470000D01*
X128820000Y-113670000D02*
X128820000Y-112670000D01*
X95350000Y-106550000D02*
X95594324Y-106550000D01*
X98770000Y-119770000D02*
X93000000Y-114000000D01*
X93000000Y-114000000D02*
X93000000Y-113000000D01*
X104650000Y-119770000D02*
X98770000Y-119770000D01*
X94100000Y-107800000D02*
X95350000Y-106550000D01*
X130020000Y-107370000D02*
X131170000Y-106220000D01*
X124725000Y-117765000D02*
X128820000Y-113670000D01*
X131170000Y-106220000D02*
X131539324Y-106220000D01*
X93000000Y-114000000D02*
X94100000Y-112900000D01*
X128820000Y-112670000D02*
X127195000Y-111045000D01*
X94100000Y-112900000D02*
X94100000Y-107800000D01*
D41*
X114350000Y-102020000D02*
X116917500Y-102020000D01*
X116917500Y-102020000D02*
X116967500Y-101970000D01*
X117050000Y-101970000D02*
X116967500Y-101970000D01*
X120450000Y-105370000D02*
X117050000Y-101970000D01*
X121112499Y-105370000D02*
X124725000Y-108982501D01*
X124725000Y-108982501D02*
X124725000Y-117765000D01*
D38*
X93000000Y-113000000D02*
X91750000Y-111750000D01*
X104650000Y-119770000D02*
X122720000Y-119770000D01*
%TO.N,/9V Out*%
X144225500Y-109870000D02*
X144225500Y-113764500D01*
X141657500Y-106270000D02*
X141657500Y-107302000D01*
X142745000Y-102170000D02*
X142745000Y-105182500D01*
X144225500Y-113764500D02*
X142820000Y-115170000D01*
X142745000Y-105182500D02*
X141657500Y-106270000D01*
X141657500Y-107302000D02*
X144225500Y-109870000D01*
%TO.N,/5V Out*%
X106612500Y-102937500D02*
X107350000Y-102200000D01*
X108280500Y-107768000D02*
X106612500Y-106100000D01*
X108280500Y-114059500D02*
X107080000Y-115260000D01*
X108280500Y-109800000D02*
X108280500Y-114059500D01*
X108280500Y-109800000D02*
X108280500Y-107768000D01*
X106612500Y-106100000D02*
X106612500Y-102937500D01*
D40*
%TO.N,/VUSB*%
X96040000Y-126820000D02*
X95600000Y-126380000D01*
D38*
X91700000Y-126400000D02*
X87400000Y-126400000D01*
D43*
X84704974Y-109350000D02*
X85800000Y-110445026D01*
X82860000Y-113600000D02*
X84210000Y-113600000D01*
D40*
X95600000Y-126380000D02*
X94470000Y-126380000D01*
D38*
X85800000Y-113600000D02*
X87400000Y-115200000D01*
D43*
X84210000Y-109350000D02*
X84704974Y-109350000D01*
D38*
X87400000Y-115200000D02*
X87400000Y-121000000D01*
X97400000Y-136400000D02*
X87400000Y-126400000D01*
X84700000Y-123700000D02*
X80800000Y-123700000D01*
X123470000Y-136400000D02*
X97400000Y-136400000D01*
D43*
X85800000Y-113600000D02*
X84210000Y-113600000D01*
D38*
X87400000Y-121000000D02*
X84700000Y-123700000D01*
D39*
X96660000Y-126820000D02*
X96310000Y-126820000D01*
D38*
X87400000Y-126400000D02*
X84700000Y-123700000D01*
D43*
X85800000Y-110445026D02*
X85800000Y-113600000D01*
D41*
X97160000Y-126817500D02*
X96662500Y-126817500D01*
D38*
X94450000Y-126400000D02*
X94470000Y-126380000D01*
D40*
X96310000Y-126820000D02*
X96040000Y-126820000D01*
D38*
X91700000Y-126400000D02*
X94450000Y-126400000D01*
D41*
X96662500Y-126817500D02*
X96660000Y-126820000D01*
D43*
X82860000Y-109350000D02*
X84210000Y-109350000D01*
D38*
X126820000Y-133050000D02*
X123470000Y-136400000D01*
D41*
%TO.N,Net-(J1-CC1)*%
X87150000Y-112050000D02*
X88500000Y-112050000D01*
X86900000Y-111800000D02*
X87150000Y-112050000D01*
D38*
%TO.N,Net-(D4-A)*%
X135120000Y-113670000D02*
X135120000Y-107421000D01*
X139764500Y-109870000D02*
X137919000Y-109870000D01*
X137919000Y-109870000D02*
X135295000Y-107246000D01*
%TO.N,Net-(D5-A)*%
X99300000Y-108100000D02*
X99300000Y-114000000D01*
X101200000Y-109800000D02*
X99400000Y-108000000D01*
X103819500Y-109800000D02*
X101200000Y-109800000D01*
X99400000Y-108000000D02*
X99300000Y-108100000D01*
D41*
%TO.N,Net-(Q1-G1)*%
X133710000Y-123786999D02*
X133710000Y-123007000D01*
X138660000Y-122307000D02*
X136610000Y-124357000D01*
X134280001Y-124357000D02*
X133710000Y-123786999D01*
X142910000Y-122307000D02*
X138660000Y-122307000D01*
X144310000Y-123707000D02*
X142910000Y-122307000D01*
X136610000Y-124357000D02*
X134280001Y-124357000D01*
%TO.N,Net-(Q1-G2)*%
X147310000Y-121957000D02*
X147310000Y-123386999D01*
X135610000Y-123007000D02*
X137010000Y-121607000D01*
X147310000Y-123386999D02*
X145089999Y-125607000D01*
X137010000Y-121607000D02*
X146960000Y-121607000D01*
X146960000Y-121607000D02*
X147310000Y-121957000D01*
X145089999Y-125607000D02*
X144310000Y-125607000D01*
D39*
%TO.N,Net-(U2-CS)*%
X134610000Y-122957000D02*
X134660000Y-123007000D01*
X135597500Y-119837000D02*
X134660000Y-120774500D01*
X134660000Y-120774500D02*
X134660000Y-123219500D01*
D41*
%TO.N,Net-(U3-+)*%
X118200000Y-107295000D02*
X118175000Y-107270000D01*
X114350000Y-107880000D02*
X117565000Y-107880000D01*
X118240000Y-110830000D02*
X118200000Y-110870000D01*
X118200000Y-110870000D02*
X118200000Y-107295000D01*
X120930000Y-110830000D02*
X118240000Y-110830000D01*
X117565000Y-107880000D02*
X118175000Y-107270000D01*
%TO.N,/Enable*%
X123520000Y-106670000D02*
X128170000Y-106670000D01*
X120910000Y-104060000D02*
X123520000Y-106670000D01*
X116679346Y-105370000D02*
X118175000Y-105370000D01*
X120180000Y-104060000D02*
X120910000Y-104060000D01*
X92600000Y-107050000D02*
X88800000Y-107050000D01*
X129570000Y-105270000D02*
X132595000Y-105270000D01*
X94050000Y-105600000D02*
X92600000Y-107050000D01*
X96650000Y-105600000D02*
X94050000Y-105600000D01*
X109000000Y-101260000D02*
X109000000Y-102840000D01*
X118120000Y-105315000D02*
X118175000Y-105370000D01*
X86250000Y-104500000D02*
X86250000Y-101440000D01*
X86250000Y-101440000D02*
X87480000Y-100210000D01*
X128170000Y-106670000D02*
X129570000Y-105270000D01*
X115699346Y-106350000D02*
X116679346Y-105370000D01*
X107950000Y-100210000D02*
X109000000Y-101260000D01*
X109000000Y-102840000D02*
X111740000Y-105580000D01*
X88800000Y-107050000D02*
X86250000Y-104500000D01*
X87480000Y-100210000D02*
X107950000Y-100210000D01*
X118120000Y-104060000D02*
X118120000Y-105315000D01*
X111740000Y-106350000D02*
X115699346Y-106350000D01*
X111740000Y-105580000D02*
X111740000Y-106350000D01*
%TO.N,Net-(U4-FB)*%
X132820000Y-102170000D02*
X131845000Y-102170000D01*
X134195000Y-102170000D02*
X132820000Y-102170000D01*
X132820000Y-102795000D02*
X135295000Y-105270000D01*
X132820000Y-102170000D02*
X132820000Y-102795000D01*
%TO.N,Net-(U5-FB)*%
X98900000Y-102000000D02*
X99000000Y-102100000D01*
X97950000Y-104200000D02*
X97950000Y-102000000D01*
X97950000Y-102000000D02*
X98900000Y-102000000D01*
X99350000Y-105600000D02*
X97950000Y-104200000D01*
X96800000Y-102000000D02*
X97950000Y-102000000D01*
D42*
%TO.N,Net-(U3--)*%
X120450000Y-106320000D02*
X120450000Y-107270000D01*
D41*
%TO.N,Net-(R12-Pad2)*%
X118200000Y-113740000D02*
X120740000Y-113740000D01*
X120740000Y-113740000D02*
X120930000Y-113930000D01*
%TO.N,Net-(R13-Pad1)*%
X114010000Y-104780000D02*
X111250000Y-102020000D01*
X114350000Y-104780000D02*
X114010000Y-104780000D01*
%TO.N,Net-(R14-Pad1)*%
X113680000Y-109450000D02*
X115100000Y-110870000D01*
X111740000Y-109450000D02*
X113680000Y-109450000D01*
%TO.N,Net-(R15-Pad2)*%
X137295000Y-102170000D02*
X139645000Y-102170000D01*
%TO.N,Net-(R16-Pad2)*%
X128745000Y-102170000D02*
X126645000Y-102170000D01*
X126645000Y-102170000D02*
X126545000Y-102070000D01*
%TO.N,Net-(R17-Pad2)*%
X104150000Y-102100000D02*
X104250000Y-102200000D01*
X102100000Y-102100000D02*
X104150000Y-102100000D01*
%TO.N,Net-(R18-Pad1)*%
X91500000Y-102000000D02*
X91450000Y-102050000D01*
X93700000Y-102000000D02*
X91500000Y-102000000D01*
D38*
%TO.N,/CELL N*%
X145120000Y-145380000D02*
X149500000Y-141000000D01*
D39*
X135610000Y-125707000D02*
X141510000Y-125707000D01*
D40*
X142812500Y-128290000D02*
X142812500Y-126597000D01*
D38*
X142812500Y-134952500D02*
X142812500Y-134872500D01*
X122440000Y-145380000D02*
X145120000Y-145380000D01*
D40*
X142812500Y-126597000D02*
X141822500Y-125607000D01*
D39*
X141510000Y-125707000D02*
X141610000Y-125607000D01*
D38*
X142812500Y-134872500D02*
X142812500Y-128290000D01*
X148860000Y-141000000D02*
X142812500Y-134952500D01*
X149500000Y-141000000D02*
X148860000Y-141000000D01*
D42*
%TO.N,Net-(J1-CC2)*%
X82365026Y-112750000D02*
X81250000Y-113865026D01*
X81250000Y-113865026D02*
X81250000Y-118600000D01*
X82860000Y-112750000D02*
X82365026Y-112750000D01*
D40*
%TO.N,Net-(D6-A)*%
X123425000Y-129402500D02*
X123790000Y-129767500D01*
X123790000Y-129767500D02*
X121350000Y-129767500D01*
X123425000Y-127465000D02*
X123425000Y-129402500D01*
D41*
X130120000Y-132035000D02*
X129115000Y-132035000D01*
X132850000Y-132035000D02*
X132890000Y-131995000D01*
D40*
X123802500Y-129780000D02*
X123790000Y-129767500D01*
D41*
X129115000Y-132035000D02*
X126860000Y-129780000D01*
D40*
X121350000Y-129767500D02*
X121290000Y-129707500D01*
D41*
X130120000Y-132035000D02*
X132850000Y-132035000D01*
D40*
X126860000Y-129780000D02*
X123802500Y-129780000D01*
D41*
%TO.N,Net-(D6-K)*%
X132890000Y-127320000D02*
X130000000Y-124430000D01*
X132890000Y-130245000D02*
X132890000Y-127320000D01*
%TO.N,Net-(D7-K)*%
X130120000Y-130285000D02*
X130120000Y-127320000D01*
X130120000Y-127320000D02*
X130000000Y-127200000D01*
%TO.N,Net-(R3-Pad2)*%
X112760000Y-121780000D02*
X112820000Y-121840000D01*
X110030000Y-121780000D02*
X112760000Y-121780000D01*
%TO.N,Net-(U8-IMIN)*%
X112820000Y-124940000D02*
X118460000Y-124940000D01*
D39*
X118460000Y-124940000D02*
X118475000Y-124925000D01*
D41*
%TO.N,Net-(U8-CHG)*%
X123425000Y-124925000D02*
X126405000Y-124925000D01*
X126405000Y-124925000D02*
X126900000Y-124430000D01*
%TO.N,Net-(U8-PPR)*%
X123425000Y-126195000D02*
X125895000Y-126195000D01*
X125895000Y-126195000D02*
X126900000Y-127200000D01*
%TO.N,Net-(U8-IREF)*%
X116925000Y-126195000D02*
X118475000Y-126195000D01*
X112790000Y-130330000D02*
X116925000Y-126195000D01*
%TO.N,Net-(R32-Pad2)*%
X109810000Y-127230000D02*
X112790000Y-127230000D01*
%TO.N,Net-(U7-In)*%
X97160000Y-127317500D02*
X97910000Y-127317500D01*
D40*
X97910000Y-128500000D02*
X97910000Y-128820000D01*
D41*
X97910000Y-127317500D02*
X98640000Y-127317500D01*
D38*
X97910000Y-128820000D02*
X98860001Y-129770001D01*
D39*
X97880000Y-128470000D02*
X97880000Y-127347500D01*
X97880000Y-127347500D02*
X97910000Y-127317500D01*
X97910000Y-128500000D02*
X97880000Y-128470000D01*
D38*
X98860001Y-129770001D02*
X104650000Y-129770001D01*
%TD*%
M02*
