M48
; DRILL file {KiCad 9.0.7} date 2026-04-30T22:30:36-0500
; FORMAT={-:-/ absolute / metric / decimal}
; #@! TF.CreationDate,2026-04-30T22:30:36-05:00
; #@! TF.GenerationSoftware,Kicad,Pcbnew,9.0.7
; #@! TF.FileFunction,Plated,1,2,PTH
FMAT,2
METRIC
; #@! TA.AperFunction,Plated,PTH,ViaDrill
T1C0.300
; #@! TA.AperFunction,Plated,PTH,ComponentDrill
T2C0.300
; #@! TA.AperFunction,Plated,PTH,ComponentDrill
T3C0.400
; #@! TA.AperFunction,Plated,PTH,ComponentDrill
T4C0.500
; #@! TA.AperFunction,Plated,PTH,ComponentDrill
T5C0.600
; #@! TA.AperFunction,Plated,PTH,ComponentDrill
T6C1.000
; #@! TA.AperFunction,Plated,PTH,ComponentDrill
T7C1.200
; #@! TA.AperFunction,Plated,PTH,ComponentDrill
T8C1.500
%
G90
G05
T1
X85.75Y-118.6
X86.9Y-111.8
X86.95Y-108.95
X88.75Y-105.0
X89.3Y-105.55
X91.7Y-121.69
X94.47Y-121.74
X96.45Y-125.67
X97.9Y-105.232
X97.927Y-105.829
X98.335Y-106.315
X99.27Y-125.72
X99.64Y-127.82
X101.26Y-121.43
X101.4Y-106.55
X102.05Y-106.55
X105.47Y-122.89
X108.35Y-124.88
X109.83Y-131.78
X113.57Y-113.83
X115.88Y-129.0
X116.62Y-106.35
X117.16Y-122.31
X118.12Y-104.06
X120.093Y-100.392
X120.18Y-104.06
X121.3Y-134.23
X123.79Y-134.29
X124.58Y-122.46
X131.017Y-119.837
X133.79Y-104.684
X133.875Y-105.363
X134.112Y-105.978
X136.62Y-106.22
X137.27Y-106.22
X140.01Y-123.707
T2
X120.25Y-124.36
X120.25Y-125.56
X120.25Y-126.76
X121.65Y-124.36
X121.65Y-125.56
X121.65Y-126.76
T3
X82.86Y-108.5
X82.86Y-109.35
X82.86Y-110.2
X82.86Y-111.05
X82.86Y-111.9
X82.86Y-112.75
X82.86Y-113.6
X82.86Y-114.45
X84.21Y-108.5
X84.21Y-109.35
X84.21Y-110.2
X84.21Y-111.05
X84.21Y-111.9
X84.21Y-112.75
X84.21Y-113.6
X84.21Y-114.45
T6
X104.58Y-115.26
X107.08Y-115.26
X140.32Y-115.17
X142.82Y-115.17
T7
X80.8Y-123.7
T8
X87.0Y-132.29
X97.0Y-132.29
X104.65Y-119.77
X104.65Y-129.77
T4
G00X84.5Y-145.25
M15
G01X84.5Y-136.75
M16
G05
G00X149.5Y-145.25
M15
G01X149.5Y-136.75
M16
G05
T5
G00X80.25Y-107.15
M15
G01X79.45Y-107.15
M16
G05
G00X80.25Y-115.8
M15
G01X79.45Y-115.8
M16
G05
G00X83.98Y-107.15
M15
G01X82.48Y-107.15
M16
G05
G00X83.98Y-115.8
M15
G01X82.48Y-115.8
M16
G05
M30
