M48
; DRILL file {KiCad 9.0.7} date 2026-03-16T20:52:24-0500
; FORMAT={-:-/ absolute / metric / decimal}
; #@! TF.CreationDate,2026-03-16T20:52:24-05:00
; #@! TF.GenerationSoftware,Kicad,Pcbnew,9.0.7
; #@! TF.FileFunction,Plated,1,4,PTH
FMAT,2
METRIC
; #@! TA.AperFunction,Plated,PTH,ViaDrill
T1C0.300
; #@! TA.AperFunction,Plated,PTH,ComponentDrill
T2C0.800
; #@! TA.AperFunction,Plated,PTH,ComponentDrill
T3C0.850
; #@! TA.AperFunction,Plated,PTH,ComponentDrill
T4C1.000
%
G90
G05
T1
X60.3Y-72.5
X60.75Y-43.2
X60.75Y-49.35
X104.1Y-44.3
X104.7Y-70.6
X104.7Y-77.0
X117.2Y-67.7
X131.15Y-27.8
X146.15Y-84.75
X156.75Y-87.05
X193.8Y-74.5
X194.6Y-44.7
X194.6Y-51.5
X223.6Y-75.1
X223.9Y-44.9
X223.91Y-51.81
T2
X64.38Y-48.22
X64.38Y-50.76
X64.38Y-53.3
X64.38Y-55.84
X64.38Y-58.38
X64.38Y-60.92
X64.38Y-63.46
X64.38Y-66.0
X64.38Y-68.54
X64.38Y-71.08
X72.0Y-48.22
X72.0Y-50.76
X72.0Y-53.3
X72.0Y-55.84
X72.0Y-58.38
X72.0Y-60.92
X72.0Y-63.46
X72.0Y-66.0
X72.0Y-68.54
X72.0Y-71.08
X93.3Y-48.35
X93.3Y-50.89
X93.3Y-53.43
X93.3Y-55.97
X93.3Y-58.51
X93.3Y-61.05
X93.3Y-63.59
X93.3Y-66.13
X93.3Y-68.67
X93.3Y-71.21
X100.92Y-48.35
X100.92Y-50.89
X100.92Y-53.43
X100.92Y-55.97
X100.92Y-58.51
X100.92Y-61.05
X100.92Y-63.59
X100.92Y-66.13
X100.92Y-68.67
X100.92Y-71.21
X123.0Y-55.76
X123.0Y-58.3
X123.0Y-60.84
X123.0Y-63.38
X123.0Y-65.92
X123.0Y-68.46
X123.0Y-71.0
X123.0Y-73.54
X130.62Y-55.76
X130.62Y-58.3
X130.62Y-60.84
X130.62Y-63.38
X130.62Y-65.92
X130.62Y-68.46
X130.62Y-71.0
X130.62Y-73.54
X198.38Y-51.22
X198.38Y-53.76
X198.38Y-56.3
X198.38Y-58.84
X198.38Y-61.38
X198.38Y-63.92
X198.38Y-66.46
X198.38Y-69.0
X198.38Y-71.54
X198.38Y-74.08
X206.0Y-51.22
X206.0Y-53.76
X206.0Y-56.3
X206.0Y-58.84
X206.0Y-61.38
X206.0Y-63.92
X206.0Y-66.46
X206.0Y-69.0
X206.0Y-71.54
X206.0Y-74.08
X227.69Y-51.32
X227.69Y-53.86
X227.69Y-56.4
X227.69Y-58.94
X227.69Y-61.48
X227.69Y-64.02
X227.69Y-66.56
X227.69Y-69.1
X227.69Y-71.64
X227.69Y-74.18
X235.31Y-51.32
X235.31Y-53.86
X235.31Y-56.4
X235.31Y-58.94
X235.31Y-61.48
X235.31Y-64.02
X235.31Y-66.56
X235.31Y-69.1
X235.31Y-71.64
X235.31Y-74.18
T3
X69.92Y-29.9
X69.92Y-90.1
X72.46Y-29.9
X72.46Y-90.1
X75.0Y-29.9
X75.0Y-90.1
X77.54Y-29.9
X77.54Y-90.1
X80.08Y-29.9
X80.08Y-90.1
X119.92Y-29.9
X119.92Y-90.1
X121.0Y-44.0
X122.25Y-46.0
X122.46Y-29.9
X122.46Y-90.1
X123.5Y-44.0
X124.75Y-46.0
X125.0Y-29.9
X125.0Y-90.1
X126.0Y-44.0
X127.25Y-46.0
X127.54Y-29.9
X127.54Y-90.1
X128.5Y-44.0
X129.75Y-46.0
X130.08Y-29.9
X130.08Y-90.1
X131.0Y-44.0
X132.25Y-46.0
X169.92Y-29.9
X169.92Y-90.1
X172.46Y-29.9
X172.46Y-90.1
X175.0Y-29.9
X175.0Y-90.1
X177.54Y-29.9
X177.54Y-90.1
X180.08Y-29.9
X180.08Y-90.1
X219.92Y-29.9
X219.92Y-90.1
X222.46Y-29.9
X222.46Y-90.1
X225.0Y-29.9
X225.0Y-90.1
X227.54Y-29.9
X227.54Y-90.1
X230.08Y-29.9
X230.08Y-90.1
T4
X115.3Y-56.935
X115.3Y-59.475
X122.88Y-38.0
X125.42Y-38.0
X127.96Y-38.0
X130.5Y-38.0
X133.04Y-38.0
X139.5Y-38.8
X139.5Y-41.34
X139.5Y-43.88
X139.5Y-46.42
X141.0Y-88.75
X141.05Y-27.8
X143.5Y-88.75
X143.55Y-27.8
X146.38Y-35.5
X146.38Y-53.28
X148.92Y-35.5
X148.92Y-53.28
X151.46Y-35.5
X151.46Y-53.28
X152.25Y-91.0
X154.0Y-35.5
X154.0Y-53.28
X154.75Y-91.0
X156.54Y-35.5
X156.54Y-53.28
X159.08Y-35.5
X159.08Y-53.28
X161.62Y-35.5
X161.62Y-53.28
X164.16Y-35.5
X164.16Y-53.28
X170.5Y-60.72
X170.5Y-63.26
X170.5Y-65.8
X170.5Y-68.34
X170.5Y-70.88
X170.5Y-73.42
X170.5Y-75.96
X170.5Y-78.5
X177.968Y-76.425
X177.968Y-78.965
X239.3Y-53.5
M30
