%TF.GenerationSoftware,KiCad,Pcbnew,9.0.7*%
%TF.CreationDate,2026-03-16T20:52:18-05:00*%
%TF.ProjectId,MainBoard4Layer,4d61696e-426f-4617-9264-344c61796572,rev?*%
%TF.SameCoordinates,Original*%
%TF.FileFunction,Copper,L4,Bot*%
%TF.FilePolarity,Positive*%
%FSLAX46Y46*%
G04 Gerber Fmt 4.6, Leading zero omitted, Abs format (unit mm)*
G04 Created by KiCad (PCBNEW 9.0.7) date 2026-03-16 20:52:18*
%MOMM*%
%LPD*%
G01*
G04 APERTURE LIST*
G04 Aperture macros list*
%AMRoundRect*
0 Rectangle with rounded corners*
0 $1 Rounding radius*
0 $2 $3 $4 $5 $6 $7 $8 $9 X,Y pos of 4 corners*
0 Add a 4 corners polygon primitive as box body*
4,1,4,$2,$3,$4,$5,$6,$7,$8,$9,$2,$3,0*
0 Add four circle primitives for the rounded corners*
1,1,$1+$1,$2,$3*
1,1,$1+$1,$4,$5*
1,1,$1+$1,$6,$7*
1,1,$1+$1,$8,$9*
0 Add four rect primitives between the rounded corners*
20,1,$1+$1,$2,$3,$4,$5,0*
20,1,$1+$1,$4,$5,$6,$7,0*
20,1,$1+$1,$6,$7,$8,$9,0*
20,1,$1+$1,$8,$9,$2,$3,0*%
G04 Aperture macros list end*
%TA.AperFunction,ComponentPad*%
%ADD10RoundRect,0.250000X0.550000X0.550000X-0.550000X0.550000X-0.550000X-0.550000X0.550000X-0.550000X0*%
%TD*%
%TA.AperFunction,ComponentPad*%
%ADD11C,1.600000*%
%TD*%
%TA.AperFunction,ComponentPad*%
%ADD12RoundRect,0.250000X-0.550000X-0.550000X0.550000X-0.550000X0.550000X0.550000X-0.550000X0.550000X0*%
%TD*%
%TA.AperFunction,ComponentPad*%
%ADD13R,1.700000X1.700000*%
%TD*%
%TA.AperFunction,ComponentPad*%
%ADD14C,1.700000*%
%TD*%
%TA.AperFunction,ComponentPad*%
%ADD15RoundRect,0.250000X-0.600000X-0.750000X0.600000X-0.750000X0.600000X0.750000X-0.600000X0.750000X0*%
%TD*%
%TA.AperFunction,ComponentPad*%
%ADD16O,1.700000X2.000000*%
%TD*%
%TA.AperFunction,ComponentPad*%
%ADD17R,1.358000X1.358000*%
%TD*%
%TA.AperFunction,ComponentPad*%
%ADD18C,1.358000*%
%TD*%
%TA.AperFunction,ComponentPad*%
%ADD19R,1.550000X1.550000*%
%TD*%
%TA.AperFunction,ComponentPad*%
%ADD20C,1.550000*%
%TD*%
%TA.AperFunction,ViaPad*%
%ADD21C,0.600000*%
%TD*%
%TA.AperFunction,Conductor*%
%ADD22C,0.300000*%
%TD*%
%TA.AperFunction,Conductor*%
%ADD23C,0.750000*%
%TD*%
G04 APERTURE END LIST*
D10*
%TO.P,U7,1,~{PL}*%
%TO.N,/PL*%
X130620000Y-73540000D03*
D11*
%TO.P,U7,2,CP*%
%TO.N,/CP*%
X130620000Y-71000000D03*
%TO.P,U7,3,D4*%
%TO.N,/Btn5*%
X130620000Y-68460000D03*
%TO.P,U7,4,D5*%
%TO.N,/In6*%
X130620000Y-65920000D03*
%TO.P,U7,5,D6*%
%TO.N,/In7*%
X130620000Y-63380000D03*
%TO.P,U7,6,D7*%
%TO.N,/In8*%
X130620000Y-60840000D03*
%TO.P,U7,7,~{Q7}*%
%TO.N,/Qinv*%
X130620000Y-58300000D03*
%TO.P,U7,8,GND*%
%TO.N,GND*%
X130620000Y-55760000D03*
%TO.P,U7,9,Q7*%
%TO.N,/Q7*%
X123000000Y-55760000D03*
%TO.P,U7,10,DS*%
%TO.N,/SER_HC*%
X123000000Y-58300000D03*
%TO.P,U7,11,D0*%
%TO.N,/Btn1*%
X123000000Y-60840000D03*
%TO.P,U7,12,D1*%
%TO.N,/Btn2*%
X123000000Y-63380000D03*
%TO.P,U7,13,D2*%
%TO.N,/Btn3*%
X123000000Y-65920000D03*
%TO.P,U7,14,D3*%
%TO.N,/Btn4*%
X123000000Y-68460000D03*
%TO.P,U7,15,~{CE}*%
%TO.N,GND*%
X123000000Y-71000000D03*
%TO.P,U7,16,VCC*%
%TO.N,/5VBus*%
X123000000Y-73540000D03*
%TD*%
D12*
%TO.P,U1,1,PGND*%
%TO.N,GND*%
X64380000Y-48220000D03*
D11*
%TO.P,U1,2,VCC*%
%TO.N,/5VBus*%
X64380000Y-50760000D03*
%TO.P,U1,3,SER_IN*%
%TO.N,/SER_In*%
X64380000Y-53300000D03*
%TO.P,U1,4,DRAIN0*%
%TO.N,Net-(U1-DRAIN0)*%
X64380000Y-55840000D03*
%TO.P,U1,5,DRAIN1*%
%TO.N,Net-(U1-DRAIN1)*%
X64380000Y-58380000D03*
%TO.P,U1,6,DRAIN2*%
%TO.N,Net-(U1-DRAIN2)*%
X64380000Y-60920000D03*
%TO.P,U1,7,DRAIN3*%
%TO.N,Net-(U1-DRAIN3)*%
X64380000Y-63460000D03*
%TO.P,U1,8,~{SRCLR}*%
%TO.N,Net-(U1-~{SRCLR})*%
X64380000Y-66000000D03*
%TO.P,U1,9,~{G}*%
%TO.N,GND*%
X64380000Y-68540000D03*
%TO.P,U1,10,PGND*%
X64380000Y-71080000D03*
%TO.P,U1,11,PGND*%
X72000000Y-71080000D03*
%TO.P,U1,12,RCLK*%
%TO.N,/RCLK*%
X72000000Y-68540000D03*
%TO.P,U1,13,SRCK*%
%TO.N,/SRCK*%
X72000000Y-66000000D03*
%TO.P,U1,14,DRAIN4*%
%TO.N,Net-(U1-DRAIN4)*%
X72000000Y-63460000D03*
%TO.P,U1,15,DRAIN5*%
%TO.N,Net-(U1-DRAIN5)*%
X72000000Y-60920000D03*
%TO.P,U1,16,DRAIN6*%
%TO.N,Net-(U1-DRAIN6)*%
X72000000Y-58380000D03*
%TO.P,U1,17,DRAIN7*%
%TO.N,Net-(U1-DRAIN7)*%
X72000000Y-55840000D03*
%TO.P,U1,18,SER_OUT*%
%TO.N,/SEROUT1*%
X72000000Y-53300000D03*
%TO.P,U1,19,LGND*%
%TO.N,GND*%
X72000000Y-50760000D03*
%TO.P,U1,20,PGND*%
X72000000Y-48220000D03*
%TD*%
D13*
%TO.P,J14,1,Pin_1*%
%TO.N,GND*%
X139500000Y-38800000D03*
D14*
%TO.P,J14,2,Pin_2*%
%TO.N,unconnected-(J14-Pin_2-Pad2)*%
X139500000Y-41340000D03*
%TO.P,J14,3,Pin_3*%
%TO.N,/ESPBAT*%
X139500000Y-43880000D03*
%TO.P,J14,4,Pin_4*%
%TO.N,/IO_20*%
X139500000Y-46420000D03*
%TD*%
D15*
%TO.P,J1,1,Pin_1*%
%TO.N,/5VBus*%
X141050000Y-27800000D03*
D16*
%TO.P,J1,2,Pin_2*%
%TO.N,GND*%
X143550000Y-27800000D03*
%TD*%
D13*
%TO.P,J9,1,Pin_1*%
%TO.N,/SER_HC*%
X115300000Y-59475000D03*
D14*
%TO.P,J9,2,Pin_2*%
%TO.N,/Q7*%
X115300000Y-56935000D03*
%TD*%
D10*
%TO.P,U4,1,PGND*%
%TO.N,GND*%
X100920000Y-71210000D03*
D11*
%TO.P,U4,2,VCC*%
%TO.N,/5VBus*%
X100920000Y-68670000D03*
%TO.P,U4,3,SER_IN*%
%TO.N,/SEROUT1*%
X100920000Y-66130000D03*
%TO.P,U4,4,DRAIN0*%
%TO.N,Net-(U4-DRAIN0)*%
X100920000Y-63590000D03*
%TO.P,U4,5,DRAIN1*%
%TO.N,Net-(U4-DRAIN1)*%
X100920000Y-61050000D03*
%TO.P,U4,6,DRAIN2*%
%TO.N,Net-(U4-DRAIN2)*%
X100920000Y-58510000D03*
%TO.P,U4,7,DRAIN3*%
%TO.N,Net-(U4-DRAIN3)*%
X100920000Y-55970000D03*
%TO.P,U4,8,~{SRCLR}*%
%TO.N,Net-(U4-~{SRCLR})*%
X100920000Y-53430000D03*
%TO.P,U4,9,~{G}*%
%TO.N,GND*%
X100920000Y-50890000D03*
%TO.P,U4,10,PGND*%
X100920000Y-48350000D03*
%TO.P,U4,11,PGND*%
X93300000Y-48350000D03*
%TO.P,U4,12,RCLK*%
%TO.N,/RCLK*%
X93300000Y-50890000D03*
%TO.P,U4,13,SRCK*%
%TO.N,/SRCK*%
X93300000Y-53430000D03*
%TO.P,U4,14,DRAIN4*%
%TO.N,Net-(U4-DRAIN4)*%
X93300000Y-55970000D03*
%TO.P,U4,15,DRAIN5*%
%TO.N,Net-(U4-DRAIN5)*%
X93300000Y-58510000D03*
%TO.P,U4,16,DRAIN6*%
%TO.N,Net-(U4-DRAIN6)*%
X93300000Y-61050000D03*
%TO.P,U4,17,DRAIN7*%
%TO.N,Net-(U4-DRAIN7)*%
X93300000Y-63590000D03*
%TO.P,U4,18,SER_OUT*%
%TO.N,/SEROUT2*%
X93300000Y-66130000D03*
%TO.P,U4,19,LGND*%
%TO.N,GND*%
X93300000Y-68670000D03*
%TO.P,U4,20,PGND*%
X93300000Y-71210000D03*
%TD*%
D12*
%TO.P,U5,1,PGND*%
%TO.N,GND*%
X198380000Y-51220000D03*
D11*
%TO.P,U5,2,VCC*%
%TO.N,/5VBus*%
X198380000Y-53760000D03*
%TO.P,U5,3,SER_IN*%
%TO.N,/SEROUT2*%
X198380000Y-56300000D03*
%TO.P,U5,4,DRAIN0*%
%TO.N,Net-(U5-DRAIN0)*%
X198380000Y-58840000D03*
%TO.P,U5,5,DRAIN1*%
%TO.N,Net-(U5-DRAIN1)*%
X198380000Y-61380000D03*
%TO.P,U5,6,DRAIN2*%
%TO.N,Net-(U5-DRAIN2)*%
X198380000Y-63920000D03*
%TO.P,U5,7,DRAIN3*%
%TO.N,Net-(U5-DRAIN3)*%
X198380000Y-66460000D03*
%TO.P,U5,8,~{SRCLR}*%
%TO.N,Net-(U5-~{SRCLR})*%
X198380000Y-69000000D03*
%TO.P,U5,9,~{G}*%
%TO.N,GND*%
X198380000Y-71540000D03*
%TO.P,U5,10,PGND*%
X198380000Y-74080000D03*
%TO.P,U5,11,PGND*%
X206000000Y-74080000D03*
%TO.P,U5,12,RCLK*%
%TO.N,/RCLK*%
X206000000Y-71540000D03*
%TO.P,U5,13,SRCK*%
%TO.N,/SRCK*%
X206000000Y-69000000D03*
%TO.P,U5,14,DRAIN4*%
%TO.N,Net-(U5-DRAIN4)*%
X206000000Y-66460000D03*
%TO.P,U5,15,DRAIN5*%
%TO.N,Net-(U5-DRAIN5)*%
X206000000Y-63920000D03*
%TO.P,U5,16,DRAIN6*%
%TO.N,Net-(U5-DRAIN6)*%
X206000000Y-61380000D03*
%TO.P,U5,17,DRAIN7*%
%TO.N,Net-(U5-DRAIN7)*%
X206000000Y-58840000D03*
%TO.P,U5,18,SER_OUT*%
%TO.N,/SEROUT3*%
X206000000Y-56300000D03*
%TO.P,U5,19,LGND*%
%TO.N,GND*%
X206000000Y-53760000D03*
%TO.P,U5,20,PGND*%
X206000000Y-51220000D03*
%TD*%
D13*
%TO.P,U3,1,CD*%
%TO.N,/CD_SD*%
X170500000Y-60720000D03*
D14*
%TO.P,U3,2,CS*%
%TO.N,/CS*%
X170500000Y-63260000D03*
%TO.P,U3,3,DI*%
%TO.N,/MOSI*%
X170500000Y-65800000D03*
%TO.P,U3,4,DO*%
%TO.N,/MISO*%
X170500000Y-68340000D03*
%TO.P,U3,5,CLK*%
%TO.N,/CLK*%
X170500000Y-70880000D03*
%TO.P,U3,6,GND*%
%TO.N,GND*%
X170500000Y-73420000D03*
%TO.P,U3,7,3V*%
%TO.N,/3V_SD*%
X170500000Y-75960000D03*
%TO.P,U3,8,5V*%
%TO.N,/5VBus*%
X170500000Y-78500000D03*
%TD*%
D13*
%TO.P,U2,1,GND*%
%TO.N,GND*%
X146380000Y-53280000D03*
D14*
%TO.P,U2,2,3.3V*%
%TO.N,unconnected-(U2-3.3V-Pad2)*%
X148920000Y-53280000D03*
%TO.P,U2,3,4*%
%TO.N,/CP*%
X151460000Y-53280000D03*
%TO.P,U2,4,5*%
%TO.N,/PL*%
X154000000Y-53280000D03*
%TO.P,U2,5,23*%
%TO.N,/CLK*%
X156540000Y-53280000D03*
%TO.P,U2,6,22*%
%TO.N,/MOSI*%
X159080000Y-53280000D03*
%TO.P,U2,7,21*%
%TO.N,/MISO*%
X161620000Y-53280000D03*
%TO.P,U2,8,7*%
%TO.N,/CS*%
X164160000Y-53280000D03*
%TO.P,U2,9,6*%
%TO.N,/Qinv*%
X164160000Y-35500000D03*
%TO.P,U2,10,20*%
%TO.N,/IO_20*%
X161620000Y-35500000D03*
%TO.P,U2,11,19*%
%TO.N,/SRCK*%
X159080000Y-35500000D03*
%TO.P,U2,12,16*%
%TO.N,/RCLK*%
X156540000Y-35500000D03*
%TO.P,U2,13,17*%
%TO.N,/SER_In*%
X154000000Y-35500000D03*
%TO.P,U2,14,VIN*%
%TO.N,/5VBus*%
X151460000Y-35500000D03*
%TO.P,U2,15,GND*%
%TO.N,GND*%
X148920000Y-35500000D03*
%TO.P,U2,16,BAT*%
%TO.N,/ESPBAT*%
X146380000Y-35500000D03*
%TD*%
D13*
%TO.P,J11,1,Pin_1*%
%TO.N,/SEROUT4*%
X239300000Y-53500000D03*
%TD*%
%TO.P,J13,1,Pin_1*%
%TO.N,GND*%
X122880000Y-38000000D03*
D14*
%TO.P,J13,2,Pin_2*%
%TO.N,/In6*%
X125420000Y-38000000D03*
%TO.P,J13,3,Pin_3*%
%TO.N,/In7*%
X127960000Y-38000000D03*
%TO.P,J13,4,Pin_4*%
%TO.N,/In8*%
X130500000Y-38000000D03*
%TO.P,J13,5,Pin_5*%
%TO.N,/5VBus*%
X133040000Y-38000000D03*
%TD*%
D15*
%TO.P,J12,1,Pin_1*%
%TO.N,/GRN*%
X152250000Y-91000000D03*
D16*
%TO.P,J12,2,Pin_2*%
%TO.N,GND*%
X154750000Y-91000000D03*
%TD*%
D17*
%TO.P,J8,1,Pin_1*%
%TO.N,/5VBus*%
X121000000Y-44000000D03*
D18*
%TO.P,J8,2,Pin_2*%
%TO.N,/Btn1*%
X122250000Y-46000000D03*
%TO.P,J8,3,Pin_3*%
%TO.N,/Btn2*%
X123500000Y-44000000D03*
%TO.P,J8,4,Pin_4*%
%TO.N,/Btn3*%
X124750000Y-46000000D03*
%TO.P,J8,5,Pin_5*%
%TO.N,/Btn4*%
X126000000Y-44000000D03*
%TO.P,J8,6,Pin_6*%
%TO.N,/Btn5*%
X127250000Y-46000000D03*
%TO.P,J8,7,Pin_7*%
%TO.N,/In6*%
X128500000Y-44000000D03*
%TO.P,J8,8,Pin_8*%
%TO.N,/In7*%
X129750000Y-46000000D03*
%TO.P,J8,9,Pin_9*%
%TO.N,/In8*%
X131000000Y-44000000D03*
%TO.P,J8,10,Pin_10*%
%TO.N,GND*%
X132250000Y-46000000D03*
%TD*%
D13*
%TO.P,J7,1,Pin_1*%
%TO.N,/CD_SD*%
X177967500Y-76425000D03*
D14*
%TO.P,J7,2,Pin_2*%
%TO.N,/3V_SD*%
X177967500Y-78965000D03*
%TD*%
D12*
%TO.P,U6,1,PGND*%
%TO.N,GND*%
X227690000Y-51320000D03*
D11*
%TO.P,U6,2,VCC*%
%TO.N,/5VBus*%
X227690000Y-53860000D03*
%TO.P,U6,3,SER_IN*%
%TO.N,/SEROUT3*%
X227690000Y-56400000D03*
%TO.P,U6,4,DRAIN0*%
%TO.N,Net-(U6-DRAIN0)*%
X227690000Y-58940000D03*
%TO.P,U6,5,DRAIN1*%
%TO.N,Net-(U6-DRAIN1)*%
X227690000Y-61480000D03*
%TO.P,U6,6,DRAIN2*%
%TO.N,Net-(U6-DRAIN2)*%
X227690000Y-64020000D03*
%TO.P,U6,7,DRAIN3*%
%TO.N,Net-(U6-DRAIN3)*%
X227690000Y-66560000D03*
%TO.P,U6,8,~{SRCLR}*%
%TO.N,Net-(U6-~{SRCLR})*%
X227690000Y-69100000D03*
%TO.P,U6,9,~{G}*%
%TO.N,GND*%
X227690000Y-71640000D03*
%TO.P,U6,10,PGND*%
X227690000Y-74180000D03*
%TO.P,U6,11,PGND*%
X235310000Y-74180000D03*
%TO.P,U6,12,RCLK*%
%TO.N,/RCLK*%
X235310000Y-71640000D03*
%TO.P,U6,13,SRCK*%
%TO.N,/SRCK*%
X235310000Y-69100000D03*
%TO.P,U6,14,DRAIN4*%
%TO.N,Net-(U6-DRAIN4)*%
X235310000Y-66560000D03*
%TO.P,U6,15,DRAIN5*%
%TO.N,Net-(U6-DRAIN5)*%
X235310000Y-64020000D03*
%TO.P,U6,16,DRAIN6*%
%TO.N,Net-(U6-DRAIN6)*%
X235310000Y-61480000D03*
%TO.P,U6,17,DRAIN7*%
%TO.N,Net-(U6-DRAIN7)*%
X235310000Y-58940000D03*
%TO.P,U6,18,SER_OUT*%
%TO.N,/SEROUT4*%
X235310000Y-56400000D03*
%TO.P,U6,19,LGND*%
%TO.N,GND*%
X235310000Y-53860000D03*
%TO.P,U6,20,PGND*%
X235310000Y-51320000D03*
%TD*%
D15*
%TO.P,J2,1,Pin_1*%
%TO.N,/9VBus*%
X141000000Y-88750000D03*
D16*
%TO.P,J2,2,Pin_2*%
%TO.N,GND*%
X143500000Y-88750000D03*
%TD*%
D19*
%TO.P,L2,1,Vin_R*%
%TO.N,/9VBus*%
X119920000Y-29900000D03*
D20*
%TO.P,L2,2,E*%
%TO.N,/2E*%
X122460000Y-29900000D03*
%TO.P,L2,3,D*%
%TO.N,/2D*%
X125000000Y-29900000D03*
%TO.P,L2,4,C*%
%TO.N,/2C*%
X127540000Y-29900000D03*
%TO.P,L2,5,VinG*%
%TO.N,/GRN*%
X130080000Y-29900000D03*
%TO.P,L2,6,B*%
%TO.N,/2B*%
X130080000Y-90100000D03*
%TO.P,L2,7,A*%
%TO.N,/2A*%
X127540000Y-90100000D03*
%TO.P,L2,8,DP*%
%TO.N,/2DP*%
X125000000Y-90100000D03*
%TO.P,L2,9,F*%
%TO.N,/2F*%
X122460000Y-90100000D03*
%TO.P,L2,10,G*%
%TO.N,/2G*%
X119920000Y-90100000D03*
%TD*%
D19*
%TO.P,L1,1,Vin_R*%
%TO.N,/9VBus*%
X80080000Y-90100000D03*
D20*
%TO.P,L1,2,E*%
%TO.N,/1E*%
X77540000Y-90100000D03*
%TO.P,L1,3,D*%
%TO.N,/1D*%
X75000000Y-90100000D03*
%TO.P,L1,4,C*%
%TO.N,/1C*%
X72460000Y-90100000D03*
%TO.P,L1,5,VinG*%
%TO.N,/GRN*%
X69920000Y-90100000D03*
%TO.P,L1,6,B*%
%TO.N,/1B*%
X69920000Y-29900000D03*
%TO.P,L1,7,A*%
%TO.N,/1A*%
X72460000Y-29900000D03*
%TO.P,L1,8,DP*%
%TO.N,/1DP*%
X75000000Y-29900000D03*
%TO.P,L1,9,F*%
%TO.N,/1F*%
X77540000Y-29900000D03*
%TO.P,L1,10,G*%
%TO.N,/1G*%
X80080000Y-29900000D03*
%TD*%
D19*
%TO.P,L4,1,Vin_R*%
%TO.N,/9VBus*%
X230080000Y-90100000D03*
D20*
%TO.P,L4,2,E*%
%TO.N,/4E*%
X227540000Y-90100000D03*
%TO.P,L4,3,D*%
%TO.N,/4D*%
X225000000Y-90100000D03*
%TO.P,L4,4,C*%
%TO.N,/4C*%
X222460000Y-90100000D03*
%TO.P,L4,5,VinG*%
%TO.N,/GRN*%
X219920000Y-90100000D03*
%TO.P,L4,6,B*%
%TO.N,/4B*%
X219920000Y-29900000D03*
%TO.P,L4,7,A*%
%TO.N,/4A*%
X222460000Y-29900000D03*
%TO.P,L4,8,DP*%
%TO.N,/4DP*%
X225000000Y-29900000D03*
%TO.P,L4,9,F*%
%TO.N,/4F*%
X227540000Y-29900000D03*
%TO.P,L4,10,G*%
%TO.N,/4G*%
X230080000Y-29900000D03*
%TD*%
D19*
%TO.P,L3,1,Vin_R*%
%TO.N,/9VBus*%
X180080000Y-90100000D03*
D20*
%TO.P,L3,2,E*%
%TO.N,/3E*%
X177540000Y-90100000D03*
%TO.P,L3,3,D*%
%TO.N,/3D*%
X175000000Y-90100000D03*
%TO.P,L3,4,C*%
%TO.N,/3C*%
X172460000Y-90100000D03*
%TO.P,L3,5,VinG*%
%TO.N,/GRN*%
X169920000Y-90100000D03*
%TO.P,L3,6,B*%
%TO.N,/3B*%
X169920000Y-29900000D03*
%TO.P,L3,7,A*%
%TO.N,/3A*%
X172460000Y-29900000D03*
%TO.P,L3,8,DP*%
%TO.N,/3DP*%
X175000000Y-29900000D03*
%TO.P,L3,9,F*%
%TO.N,/3F*%
X177540000Y-29900000D03*
%TO.P,L3,10,G*%
%TO.N,/3G*%
X180080000Y-29900000D03*
%TD*%
D21*
%TO.N,GND*%
X117200000Y-67700000D03*
%TO.N,/5VBus*%
X193800000Y-74500000D03*
X104700000Y-70600000D03*
X60750000Y-49350000D03*
X223600000Y-75100000D03*
X194600000Y-51500000D03*
X104100000Y-44300000D03*
X223910000Y-51810000D03*
X60300000Y-72500000D03*
%TO.N,GND*%
X131150000Y-27800000D03*
X194600000Y-44700000D03*
X156750000Y-87050000D03*
X104700000Y-77000000D03*
X223900000Y-44900000D03*
X60750000Y-43200000D03*
X146150000Y-84750000D03*
%TD*%
D22*
%TO.N,/SER_HC*%
X116475000Y-58300000D02*
X115300000Y-59475000D01*
X123000000Y-58300000D02*
X116475000Y-58300000D01*
D23*
%TO.N,/9VBus*%
X148250000Y-86500000D02*
X149750000Y-85000000D01*
X134500000Y-88750000D02*
X133250000Y-87500000D01*
X147100000Y-32400000D02*
X122420000Y-32400000D01*
X141000000Y-90250000D02*
X142500000Y-91750000D01*
X180080000Y-90100000D02*
X181900000Y-90100000D01*
X148250000Y-89750000D02*
X148250000Y-86500000D01*
X225480000Y-85500000D02*
X230080000Y-90100000D01*
X141000000Y-88750000D02*
X141000000Y-90250000D01*
X122420000Y-32400000D02*
X119920000Y-29900000D01*
X231300000Y-90100000D02*
X246400000Y-75000000D01*
X174980000Y-85000000D02*
X180080000Y-90100000D01*
X142500000Y-91750000D02*
X146250000Y-91750000D01*
X82680000Y-87500000D02*
X80080000Y-90100000D01*
X133250000Y-87500000D02*
X82680000Y-87500000D01*
X146250000Y-91750000D02*
X148250000Y-89750000D01*
X230080000Y-90100000D02*
X231300000Y-90100000D01*
X141000000Y-88750000D02*
X134500000Y-88750000D01*
X181900000Y-90100000D02*
X186500000Y-85500000D01*
X231200000Y-27100000D02*
X152400000Y-27100000D01*
X152400000Y-27100000D02*
X147100000Y-32400000D01*
X186500000Y-85500000D02*
X225480000Y-85500000D01*
X246400000Y-42300000D02*
X231200000Y-27100000D01*
X246400000Y-75000000D02*
X246400000Y-42300000D01*
X149750000Y-85000000D02*
X174980000Y-85000000D01*
D22*
%TO.N,/Q7*%
X116475000Y-55760000D02*
X115300000Y-56935000D01*
X123000000Y-55760000D02*
X116475000Y-55760000D01*
D23*
%TO.N,/GRN*%
X69000000Y-27250000D02*
X127430000Y-27250000D01*
X72820000Y-93000000D02*
X69920000Y-90100000D01*
X152250000Y-91000000D02*
X150250000Y-93000000D01*
X152250000Y-91000000D02*
X153826000Y-92576000D01*
X53750000Y-73930000D02*
X53750000Y-42500000D01*
X169920000Y-90100000D02*
X167444000Y-92576000D01*
X153826000Y-92576000D02*
X167444000Y-92576000D01*
X53750000Y-42500000D02*
X69000000Y-27250000D01*
X69920000Y-90100000D02*
X53750000Y-73930000D01*
X167444000Y-92576000D02*
X217444000Y-92576000D01*
X217444000Y-92576000D02*
X219920000Y-90100000D01*
X127430000Y-27250000D02*
X130080000Y-29900000D01*
X150250000Y-93000000D02*
X72820000Y-93000000D01*
D22*
%TO.N,/SEROUT1*%
X82900000Y-64200000D02*
X82900000Y-69000000D01*
X82900000Y-69000000D02*
X87500000Y-73600000D01*
X87500000Y-73600000D02*
X93450000Y-73600000D01*
X93450000Y-73600000D02*
X100920000Y-66130000D01*
X72000000Y-53300000D02*
X82900000Y-64200000D01*
%TO.N,/RCLK*%
X71400000Y-45000000D02*
X77400000Y-45000000D01*
X93310000Y-50890000D02*
X109300000Y-34900000D01*
X69300000Y-47100000D02*
X71400000Y-45000000D01*
X145500000Y-37900000D02*
X154140000Y-37900000D01*
X154140000Y-37900000D02*
X156540000Y-35500000D01*
X213840000Y-71540000D02*
X206000000Y-71540000D01*
X142500000Y-34900000D02*
X145500000Y-37900000D01*
X72000000Y-68540000D02*
X69300000Y-65840000D01*
X235310000Y-71640000D02*
X231400000Y-75550000D01*
X221200000Y-78900000D02*
X213840000Y-71540000D01*
X93300000Y-50890000D02*
X93310000Y-50890000D01*
X77400000Y-45000000D02*
X83290000Y-50890000D01*
X69300000Y-65840000D02*
X69300000Y-47100000D01*
X231400000Y-77000000D02*
X229500000Y-78900000D01*
X229500000Y-78900000D02*
X221200000Y-78900000D01*
X109300000Y-34900000D02*
X142500000Y-34900000D01*
X83290000Y-50890000D02*
X93300000Y-50890000D01*
X231400000Y-75550000D02*
X231400000Y-77000000D01*
%TO.N,/SRCK*%
X96800000Y-48500000D02*
X109100000Y-36200000D01*
X141100000Y-36200000D02*
X144000000Y-39100000D01*
X163780000Y-40200000D02*
X194600000Y-40200000D01*
X84121480Y-53430000D02*
X93300000Y-53430000D01*
X235310000Y-69100000D02*
X230300000Y-74110000D01*
X159080000Y-35500000D02*
X163780000Y-40200000D01*
X72000000Y-66000000D02*
X70000000Y-64000000D01*
X155480000Y-39100000D02*
X159080000Y-35500000D01*
X215200000Y-69000000D02*
X206000000Y-69000000D01*
X230300000Y-76800000D02*
X229500000Y-77600000D01*
X96800000Y-51400000D02*
X96800000Y-48500000D01*
X194600000Y-40200000D02*
X201100000Y-46700000D01*
X230300000Y-74110000D02*
X230300000Y-76800000D01*
X70000000Y-47300000D02*
X71400000Y-45900000D01*
X70000000Y-64000000D02*
X70000000Y-47300000D01*
X94770000Y-53430000D02*
X96800000Y-51400000D01*
X76591480Y-45900000D02*
X84121480Y-53430000D01*
X109100000Y-36200000D02*
X141100000Y-36200000D01*
X201100000Y-46700000D02*
X201100000Y-64100000D01*
X93300000Y-53430000D02*
X94770000Y-53430000D01*
X71400000Y-45900000D02*
X76591480Y-45900000D01*
X144000000Y-39100000D02*
X155480000Y-39100000D01*
X223800000Y-77600000D02*
X215200000Y-69000000D01*
X229500000Y-77600000D02*
X223800000Y-77600000D01*
X201100000Y-64100000D02*
X206000000Y-69000000D01*
%TO.N,/SER_In*%
X68200000Y-42100000D02*
X76500000Y-33800000D01*
X68200000Y-49480000D02*
X68200000Y-42100000D01*
X152300000Y-33800000D02*
X154000000Y-35500000D01*
X76500000Y-33800000D02*
X152300000Y-33800000D01*
X64380000Y-53300000D02*
X68200000Y-49480000D01*
%TO.N,/MISO*%
X161620000Y-59460000D02*
X161620000Y-53280000D01*
X170500000Y-68340000D02*
X161620000Y-59460000D01*
%TO.N,/SEROUT2*%
X107500000Y-50500000D02*
X171300000Y-50500000D01*
X93300000Y-66130000D02*
X97900000Y-61530000D01*
X102800000Y-45800000D02*
X107500000Y-50500000D01*
X177100000Y-56300000D02*
X198380000Y-56300000D01*
X97900000Y-61530000D02*
X97900000Y-48800000D01*
X97900000Y-48800000D02*
X100900000Y-45800000D01*
X100900000Y-45800000D02*
X102800000Y-45800000D01*
X171300000Y-50500000D02*
X177100000Y-56300000D01*
%TO.N,/SEROUT3*%
X227590000Y-56300000D02*
X227690000Y-56400000D01*
X206000000Y-56300000D02*
X227590000Y-56300000D01*
%TD*%
M02*
