%TF.GenerationSoftware,KiCad,Pcbnew,9.0.7*%
%TF.CreationDate,2026-03-16T20:52:18-05:00*%
%TF.ProjectId,MainBoard4Layer,4d61696e-426f-4617-9264-344c61796572,rev?*%
%TF.SameCoordinates,Original*%
%TF.FileFunction,Legend,Bot*%
%TF.FilePolarity,Positive*%
%FSLAX46Y46*%
G04 Gerber Fmt 4.6, Leading zero omitted, Abs format (unit mm)*
G04 Created by KiCad (PCBNEW 9.0.7) date 2026-03-16 20:52:18*
%MOMM*%
%LPD*%
G01*
G04 APERTURE LIST*
%ADD10C,0.100000*%
G04 APERTURE END LIST*
D10*
X124333333Y-93642580D02*
X123857143Y-93642580D01*
X123857143Y-93642580D02*
X123857143Y-94642580D01*
X124619048Y-94547342D02*
X124666667Y-94594961D01*
X124666667Y-94594961D02*
X124761905Y-94642580D01*
X124761905Y-94642580D02*
X125000000Y-94642580D01*
X125000000Y-94642580D02*
X125095238Y-94594961D01*
X125095238Y-94594961D02*
X125142857Y-94547342D01*
X125142857Y-94547342D02*
X125190476Y-94452104D01*
X125190476Y-94452104D02*
X125190476Y-94356866D01*
X125190476Y-94356866D02*
X125142857Y-94214009D01*
X125142857Y-94214009D02*
X124571429Y-93642580D01*
X124571429Y-93642580D02*
X125190476Y-93642580D01*
X127306265Y-87923295D02*
X127782455Y-87923295D01*
X127211027Y-87637580D02*
X127544360Y-88637580D01*
X127544360Y-88637580D02*
X127877693Y-87637580D01*
X122283884Y-31611390D02*
X122617217Y-31611390D01*
X122760074Y-31087580D02*
X122283884Y-31087580D01*
X122283884Y-31087580D02*
X122283884Y-32087580D01*
X122283884Y-32087580D02*
X122760074Y-32087580D01*
X120087693Y-88659961D02*
X119992455Y-88707580D01*
X119992455Y-88707580D02*
X119849598Y-88707580D01*
X119849598Y-88707580D02*
X119706741Y-88659961D01*
X119706741Y-88659961D02*
X119611503Y-88564723D01*
X119611503Y-88564723D02*
X119563884Y-88469485D01*
X119563884Y-88469485D02*
X119516265Y-88279009D01*
X119516265Y-88279009D02*
X119516265Y-88136152D01*
X119516265Y-88136152D02*
X119563884Y-87945676D01*
X119563884Y-87945676D02*
X119611503Y-87850438D01*
X119611503Y-87850438D02*
X119706741Y-87755200D01*
X119706741Y-87755200D02*
X119849598Y-87707580D01*
X119849598Y-87707580D02*
X119944836Y-87707580D01*
X119944836Y-87707580D02*
X120087693Y-87755200D01*
X120087693Y-87755200D02*
X120135312Y-87802819D01*
X120135312Y-87802819D02*
X120135312Y-88136152D01*
X120135312Y-88136152D02*
X119944836Y-88136152D01*
X127825312Y-31192819D02*
X127777693Y-31145200D01*
X127777693Y-31145200D02*
X127634836Y-31097580D01*
X127634836Y-31097580D02*
X127539598Y-31097580D01*
X127539598Y-31097580D02*
X127396741Y-31145200D01*
X127396741Y-31145200D02*
X127301503Y-31240438D01*
X127301503Y-31240438D02*
X127253884Y-31335676D01*
X127253884Y-31335676D02*
X127206265Y-31526152D01*
X127206265Y-31526152D02*
X127206265Y-31669009D01*
X127206265Y-31669009D02*
X127253884Y-31859485D01*
X127253884Y-31859485D02*
X127301503Y-31954723D01*
X127301503Y-31954723D02*
X127396741Y-32049961D01*
X127396741Y-32049961D02*
X127539598Y-32097580D01*
X127539598Y-32097580D02*
X127634836Y-32097580D01*
X127634836Y-32097580D02*
X127777693Y-32049961D01*
X127777693Y-32049961D02*
X127825312Y-32002342D01*
X122597217Y-88151390D02*
X122263884Y-88151390D01*
X122263884Y-87627580D02*
X122263884Y-88627580D01*
X122263884Y-88627580D02*
X122740074Y-88627580D01*
X119385312Y-31107580D02*
X119051979Y-31583771D01*
X118813884Y-31107580D02*
X118813884Y-32107580D01*
X118813884Y-32107580D02*
X119194836Y-32107580D01*
X119194836Y-32107580D02*
X119290074Y-32059961D01*
X119290074Y-32059961D02*
X119337693Y-32012342D01*
X119337693Y-32012342D02*
X119385312Y-31917104D01*
X119385312Y-31917104D02*
X119385312Y-31774247D01*
X119385312Y-31774247D02*
X119337693Y-31679009D01*
X119337693Y-31679009D02*
X119290074Y-31631390D01*
X119290074Y-31631390D02*
X119194836Y-31583771D01*
X119194836Y-31583771D02*
X118813884Y-31583771D01*
X119813884Y-31631390D02*
X120147217Y-31631390D01*
X120290074Y-31107580D02*
X119813884Y-31107580D01*
X119813884Y-31107580D02*
X119813884Y-32107580D01*
X119813884Y-32107580D02*
X120290074Y-32107580D01*
X120718646Y-31107580D02*
X120718646Y-32107580D01*
X120718646Y-32107580D02*
X120956741Y-32107580D01*
X120956741Y-32107580D02*
X121099598Y-32059961D01*
X121099598Y-32059961D02*
X121194836Y-31964723D01*
X121194836Y-31964723D02*
X121242455Y-31869485D01*
X121242455Y-31869485D02*
X121290074Y-31679009D01*
X121290074Y-31679009D02*
X121290074Y-31536152D01*
X121290074Y-31536152D02*
X121242455Y-31345676D01*
X121242455Y-31345676D02*
X121194836Y-31250438D01*
X121194836Y-31250438D02*
X121099598Y-31155200D01*
X121099598Y-31155200D02*
X120956741Y-31107580D01*
X120956741Y-31107580D02*
X120718646Y-31107580D01*
X130257693Y-32039961D02*
X130162455Y-32087580D01*
X130162455Y-32087580D02*
X130019598Y-32087580D01*
X130019598Y-32087580D02*
X129876741Y-32039961D01*
X129876741Y-32039961D02*
X129781503Y-31944723D01*
X129781503Y-31944723D02*
X129733884Y-31849485D01*
X129733884Y-31849485D02*
X129686265Y-31659009D01*
X129686265Y-31659009D02*
X129686265Y-31516152D01*
X129686265Y-31516152D02*
X129733884Y-31325676D01*
X129733884Y-31325676D02*
X129781503Y-31230438D01*
X129781503Y-31230438D02*
X129876741Y-31135200D01*
X129876741Y-31135200D02*
X130019598Y-31087580D01*
X130019598Y-31087580D02*
X130114836Y-31087580D01*
X130114836Y-31087580D02*
X130257693Y-31135200D01*
X130257693Y-31135200D02*
X130305312Y-31182819D01*
X130305312Y-31182819D02*
X130305312Y-31516152D01*
X130305312Y-31516152D02*
X130114836Y-31516152D01*
X131305312Y-31087580D02*
X130971979Y-31563771D01*
X130733884Y-31087580D02*
X130733884Y-32087580D01*
X130733884Y-32087580D02*
X131114836Y-32087580D01*
X131114836Y-32087580D02*
X131210074Y-32039961D01*
X131210074Y-32039961D02*
X131257693Y-31992342D01*
X131257693Y-31992342D02*
X131305312Y-31897104D01*
X131305312Y-31897104D02*
X131305312Y-31754247D01*
X131305312Y-31754247D02*
X131257693Y-31659009D01*
X131257693Y-31659009D02*
X131210074Y-31611390D01*
X131210074Y-31611390D02*
X131114836Y-31563771D01*
X131114836Y-31563771D02*
X130733884Y-31563771D01*
X131733884Y-31611390D02*
X132067217Y-31611390D01*
X132210074Y-31087580D02*
X131733884Y-31087580D01*
X131733884Y-31087580D02*
X131733884Y-32087580D01*
X131733884Y-32087580D02*
X132210074Y-32087580D01*
X132638646Y-31611390D02*
X132971979Y-31611390D01*
X133114836Y-31087580D02*
X132638646Y-31087580D01*
X132638646Y-31087580D02*
X132638646Y-32087580D01*
X132638646Y-32087580D02*
X133114836Y-32087580D01*
X133543408Y-31087580D02*
X133543408Y-32087580D01*
X133543408Y-32087580D02*
X134114836Y-31087580D01*
X134114836Y-31087580D02*
X134114836Y-32087580D01*
X124853884Y-31127580D02*
X124853884Y-32127580D01*
X124853884Y-32127580D02*
X125091979Y-32127580D01*
X125091979Y-32127580D02*
X125234836Y-32079961D01*
X125234836Y-32079961D02*
X125330074Y-31984723D01*
X125330074Y-31984723D02*
X125377693Y-31889485D01*
X125377693Y-31889485D02*
X125425312Y-31699009D01*
X125425312Y-31699009D02*
X125425312Y-31556152D01*
X125425312Y-31556152D02*
X125377693Y-31365676D01*
X125377693Y-31365676D02*
X125330074Y-31270438D01*
X125330074Y-31270438D02*
X125234836Y-31175200D01*
X125234836Y-31175200D02*
X125091979Y-31127580D01*
X125091979Y-31127580D02*
X124853884Y-31127580D01*
X124343884Y-87627580D02*
X124343884Y-88627580D01*
X124343884Y-88627580D02*
X124581979Y-88627580D01*
X124581979Y-88627580D02*
X124724836Y-88579961D01*
X124724836Y-88579961D02*
X124820074Y-88484723D01*
X124820074Y-88484723D02*
X124867693Y-88389485D01*
X124867693Y-88389485D02*
X124915312Y-88199009D01*
X124915312Y-88199009D02*
X124915312Y-88056152D01*
X124915312Y-88056152D02*
X124867693Y-87865676D01*
X124867693Y-87865676D02*
X124820074Y-87770438D01*
X124820074Y-87770438D02*
X124724836Y-87675200D01*
X124724836Y-87675200D02*
X124581979Y-87627580D01*
X124581979Y-87627580D02*
X124343884Y-87627580D01*
X125343884Y-87627580D02*
X125343884Y-88627580D01*
X125343884Y-88627580D02*
X125724836Y-88627580D01*
X125724836Y-88627580D02*
X125820074Y-88579961D01*
X125820074Y-88579961D02*
X125867693Y-88532342D01*
X125867693Y-88532342D02*
X125915312Y-88437104D01*
X125915312Y-88437104D02*
X125915312Y-88294247D01*
X125915312Y-88294247D02*
X125867693Y-88199009D01*
X125867693Y-88199009D02*
X125820074Y-88151390D01*
X125820074Y-88151390D02*
X125724836Y-88103771D01*
X125724836Y-88103771D02*
X125343884Y-88103771D01*
X130257217Y-88191390D02*
X130400074Y-88143771D01*
X130400074Y-88143771D02*
X130447693Y-88096152D01*
X130447693Y-88096152D02*
X130495312Y-88000914D01*
X130495312Y-88000914D02*
X130495312Y-87858057D01*
X130495312Y-87858057D02*
X130447693Y-87762819D01*
X130447693Y-87762819D02*
X130400074Y-87715200D01*
X130400074Y-87715200D02*
X130304836Y-87667580D01*
X130304836Y-87667580D02*
X129923884Y-87667580D01*
X129923884Y-87667580D02*
X129923884Y-88667580D01*
X129923884Y-88667580D02*
X130257217Y-88667580D01*
X130257217Y-88667580D02*
X130352455Y-88619961D01*
X130352455Y-88619961D02*
X130400074Y-88572342D01*
X130400074Y-88572342D02*
X130447693Y-88477104D01*
X130447693Y-88477104D02*
X130447693Y-88381866D01*
X130447693Y-88381866D02*
X130400074Y-88286628D01*
X130400074Y-88286628D02*
X130352455Y-88239009D01*
X130352455Y-88239009D02*
X130257217Y-88191390D01*
X130257217Y-88191390D02*
X129923884Y-88191390D01*
X75066666Y-94657419D02*
X75542856Y-94657419D01*
X75542856Y-94657419D02*
X75542856Y-93657419D01*
X74209523Y-94657419D02*
X74780951Y-94657419D01*
X74495237Y-94657419D02*
X74495237Y-93657419D01*
X74495237Y-93657419D02*
X74590475Y-93800276D01*
X74590475Y-93800276D02*
X74685713Y-93895514D01*
X74685713Y-93895514D02*
X74780951Y-93943133D01*
X77402782Y-31848609D02*
X77736115Y-31848609D01*
X77736115Y-32372419D02*
X77736115Y-31372419D01*
X77736115Y-31372419D02*
X77259925Y-31372419D01*
X80614687Y-88892419D02*
X80948020Y-88416228D01*
X81186115Y-88892419D02*
X81186115Y-87892419D01*
X81186115Y-87892419D02*
X80805163Y-87892419D01*
X80805163Y-87892419D02*
X80709925Y-87940038D01*
X80709925Y-87940038D02*
X80662306Y-87987657D01*
X80662306Y-87987657D02*
X80614687Y-88082895D01*
X80614687Y-88082895D02*
X80614687Y-88225752D01*
X80614687Y-88225752D02*
X80662306Y-88320990D01*
X80662306Y-88320990D02*
X80709925Y-88368609D01*
X80709925Y-88368609D02*
X80805163Y-88416228D01*
X80805163Y-88416228D02*
X81186115Y-88416228D01*
X80186115Y-88368609D02*
X79852782Y-88368609D01*
X79709925Y-88892419D02*
X80186115Y-88892419D01*
X80186115Y-88892419D02*
X80186115Y-87892419D01*
X80186115Y-87892419D02*
X79709925Y-87892419D01*
X79281353Y-88892419D02*
X79281353Y-87892419D01*
X79281353Y-87892419D02*
X79043258Y-87892419D01*
X79043258Y-87892419D02*
X78900401Y-87940038D01*
X78900401Y-87940038D02*
X78805163Y-88035276D01*
X78805163Y-88035276D02*
X78757544Y-88130514D01*
X78757544Y-88130514D02*
X78709925Y-88320990D01*
X78709925Y-88320990D02*
X78709925Y-88463847D01*
X78709925Y-88463847D02*
X78757544Y-88654323D01*
X78757544Y-88654323D02*
X78805163Y-88749561D01*
X78805163Y-88749561D02*
X78900401Y-88844800D01*
X78900401Y-88844800D02*
X79043258Y-88892419D01*
X79043258Y-88892419D02*
X79281353Y-88892419D01*
X69742782Y-31808609D02*
X69599925Y-31856228D01*
X69599925Y-31856228D02*
X69552306Y-31903847D01*
X69552306Y-31903847D02*
X69504687Y-31999085D01*
X69504687Y-31999085D02*
X69504687Y-32141942D01*
X69504687Y-32141942D02*
X69552306Y-32237180D01*
X69552306Y-32237180D02*
X69599925Y-32284800D01*
X69599925Y-32284800D02*
X69695163Y-32332419D01*
X69695163Y-32332419D02*
X70076115Y-32332419D01*
X70076115Y-32332419D02*
X70076115Y-31332419D01*
X70076115Y-31332419D02*
X69742782Y-31332419D01*
X69742782Y-31332419D02*
X69647544Y-31380038D01*
X69647544Y-31380038D02*
X69599925Y-31427657D01*
X69599925Y-31427657D02*
X69552306Y-31522895D01*
X69552306Y-31522895D02*
X69552306Y-31618133D01*
X69552306Y-31618133D02*
X69599925Y-31713371D01*
X69599925Y-31713371D02*
X69647544Y-31760990D01*
X69647544Y-31760990D02*
X69742782Y-31808609D01*
X69742782Y-31808609D02*
X70076115Y-31808609D01*
X77716115Y-88388609D02*
X77382782Y-88388609D01*
X77239925Y-88912419D02*
X77716115Y-88912419D01*
X77716115Y-88912419D02*
X77716115Y-87912419D01*
X77716115Y-87912419D02*
X77239925Y-87912419D01*
X75146115Y-88872419D02*
X75146115Y-87872419D01*
X75146115Y-87872419D02*
X74908020Y-87872419D01*
X74908020Y-87872419D02*
X74765163Y-87920038D01*
X74765163Y-87920038D02*
X74669925Y-88015276D01*
X74669925Y-88015276D02*
X74622306Y-88110514D01*
X74622306Y-88110514D02*
X74574687Y-88300990D01*
X74574687Y-88300990D02*
X74574687Y-88443847D01*
X74574687Y-88443847D02*
X74622306Y-88634323D01*
X74622306Y-88634323D02*
X74669925Y-88729561D01*
X74669925Y-88729561D02*
X74765163Y-88824800D01*
X74765163Y-88824800D02*
X74908020Y-88872419D01*
X74908020Y-88872419D02*
X75146115Y-88872419D01*
X75656115Y-32372419D02*
X75656115Y-31372419D01*
X75656115Y-31372419D02*
X75418020Y-31372419D01*
X75418020Y-31372419D02*
X75275163Y-31420038D01*
X75275163Y-31420038D02*
X75179925Y-31515276D01*
X75179925Y-31515276D02*
X75132306Y-31610514D01*
X75132306Y-31610514D02*
X75084687Y-31800990D01*
X75084687Y-31800990D02*
X75084687Y-31943847D01*
X75084687Y-31943847D02*
X75132306Y-32134323D01*
X75132306Y-32134323D02*
X75179925Y-32229561D01*
X75179925Y-32229561D02*
X75275163Y-32324800D01*
X75275163Y-32324800D02*
X75418020Y-32372419D01*
X75418020Y-32372419D02*
X75656115Y-32372419D01*
X74656115Y-32372419D02*
X74656115Y-31372419D01*
X74656115Y-31372419D02*
X74275163Y-31372419D01*
X74275163Y-31372419D02*
X74179925Y-31420038D01*
X74179925Y-31420038D02*
X74132306Y-31467657D01*
X74132306Y-31467657D02*
X74084687Y-31562895D01*
X74084687Y-31562895D02*
X74084687Y-31705752D01*
X74084687Y-31705752D02*
X74132306Y-31800990D01*
X74132306Y-31800990D02*
X74179925Y-31848609D01*
X74179925Y-31848609D02*
X74275163Y-31896228D01*
X74275163Y-31896228D02*
X74656115Y-31896228D01*
X79912306Y-31340038D02*
X80007544Y-31292419D01*
X80007544Y-31292419D02*
X80150401Y-31292419D01*
X80150401Y-31292419D02*
X80293258Y-31340038D01*
X80293258Y-31340038D02*
X80388496Y-31435276D01*
X80388496Y-31435276D02*
X80436115Y-31530514D01*
X80436115Y-31530514D02*
X80483734Y-31720990D01*
X80483734Y-31720990D02*
X80483734Y-31863847D01*
X80483734Y-31863847D02*
X80436115Y-32054323D01*
X80436115Y-32054323D02*
X80388496Y-32149561D01*
X80388496Y-32149561D02*
X80293258Y-32244800D01*
X80293258Y-32244800D02*
X80150401Y-32292419D01*
X80150401Y-32292419D02*
X80055163Y-32292419D01*
X80055163Y-32292419D02*
X79912306Y-32244800D01*
X79912306Y-32244800D02*
X79864687Y-32197180D01*
X79864687Y-32197180D02*
X79864687Y-31863847D01*
X79864687Y-31863847D02*
X80055163Y-31863847D01*
X72174687Y-88807180D02*
X72222306Y-88854800D01*
X72222306Y-88854800D02*
X72365163Y-88902419D01*
X72365163Y-88902419D02*
X72460401Y-88902419D01*
X72460401Y-88902419D02*
X72603258Y-88854800D01*
X72603258Y-88854800D02*
X72698496Y-88759561D01*
X72698496Y-88759561D02*
X72746115Y-88664323D01*
X72746115Y-88664323D02*
X72793734Y-88473847D01*
X72793734Y-88473847D02*
X72793734Y-88330990D01*
X72793734Y-88330990D02*
X72746115Y-88140514D01*
X72746115Y-88140514D02*
X72698496Y-88045276D01*
X72698496Y-88045276D02*
X72603258Y-87950038D01*
X72603258Y-87950038D02*
X72460401Y-87902419D01*
X72460401Y-87902419D02*
X72365163Y-87902419D01*
X72365163Y-87902419D02*
X72222306Y-87950038D01*
X72222306Y-87950038D02*
X72174687Y-87997657D01*
X72693734Y-32076704D02*
X72217544Y-32076704D01*
X72788972Y-32362419D02*
X72455639Y-31362419D01*
X72455639Y-31362419D02*
X72122306Y-32362419D01*
X69742306Y-87960038D02*
X69837544Y-87912419D01*
X69837544Y-87912419D02*
X69980401Y-87912419D01*
X69980401Y-87912419D02*
X70123258Y-87960038D01*
X70123258Y-87960038D02*
X70218496Y-88055276D01*
X70218496Y-88055276D02*
X70266115Y-88150514D01*
X70266115Y-88150514D02*
X70313734Y-88340990D01*
X70313734Y-88340990D02*
X70313734Y-88483847D01*
X70313734Y-88483847D02*
X70266115Y-88674323D01*
X70266115Y-88674323D02*
X70218496Y-88769561D01*
X70218496Y-88769561D02*
X70123258Y-88864800D01*
X70123258Y-88864800D02*
X69980401Y-88912419D01*
X69980401Y-88912419D02*
X69885163Y-88912419D01*
X69885163Y-88912419D02*
X69742306Y-88864800D01*
X69742306Y-88864800D02*
X69694687Y-88817180D01*
X69694687Y-88817180D02*
X69694687Y-88483847D01*
X69694687Y-88483847D02*
X69885163Y-88483847D01*
X68694687Y-88912419D02*
X69028020Y-88436228D01*
X69266115Y-88912419D02*
X69266115Y-87912419D01*
X69266115Y-87912419D02*
X68885163Y-87912419D01*
X68885163Y-87912419D02*
X68789925Y-87960038D01*
X68789925Y-87960038D02*
X68742306Y-88007657D01*
X68742306Y-88007657D02*
X68694687Y-88102895D01*
X68694687Y-88102895D02*
X68694687Y-88245752D01*
X68694687Y-88245752D02*
X68742306Y-88340990D01*
X68742306Y-88340990D02*
X68789925Y-88388609D01*
X68789925Y-88388609D02*
X68885163Y-88436228D01*
X68885163Y-88436228D02*
X69266115Y-88436228D01*
X68266115Y-88388609D02*
X67932782Y-88388609D01*
X67789925Y-88912419D02*
X68266115Y-88912419D01*
X68266115Y-88912419D02*
X68266115Y-87912419D01*
X68266115Y-87912419D02*
X67789925Y-87912419D01*
X67361353Y-88388609D02*
X67028020Y-88388609D01*
X66885163Y-88912419D02*
X67361353Y-88912419D01*
X67361353Y-88912419D02*
X67361353Y-87912419D01*
X67361353Y-87912419D02*
X66885163Y-87912419D01*
X66456591Y-88912419D02*
X66456591Y-87912419D01*
X66456591Y-87912419D02*
X65885163Y-88912419D01*
X65885163Y-88912419D02*
X65885163Y-87912419D01*
X224866666Y-94257419D02*
X225342856Y-94257419D01*
X225342856Y-94257419D02*
X225342856Y-93257419D01*
X224104761Y-93590752D02*
X224104761Y-94257419D01*
X224342856Y-93209800D02*
X224580951Y-93924085D01*
X224580951Y-93924085D02*
X223961904Y-93924085D01*
X229912306Y-31340038D02*
X230007544Y-31292419D01*
X230007544Y-31292419D02*
X230150401Y-31292419D01*
X230150401Y-31292419D02*
X230293258Y-31340038D01*
X230293258Y-31340038D02*
X230388496Y-31435276D01*
X230388496Y-31435276D02*
X230436115Y-31530514D01*
X230436115Y-31530514D02*
X230483734Y-31720990D01*
X230483734Y-31720990D02*
X230483734Y-31863847D01*
X230483734Y-31863847D02*
X230436115Y-32054323D01*
X230436115Y-32054323D02*
X230388496Y-32149561D01*
X230388496Y-32149561D02*
X230293258Y-32244800D01*
X230293258Y-32244800D02*
X230150401Y-32292419D01*
X230150401Y-32292419D02*
X230055163Y-32292419D01*
X230055163Y-32292419D02*
X229912306Y-32244800D01*
X229912306Y-32244800D02*
X229864687Y-32197180D01*
X229864687Y-32197180D02*
X229864687Y-31863847D01*
X229864687Y-31863847D02*
X230055163Y-31863847D01*
X225656115Y-32372419D02*
X225656115Y-31372419D01*
X225656115Y-31372419D02*
X225418020Y-31372419D01*
X225418020Y-31372419D02*
X225275163Y-31420038D01*
X225275163Y-31420038D02*
X225179925Y-31515276D01*
X225179925Y-31515276D02*
X225132306Y-31610514D01*
X225132306Y-31610514D02*
X225084687Y-31800990D01*
X225084687Y-31800990D02*
X225084687Y-31943847D01*
X225084687Y-31943847D02*
X225132306Y-32134323D01*
X225132306Y-32134323D02*
X225179925Y-32229561D01*
X225179925Y-32229561D02*
X225275163Y-32324800D01*
X225275163Y-32324800D02*
X225418020Y-32372419D01*
X225418020Y-32372419D02*
X225656115Y-32372419D01*
X224656115Y-32372419D02*
X224656115Y-31372419D01*
X224656115Y-31372419D02*
X224275163Y-31372419D01*
X224275163Y-31372419D02*
X224179925Y-31420038D01*
X224179925Y-31420038D02*
X224132306Y-31467657D01*
X224132306Y-31467657D02*
X224084687Y-31562895D01*
X224084687Y-31562895D02*
X224084687Y-31705752D01*
X224084687Y-31705752D02*
X224132306Y-31800990D01*
X224132306Y-31800990D02*
X224179925Y-31848609D01*
X224179925Y-31848609D02*
X224275163Y-31896228D01*
X224275163Y-31896228D02*
X224656115Y-31896228D01*
X225146115Y-88872419D02*
X225146115Y-87872419D01*
X225146115Y-87872419D02*
X224908020Y-87872419D01*
X224908020Y-87872419D02*
X224765163Y-87920038D01*
X224765163Y-87920038D02*
X224669925Y-88015276D01*
X224669925Y-88015276D02*
X224622306Y-88110514D01*
X224622306Y-88110514D02*
X224574687Y-88300990D01*
X224574687Y-88300990D02*
X224574687Y-88443847D01*
X224574687Y-88443847D02*
X224622306Y-88634323D01*
X224622306Y-88634323D02*
X224669925Y-88729561D01*
X224669925Y-88729561D02*
X224765163Y-88824800D01*
X224765163Y-88824800D02*
X224908020Y-88872419D01*
X224908020Y-88872419D02*
X225146115Y-88872419D01*
X222693734Y-32076704D02*
X222217544Y-32076704D01*
X222788972Y-32362419D02*
X222455639Y-31362419D01*
X222455639Y-31362419D02*
X222122306Y-32362419D01*
X227402782Y-31848609D02*
X227736115Y-31848609D01*
X227736115Y-32372419D02*
X227736115Y-31372419D01*
X227736115Y-31372419D02*
X227259925Y-31372419D01*
X230614687Y-88892419D02*
X230948020Y-88416228D01*
X231186115Y-88892419D02*
X231186115Y-87892419D01*
X231186115Y-87892419D02*
X230805163Y-87892419D01*
X230805163Y-87892419D02*
X230709925Y-87940038D01*
X230709925Y-87940038D02*
X230662306Y-87987657D01*
X230662306Y-87987657D02*
X230614687Y-88082895D01*
X230614687Y-88082895D02*
X230614687Y-88225752D01*
X230614687Y-88225752D02*
X230662306Y-88320990D01*
X230662306Y-88320990D02*
X230709925Y-88368609D01*
X230709925Y-88368609D02*
X230805163Y-88416228D01*
X230805163Y-88416228D02*
X231186115Y-88416228D01*
X230186115Y-88368609D02*
X229852782Y-88368609D01*
X229709925Y-88892419D02*
X230186115Y-88892419D01*
X230186115Y-88892419D02*
X230186115Y-87892419D01*
X230186115Y-87892419D02*
X229709925Y-87892419D01*
X229281353Y-88892419D02*
X229281353Y-87892419D01*
X229281353Y-87892419D02*
X229043258Y-87892419D01*
X229043258Y-87892419D02*
X228900401Y-87940038D01*
X228900401Y-87940038D02*
X228805163Y-88035276D01*
X228805163Y-88035276D02*
X228757544Y-88130514D01*
X228757544Y-88130514D02*
X228709925Y-88320990D01*
X228709925Y-88320990D02*
X228709925Y-88463847D01*
X228709925Y-88463847D02*
X228757544Y-88654323D01*
X228757544Y-88654323D02*
X228805163Y-88749561D01*
X228805163Y-88749561D02*
X228900401Y-88844800D01*
X228900401Y-88844800D02*
X229043258Y-88892419D01*
X229043258Y-88892419D02*
X229281353Y-88892419D01*
X219742306Y-87960038D02*
X219837544Y-87912419D01*
X219837544Y-87912419D02*
X219980401Y-87912419D01*
X219980401Y-87912419D02*
X220123258Y-87960038D01*
X220123258Y-87960038D02*
X220218496Y-88055276D01*
X220218496Y-88055276D02*
X220266115Y-88150514D01*
X220266115Y-88150514D02*
X220313734Y-88340990D01*
X220313734Y-88340990D02*
X220313734Y-88483847D01*
X220313734Y-88483847D02*
X220266115Y-88674323D01*
X220266115Y-88674323D02*
X220218496Y-88769561D01*
X220218496Y-88769561D02*
X220123258Y-88864800D01*
X220123258Y-88864800D02*
X219980401Y-88912419D01*
X219980401Y-88912419D02*
X219885163Y-88912419D01*
X219885163Y-88912419D02*
X219742306Y-88864800D01*
X219742306Y-88864800D02*
X219694687Y-88817180D01*
X219694687Y-88817180D02*
X219694687Y-88483847D01*
X219694687Y-88483847D02*
X219885163Y-88483847D01*
X218694687Y-88912419D02*
X219028020Y-88436228D01*
X219266115Y-88912419D02*
X219266115Y-87912419D01*
X219266115Y-87912419D02*
X218885163Y-87912419D01*
X218885163Y-87912419D02*
X218789925Y-87960038D01*
X218789925Y-87960038D02*
X218742306Y-88007657D01*
X218742306Y-88007657D02*
X218694687Y-88102895D01*
X218694687Y-88102895D02*
X218694687Y-88245752D01*
X218694687Y-88245752D02*
X218742306Y-88340990D01*
X218742306Y-88340990D02*
X218789925Y-88388609D01*
X218789925Y-88388609D02*
X218885163Y-88436228D01*
X218885163Y-88436228D02*
X219266115Y-88436228D01*
X218266115Y-88388609D02*
X217932782Y-88388609D01*
X217789925Y-88912419D02*
X218266115Y-88912419D01*
X218266115Y-88912419D02*
X218266115Y-87912419D01*
X218266115Y-87912419D02*
X217789925Y-87912419D01*
X217361353Y-88388609D02*
X217028020Y-88388609D01*
X216885163Y-88912419D02*
X217361353Y-88912419D01*
X217361353Y-88912419D02*
X217361353Y-87912419D01*
X217361353Y-87912419D02*
X216885163Y-87912419D01*
X216456591Y-88912419D02*
X216456591Y-87912419D01*
X216456591Y-87912419D02*
X215885163Y-88912419D01*
X215885163Y-88912419D02*
X215885163Y-87912419D01*
X222174687Y-88807180D02*
X222222306Y-88854800D01*
X222222306Y-88854800D02*
X222365163Y-88902419D01*
X222365163Y-88902419D02*
X222460401Y-88902419D01*
X222460401Y-88902419D02*
X222603258Y-88854800D01*
X222603258Y-88854800D02*
X222698496Y-88759561D01*
X222698496Y-88759561D02*
X222746115Y-88664323D01*
X222746115Y-88664323D02*
X222793734Y-88473847D01*
X222793734Y-88473847D02*
X222793734Y-88330990D01*
X222793734Y-88330990D02*
X222746115Y-88140514D01*
X222746115Y-88140514D02*
X222698496Y-88045276D01*
X222698496Y-88045276D02*
X222603258Y-87950038D01*
X222603258Y-87950038D02*
X222460401Y-87902419D01*
X222460401Y-87902419D02*
X222365163Y-87902419D01*
X222365163Y-87902419D02*
X222222306Y-87950038D01*
X222222306Y-87950038D02*
X222174687Y-87997657D01*
X219742782Y-31808609D02*
X219599925Y-31856228D01*
X219599925Y-31856228D02*
X219552306Y-31903847D01*
X219552306Y-31903847D02*
X219504687Y-31999085D01*
X219504687Y-31999085D02*
X219504687Y-32141942D01*
X219504687Y-32141942D02*
X219552306Y-32237180D01*
X219552306Y-32237180D02*
X219599925Y-32284800D01*
X219599925Y-32284800D02*
X219695163Y-32332419D01*
X219695163Y-32332419D02*
X220076115Y-32332419D01*
X220076115Y-32332419D02*
X220076115Y-31332419D01*
X220076115Y-31332419D02*
X219742782Y-31332419D01*
X219742782Y-31332419D02*
X219647544Y-31380038D01*
X219647544Y-31380038D02*
X219599925Y-31427657D01*
X219599925Y-31427657D02*
X219552306Y-31522895D01*
X219552306Y-31522895D02*
X219552306Y-31618133D01*
X219552306Y-31618133D02*
X219599925Y-31713371D01*
X219599925Y-31713371D02*
X219647544Y-31760990D01*
X219647544Y-31760990D02*
X219742782Y-31808609D01*
X219742782Y-31808609D02*
X220076115Y-31808609D01*
X227716115Y-88388609D02*
X227382782Y-88388609D01*
X227239925Y-88912419D02*
X227716115Y-88912419D01*
X227716115Y-88912419D02*
X227716115Y-87912419D01*
X227716115Y-87912419D02*
X227239925Y-87912419D01*
X175366666Y-94357419D02*
X175842856Y-94357419D01*
X175842856Y-94357419D02*
X175842856Y-93357419D01*
X175128570Y-93357419D02*
X174509523Y-93357419D01*
X174509523Y-93357419D02*
X174842856Y-93738371D01*
X174842856Y-93738371D02*
X174699999Y-93738371D01*
X174699999Y-93738371D02*
X174604761Y-93785990D01*
X174604761Y-93785990D02*
X174557142Y-93833609D01*
X174557142Y-93833609D02*
X174509523Y-93928847D01*
X174509523Y-93928847D02*
X174509523Y-94166942D01*
X174509523Y-94166942D02*
X174557142Y-94262180D01*
X174557142Y-94262180D02*
X174604761Y-94309800D01*
X174604761Y-94309800D02*
X174699999Y-94357419D01*
X174699999Y-94357419D02*
X174985713Y-94357419D01*
X174985713Y-94357419D02*
X175080951Y-94309800D01*
X175080951Y-94309800D02*
X175128570Y-94262180D01*
X177716115Y-88388609D02*
X177382782Y-88388609D01*
X177239925Y-88912419D02*
X177716115Y-88912419D01*
X177716115Y-88912419D02*
X177716115Y-87912419D01*
X177716115Y-87912419D02*
X177239925Y-87912419D01*
X175656115Y-32372419D02*
X175656115Y-31372419D01*
X175656115Y-31372419D02*
X175418020Y-31372419D01*
X175418020Y-31372419D02*
X175275163Y-31420038D01*
X175275163Y-31420038D02*
X175179925Y-31515276D01*
X175179925Y-31515276D02*
X175132306Y-31610514D01*
X175132306Y-31610514D02*
X175084687Y-31800990D01*
X175084687Y-31800990D02*
X175084687Y-31943847D01*
X175084687Y-31943847D02*
X175132306Y-32134323D01*
X175132306Y-32134323D02*
X175179925Y-32229561D01*
X175179925Y-32229561D02*
X175275163Y-32324800D01*
X175275163Y-32324800D02*
X175418020Y-32372419D01*
X175418020Y-32372419D02*
X175656115Y-32372419D01*
X174656115Y-32372419D02*
X174656115Y-31372419D01*
X174656115Y-31372419D02*
X174275163Y-31372419D01*
X174275163Y-31372419D02*
X174179925Y-31420038D01*
X174179925Y-31420038D02*
X174132306Y-31467657D01*
X174132306Y-31467657D02*
X174084687Y-31562895D01*
X174084687Y-31562895D02*
X174084687Y-31705752D01*
X174084687Y-31705752D02*
X174132306Y-31800990D01*
X174132306Y-31800990D02*
X174179925Y-31848609D01*
X174179925Y-31848609D02*
X174275163Y-31896228D01*
X174275163Y-31896228D02*
X174656115Y-31896228D01*
X169742306Y-87960038D02*
X169837544Y-87912419D01*
X169837544Y-87912419D02*
X169980401Y-87912419D01*
X169980401Y-87912419D02*
X170123258Y-87960038D01*
X170123258Y-87960038D02*
X170218496Y-88055276D01*
X170218496Y-88055276D02*
X170266115Y-88150514D01*
X170266115Y-88150514D02*
X170313734Y-88340990D01*
X170313734Y-88340990D02*
X170313734Y-88483847D01*
X170313734Y-88483847D02*
X170266115Y-88674323D01*
X170266115Y-88674323D02*
X170218496Y-88769561D01*
X170218496Y-88769561D02*
X170123258Y-88864800D01*
X170123258Y-88864800D02*
X169980401Y-88912419D01*
X169980401Y-88912419D02*
X169885163Y-88912419D01*
X169885163Y-88912419D02*
X169742306Y-88864800D01*
X169742306Y-88864800D02*
X169694687Y-88817180D01*
X169694687Y-88817180D02*
X169694687Y-88483847D01*
X169694687Y-88483847D02*
X169885163Y-88483847D01*
X168694687Y-88912419D02*
X169028020Y-88436228D01*
X169266115Y-88912419D02*
X169266115Y-87912419D01*
X169266115Y-87912419D02*
X168885163Y-87912419D01*
X168885163Y-87912419D02*
X168789925Y-87960038D01*
X168789925Y-87960038D02*
X168742306Y-88007657D01*
X168742306Y-88007657D02*
X168694687Y-88102895D01*
X168694687Y-88102895D02*
X168694687Y-88245752D01*
X168694687Y-88245752D02*
X168742306Y-88340990D01*
X168742306Y-88340990D02*
X168789925Y-88388609D01*
X168789925Y-88388609D02*
X168885163Y-88436228D01*
X168885163Y-88436228D02*
X169266115Y-88436228D01*
X168266115Y-88388609D02*
X167932782Y-88388609D01*
X167789925Y-88912419D02*
X168266115Y-88912419D01*
X168266115Y-88912419D02*
X168266115Y-87912419D01*
X168266115Y-87912419D02*
X167789925Y-87912419D01*
X167361353Y-88388609D02*
X167028020Y-88388609D01*
X166885163Y-88912419D02*
X167361353Y-88912419D01*
X167361353Y-88912419D02*
X167361353Y-87912419D01*
X167361353Y-87912419D02*
X166885163Y-87912419D01*
X166456591Y-88912419D02*
X166456591Y-87912419D01*
X166456591Y-87912419D02*
X165885163Y-88912419D01*
X165885163Y-88912419D02*
X165885163Y-87912419D01*
X179912306Y-31340038D02*
X180007544Y-31292419D01*
X180007544Y-31292419D02*
X180150401Y-31292419D01*
X180150401Y-31292419D02*
X180293258Y-31340038D01*
X180293258Y-31340038D02*
X180388496Y-31435276D01*
X180388496Y-31435276D02*
X180436115Y-31530514D01*
X180436115Y-31530514D02*
X180483734Y-31720990D01*
X180483734Y-31720990D02*
X180483734Y-31863847D01*
X180483734Y-31863847D02*
X180436115Y-32054323D01*
X180436115Y-32054323D02*
X180388496Y-32149561D01*
X180388496Y-32149561D02*
X180293258Y-32244800D01*
X180293258Y-32244800D02*
X180150401Y-32292419D01*
X180150401Y-32292419D02*
X180055163Y-32292419D01*
X180055163Y-32292419D02*
X179912306Y-32244800D01*
X179912306Y-32244800D02*
X179864687Y-32197180D01*
X179864687Y-32197180D02*
X179864687Y-31863847D01*
X179864687Y-31863847D02*
X180055163Y-31863847D01*
X177402782Y-31848609D02*
X177736115Y-31848609D01*
X177736115Y-32372419D02*
X177736115Y-31372419D01*
X177736115Y-31372419D02*
X177259925Y-31372419D01*
X172693734Y-32076704D02*
X172217544Y-32076704D01*
X172788972Y-32362419D02*
X172455639Y-31362419D01*
X172455639Y-31362419D02*
X172122306Y-32362419D01*
X180614687Y-88892419D02*
X180948020Y-88416228D01*
X181186115Y-88892419D02*
X181186115Y-87892419D01*
X181186115Y-87892419D02*
X180805163Y-87892419D01*
X180805163Y-87892419D02*
X180709925Y-87940038D01*
X180709925Y-87940038D02*
X180662306Y-87987657D01*
X180662306Y-87987657D02*
X180614687Y-88082895D01*
X180614687Y-88082895D02*
X180614687Y-88225752D01*
X180614687Y-88225752D02*
X180662306Y-88320990D01*
X180662306Y-88320990D02*
X180709925Y-88368609D01*
X180709925Y-88368609D02*
X180805163Y-88416228D01*
X180805163Y-88416228D02*
X181186115Y-88416228D01*
X180186115Y-88368609D02*
X179852782Y-88368609D01*
X179709925Y-88892419D02*
X180186115Y-88892419D01*
X180186115Y-88892419D02*
X180186115Y-87892419D01*
X180186115Y-87892419D02*
X179709925Y-87892419D01*
X179281353Y-88892419D02*
X179281353Y-87892419D01*
X179281353Y-87892419D02*
X179043258Y-87892419D01*
X179043258Y-87892419D02*
X178900401Y-87940038D01*
X178900401Y-87940038D02*
X178805163Y-88035276D01*
X178805163Y-88035276D02*
X178757544Y-88130514D01*
X178757544Y-88130514D02*
X178709925Y-88320990D01*
X178709925Y-88320990D02*
X178709925Y-88463847D01*
X178709925Y-88463847D02*
X178757544Y-88654323D01*
X178757544Y-88654323D02*
X178805163Y-88749561D01*
X178805163Y-88749561D02*
X178900401Y-88844800D01*
X178900401Y-88844800D02*
X179043258Y-88892419D01*
X179043258Y-88892419D02*
X179281353Y-88892419D01*
X175146115Y-88872419D02*
X175146115Y-87872419D01*
X175146115Y-87872419D02*
X174908020Y-87872419D01*
X174908020Y-87872419D02*
X174765163Y-87920038D01*
X174765163Y-87920038D02*
X174669925Y-88015276D01*
X174669925Y-88015276D02*
X174622306Y-88110514D01*
X174622306Y-88110514D02*
X174574687Y-88300990D01*
X174574687Y-88300990D02*
X174574687Y-88443847D01*
X174574687Y-88443847D02*
X174622306Y-88634323D01*
X174622306Y-88634323D02*
X174669925Y-88729561D01*
X174669925Y-88729561D02*
X174765163Y-88824800D01*
X174765163Y-88824800D02*
X174908020Y-88872419D01*
X174908020Y-88872419D02*
X175146115Y-88872419D01*
X172174687Y-88807180D02*
X172222306Y-88854800D01*
X172222306Y-88854800D02*
X172365163Y-88902419D01*
X172365163Y-88902419D02*
X172460401Y-88902419D01*
X172460401Y-88902419D02*
X172603258Y-88854800D01*
X172603258Y-88854800D02*
X172698496Y-88759561D01*
X172698496Y-88759561D02*
X172746115Y-88664323D01*
X172746115Y-88664323D02*
X172793734Y-88473847D01*
X172793734Y-88473847D02*
X172793734Y-88330990D01*
X172793734Y-88330990D02*
X172746115Y-88140514D01*
X172746115Y-88140514D02*
X172698496Y-88045276D01*
X172698496Y-88045276D02*
X172603258Y-87950038D01*
X172603258Y-87950038D02*
X172460401Y-87902419D01*
X172460401Y-87902419D02*
X172365163Y-87902419D01*
X172365163Y-87902419D02*
X172222306Y-87950038D01*
X172222306Y-87950038D02*
X172174687Y-87997657D01*
X169742782Y-31808609D02*
X169599925Y-31856228D01*
X169599925Y-31856228D02*
X169552306Y-31903847D01*
X169552306Y-31903847D02*
X169504687Y-31999085D01*
X169504687Y-31999085D02*
X169504687Y-32141942D01*
X169504687Y-32141942D02*
X169552306Y-32237180D01*
X169552306Y-32237180D02*
X169599925Y-32284800D01*
X169599925Y-32284800D02*
X169695163Y-32332419D01*
X169695163Y-32332419D02*
X170076115Y-32332419D01*
X170076115Y-32332419D02*
X170076115Y-31332419D01*
X170076115Y-31332419D02*
X169742782Y-31332419D01*
X169742782Y-31332419D02*
X169647544Y-31380038D01*
X169647544Y-31380038D02*
X169599925Y-31427657D01*
X169599925Y-31427657D02*
X169552306Y-31522895D01*
X169552306Y-31522895D02*
X169552306Y-31618133D01*
X169552306Y-31618133D02*
X169599925Y-31713371D01*
X169599925Y-31713371D02*
X169647544Y-31760990D01*
X169647544Y-31760990D02*
X169742782Y-31808609D01*
X169742782Y-31808609D02*
X170076115Y-31808609D01*
M02*
