%TF.GenerationSoftware,KiCad,Pcbnew,9.0.7*%
%TF.CreationDate,2026-03-16T20:52:18-05:00*%
%TF.ProjectId,MainBoard4Layer,4d61696e-426f-4617-9264-344c61796572,rev?*%
%TF.SameCoordinates,Original*%
%TF.FileFunction,Copper,L1,Top*%
%TF.FilePolarity,Positive*%
%FSLAX46Y46*%
G04 Gerber Fmt 4.6, Leading zero omitted, Abs format (unit mm)*
G04 Created by KiCad (PCBNEW 9.0.7) date 2026-03-16 20:52:18*
%MOMM*%
%LPD*%
G01*
G04 APERTURE LIST*
G04 Aperture macros list*
%AMRoundRect*
0 Rectangle with rounded corners*
0 $1 Rounding radius*
0 $2 $3 $4 $5 $6 $7 $8 $9 X,Y pos of 4 corners*
0 Add a 4 corners polygon primitive as box body*
4,1,4,$2,$3,$4,$5,$6,$7,$8,$9,$2,$3,0*
0 Add four circle primitives for the rounded corners*
1,1,$1+$1,$2,$3*
1,1,$1+$1,$4,$5*
1,1,$1+$1,$6,$7*
1,1,$1+$1,$8,$9*
0 Add four rect primitives between the rounded corners*
20,1,$1+$1,$2,$3,$4,$5,0*
20,1,$1+$1,$4,$5,$6,$7,0*
20,1,$1+$1,$6,$7,$8,$9,0*
20,1,$1+$1,$8,$9,$2,$3,0*%
G04 Aperture macros list end*
%TA.AperFunction,SMDPad,CuDef*%
%ADD10RoundRect,0.250000X-0.625000X0.400000X-0.625000X-0.400000X0.625000X-0.400000X0.625000X0.400000X0*%
%TD*%
%TA.AperFunction,SMDPad,CuDef*%
%ADD11RoundRect,0.250000X0.400000X0.625000X-0.400000X0.625000X-0.400000X-0.625000X0.400000X-0.625000X0*%
%TD*%
%TA.AperFunction,ComponentPad*%
%ADD12RoundRect,0.250000X0.550000X0.550000X-0.550000X0.550000X-0.550000X-0.550000X0.550000X-0.550000X0*%
%TD*%
%TA.AperFunction,ComponentPad*%
%ADD13C,1.600000*%
%TD*%
%TA.AperFunction,SMDPad,CuDef*%
%ADD14RoundRect,0.250000X-0.400000X-0.625000X0.400000X-0.625000X0.400000X0.625000X-0.400000X0.625000X0*%
%TD*%
%TA.AperFunction,ComponentPad*%
%ADD15RoundRect,0.250000X-0.550000X-0.550000X0.550000X-0.550000X0.550000X0.550000X-0.550000X0.550000X0*%
%TD*%
%TA.AperFunction,SMDPad,CuDef*%
%ADD16RoundRect,0.250000X0.650000X-0.412500X0.650000X0.412500X-0.650000X0.412500X-0.650000X-0.412500X0*%
%TD*%
%TA.AperFunction,ComponentPad*%
%ADD17R,1.700000X1.700000*%
%TD*%
%TA.AperFunction,ComponentPad*%
%ADD18C,1.700000*%
%TD*%
%TA.AperFunction,ComponentPad*%
%ADD19RoundRect,0.250000X-0.600000X-0.750000X0.600000X-0.750000X0.600000X0.750000X-0.600000X0.750000X0*%
%TD*%
%TA.AperFunction,ComponentPad*%
%ADD20O,1.700000X2.000000*%
%TD*%
%TA.AperFunction,SMDPad,CuDef*%
%ADD21RoundRect,0.250000X0.412500X0.650000X-0.412500X0.650000X-0.412500X-0.650000X0.412500X-0.650000X0*%
%TD*%
%TA.AperFunction,SMDPad,CuDef*%
%ADD22RoundRect,0.250000X-0.650000X0.412500X-0.650000X-0.412500X0.650000X-0.412500X0.650000X0.412500X0*%
%TD*%
%TA.AperFunction,SMDPad,CuDef*%
%ADD23RoundRect,0.250000X0.625000X-0.400000X0.625000X0.400000X-0.625000X0.400000X-0.625000X-0.400000X0*%
%TD*%
%TA.AperFunction,ComponentPad*%
%ADD24R,1.358000X1.358000*%
%TD*%
%TA.AperFunction,ComponentPad*%
%ADD25C,1.358000*%
%TD*%
%TA.AperFunction,SMDPad,CuDef*%
%ADD26RoundRect,0.250000X-0.412500X-0.650000X0.412500X-0.650000X0.412500X0.650000X-0.412500X0.650000X0*%
%TD*%
%TA.AperFunction,ComponentPad*%
%ADD27R,1.550000X1.550000*%
%TD*%
%TA.AperFunction,ComponentPad*%
%ADD28C,1.550000*%
%TD*%
%TA.AperFunction,ViaPad*%
%ADD29C,0.600000*%
%TD*%
%TA.AperFunction,Conductor*%
%ADD30C,0.750000*%
%TD*%
%TA.AperFunction,Conductor*%
%ADD31C,0.300000*%
%TD*%
%TA.AperFunction,Conductor*%
%ADD32C,0.500000*%
%TD*%
G04 APERTURE END LIST*
D10*
%TO.P,R37,1*%
%TO.N,/SER_HC*%
X117200000Y-62950000D03*
%TO.P,R37,2*%
%TO.N,GND*%
X117200000Y-66050000D03*
%TD*%
D11*
%TO.P,R23,1*%
%TO.N,Net-(U5-DRAIN3)*%
X194500000Y-66900000D03*
%TO.P,R23,2*%
%TO.N,/3D*%
X191400000Y-66900000D03*
%TD*%
D12*
%TO.P,U7,1,~{PL}*%
%TO.N,/PL*%
X130620000Y-73540000D03*
D13*
%TO.P,U7,2,CP*%
%TO.N,/CP*%
X130620000Y-71000000D03*
%TO.P,U7,3,D4*%
%TO.N,/Btn5*%
X130620000Y-68460000D03*
%TO.P,U7,4,D5*%
%TO.N,/In6*%
X130620000Y-65920000D03*
%TO.P,U7,5,D6*%
%TO.N,/In7*%
X130620000Y-63380000D03*
%TO.P,U7,6,D7*%
%TO.N,/In8*%
X130620000Y-60840000D03*
%TO.P,U7,7,~{Q7}*%
%TO.N,/Qinv*%
X130620000Y-58300000D03*
%TO.P,U7,8,GND*%
%TO.N,GND*%
X130620000Y-55760000D03*
%TO.P,U7,9,Q7*%
%TO.N,/Q7*%
X123000000Y-55760000D03*
%TO.P,U7,10,DS*%
%TO.N,/SER_HC*%
X123000000Y-58300000D03*
%TO.P,U7,11,D0*%
%TO.N,/Btn1*%
X123000000Y-60840000D03*
%TO.P,U7,12,D1*%
%TO.N,/Btn2*%
X123000000Y-63380000D03*
%TO.P,U7,13,D2*%
%TO.N,/Btn3*%
X123000000Y-65920000D03*
%TO.P,U7,14,D3*%
%TO.N,/Btn4*%
X123000000Y-68460000D03*
%TO.P,U7,15,~{CE}*%
%TO.N,GND*%
X123000000Y-71000000D03*
%TO.P,U7,16,VCC*%
%TO.N,/5VBus*%
X123000000Y-73540000D03*
%TD*%
D14*
%TO.P,R25,1*%
%TO.N,Net-(U5-DRAIN5)*%
X209800000Y-63800000D03*
%TO.P,R25,2*%
%TO.N,/3F*%
X212900000Y-63800000D03*
%TD*%
%TO.P,R35,1*%
%TO.N,Net-(U6-DRAIN6)*%
X238860000Y-61310000D03*
%TO.P,R35,2*%
%TO.N,/4G*%
X241960000Y-61310000D03*
%TD*%
D15*
%TO.P,U1,1,PGND*%
%TO.N,GND*%
X64380000Y-48220000D03*
D13*
%TO.P,U1,2,VCC*%
%TO.N,/5VBus*%
X64380000Y-50760000D03*
%TO.P,U1,3,SER_IN*%
%TO.N,/SER_In*%
X64380000Y-53300000D03*
%TO.P,U1,4,DRAIN0*%
%TO.N,Net-(U1-DRAIN0)*%
X64380000Y-55840000D03*
%TO.P,U1,5,DRAIN1*%
%TO.N,Net-(U1-DRAIN1)*%
X64380000Y-58380000D03*
%TO.P,U1,6,DRAIN2*%
%TO.N,Net-(U1-DRAIN2)*%
X64380000Y-60920000D03*
%TO.P,U1,7,DRAIN3*%
%TO.N,Net-(U1-DRAIN3)*%
X64380000Y-63460000D03*
%TO.P,U1,8,~{SRCLR}*%
%TO.N,Net-(U1-~{SRCLR})*%
X64380000Y-66000000D03*
%TO.P,U1,9,~{G}*%
%TO.N,GND*%
X64380000Y-68540000D03*
%TO.P,U1,10,PGND*%
X64380000Y-71080000D03*
%TO.P,U1,11,PGND*%
X72000000Y-71080000D03*
%TO.P,U1,12,RCLK*%
%TO.N,/RCLK*%
X72000000Y-68540000D03*
%TO.P,U1,13,SRCK*%
%TO.N,/SRCK*%
X72000000Y-66000000D03*
%TO.P,U1,14,DRAIN4*%
%TO.N,Net-(U1-DRAIN4)*%
X72000000Y-63460000D03*
%TO.P,U1,15,DRAIN5*%
%TO.N,Net-(U1-DRAIN5)*%
X72000000Y-60920000D03*
%TO.P,U1,16,DRAIN6*%
%TO.N,Net-(U1-DRAIN6)*%
X72000000Y-58380000D03*
%TO.P,U1,17,DRAIN7*%
%TO.N,Net-(U1-DRAIN7)*%
X72000000Y-55840000D03*
%TO.P,U1,18,SER_OUT*%
%TO.N,/SEROUT1*%
X72000000Y-53300000D03*
%TO.P,U1,19,LGND*%
%TO.N,GND*%
X72000000Y-50760000D03*
%TO.P,U1,20,PGND*%
X72000000Y-48220000D03*
%TD*%
D16*
%TO.P,C1,1*%
%TO.N,/5VBus*%
X60750000Y-47890000D03*
%TO.P,C1,2*%
%TO.N,GND*%
X60750000Y-44765000D03*
%TD*%
D14*
%TO.P,R26,1*%
%TO.N,Net-(U5-DRAIN6)*%
X209800000Y-60900000D03*
%TO.P,R26,2*%
%TO.N,/3G*%
X212900000Y-60900000D03*
%TD*%
%TO.P,R12,1*%
%TO.N,Net-(U4-DRAIN1)*%
X104070000Y-61340000D03*
%TO.P,R12,2*%
%TO.N,/2B*%
X107170000Y-61340000D03*
%TD*%
D17*
%TO.P,J14,1,Pin_1*%
%TO.N,GND*%
X139500000Y-38800000D03*
D18*
%TO.P,J14,2,Pin_2*%
%TO.N,unconnected-(J14-Pin_2-Pad2)*%
X139500000Y-41340000D03*
%TO.P,J14,3,Pin_3*%
%TO.N,/ESPBAT*%
X139500000Y-43880000D03*
%TO.P,J14,4,Pin_4*%
%TO.N,/IO_20*%
X139500000Y-46420000D03*
%TD*%
D11*
%TO.P,R5,1*%
%TO.N,Net-(U1-DRAIN3)*%
X60600000Y-65010000D03*
%TO.P,R5,2*%
%TO.N,/1D*%
X57500000Y-65010000D03*
%TD*%
D14*
%TO.P,R33,1*%
%TO.N,Net-(U6-DRAIN4)*%
X238910000Y-67010000D03*
%TO.P,R33,2*%
%TO.N,/4E*%
X242010000Y-67010000D03*
%TD*%
D10*
%TO.P,R1,1*%
%TO.N,Net-(U1-~{SRCLR})*%
X60300000Y-67850000D03*
%TO.P,R1,2*%
%TO.N,/5VBus*%
X60300000Y-70950000D03*
%TD*%
D11*
%TO.P,R22,1*%
%TO.N,Net-(U5-DRAIN2)*%
X194500000Y-64200000D03*
%TO.P,R22,2*%
%TO.N,/3C*%
X191400000Y-64200000D03*
%TD*%
D19*
%TO.P,J1,1,Pin_1*%
%TO.N,/5VBus*%
X141050000Y-27800000D03*
D20*
%TO.P,J1,2,Pin_2*%
%TO.N,GND*%
X143550000Y-27800000D03*
%TD*%
D14*
%TO.P,R24,1*%
%TO.N,Net-(U5-DRAIN4)*%
X209850000Y-66850000D03*
%TO.P,R24,2*%
%TO.N,/3E*%
X212950000Y-66850000D03*
%TD*%
D17*
%TO.P,J9,1,Pin_1*%
%TO.N,/SER_HC*%
X115300000Y-59475000D03*
D18*
%TO.P,J9,2,Pin_2*%
%TO.N,/Q7*%
X115300000Y-56935000D03*
%TD*%
D12*
%TO.P,U4,1,PGND*%
%TO.N,GND*%
X100920000Y-71210000D03*
D13*
%TO.P,U4,2,VCC*%
%TO.N,/5VBus*%
X100920000Y-68670000D03*
%TO.P,U4,3,SER_IN*%
%TO.N,/SEROUT1*%
X100920000Y-66130000D03*
%TO.P,U4,4,DRAIN0*%
%TO.N,Net-(U4-DRAIN0)*%
X100920000Y-63590000D03*
%TO.P,U4,5,DRAIN1*%
%TO.N,Net-(U4-DRAIN1)*%
X100920000Y-61050000D03*
%TO.P,U4,6,DRAIN2*%
%TO.N,Net-(U4-DRAIN2)*%
X100920000Y-58510000D03*
%TO.P,U4,7,DRAIN3*%
%TO.N,Net-(U4-DRAIN3)*%
X100920000Y-55970000D03*
%TO.P,U4,8,~{SRCLR}*%
%TO.N,Net-(U4-~{SRCLR})*%
X100920000Y-53430000D03*
%TO.P,U4,9,~{G}*%
%TO.N,GND*%
X100920000Y-50890000D03*
%TO.P,U4,10,PGND*%
X100920000Y-48350000D03*
%TO.P,U4,11,PGND*%
X93300000Y-48350000D03*
%TO.P,U4,12,RCLK*%
%TO.N,/RCLK*%
X93300000Y-50890000D03*
%TO.P,U4,13,SRCK*%
%TO.N,/SRCK*%
X93300000Y-53430000D03*
%TO.P,U4,14,DRAIN4*%
%TO.N,Net-(U4-DRAIN4)*%
X93300000Y-55970000D03*
%TO.P,U4,15,DRAIN5*%
%TO.N,Net-(U4-DRAIN5)*%
X93300000Y-58510000D03*
%TO.P,U4,16,DRAIN6*%
%TO.N,Net-(U4-DRAIN6)*%
X93300000Y-61050000D03*
%TO.P,U4,17,DRAIN7*%
%TO.N,Net-(U4-DRAIN7)*%
X93300000Y-63590000D03*
%TO.P,U4,18,SER_OUT*%
%TO.N,/SEROUT2*%
X93300000Y-66130000D03*
%TO.P,U4,19,LGND*%
%TO.N,GND*%
X93300000Y-68670000D03*
%TO.P,U4,20,PGND*%
X93300000Y-71210000D03*
%TD*%
D11*
%TO.P,R17,1*%
%TO.N,Net-(U4-DRAIN6)*%
X89100000Y-62500000D03*
%TO.P,R17,2*%
%TO.N,/2G*%
X86000000Y-62500000D03*
%TD*%
D16*
%TO.P,C4,1*%
%TO.N,/5VBus*%
X223910000Y-49992500D03*
%TO.P,C4,2*%
%TO.N,GND*%
X223910000Y-46867500D03*
%TD*%
D15*
%TO.P,U5,1,PGND*%
%TO.N,GND*%
X198380000Y-51220000D03*
D13*
%TO.P,U5,2,VCC*%
%TO.N,/5VBus*%
X198380000Y-53760000D03*
%TO.P,U5,3,SER_IN*%
%TO.N,/SEROUT2*%
X198380000Y-56300000D03*
%TO.P,U5,4,DRAIN0*%
%TO.N,Net-(U5-DRAIN0)*%
X198380000Y-58840000D03*
%TO.P,U5,5,DRAIN1*%
%TO.N,Net-(U5-DRAIN1)*%
X198380000Y-61380000D03*
%TO.P,U5,6,DRAIN2*%
%TO.N,Net-(U5-DRAIN2)*%
X198380000Y-63920000D03*
%TO.P,U5,7,DRAIN3*%
%TO.N,Net-(U5-DRAIN3)*%
X198380000Y-66460000D03*
%TO.P,U5,8,~{SRCLR}*%
%TO.N,Net-(U5-~{SRCLR})*%
X198380000Y-69000000D03*
%TO.P,U5,9,~{G}*%
%TO.N,GND*%
X198380000Y-71540000D03*
%TO.P,U5,10,PGND*%
X198380000Y-74080000D03*
%TO.P,U5,11,PGND*%
X206000000Y-74080000D03*
%TO.P,U5,12,RCLK*%
%TO.N,/RCLK*%
X206000000Y-71540000D03*
%TO.P,U5,13,SRCK*%
%TO.N,/SRCK*%
X206000000Y-69000000D03*
%TO.P,U5,14,DRAIN4*%
%TO.N,Net-(U5-DRAIN4)*%
X206000000Y-66460000D03*
%TO.P,U5,15,DRAIN5*%
%TO.N,Net-(U5-DRAIN5)*%
X206000000Y-63920000D03*
%TO.P,U5,16,DRAIN6*%
%TO.N,Net-(U5-DRAIN6)*%
X206000000Y-61380000D03*
%TO.P,U5,17,DRAIN7*%
%TO.N,Net-(U5-DRAIN7)*%
X206000000Y-58840000D03*
%TO.P,U5,18,SER_OUT*%
%TO.N,/SEROUT3*%
X206000000Y-56300000D03*
%TO.P,U5,19,LGND*%
%TO.N,GND*%
X206000000Y-53760000D03*
%TO.P,U5,20,PGND*%
X206000000Y-51220000D03*
%TD*%
D11*
%TO.P,R20,1*%
%TO.N,Net-(U5-DRAIN0)*%
X194500000Y-57700000D03*
%TO.P,R20,2*%
%TO.N,/3A*%
X191400000Y-57700000D03*
%TD*%
%TO.P,R2,1*%
%TO.N,Net-(U1-DRAIN0)*%
X60500000Y-55810000D03*
%TO.P,R2,2*%
%TO.N,/1A*%
X57400000Y-55810000D03*
%TD*%
%TO.P,R3,1*%
%TO.N,Net-(U1-DRAIN1)*%
X60550000Y-58710000D03*
%TO.P,R3,2*%
%TO.N,/1B*%
X57450000Y-58710000D03*
%TD*%
D17*
%TO.P,U3,1,CD*%
%TO.N,/CD_SD*%
X170500000Y-60720000D03*
D18*
%TO.P,U3,2,CS*%
%TO.N,/CS*%
X170500000Y-63260000D03*
%TO.P,U3,3,DI*%
%TO.N,/MOSI*%
X170500000Y-65800000D03*
%TO.P,U3,4,DO*%
%TO.N,/MISO*%
X170500000Y-68340000D03*
%TO.P,U3,5,CLK*%
%TO.N,/CLK*%
X170500000Y-70880000D03*
%TO.P,U3,6,GND*%
%TO.N,GND*%
X170500000Y-73420000D03*
%TO.P,U3,7,3V*%
%TO.N,/3V_SD*%
X170500000Y-75960000D03*
%TO.P,U3,8,5V*%
%TO.N,/5VBus*%
X170500000Y-78500000D03*
%TD*%
D14*
%TO.P,R36,1*%
%TO.N,Net-(U6-DRAIN7)*%
X238810000Y-58560000D03*
%TO.P,R36,2*%
%TO.N,/4DP*%
X241910000Y-58560000D03*
%TD*%
%TO.P,R7,1*%
%TO.N,Net-(U1-DRAIN5)*%
X76050000Y-59290000D03*
%TO.P,R7,2*%
%TO.N,/1F*%
X79150000Y-59290000D03*
%TD*%
D17*
%TO.P,U2,1,GND*%
%TO.N,GND*%
X146380000Y-53280000D03*
D18*
%TO.P,U2,2,3.3V*%
%TO.N,unconnected-(U2-3.3V-Pad2)*%
X148920000Y-53280000D03*
%TO.P,U2,3,4*%
%TO.N,/CP*%
X151460000Y-53280000D03*
%TO.P,U2,4,5*%
%TO.N,/PL*%
X154000000Y-53280000D03*
%TO.P,U2,5,23*%
%TO.N,/CLK*%
X156540000Y-53280000D03*
%TO.P,U2,6,22*%
%TO.N,/MOSI*%
X159080000Y-53280000D03*
%TO.P,U2,7,21*%
%TO.N,/MISO*%
X161620000Y-53280000D03*
%TO.P,U2,8,7*%
%TO.N,/CS*%
X164160000Y-53280000D03*
%TO.P,U2,9,6*%
%TO.N,/Qinv*%
X164160000Y-35500000D03*
%TO.P,U2,10,20*%
%TO.N,/IO_20*%
X161620000Y-35500000D03*
%TO.P,U2,11,19*%
%TO.N,/SRCK*%
X159080000Y-35500000D03*
%TO.P,U2,12,16*%
%TO.N,/RCLK*%
X156540000Y-35500000D03*
%TO.P,U2,13,17*%
%TO.N,/SER_In*%
X154000000Y-35500000D03*
%TO.P,U2,14,VIN*%
%TO.N,/5VBus*%
X151460000Y-35500000D03*
%TO.P,U2,15,GND*%
%TO.N,GND*%
X148920000Y-35500000D03*
%TO.P,U2,16,BAT*%
%TO.N,/ESPBAT*%
X146380000Y-35500000D03*
%TD*%
D17*
%TO.P,J11,1,Pin_1*%
%TO.N,/SEROUT4*%
X239300000Y-53500000D03*
%TD*%
D14*
%TO.P,R27,1*%
%TO.N,Net-(U5-DRAIN7)*%
X209850000Y-57900000D03*
%TO.P,R27,2*%
%TO.N,/3DP*%
X212950000Y-57900000D03*
%TD*%
D21*
%TO.P,C5,1*%
%TO.N,/5VBus*%
X135962500Y-27800000D03*
%TO.P,C5,2*%
%TO.N,GND*%
X132837500Y-27800000D03*
%TD*%
D22*
%TO.P,C2,1*%
%TO.N,/5VBus*%
X104700000Y-72137500D03*
%TO.P,C2,2*%
%TO.N,GND*%
X104700000Y-75262500D03*
%TD*%
D23*
%TO.P,R10,1*%
%TO.N,Net-(U4-~{SRCLR})*%
X104100000Y-49050000D03*
%TO.P,R10,2*%
%TO.N,/5VBus*%
X104100000Y-45950000D03*
%TD*%
D11*
%TO.P,R21,1*%
%TO.N,Net-(U5-DRAIN1)*%
X194550000Y-60650000D03*
%TO.P,R21,2*%
%TO.N,/3B*%
X191450000Y-60650000D03*
%TD*%
D17*
%TO.P,J13,1,Pin_1*%
%TO.N,GND*%
X122880000Y-38000000D03*
D18*
%TO.P,J13,2,Pin_2*%
%TO.N,/In6*%
X125420000Y-38000000D03*
%TO.P,J13,3,Pin_3*%
%TO.N,/In7*%
X127960000Y-38000000D03*
%TO.P,J13,4,Pin_4*%
%TO.N,/In8*%
X130500000Y-38000000D03*
%TO.P,J13,5,Pin_5*%
%TO.N,/5VBus*%
X133040000Y-38000000D03*
%TD*%
D19*
%TO.P,J12,1,Pin_1*%
%TO.N,/GRN*%
X152250000Y-91000000D03*
D20*
%TO.P,J12,2,Pin_2*%
%TO.N,GND*%
X154750000Y-91000000D03*
%TD*%
D11*
%TO.P,R32,1*%
%TO.N,Net-(U6-DRAIN3)*%
X224210000Y-67010000D03*
%TO.P,R32,2*%
%TO.N,/4D*%
X221110000Y-67010000D03*
%TD*%
%TO.P,R15,1*%
%TO.N,Net-(U4-DRAIN4)*%
X89550000Y-56000000D03*
%TO.P,R15,2*%
%TO.N,/2E*%
X86450000Y-56000000D03*
%TD*%
D10*
%TO.P,R19,1*%
%TO.N,Net-(U5-~{SRCLR})*%
X193800000Y-69750000D03*
%TO.P,R19,2*%
%TO.N,/5VBus*%
X193800000Y-72850000D03*
%TD*%
D24*
%TO.P,J8,1,Pin_1*%
%TO.N,/5VBus*%
X121000000Y-44000000D03*
D25*
%TO.P,J8,2,Pin_2*%
%TO.N,/Btn1*%
X122250000Y-46000000D03*
%TO.P,J8,3,Pin_3*%
%TO.N,/Btn2*%
X123500000Y-44000000D03*
%TO.P,J8,4,Pin_4*%
%TO.N,/Btn3*%
X124750000Y-46000000D03*
%TO.P,J8,5,Pin_5*%
%TO.N,/Btn4*%
X126000000Y-44000000D03*
%TO.P,J8,6,Pin_6*%
%TO.N,/Btn5*%
X127250000Y-46000000D03*
%TO.P,J8,7,Pin_7*%
%TO.N,/In6*%
X128500000Y-44000000D03*
%TO.P,J8,8,Pin_8*%
%TO.N,/In7*%
X129750000Y-46000000D03*
%TO.P,J8,9,Pin_9*%
%TO.N,/In8*%
X131000000Y-44000000D03*
%TO.P,J8,10,Pin_10*%
%TO.N,GND*%
X132250000Y-46000000D03*
%TD*%
D26*
%TO.P,C7,1*%
%TO.N,/GRN*%
X151337500Y-87050000D03*
%TO.P,C7,2*%
%TO.N,GND*%
X154462500Y-87050000D03*
%TD*%
D14*
%TO.P,R14,1*%
%TO.N,Net-(U4-DRAIN3)*%
X104200000Y-53250000D03*
%TO.P,R14,2*%
%TO.N,/2D*%
X107300000Y-53250000D03*
%TD*%
D26*
%TO.P,C6,1*%
%TO.N,/9VBus*%
X140950000Y-84750000D03*
%TO.P,C6,2*%
%TO.N,GND*%
X144075000Y-84750000D03*
%TD*%
D14*
%TO.P,R11,1*%
%TO.N,Net-(U4-DRAIN0)*%
X103970000Y-64140000D03*
%TO.P,R11,2*%
%TO.N,/2A*%
X107070000Y-64140000D03*
%TD*%
%TO.P,R9,1*%
%TO.N,Net-(U1-DRAIN7)*%
X76050000Y-53190000D03*
%TO.P,R9,2*%
%TO.N,/1DP*%
X79150000Y-53190000D03*
%TD*%
D11*
%TO.P,R31,1*%
%TO.N,Net-(U6-DRAIN2)*%
X224210000Y-64110000D03*
%TO.P,R31,2*%
%TO.N,/4C*%
X221110000Y-64110000D03*
%TD*%
%TO.P,R29,1*%
%TO.N,Net-(U6-DRAIN0)*%
X224260000Y-58310000D03*
%TO.P,R29,2*%
%TO.N,/4A*%
X221160000Y-58310000D03*
%TD*%
%TO.P,R4,1*%
%TO.N,Net-(U1-DRAIN2)*%
X60600000Y-61860000D03*
%TO.P,R4,2*%
%TO.N,/1C*%
X57500000Y-61860000D03*
%TD*%
%TO.P,R18,1*%
%TO.N,Net-(U4-DRAIN7)*%
X89050000Y-65250000D03*
%TO.P,R18,2*%
%TO.N,/2DP*%
X85950000Y-65250000D03*
%TD*%
D14*
%TO.P,R6,1*%
%TO.N,Net-(U1-DRAIN4)*%
X75980000Y-64540000D03*
%TO.P,R6,2*%
%TO.N,/1E*%
X79080000Y-64540000D03*
%TD*%
D11*
%TO.P,R16,1*%
%TO.N,Net-(U4-DRAIN5)*%
X89050000Y-59650000D03*
%TO.P,R16,2*%
%TO.N,/2F*%
X85950000Y-59650000D03*
%TD*%
D17*
%TO.P,J7,1,Pin_1*%
%TO.N,/CD_SD*%
X177967500Y-76425000D03*
D18*
%TO.P,J7,2,Pin_2*%
%TO.N,/3V_SD*%
X177967500Y-78965000D03*
%TD*%
D14*
%TO.P,R13,1*%
%TO.N,Net-(U4-DRAIN2)*%
X104000000Y-58000000D03*
%TO.P,R13,2*%
%TO.N,/2C*%
X107100000Y-58000000D03*
%TD*%
D16*
%TO.P,C3,1*%
%TO.N,/5VBus*%
X194600000Y-49502500D03*
%TO.P,C3,2*%
%TO.N,GND*%
X194600000Y-46377500D03*
%TD*%
D10*
%TO.P,R28,1*%
%TO.N,Net-(U6-~{SRCLR})*%
X223600000Y-70150000D03*
%TO.P,R28,2*%
%TO.N,/5VBus*%
X223600000Y-73250000D03*
%TD*%
D14*
%TO.P,R34,1*%
%TO.N,Net-(U6-DRAIN5)*%
X238860000Y-64060000D03*
%TO.P,R34,2*%
%TO.N,/4F*%
X241960000Y-64060000D03*
%TD*%
D15*
%TO.P,U6,1,PGND*%
%TO.N,GND*%
X227690000Y-51320000D03*
D13*
%TO.P,U6,2,VCC*%
%TO.N,/5VBus*%
X227690000Y-53860000D03*
%TO.P,U6,3,SER_IN*%
%TO.N,/SEROUT3*%
X227690000Y-56400000D03*
%TO.P,U6,4,DRAIN0*%
%TO.N,Net-(U6-DRAIN0)*%
X227690000Y-58940000D03*
%TO.P,U6,5,DRAIN1*%
%TO.N,Net-(U6-DRAIN1)*%
X227690000Y-61480000D03*
%TO.P,U6,6,DRAIN2*%
%TO.N,Net-(U6-DRAIN2)*%
X227690000Y-64020000D03*
%TO.P,U6,7,DRAIN3*%
%TO.N,Net-(U6-DRAIN3)*%
X227690000Y-66560000D03*
%TO.P,U6,8,~{SRCLR}*%
%TO.N,Net-(U6-~{SRCLR})*%
X227690000Y-69100000D03*
%TO.P,U6,9,~{G}*%
%TO.N,GND*%
X227690000Y-71640000D03*
%TO.P,U6,10,PGND*%
X227690000Y-74180000D03*
%TO.P,U6,11,PGND*%
X235310000Y-74180000D03*
%TO.P,U6,12,RCLK*%
%TO.N,/RCLK*%
X235310000Y-71640000D03*
%TO.P,U6,13,SRCK*%
%TO.N,/SRCK*%
X235310000Y-69100000D03*
%TO.P,U6,14,DRAIN4*%
%TO.N,Net-(U6-DRAIN4)*%
X235310000Y-66560000D03*
%TO.P,U6,15,DRAIN5*%
%TO.N,Net-(U6-DRAIN5)*%
X235310000Y-64020000D03*
%TO.P,U6,16,DRAIN6*%
%TO.N,Net-(U6-DRAIN6)*%
X235310000Y-61480000D03*
%TO.P,U6,17,DRAIN7*%
%TO.N,Net-(U6-DRAIN7)*%
X235310000Y-58940000D03*
%TO.P,U6,18,SER_OUT*%
%TO.N,/SEROUT4*%
X235310000Y-56400000D03*
%TO.P,U6,19,LGND*%
%TO.N,GND*%
X235310000Y-53860000D03*
%TO.P,U6,20,PGND*%
X235310000Y-51320000D03*
%TD*%
D11*
%TO.P,R30,1*%
%TO.N,Net-(U6-DRAIN1)*%
X224210000Y-61210000D03*
%TO.P,R30,2*%
%TO.N,/4B*%
X221110000Y-61210000D03*
%TD*%
D19*
%TO.P,J2,1,Pin_1*%
%TO.N,/9VBus*%
X141000000Y-88750000D03*
D20*
%TO.P,J2,2,Pin_2*%
%TO.N,GND*%
X143500000Y-88750000D03*
%TD*%
D14*
%TO.P,R8,1*%
%TO.N,Net-(U1-DRAIN6)*%
X76050000Y-56240000D03*
%TO.P,R8,2*%
%TO.N,/1G*%
X79150000Y-56240000D03*
%TD*%
D27*
%TO.P,L2,1,Vin_R*%
%TO.N,/9VBus*%
X119920000Y-29900000D03*
D28*
%TO.P,L2,2,E*%
%TO.N,/2E*%
X122460000Y-29900000D03*
%TO.P,L2,3,D*%
%TO.N,/2D*%
X125000000Y-29900000D03*
%TO.P,L2,4,C*%
%TO.N,/2C*%
X127540000Y-29900000D03*
%TO.P,L2,5,VinG*%
%TO.N,/GRN*%
X130080000Y-29900000D03*
%TO.P,L2,6,B*%
%TO.N,/2B*%
X130080000Y-90100000D03*
%TO.P,L2,7,A*%
%TO.N,/2A*%
X127540000Y-90100000D03*
%TO.P,L2,8,DP*%
%TO.N,/2DP*%
X125000000Y-90100000D03*
%TO.P,L2,9,F*%
%TO.N,/2F*%
X122460000Y-90100000D03*
%TO.P,L2,10,G*%
%TO.N,/2G*%
X119920000Y-90100000D03*
%TD*%
D27*
%TO.P,L1,1,Vin_R*%
%TO.N,/9VBus*%
X80080000Y-90100000D03*
D28*
%TO.P,L1,2,E*%
%TO.N,/1E*%
X77540000Y-90100000D03*
%TO.P,L1,3,D*%
%TO.N,/1D*%
X75000000Y-90100000D03*
%TO.P,L1,4,C*%
%TO.N,/1C*%
X72460000Y-90100000D03*
%TO.P,L1,5,VinG*%
%TO.N,/GRN*%
X69920000Y-90100000D03*
%TO.P,L1,6,B*%
%TO.N,/1B*%
X69920000Y-29900000D03*
%TO.P,L1,7,A*%
%TO.N,/1A*%
X72460000Y-29900000D03*
%TO.P,L1,8,DP*%
%TO.N,/1DP*%
X75000000Y-29900000D03*
%TO.P,L1,9,F*%
%TO.N,/1F*%
X77540000Y-29900000D03*
%TO.P,L1,10,G*%
%TO.N,/1G*%
X80080000Y-29900000D03*
%TD*%
D27*
%TO.P,L4,1,Vin_R*%
%TO.N,/9VBus*%
X230080000Y-90100000D03*
D28*
%TO.P,L4,2,E*%
%TO.N,/4E*%
X227540000Y-90100000D03*
%TO.P,L4,3,D*%
%TO.N,/4D*%
X225000000Y-90100000D03*
%TO.P,L4,4,C*%
%TO.N,/4C*%
X222460000Y-90100000D03*
%TO.P,L4,5,VinG*%
%TO.N,/GRN*%
X219920000Y-90100000D03*
%TO.P,L4,6,B*%
%TO.N,/4B*%
X219920000Y-29900000D03*
%TO.P,L4,7,A*%
%TO.N,/4A*%
X222460000Y-29900000D03*
%TO.P,L4,8,DP*%
%TO.N,/4DP*%
X225000000Y-29900000D03*
%TO.P,L4,9,F*%
%TO.N,/4F*%
X227540000Y-29900000D03*
%TO.P,L4,10,G*%
%TO.N,/4G*%
X230080000Y-29900000D03*
%TD*%
D27*
%TO.P,L3,1,Vin_R*%
%TO.N,/9VBus*%
X180080000Y-90100000D03*
D28*
%TO.P,L3,2,E*%
%TO.N,/3E*%
X177540000Y-90100000D03*
%TO.P,L3,3,D*%
%TO.N,/3D*%
X175000000Y-90100000D03*
%TO.P,L3,4,C*%
%TO.N,/3C*%
X172460000Y-90100000D03*
%TO.P,L3,5,VinG*%
%TO.N,/GRN*%
X169920000Y-90100000D03*
%TO.P,L3,6,B*%
%TO.N,/3B*%
X169920000Y-29900000D03*
%TO.P,L3,7,A*%
%TO.N,/3A*%
X172460000Y-29900000D03*
%TO.P,L3,8,DP*%
%TO.N,/3DP*%
X175000000Y-29900000D03*
%TO.P,L3,9,F*%
%TO.N,/3F*%
X177540000Y-29900000D03*
%TO.P,L3,10,G*%
%TO.N,/3G*%
X180080000Y-29900000D03*
%TD*%
D29*
%TO.N,GND*%
X117200000Y-67700000D03*
%TO.N,/5VBus*%
X193800000Y-74500000D03*
X104700000Y-70600000D03*
X60750000Y-49350000D03*
X223600000Y-75100000D03*
X194600000Y-51500000D03*
X104100000Y-44300000D03*
X223910000Y-51810000D03*
X60300000Y-72500000D03*
%TO.N,GND*%
X131150000Y-27800000D03*
X194600000Y-44700000D03*
X156750000Y-87050000D03*
X104700000Y-77000000D03*
X223900000Y-44900000D03*
X60750000Y-43200000D03*
X146150000Y-84750000D03*
%TD*%
D30*
%TO.N,/5VBus*%
X223910000Y-51810000D02*
X223910000Y-49992500D01*
D31*
%TO.N,GND*%
X117200000Y-66050000D02*
X117200000Y-67700000D01*
%TO.N,/SER_HC*%
X115300000Y-61050000D02*
X117200000Y-62950000D01*
X115300000Y-59475000D02*
X115300000Y-61050000D01*
%TO.N,/5VBus*%
X60300000Y-70950000D02*
X60300000Y-72500000D01*
X193800000Y-72850000D02*
X193800000Y-74500000D01*
D30*
X104700000Y-72137500D02*
X104700000Y-70600000D01*
X60750000Y-49350000D02*
X60750000Y-47890000D01*
D31*
X104100000Y-44300000D02*
X104100000Y-45950000D01*
D30*
X194600000Y-49502500D02*
X194600000Y-51500000D01*
D32*
X140975000Y-27875000D02*
X141050000Y-27800000D01*
D30*
X135962500Y-27800000D02*
X141050000Y-27800000D01*
D31*
X223600000Y-73250000D02*
X223600000Y-75100000D01*
D30*
%TO.N,GND*%
X104700000Y-77000000D02*
X104700000Y-75262500D01*
X146150000Y-84750000D02*
X144075000Y-84750000D01*
X156750000Y-87050000D02*
X154462500Y-87050000D01*
X60750000Y-44765000D02*
X60750000Y-43200000D01*
D32*
X132837500Y-27800000D02*
X131150000Y-27800000D01*
D30*
X223910000Y-44910000D02*
X223900000Y-44900000D01*
X223910000Y-46867500D02*
X223910000Y-44910000D01*
X194600000Y-46377500D02*
X194600000Y-44700000D01*
%TO.N,/9VBus*%
X140950000Y-84750000D02*
X140950000Y-88700000D01*
X140950000Y-88700000D02*
X141000000Y-88750000D01*
D31*
%TO.N,/1A*%
X57400000Y-44960000D02*
X72460000Y-29900000D01*
X57400000Y-55810000D02*
X57400000Y-44960000D01*
%TO.N,/1E*%
X79080000Y-64540000D02*
X79080000Y-88560000D01*
X79080000Y-88560000D02*
X77540000Y-90100000D01*
%TO.N,/1DP*%
X79150000Y-34050000D02*
X75000000Y-29900000D01*
X79150000Y-53190000D02*
X79150000Y-34050000D01*
%TO.N,/1D*%
X57500000Y-65010000D02*
X57500000Y-72600000D01*
X57500000Y-72600000D02*
X75000000Y-90100000D01*
%TO.N,/1C*%
X55750000Y-63610000D02*
X55750000Y-73390000D01*
X57500000Y-61860000D02*
X55750000Y-63610000D01*
X55750000Y-73390000D02*
X72460000Y-90100000D01*
%TO.N,/1G*%
X80855000Y-30675000D02*
X80080000Y-29900000D01*
X79150000Y-56240000D02*
X80855000Y-54535000D01*
X80855000Y-54535000D02*
X80855000Y-30675000D01*
%TO.N,/1B*%
X55800000Y-44020000D02*
X69920000Y-29900000D01*
X55800000Y-57060000D02*
X55800000Y-44020000D01*
X57450000Y-58710000D02*
X55800000Y-57060000D01*
%TO.N,/1F*%
X80800000Y-27800000D02*
X79640000Y-27800000D01*
X79640000Y-27800000D02*
X77540000Y-29900000D01*
X82500000Y-29500000D02*
X80800000Y-27800000D01*
X82500000Y-55940000D02*
X82500000Y-29500000D01*
X79150000Y-59290000D02*
X82500000Y-55940000D01*
%TO.N,/2A*%
X111500000Y-68570000D02*
X111500000Y-74100000D01*
X111500000Y-74100000D02*
X127500000Y-90100000D01*
X127500000Y-90100000D02*
X127540000Y-90100000D01*
X107070000Y-64140000D02*
X111500000Y-68570000D01*
%TO.N,/2G*%
X84500000Y-71700000D02*
X100800000Y-88000000D01*
X84500000Y-64000000D02*
X84500000Y-71700000D01*
X117820000Y-88000000D02*
X119920000Y-90100000D01*
X100800000Y-88000000D02*
X117820000Y-88000000D01*
X86000000Y-62500000D02*
X84500000Y-64000000D01*
%TO.N,/2B*%
X130080000Y-90080000D02*
X130080000Y-90100000D01*
X113200000Y-73200000D02*
X130080000Y-90080000D01*
X107170000Y-61340000D02*
X113200000Y-67370000D01*
X113200000Y-67370000D02*
X113200000Y-73200000D01*
%TO.N,/2F*%
X83300000Y-76200000D02*
X98900000Y-91800000D01*
X85950000Y-59650000D02*
X83300000Y-62300000D01*
X83300000Y-62300000D02*
X83300000Y-76200000D01*
X120760000Y-91800000D02*
X122460000Y-90100000D01*
X98900000Y-91800000D02*
X120760000Y-91800000D01*
%TO.N,/2DP*%
X101100000Y-83400000D02*
X118300000Y-83400000D01*
X85950000Y-65250000D02*
X85950000Y-68250000D01*
X118300000Y-83400000D02*
X125000000Y-90100000D01*
X85950000Y-68250000D02*
X101100000Y-83400000D01*
%TO.N,/2D*%
X107300000Y-47600000D02*
X125000000Y-29900000D01*
X107300000Y-53250000D02*
X107300000Y-47600000D01*
%TO.N,/2C*%
X127100000Y-29900000D02*
X127540000Y-29900000D01*
X109700000Y-55400000D02*
X109700000Y-47300000D01*
X109700000Y-47300000D02*
X127100000Y-29900000D01*
X107100000Y-58000000D02*
X109700000Y-55400000D01*
%TO.N,/2E*%
X112522240Y-27500000D02*
X120060000Y-27500000D01*
X86450000Y-53572240D02*
X112522240Y-27500000D01*
X120060000Y-27500000D02*
X122460000Y-29900000D01*
X86450000Y-56000000D02*
X86450000Y-53572240D01*
%TO.N,/3C*%
X191400000Y-64200000D02*
X190900000Y-64200000D01*
X180900000Y-81660000D02*
X172460000Y-90100000D01*
X180900000Y-74200000D02*
X180900000Y-81660000D01*
X190900000Y-64200000D02*
X180900000Y-74200000D01*
%TO.N,/3B*%
X188900000Y-58100000D02*
X188900000Y-48880000D01*
X188900000Y-48880000D02*
X169920000Y-29900000D01*
X191450000Y-60650000D02*
X188900000Y-58100000D01*
%TO.N,/3D*%
X191400000Y-66900000D02*
X191400000Y-73700000D01*
X191400000Y-73700000D02*
X175000000Y-90100000D01*
%TO.N,/3A*%
X191400000Y-57700000D02*
X191400000Y-48840000D01*
X191400000Y-48840000D02*
X172460000Y-29900000D01*
%TO.N,/3DP*%
X199400000Y-40400000D02*
X185500000Y-40400000D01*
X212950000Y-53950000D02*
X199400000Y-40400000D01*
X212950000Y-57900000D02*
X212950000Y-53950000D01*
X185500000Y-40400000D02*
X175000000Y-29900000D01*
%TO.N,/3G*%
X194400000Y-33900000D02*
X184080000Y-33900000D01*
X215500000Y-58300000D02*
X215500000Y-55000000D01*
X212900000Y-60900000D02*
X215500000Y-58300000D01*
X215500000Y-55000000D02*
X194400000Y-33900000D01*
X184080000Y-33900000D02*
X180080000Y-29900000D01*
%TO.N,/3F*%
X212900000Y-63800000D02*
X217200000Y-59500000D01*
X191000000Y-27300000D02*
X180140000Y-27300000D01*
X217200000Y-59500000D02*
X217200000Y-53500000D01*
X217200000Y-53500000D02*
X191000000Y-27300000D01*
X180140000Y-27300000D02*
X177540000Y-29900000D01*
%TO.N,/3E*%
X209100000Y-77800000D02*
X189840000Y-77800000D01*
X209100000Y-77800000D02*
X212950000Y-73950000D01*
X212950000Y-73950000D02*
X212950000Y-66850000D01*
X189840000Y-77800000D02*
X177540000Y-90100000D01*
%TO.N,/4DP*%
X241910000Y-58560000D02*
X241910000Y-46810000D01*
X241910000Y-46810000D02*
X225000000Y-29900000D01*
%TO.N,/4D*%
X221110000Y-86210000D02*
X225000000Y-90100000D01*
X221110000Y-67010000D02*
X221110000Y-86210000D01*
%TO.N,/4C*%
X218600000Y-86240000D02*
X222460000Y-90100000D01*
X218600000Y-66620000D02*
X218600000Y-86240000D01*
X221110000Y-64110000D02*
X218600000Y-66620000D01*
%TO.N,/4F*%
X244300000Y-41200000D02*
X230700000Y-27600000D01*
X230700000Y-27600000D02*
X229840000Y-27600000D01*
X241960000Y-64060000D02*
X244300000Y-61720000D01*
X229840000Y-27600000D02*
X227540000Y-29900000D01*
X244300000Y-61720000D02*
X244300000Y-41200000D01*
%TO.N,/4B*%
X219920000Y-60020000D02*
X219920000Y-29900000D01*
X221110000Y-61210000D02*
X219920000Y-60020000D01*
%TO.N,/4A*%
X221160000Y-58310000D02*
X221160000Y-31200000D01*
X221160000Y-31200000D02*
X222460000Y-29900000D01*
%TO.N,/4G*%
X243000000Y-42820000D02*
X230080000Y-29900000D01*
X241960000Y-61310000D02*
X243000000Y-60270000D01*
X243000000Y-60270000D02*
X243000000Y-42820000D01*
%TO.N,/4E*%
X242010000Y-75630000D02*
X227540000Y-90100000D01*
X242010000Y-67010000D02*
X242010000Y-75630000D01*
%TO.N,/3V_SD*%
X173505000Y-78965000D02*
X177967500Y-78965000D01*
X170500000Y-75960000D02*
X173505000Y-78965000D01*
%TO.N,/CD_SD*%
X177967500Y-68187500D02*
X177967500Y-76425000D01*
X170500000Y-60720000D02*
X177967500Y-68187500D01*
%TO.N,/Btn2*%
X123000000Y-63380000D02*
X118500000Y-58880000D01*
X119500000Y-42100000D02*
X121600000Y-42100000D01*
X121600000Y-42100000D02*
X123500000Y-44000000D01*
X118500000Y-58880000D02*
X118500000Y-43100000D01*
X118500000Y-43100000D02*
X119500000Y-42100000D01*
%TO.N,/Btn3*%
X124750000Y-46000000D02*
X124750000Y-64170000D01*
X124750000Y-64170000D02*
X123000000Y-65920000D01*
X124800000Y-46050000D02*
X124750000Y-46000000D01*
%TO.N,/Btn5*%
X126700000Y-46550000D02*
X127250000Y-46000000D01*
X126700000Y-64540000D02*
X126700000Y-46550000D01*
X130620000Y-68460000D02*
X126700000Y-64540000D01*
%TO.N,/In7*%
X128200000Y-60960000D02*
X128200000Y-48800000D01*
X128200000Y-48800000D02*
X129750000Y-47250000D01*
X129750000Y-47250000D02*
X129750000Y-46000000D01*
X129750000Y-39790000D02*
X129750000Y-46000000D01*
X127960000Y-38000000D02*
X129750000Y-39790000D01*
X130620000Y-63380000D02*
X128200000Y-60960000D01*
%TO.N,/In6*%
X127500000Y-62800000D02*
X127500000Y-47750000D01*
X130620000Y-65920000D02*
X127500000Y-62800000D01*
X128500000Y-44000000D02*
X128500000Y-41080000D01*
X128500000Y-41080000D02*
X125420000Y-38000000D01*
X128500000Y-46750000D02*
X128500000Y-44000000D01*
X127500000Y-47750000D02*
X128500000Y-46750000D01*
%TO.N,/Btn1*%
X120600000Y-47650000D02*
X122250000Y-46000000D01*
X123000000Y-60840000D02*
X120600000Y-58440000D01*
X120600000Y-58440000D02*
X120600000Y-47650000D01*
%TO.N,/In8*%
X130500000Y-43500000D02*
X131000000Y-44000000D01*
X129000000Y-49500000D02*
X131000000Y-47500000D01*
X130500000Y-38000000D02*
X130500000Y-43500000D01*
X131000000Y-47500000D02*
X131000000Y-44000000D01*
X130620000Y-60840000D02*
X129000000Y-59220000D01*
X129000000Y-59220000D02*
X129000000Y-49500000D01*
%TO.N,/Btn4*%
X125700000Y-65760000D02*
X125700000Y-47700000D01*
X126000000Y-47400000D02*
X126000000Y-44000000D01*
X125700000Y-47700000D02*
X126000000Y-47400000D01*
X123000000Y-68460000D02*
X125700000Y-65760000D01*
%TO.N,/SEROUT4*%
X238210000Y-53500000D02*
X239300000Y-53500000D01*
X235310000Y-56400000D02*
X238210000Y-53500000D01*
D30*
%TO.N,/GRN*%
X151337500Y-90087500D02*
X152250000Y-91000000D01*
X151337500Y-87050000D02*
X151337500Y-90087500D01*
D31*
%TO.N,/IO_20*%
X159800000Y-39900000D02*
X161620000Y-38080000D01*
X146020000Y-39900000D02*
X159800000Y-39900000D01*
X161620000Y-38080000D02*
X161620000Y-35500000D01*
X139500000Y-46420000D02*
X146020000Y-39900000D01*
%TO.N,/ESPBAT*%
X139500000Y-43880000D02*
X146380000Y-37000000D01*
X146380000Y-37000000D02*
X146380000Y-35500000D01*
%TO.N,Net-(U1-~{SRCLR})*%
X64380000Y-66000000D02*
X62150000Y-66000000D01*
X62150000Y-66000000D02*
X60300000Y-67850000D01*
%TO.N,Net-(U1-DRAIN0)*%
X64350000Y-55810000D02*
X64380000Y-55840000D01*
X60500000Y-55810000D02*
X64350000Y-55810000D01*
%TO.N,Net-(U1-DRAIN1)*%
X60550000Y-58710000D02*
X64050000Y-58710000D01*
X64050000Y-58710000D02*
X64380000Y-58380000D01*
%TO.N,Net-(U1-DRAIN2)*%
X60600000Y-61860000D02*
X63440000Y-61860000D01*
X63440000Y-61860000D02*
X64380000Y-60920000D01*
%TO.N,Net-(U1-DRAIN3)*%
X62830000Y-65010000D02*
X64380000Y-63460000D01*
X60600000Y-65010000D02*
X62830000Y-65010000D01*
%TO.N,Net-(U1-DRAIN4)*%
X75980000Y-64540000D02*
X73080000Y-64540000D01*
X73080000Y-64540000D02*
X72000000Y-63460000D01*
%TO.N,Net-(U1-DRAIN5)*%
X73630000Y-59290000D02*
X72000000Y-60920000D01*
X76050000Y-59290000D02*
X73630000Y-59290000D01*
%TO.N,Net-(U1-DRAIN6)*%
X76050000Y-56240000D02*
X74140000Y-56240000D01*
X74140000Y-56240000D02*
X72000000Y-58380000D01*
%TO.N,Net-(U1-DRAIN7)*%
X73400000Y-55840000D02*
X76050000Y-53190000D01*
X72000000Y-55840000D02*
X73400000Y-55840000D01*
%TO.N,Net-(U4-~{SRCLR})*%
X100920000Y-53430000D02*
X104100000Y-50250000D01*
X104100000Y-50250000D02*
X104100000Y-49050000D01*
%TO.N,Net-(U4-DRAIN0)*%
X103970000Y-64140000D02*
X101470000Y-64140000D01*
X101470000Y-64140000D02*
X100920000Y-63590000D01*
%TO.N,Net-(U4-DRAIN1)*%
X101210000Y-61340000D02*
X100920000Y-61050000D01*
X104070000Y-61340000D02*
X101210000Y-61340000D01*
%TO.N,Net-(U4-DRAIN2)*%
X101430000Y-58000000D02*
X100920000Y-58510000D01*
X104000000Y-58000000D02*
X101430000Y-58000000D01*
%TO.N,Net-(U4-DRAIN3)*%
X103640000Y-53250000D02*
X104200000Y-53250000D01*
X100920000Y-55970000D02*
X103640000Y-53250000D01*
%TO.N,Net-(U4-DRAIN4)*%
X93270000Y-56000000D02*
X93300000Y-55970000D01*
X89550000Y-56000000D02*
X93270000Y-56000000D01*
%TO.N,Net-(U4-DRAIN5)*%
X92160000Y-59650000D02*
X93300000Y-58510000D01*
X89050000Y-59650000D02*
X92160000Y-59650000D01*
%TO.N,Net-(U4-DRAIN6)*%
X89100000Y-62500000D02*
X91850000Y-62500000D01*
X91850000Y-62500000D02*
X93300000Y-61050000D01*
%TO.N,Net-(U4-DRAIN7)*%
X89050000Y-65250000D02*
X91640000Y-65250000D01*
X91640000Y-65250000D02*
X93300000Y-63590000D01*
%TO.N,Net-(U5-~{SRCLR})*%
X193800000Y-69750000D02*
X197630000Y-69750000D01*
X197630000Y-69750000D02*
X198380000Y-69000000D01*
%TO.N,Net-(U5-DRAIN0)*%
X197240000Y-57700000D02*
X198380000Y-58840000D01*
X194500000Y-57700000D02*
X197240000Y-57700000D01*
%TO.N,Net-(U5-DRAIN1)*%
X194550000Y-60650000D02*
X197650000Y-60650000D01*
X197650000Y-60650000D02*
X198380000Y-61380000D01*
%TO.N,Net-(U5-DRAIN2)*%
X198160000Y-63700000D02*
X198380000Y-63920000D01*
X198100000Y-64200000D02*
X198380000Y-63920000D01*
X194500000Y-64200000D02*
X198100000Y-64200000D01*
%TO.N,Net-(U5-DRAIN3)*%
X197940000Y-66900000D02*
X198380000Y-66460000D01*
X194500000Y-66900000D02*
X197940000Y-66900000D01*
%TO.N,Net-(U5-DRAIN4)*%
X209460000Y-66460000D02*
X209850000Y-66850000D01*
X206000000Y-66460000D02*
X209460000Y-66460000D01*
%TO.N,Net-(U5-DRAIN5)*%
X206000000Y-63920000D02*
X209680000Y-63920000D01*
X209680000Y-63920000D02*
X209800000Y-63800000D01*
%TO.N,Net-(U5-DRAIN6)*%
X206000000Y-61380000D02*
X209320000Y-61380000D01*
X209320000Y-61380000D02*
X209800000Y-60900000D01*
%TO.N,Net-(U5-DRAIN7)*%
X206000000Y-58840000D02*
X208910000Y-58840000D01*
X208910000Y-58840000D02*
X209850000Y-57900000D01*
%TO.N,Net-(U6-~{SRCLR})*%
X227690000Y-69100000D02*
X224650000Y-69100000D01*
X224650000Y-69100000D02*
X223600000Y-70150000D01*
%TO.N,Net-(U6-DRAIN0)*%
X224260000Y-58310000D02*
X227060000Y-58310000D01*
X227060000Y-58310000D02*
X227690000Y-58940000D01*
%TO.N,Net-(U6-DRAIN1)*%
X227420000Y-61210000D02*
X227690000Y-61480000D01*
X224210000Y-61210000D02*
X227420000Y-61210000D01*
%TO.N,Net-(U6-DRAIN2)*%
X227600000Y-64110000D02*
X227690000Y-64020000D01*
X224210000Y-64110000D02*
X227600000Y-64110000D01*
%TO.N,Net-(U6-DRAIN3)*%
X227240000Y-67010000D02*
X227690000Y-66560000D01*
X224210000Y-67010000D02*
X227240000Y-67010000D01*
%TO.N,Net-(U6-DRAIN4)*%
X235310000Y-66560000D02*
X238460000Y-66560000D01*
X238460000Y-66560000D02*
X238910000Y-67010000D01*
%TO.N,Net-(U6-DRAIN5)*%
X238820000Y-64020000D02*
X238860000Y-64060000D01*
X235310000Y-64020000D02*
X238820000Y-64020000D01*
%TO.N,Net-(U6-DRAIN6)*%
X238690000Y-61480000D02*
X238860000Y-61310000D01*
X235310000Y-61480000D02*
X238690000Y-61480000D01*
%TO.N,Net-(U6-DRAIN7)*%
X238430000Y-58940000D02*
X238810000Y-58560000D01*
X235310000Y-58940000D02*
X238430000Y-58940000D01*
%TO.N,/RCLK*%
X190970130Y-62700000D02*
X198800000Y-62700000D01*
X204160000Y-69700000D02*
X206000000Y-71540000D01*
X185000000Y-47900000D02*
X185000000Y-56729870D01*
X170300000Y-33200000D02*
X185000000Y-47900000D01*
X156540000Y-35500000D02*
X158840000Y-33200000D01*
X198800000Y-62700000D02*
X204160000Y-68060000D01*
X204160000Y-68060000D02*
X204160000Y-69700000D01*
X158840000Y-33200000D02*
X170300000Y-33200000D01*
X185000000Y-56729870D02*
X190970130Y-62700000D01*
%TO.N,/CS*%
X164160000Y-56920000D02*
X164160000Y-53280000D01*
X170500000Y-63260000D02*
X164160000Y-56920000D01*
%TO.N,/CP*%
X130620000Y-71000000D02*
X135750000Y-71000000D01*
X135750000Y-71000000D02*
X151460000Y-55290000D01*
X151460000Y-55290000D02*
X151460000Y-53280000D01*
%TO.N,/MOSI*%
X170500000Y-65800000D02*
X159080000Y-54380000D01*
X159080000Y-54380000D02*
X159080000Y-53280000D01*
%TO.N,/Qinv*%
X133950000Y-58300000D02*
X130620000Y-58300000D01*
X164160000Y-35500000D02*
X164160000Y-38090000D01*
X160500000Y-41750000D02*
X150500000Y-41750000D01*
X150500000Y-41750000D02*
X133950000Y-58300000D01*
X164160000Y-38090000D02*
X160500000Y-41750000D01*
%TO.N,/PL*%
X136210000Y-73540000D02*
X154000000Y-55750000D01*
X154000000Y-55750000D02*
X154000000Y-53280000D01*
X130620000Y-73540000D02*
X136210000Y-73540000D01*
%TO.N,/CLK*%
X156540000Y-56920000D02*
X156540000Y-53280000D01*
X170500000Y-70880000D02*
X156540000Y-56920000D01*
%TD*%
M02*
