%TF.GenerationSoftware,KiCad,Pcbnew,9.0.7*%
%TF.CreationDate,2026-03-16T20:52:18-05:00*%
%TF.ProjectId,MainBoard4Layer,4d61696e-426f-4617-9264-344c61796572,rev?*%
%TF.SameCoordinates,Original*%
%TF.FileFunction,Legend,Top*%
%TF.FilePolarity,Positive*%
%FSLAX46Y46*%
G04 Gerber Fmt 4.6, Leading zero omitted, Abs format (unit mm)*
G04 Created by KiCad (PCBNEW 9.0.7) date 2026-03-16 20:52:18*
%MOMM*%
%LPD*%
G01*
G04 APERTURE LIST*
%ADD10C,0.150000*%
%ADD11C,0.100000*%
%ADD12C,0.120000*%
%ADD13C,0.127000*%
%ADD14C,0.200000*%
G04 APERTURE END LIST*
D10*
X119484819Y-65142857D02*
X119008628Y-65476190D01*
X119484819Y-65714285D02*
X118484819Y-65714285D01*
X118484819Y-65714285D02*
X118484819Y-65333333D01*
X118484819Y-65333333D02*
X118532438Y-65238095D01*
X118532438Y-65238095D02*
X118580057Y-65190476D01*
X118580057Y-65190476D02*
X118675295Y-65142857D01*
X118675295Y-65142857D02*
X118818152Y-65142857D01*
X118818152Y-65142857D02*
X118913390Y-65190476D01*
X118913390Y-65190476D02*
X118961009Y-65238095D01*
X118961009Y-65238095D02*
X119008628Y-65333333D01*
X119008628Y-65333333D02*
X119008628Y-65714285D01*
X118484819Y-64809523D02*
X118484819Y-64190476D01*
X118484819Y-64190476D02*
X118865771Y-64523809D01*
X118865771Y-64523809D02*
X118865771Y-64380952D01*
X118865771Y-64380952D02*
X118913390Y-64285714D01*
X118913390Y-64285714D02*
X118961009Y-64238095D01*
X118961009Y-64238095D02*
X119056247Y-64190476D01*
X119056247Y-64190476D02*
X119294342Y-64190476D01*
X119294342Y-64190476D02*
X119389580Y-64238095D01*
X119389580Y-64238095D02*
X119437200Y-64285714D01*
X119437200Y-64285714D02*
X119484819Y-64380952D01*
X119484819Y-64380952D02*
X119484819Y-64666666D01*
X119484819Y-64666666D02*
X119437200Y-64761904D01*
X119437200Y-64761904D02*
X119389580Y-64809523D01*
X118484819Y-63857142D02*
X118484819Y-63190476D01*
X118484819Y-63190476D02*
X119484819Y-63619047D01*
X189654819Y-69242857D02*
X189178628Y-69576190D01*
X189654819Y-69814285D02*
X188654819Y-69814285D01*
X188654819Y-69814285D02*
X188654819Y-69433333D01*
X188654819Y-69433333D02*
X188702438Y-69338095D01*
X188702438Y-69338095D02*
X188750057Y-69290476D01*
X188750057Y-69290476D02*
X188845295Y-69242857D01*
X188845295Y-69242857D02*
X188988152Y-69242857D01*
X188988152Y-69242857D02*
X189083390Y-69290476D01*
X189083390Y-69290476D02*
X189131009Y-69338095D01*
X189131009Y-69338095D02*
X189178628Y-69433333D01*
X189178628Y-69433333D02*
X189178628Y-69814285D01*
X188750057Y-68861904D02*
X188702438Y-68814285D01*
X188702438Y-68814285D02*
X188654819Y-68719047D01*
X188654819Y-68719047D02*
X188654819Y-68480952D01*
X188654819Y-68480952D02*
X188702438Y-68385714D01*
X188702438Y-68385714D02*
X188750057Y-68338095D01*
X188750057Y-68338095D02*
X188845295Y-68290476D01*
X188845295Y-68290476D02*
X188940533Y-68290476D01*
X188940533Y-68290476D02*
X189083390Y-68338095D01*
X189083390Y-68338095D02*
X189654819Y-68909523D01*
X189654819Y-68909523D02*
X189654819Y-68290476D01*
X188654819Y-67957142D02*
X188654819Y-67338095D01*
X188654819Y-67338095D02*
X189035771Y-67671428D01*
X189035771Y-67671428D02*
X189035771Y-67528571D01*
X189035771Y-67528571D02*
X189083390Y-67433333D01*
X189083390Y-67433333D02*
X189131009Y-67385714D01*
X189131009Y-67385714D02*
X189226247Y-67338095D01*
X189226247Y-67338095D02*
X189464342Y-67338095D01*
X189464342Y-67338095D02*
X189559580Y-67385714D01*
X189559580Y-67385714D02*
X189607200Y-67433333D01*
X189607200Y-67433333D02*
X189654819Y-67528571D01*
X189654819Y-67528571D02*
X189654819Y-67814285D01*
X189654819Y-67814285D02*
X189607200Y-67909523D01*
X189607200Y-67909523D02*
X189559580Y-67957142D01*
X126048095Y-75324819D02*
X126048095Y-76134342D01*
X126048095Y-76134342D02*
X126095714Y-76229580D01*
X126095714Y-76229580D02*
X126143333Y-76277200D01*
X126143333Y-76277200D02*
X126238571Y-76324819D01*
X126238571Y-76324819D02*
X126429047Y-76324819D01*
X126429047Y-76324819D02*
X126524285Y-76277200D01*
X126524285Y-76277200D02*
X126571904Y-76229580D01*
X126571904Y-76229580D02*
X126619523Y-76134342D01*
X126619523Y-76134342D02*
X126619523Y-75324819D01*
X127000476Y-75324819D02*
X127667142Y-75324819D01*
X127667142Y-75324819D02*
X127238571Y-76324819D01*
X215454819Y-66542857D02*
X214978628Y-66876190D01*
X215454819Y-67114285D02*
X214454819Y-67114285D01*
X214454819Y-67114285D02*
X214454819Y-66733333D01*
X214454819Y-66733333D02*
X214502438Y-66638095D01*
X214502438Y-66638095D02*
X214550057Y-66590476D01*
X214550057Y-66590476D02*
X214645295Y-66542857D01*
X214645295Y-66542857D02*
X214788152Y-66542857D01*
X214788152Y-66542857D02*
X214883390Y-66590476D01*
X214883390Y-66590476D02*
X214931009Y-66638095D01*
X214931009Y-66638095D02*
X214978628Y-66733333D01*
X214978628Y-66733333D02*
X214978628Y-67114285D01*
X214550057Y-66161904D02*
X214502438Y-66114285D01*
X214502438Y-66114285D02*
X214454819Y-66019047D01*
X214454819Y-66019047D02*
X214454819Y-65780952D01*
X214454819Y-65780952D02*
X214502438Y-65685714D01*
X214502438Y-65685714D02*
X214550057Y-65638095D01*
X214550057Y-65638095D02*
X214645295Y-65590476D01*
X214645295Y-65590476D02*
X214740533Y-65590476D01*
X214740533Y-65590476D02*
X214883390Y-65638095D01*
X214883390Y-65638095D02*
X215454819Y-66209523D01*
X215454819Y-66209523D02*
X215454819Y-65590476D01*
X214454819Y-64685714D02*
X214454819Y-65161904D01*
X214454819Y-65161904D02*
X214931009Y-65209523D01*
X214931009Y-65209523D02*
X214883390Y-65161904D01*
X214883390Y-65161904D02*
X214835771Y-65066666D01*
X214835771Y-65066666D02*
X214835771Y-64828571D01*
X214835771Y-64828571D02*
X214883390Y-64733333D01*
X214883390Y-64733333D02*
X214931009Y-64685714D01*
X214931009Y-64685714D02*
X215026247Y-64638095D01*
X215026247Y-64638095D02*
X215264342Y-64638095D01*
X215264342Y-64638095D02*
X215359580Y-64685714D01*
X215359580Y-64685714D02*
X215407200Y-64733333D01*
X215407200Y-64733333D02*
X215454819Y-64828571D01*
X215454819Y-64828571D02*
X215454819Y-65066666D01*
X215454819Y-65066666D02*
X215407200Y-65161904D01*
X215407200Y-65161904D02*
X215359580Y-65209523D01*
X246157142Y-61754819D02*
X245823809Y-61278628D01*
X245585714Y-61754819D02*
X245585714Y-60754819D01*
X245585714Y-60754819D02*
X245966666Y-60754819D01*
X245966666Y-60754819D02*
X246061904Y-60802438D01*
X246061904Y-60802438D02*
X246109523Y-60850057D01*
X246109523Y-60850057D02*
X246157142Y-60945295D01*
X246157142Y-60945295D02*
X246157142Y-61088152D01*
X246157142Y-61088152D02*
X246109523Y-61183390D01*
X246109523Y-61183390D02*
X246061904Y-61231009D01*
X246061904Y-61231009D02*
X245966666Y-61278628D01*
X245966666Y-61278628D02*
X245585714Y-61278628D01*
X246490476Y-60754819D02*
X247109523Y-60754819D01*
X247109523Y-60754819D02*
X246776190Y-61135771D01*
X246776190Y-61135771D02*
X246919047Y-61135771D01*
X246919047Y-61135771D02*
X247014285Y-61183390D01*
X247014285Y-61183390D02*
X247061904Y-61231009D01*
X247061904Y-61231009D02*
X247109523Y-61326247D01*
X247109523Y-61326247D02*
X247109523Y-61564342D01*
X247109523Y-61564342D02*
X247061904Y-61659580D01*
X247061904Y-61659580D02*
X247014285Y-61707200D01*
X247014285Y-61707200D02*
X246919047Y-61754819D01*
X246919047Y-61754819D02*
X246633333Y-61754819D01*
X246633333Y-61754819D02*
X246538095Y-61707200D01*
X246538095Y-61707200D02*
X246490476Y-61659580D01*
X248014285Y-60754819D02*
X247538095Y-60754819D01*
X247538095Y-60754819D02*
X247490476Y-61231009D01*
X247490476Y-61231009D02*
X247538095Y-61183390D01*
X247538095Y-61183390D02*
X247633333Y-61135771D01*
X247633333Y-61135771D02*
X247871428Y-61135771D01*
X247871428Y-61135771D02*
X247966666Y-61183390D01*
X247966666Y-61183390D02*
X248014285Y-61231009D01*
X248014285Y-61231009D02*
X248061904Y-61326247D01*
X248061904Y-61326247D02*
X248061904Y-61564342D01*
X248061904Y-61564342D02*
X248014285Y-61659580D01*
X248014285Y-61659580D02*
X247966666Y-61707200D01*
X247966666Y-61707200D02*
X247871428Y-61754819D01*
X247871428Y-61754819D02*
X247633333Y-61754819D01*
X247633333Y-61754819D02*
X247538095Y-61707200D01*
X247538095Y-61707200D02*
X247490476Y-61659580D01*
X67428095Y-45344819D02*
X67428095Y-46154342D01*
X67428095Y-46154342D02*
X67475714Y-46249580D01*
X67475714Y-46249580D02*
X67523333Y-46297200D01*
X67523333Y-46297200D02*
X67618571Y-46344819D01*
X67618571Y-46344819D02*
X67809047Y-46344819D01*
X67809047Y-46344819D02*
X67904285Y-46297200D01*
X67904285Y-46297200D02*
X67951904Y-46249580D01*
X67951904Y-46249580D02*
X67999523Y-46154342D01*
X67999523Y-46154342D02*
X67999523Y-45344819D01*
X68999523Y-46344819D02*
X68428095Y-46344819D01*
X68713809Y-46344819D02*
X68713809Y-45344819D01*
X68713809Y-45344819D02*
X68618571Y-45487676D01*
X68618571Y-45487676D02*
X68523333Y-45582914D01*
X68523333Y-45582914D02*
X68428095Y-45630533D01*
X59259580Y-46494166D02*
X59307200Y-46541785D01*
X59307200Y-46541785D02*
X59354819Y-46684642D01*
X59354819Y-46684642D02*
X59354819Y-46779880D01*
X59354819Y-46779880D02*
X59307200Y-46922737D01*
X59307200Y-46922737D02*
X59211961Y-47017975D01*
X59211961Y-47017975D02*
X59116723Y-47065594D01*
X59116723Y-47065594D02*
X58926247Y-47113213D01*
X58926247Y-47113213D02*
X58783390Y-47113213D01*
X58783390Y-47113213D02*
X58592914Y-47065594D01*
X58592914Y-47065594D02*
X58497676Y-47017975D01*
X58497676Y-47017975D02*
X58402438Y-46922737D01*
X58402438Y-46922737D02*
X58354819Y-46779880D01*
X58354819Y-46779880D02*
X58354819Y-46684642D01*
X58354819Y-46684642D02*
X58402438Y-46541785D01*
X58402438Y-46541785D02*
X58450057Y-46494166D01*
X59354819Y-45541785D02*
X59354819Y-46113213D01*
X59354819Y-45827499D02*
X58354819Y-45827499D01*
X58354819Y-45827499D02*
X58497676Y-45922737D01*
X58497676Y-45922737D02*
X58592914Y-46017975D01*
X58592914Y-46017975D02*
X58640533Y-46113213D01*
X216454819Y-63542857D02*
X215978628Y-63876190D01*
X216454819Y-64114285D02*
X215454819Y-64114285D01*
X215454819Y-64114285D02*
X215454819Y-63733333D01*
X215454819Y-63733333D02*
X215502438Y-63638095D01*
X215502438Y-63638095D02*
X215550057Y-63590476D01*
X215550057Y-63590476D02*
X215645295Y-63542857D01*
X215645295Y-63542857D02*
X215788152Y-63542857D01*
X215788152Y-63542857D02*
X215883390Y-63590476D01*
X215883390Y-63590476D02*
X215931009Y-63638095D01*
X215931009Y-63638095D02*
X215978628Y-63733333D01*
X215978628Y-63733333D02*
X215978628Y-64114285D01*
X215550057Y-63161904D02*
X215502438Y-63114285D01*
X215502438Y-63114285D02*
X215454819Y-63019047D01*
X215454819Y-63019047D02*
X215454819Y-62780952D01*
X215454819Y-62780952D02*
X215502438Y-62685714D01*
X215502438Y-62685714D02*
X215550057Y-62638095D01*
X215550057Y-62638095D02*
X215645295Y-62590476D01*
X215645295Y-62590476D02*
X215740533Y-62590476D01*
X215740533Y-62590476D02*
X215883390Y-62638095D01*
X215883390Y-62638095D02*
X216454819Y-63209523D01*
X216454819Y-63209523D02*
X216454819Y-62590476D01*
X215454819Y-61733333D02*
X215454819Y-61923809D01*
X215454819Y-61923809D02*
X215502438Y-62019047D01*
X215502438Y-62019047D02*
X215550057Y-62066666D01*
X215550057Y-62066666D02*
X215692914Y-62161904D01*
X215692914Y-62161904D02*
X215883390Y-62209523D01*
X215883390Y-62209523D02*
X216264342Y-62209523D01*
X216264342Y-62209523D02*
X216359580Y-62161904D01*
X216359580Y-62161904D02*
X216407200Y-62114285D01*
X216407200Y-62114285D02*
X216454819Y-62019047D01*
X216454819Y-62019047D02*
X216454819Y-61828571D01*
X216454819Y-61828571D02*
X216407200Y-61733333D01*
X216407200Y-61733333D02*
X216359580Y-61685714D01*
X216359580Y-61685714D02*
X216264342Y-61638095D01*
X216264342Y-61638095D02*
X216026247Y-61638095D01*
X216026247Y-61638095D02*
X215931009Y-61685714D01*
X215931009Y-61685714D02*
X215883390Y-61733333D01*
X215883390Y-61733333D02*
X215835771Y-61828571D01*
X215835771Y-61828571D02*
X215835771Y-62019047D01*
X215835771Y-62019047D02*
X215883390Y-62114285D01*
X215883390Y-62114285D02*
X215931009Y-62161904D01*
X215931009Y-62161904D02*
X216026247Y-62209523D01*
X110354819Y-61742857D02*
X109878628Y-62076190D01*
X110354819Y-62314285D02*
X109354819Y-62314285D01*
X109354819Y-62314285D02*
X109354819Y-61933333D01*
X109354819Y-61933333D02*
X109402438Y-61838095D01*
X109402438Y-61838095D02*
X109450057Y-61790476D01*
X109450057Y-61790476D02*
X109545295Y-61742857D01*
X109545295Y-61742857D02*
X109688152Y-61742857D01*
X109688152Y-61742857D02*
X109783390Y-61790476D01*
X109783390Y-61790476D02*
X109831009Y-61838095D01*
X109831009Y-61838095D02*
X109878628Y-61933333D01*
X109878628Y-61933333D02*
X109878628Y-62314285D01*
X110354819Y-60790476D02*
X110354819Y-61361904D01*
X110354819Y-61076190D02*
X109354819Y-61076190D01*
X109354819Y-61076190D02*
X109497676Y-61171428D01*
X109497676Y-61171428D02*
X109592914Y-61266666D01*
X109592914Y-61266666D02*
X109640533Y-61361904D01*
X109450057Y-60409523D02*
X109402438Y-60361904D01*
X109402438Y-60361904D02*
X109354819Y-60266666D01*
X109354819Y-60266666D02*
X109354819Y-60028571D01*
X109354819Y-60028571D02*
X109402438Y-59933333D01*
X109402438Y-59933333D02*
X109450057Y-59885714D01*
X109450057Y-59885714D02*
X109545295Y-59838095D01*
X109545295Y-59838095D02*
X109640533Y-59838095D01*
X109640533Y-59838095D02*
X109783390Y-59885714D01*
X109783390Y-59885714D02*
X110354819Y-60457142D01*
X110354819Y-60457142D02*
X110354819Y-59838095D01*
X138690476Y-35874819D02*
X138690476Y-36589104D01*
X138690476Y-36589104D02*
X138642857Y-36731961D01*
X138642857Y-36731961D02*
X138547619Y-36827200D01*
X138547619Y-36827200D02*
X138404762Y-36874819D01*
X138404762Y-36874819D02*
X138309524Y-36874819D01*
X139690476Y-36874819D02*
X139119048Y-36874819D01*
X139404762Y-36874819D02*
X139404762Y-35874819D01*
X139404762Y-35874819D02*
X139309524Y-36017676D01*
X139309524Y-36017676D02*
X139214286Y-36112914D01*
X139214286Y-36112914D02*
X139119048Y-36160533D01*
X140547619Y-36208152D02*
X140547619Y-36874819D01*
X140309524Y-35827200D02*
X140071429Y-36541485D01*
X140071429Y-36541485D02*
X140690476Y-36541485D01*
X54754819Y-65266666D02*
X54278628Y-65599999D01*
X54754819Y-65838094D02*
X53754819Y-65838094D01*
X53754819Y-65838094D02*
X53754819Y-65457142D01*
X53754819Y-65457142D02*
X53802438Y-65361904D01*
X53802438Y-65361904D02*
X53850057Y-65314285D01*
X53850057Y-65314285D02*
X53945295Y-65266666D01*
X53945295Y-65266666D02*
X54088152Y-65266666D01*
X54088152Y-65266666D02*
X54183390Y-65314285D01*
X54183390Y-65314285D02*
X54231009Y-65361904D01*
X54231009Y-65361904D02*
X54278628Y-65457142D01*
X54278628Y-65457142D02*
X54278628Y-65838094D01*
X53754819Y-64361904D02*
X53754819Y-64838094D01*
X53754819Y-64838094D02*
X54231009Y-64885713D01*
X54231009Y-64885713D02*
X54183390Y-64838094D01*
X54183390Y-64838094D02*
X54135771Y-64742856D01*
X54135771Y-64742856D02*
X54135771Y-64504761D01*
X54135771Y-64504761D02*
X54183390Y-64409523D01*
X54183390Y-64409523D02*
X54231009Y-64361904D01*
X54231009Y-64361904D02*
X54326247Y-64314285D01*
X54326247Y-64314285D02*
X54564342Y-64314285D01*
X54564342Y-64314285D02*
X54659580Y-64361904D01*
X54659580Y-64361904D02*
X54707200Y-64409523D01*
X54707200Y-64409523D02*
X54754819Y-64504761D01*
X54754819Y-64504761D02*
X54754819Y-64742856D01*
X54754819Y-64742856D02*
X54707200Y-64838094D01*
X54707200Y-64838094D02*
X54659580Y-64885713D01*
X246257142Y-67454819D02*
X245923809Y-66978628D01*
X245685714Y-67454819D02*
X245685714Y-66454819D01*
X245685714Y-66454819D02*
X246066666Y-66454819D01*
X246066666Y-66454819D02*
X246161904Y-66502438D01*
X246161904Y-66502438D02*
X246209523Y-66550057D01*
X246209523Y-66550057D02*
X246257142Y-66645295D01*
X246257142Y-66645295D02*
X246257142Y-66788152D01*
X246257142Y-66788152D02*
X246209523Y-66883390D01*
X246209523Y-66883390D02*
X246161904Y-66931009D01*
X246161904Y-66931009D02*
X246066666Y-66978628D01*
X246066666Y-66978628D02*
X245685714Y-66978628D01*
X246590476Y-66454819D02*
X247209523Y-66454819D01*
X247209523Y-66454819D02*
X246876190Y-66835771D01*
X246876190Y-66835771D02*
X247019047Y-66835771D01*
X247019047Y-66835771D02*
X247114285Y-66883390D01*
X247114285Y-66883390D02*
X247161904Y-66931009D01*
X247161904Y-66931009D02*
X247209523Y-67026247D01*
X247209523Y-67026247D02*
X247209523Y-67264342D01*
X247209523Y-67264342D02*
X247161904Y-67359580D01*
X247161904Y-67359580D02*
X247114285Y-67407200D01*
X247114285Y-67407200D02*
X247019047Y-67454819D01*
X247019047Y-67454819D02*
X246733333Y-67454819D01*
X246733333Y-67454819D02*
X246638095Y-67407200D01*
X246638095Y-67407200D02*
X246590476Y-67359580D01*
X247542857Y-66454819D02*
X248161904Y-66454819D01*
X248161904Y-66454819D02*
X247828571Y-66835771D01*
X247828571Y-66835771D02*
X247971428Y-66835771D01*
X247971428Y-66835771D02*
X248066666Y-66883390D01*
X248066666Y-66883390D02*
X248114285Y-66931009D01*
X248114285Y-66931009D02*
X248161904Y-67026247D01*
X248161904Y-67026247D02*
X248161904Y-67264342D01*
X248161904Y-67264342D02*
X248114285Y-67359580D01*
X248114285Y-67359580D02*
X248066666Y-67407200D01*
X248066666Y-67407200D02*
X247971428Y-67454819D01*
X247971428Y-67454819D02*
X247685714Y-67454819D01*
X247685714Y-67454819D02*
X247590476Y-67407200D01*
X247590476Y-67407200D02*
X247542857Y-67359580D01*
X62584819Y-69566666D02*
X62108628Y-69899999D01*
X62584819Y-70138094D02*
X61584819Y-70138094D01*
X61584819Y-70138094D02*
X61584819Y-69757142D01*
X61584819Y-69757142D02*
X61632438Y-69661904D01*
X61632438Y-69661904D02*
X61680057Y-69614285D01*
X61680057Y-69614285D02*
X61775295Y-69566666D01*
X61775295Y-69566666D02*
X61918152Y-69566666D01*
X61918152Y-69566666D02*
X62013390Y-69614285D01*
X62013390Y-69614285D02*
X62061009Y-69661904D01*
X62061009Y-69661904D02*
X62108628Y-69757142D01*
X62108628Y-69757142D02*
X62108628Y-70138094D01*
X62584819Y-68614285D02*
X62584819Y-69185713D01*
X62584819Y-68899999D02*
X61584819Y-68899999D01*
X61584819Y-68899999D02*
X61727676Y-68995237D01*
X61727676Y-68995237D02*
X61822914Y-69090475D01*
X61822914Y-69090475D02*
X61870533Y-69185713D01*
X186257142Y-64554819D02*
X185923809Y-64078628D01*
X185685714Y-64554819D02*
X185685714Y-63554819D01*
X185685714Y-63554819D02*
X186066666Y-63554819D01*
X186066666Y-63554819D02*
X186161904Y-63602438D01*
X186161904Y-63602438D02*
X186209523Y-63650057D01*
X186209523Y-63650057D02*
X186257142Y-63745295D01*
X186257142Y-63745295D02*
X186257142Y-63888152D01*
X186257142Y-63888152D02*
X186209523Y-63983390D01*
X186209523Y-63983390D02*
X186161904Y-64031009D01*
X186161904Y-64031009D02*
X186066666Y-64078628D01*
X186066666Y-64078628D02*
X185685714Y-64078628D01*
X186638095Y-63650057D02*
X186685714Y-63602438D01*
X186685714Y-63602438D02*
X186780952Y-63554819D01*
X186780952Y-63554819D02*
X187019047Y-63554819D01*
X187019047Y-63554819D02*
X187114285Y-63602438D01*
X187114285Y-63602438D02*
X187161904Y-63650057D01*
X187161904Y-63650057D02*
X187209523Y-63745295D01*
X187209523Y-63745295D02*
X187209523Y-63840533D01*
X187209523Y-63840533D02*
X187161904Y-63983390D01*
X187161904Y-63983390D02*
X186590476Y-64554819D01*
X186590476Y-64554819D02*
X187209523Y-64554819D01*
X187590476Y-63650057D02*
X187638095Y-63602438D01*
X187638095Y-63602438D02*
X187733333Y-63554819D01*
X187733333Y-63554819D02*
X187971428Y-63554819D01*
X187971428Y-63554819D02*
X188066666Y-63602438D01*
X188066666Y-63602438D02*
X188114285Y-63650057D01*
X188114285Y-63650057D02*
X188161904Y-63745295D01*
X188161904Y-63745295D02*
X188161904Y-63840533D01*
X188161904Y-63840533D02*
X188114285Y-63983390D01*
X188114285Y-63983390D02*
X187542857Y-64554819D01*
X187542857Y-64554819D02*
X188161904Y-64554819D01*
X138866666Y-30754819D02*
X138866666Y-31469104D01*
X138866666Y-31469104D02*
X138819047Y-31611961D01*
X138819047Y-31611961D02*
X138723809Y-31707200D01*
X138723809Y-31707200D02*
X138580952Y-31754819D01*
X138580952Y-31754819D02*
X138485714Y-31754819D01*
X139866666Y-31754819D02*
X139295238Y-31754819D01*
X139580952Y-31754819D02*
X139580952Y-30754819D01*
X139580952Y-30754819D02*
X139485714Y-30897676D01*
X139485714Y-30897676D02*
X139390476Y-30992914D01*
X139390476Y-30992914D02*
X139295238Y-31040533D01*
X215454819Y-69642857D02*
X214978628Y-69976190D01*
X215454819Y-70214285D02*
X214454819Y-70214285D01*
X214454819Y-70214285D02*
X214454819Y-69833333D01*
X214454819Y-69833333D02*
X214502438Y-69738095D01*
X214502438Y-69738095D02*
X214550057Y-69690476D01*
X214550057Y-69690476D02*
X214645295Y-69642857D01*
X214645295Y-69642857D02*
X214788152Y-69642857D01*
X214788152Y-69642857D02*
X214883390Y-69690476D01*
X214883390Y-69690476D02*
X214931009Y-69738095D01*
X214931009Y-69738095D02*
X214978628Y-69833333D01*
X214978628Y-69833333D02*
X214978628Y-70214285D01*
X214550057Y-69261904D02*
X214502438Y-69214285D01*
X214502438Y-69214285D02*
X214454819Y-69119047D01*
X214454819Y-69119047D02*
X214454819Y-68880952D01*
X214454819Y-68880952D02*
X214502438Y-68785714D01*
X214502438Y-68785714D02*
X214550057Y-68738095D01*
X214550057Y-68738095D02*
X214645295Y-68690476D01*
X214645295Y-68690476D02*
X214740533Y-68690476D01*
X214740533Y-68690476D02*
X214883390Y-68738095D01*
X214883390Y-68738095D02*
X215454819Y-69309523D01*
X215454819Y-69309523D02*
X215454819Y-68690476D01*
X214788152Y-67833333D02*
X215454819Y-67833333D01*
X214407200Y-68071428D02*
X215121485Y-68309523D01*
X215121485Y-68309523D02*
X215121485Y-67690476D01*
X114816666Y-61704819D02*
X114816666Y-62419104D01*
X114816666Y-62419104D02*
X114769047Y-62561961D01*
X114769047Y-62561961D02*
X114673809Y-62657200D01*
X114673809Y-62657200D02*
X114530952Y-62704819D01*
X114530952Y-62704819D02*
X114435714Y-62704819D01*
X115340476Y-62704819D02*
X115530952Y-62704819D01*
X115530952Y-62704819D02*
X115626190Y-62657200D01*
X115626190Y-62657200D02*
X115673809Y-62609580D01*
X115673809Y-62609580D02*
X115769047Y-62466723D01*
X115769047Y-62466723D02*
X115816666Y-62276247D01*
X115816666Y-62276247D02*
X115816666Y-61895295D01*
X115816666Y-61895295D02*
X115769047Y-61800057D01*
X115769047Y-61800057D02*
X115721428Y-61752438D01*
X115721428Y-61752438D02*
X115626190Y-61704819D01*
X115626190Y-61704819D02*
X115435714Y-61704819D01*
X115435714Y-61704819D02*
X115340476Y-61752438D01*
X115340476Y-61752438D02*
X115292857Y-61800057D01*
X115292857Y-61800057D02*
X115245238Y-61895295D01*
X115245238Y-61895295D02*
X115245238Y-62133390D01*
X115245238Y-62133390D02*
X115292857Y-62228628D01*
X115292857Y-62228628D02*
X115340476Y-62276247D01*
X115340476Y-62276247D02*
X115435714Y-62323866D01*
X115435714Y-62323866D02*
X115626190Y-62323866D01*
X115626190Y-62323866D02*
X115721428Y-62276247D01*
X115721428Y-62276247D02*
X115769047Y-62228628D01*
X115769047Y-62228628D02*
X115816666Y-62133390D01*
X96348095Y-72994819D02*
X96348095Y-73804342D01*
X96348095Y-73804342D02*
X96395714Y-73899580D01*
X96395714Y-73899580D02*
X96443333Y-73947200D01*
X96443333Y-73947200D02*
X96538571Y-73994819D01*
X96538571Y-73994819D02*
X96729047Y-73994819D01*
X96729047Y-73994819D02*
X96824285Y-73947200D01*
X96824285Y-73947200D02*
X96871904Y-73899580D01*
X96871904Y-73899580D02*
X96919523Y-73804342D01*
X96919523Y-73804342D02*
X96919523Y-72994819D01*
X97824285Y-73328152D02*
X97824285Y-73994819D01*
X97586190Y-72947200D02*
X97348095Y-73661485D01*
X97348095Y-73661485D02*
X97967142Y-73661485D01*
X82654819Y-63142857D02*
X82178628Y-63476190D01*
X82654819Y-63714285D02*
X81654819Y-63714285D01*
X81654819Y-63714285D02*
X81654819Y-63333333D01*
X81654819Y-63333333D02*
X81702438Y-63238095D01*
X81702438Y-63238095D02*
X81750057Y-63190476D01*
X81750057Y-63190476D02*
X81845295Y-63142857D01*
X81845295Y-63142857D02*
X81988152Y-63142857D01*
X81988152Y-63142857D02*
X82083390Y-63190476D01*
X82083390Y-63190476D02*
X82131009Y-63238095D01*
X82131009Y-63238095D02*
X82178628Y-63333333D01*
X82178628Y-63333333D02*
X82178628Y-63714285D01*
X82654819Y-62190476D02*
X82654819Y-62761904D01*
X82654819Y-62476190D02*
X81654819Y-62476190D01*
X81654819Y-62476190D02*
X81797676Y-62571428D01*
X81797676Y-62571428D02*
X81892914Y-62666666D01*
X81892914Y-62666666D02*
X81940533Y-62761904D01*
X81654819Y-61857142D02*
X81654819Y-61190476D01*
X81654819Y-61190476D02*
X82654819Y-61619047D01*
X222419580Y-48596666D02*
X222467200Y-48644285D01*
X222467200Y-48644285D02*
X222514819Y-48787142D01*
X222514819Y-48787142D02*
X222514819Y-48882380D01*
X222514819Y-48882380D02*
X222467200Y-49025237D01*
X222467200Y-49025237D02*
X222371961Y-49120475D01*
X222371961Y-49120475D02*
X222276723Y-49168094D01*
X222276723Y-49168094D02*
X222086247Y-49215713D01*
X222086247Y-49215713D02*
X221943390Y-49215713D01*
X221943390Y-49215713D02*
X221752914Y-49168094D01*
X221752914Y-49168094D02*
X221657676Y-49120475D01*
X221657676Y-49120475D02*
X221562438Y-49025237D01*
X221562438Y-49025237D02*
X221514819Y-48882380D01*
X221514819Y-48882380D02*
X221514819Y-48787142D01*
X221514819Y-48787142D02*
X221562438Y-48644285D01*
X221562438Y-48644285D02*
X221610057Y-48596666D01*
X221848152Y-47739523D02*
X222514819Y-47739523D01*
X221467200Y-47977618D02*
X222181485Y-48215713D01*
X222181485Y-48215713D02*
X222181485Y-47596666D01*
X201428095Y-48344819D02*
X201428095Y-49154342D01*
X201428095Y-49154342D02*
X201475714Y-49249580D01*
X201475714Y-49249580D02*
X201523333Y-49297200D01*
X201523333Y-49297200D02*
X201618571Y-49344819D01*
X201618571Y-49344819D02*
X201809047Y-49344819D01*
X201809047Y-49344819D02*
X201904285Y-49297200D01*
X201904285Y-49297200D02*
X201951904Y-49249580D01*
X201951904Y-49249580D02*
X201999523Y-49154342D01*
X201999523Y-49154342D02*
X201999523Y-48344819D01*
X202951904Y-48344819D02*
X202475714Y-48344819D01*
X202475714Y-48344819D02*
X202428095Y-48821009D01*
X202428095Y-48821009D02*
X202475714Y-48773390D01*
X202475714Y-48773390D02*
X202570952Y-48725771D01*
X202570952Y-48725771D02*
X202809047Y-48725771D01*
X202809047Y-48725771D02*
X202904285Y-48773390D01*
X202904285Y-48773390D02*
X202951904Y-48821009D01*
X202951904Y-48821009D02*
X202999523Y-48916247D01*
X202999523Y-48916247D02*
X202999523Y-49154342D01*
X202999523Y-49154342D02*
X202951904Y-49249580D01*
X202951904Y-49249580D02*
X202904285Y-49297200D01*
X202904285Y-49297200D02*
X202809047Y-49344819D01*
X202809047Y-49344819D02*
X202570952Y-49344819D01*
X202570952Y-49344819D02*
X202475714Y-49297200D01*
X202475714Y-49297200D02*
X202428095Y-49249580D01*
X192857142Y-56154819D02*
X192523809Y-55678628D01*
X192285714Y-56154819D02*
X192285714Y-55154819D01*
X192285714Y-55154819D02*
X192666666Y-55154819D01*
X192666666Y-55154819D02*
X192761904Y-55202438D01*
X192761904Y-55202438D02*
X192809523Y-55250057D01*
X192809523Y-55250057D02*
X192857142Y-55345295D01*
X192857142Y-55345295D02*
X192857142Y-55488152D01*
X192857142Y-55488152D02*
X192809523Y-55583390D01*
X192809523Y-55583390D02*
X192761904Y-55631009D01*
X192761904Y-55631009D02*
X192666666Y-55678628D01*
X192666666Y-55678628D02*
X192285714Y-55678628D01*
X193238095Y-55250057D02*
X193285714Y-55202438D01*
X193285714Y-55202438D02*
X193380952Y-55154819D01*
X193380952Y-55154819D02*
X193619047Y-55154819D01*
X193619047Y-55154819D02*
X193714285Y-55202438D01*
X193714285Y-55202438D02*
X193761904Y-55250057D01*
X193761904Y-55250057D02*
X193809523Y-55345295D01*
X193809523Y-55345295D02*
X193809523Y-55440533D01*
X193809523Y-55440533D02*
X193761904Y-55583390D01*
X193761904Y-55583390D02*
X193190476Y-56154819D01*
X193190476Y-56154819D02*
X193809523Y-56154819D01*
X194428571Y-55154819D02*
X194523809Y-55154819D01*
X194523809Y-55154819D02*
X194619047Y-55202438D01*
X194619047Y-55202438D02*
X194666666Y-55250057D01*
X194666666Y-55250057D02*
X194714285Y-55345295D01*
X194714285Y-55345295D02*
X194761904Y-55535771D01*
X194761904Y-55535771D02*
X194761904Y-55773866D01*
X194761904Y-55773866D02*
X194714285Y-55964342D01*
X194714285Y-55964342D02*
X194666666Y-56059580D01*
X194666666Y-56059580D02*
X194619047Y-56107200D01*
X194619047Y-56107200D02*
X194523809Y-56154819D01*
X194523809Y-56154819D02*
X194428571Y-56154819D01*
X194428571Y-56154819D02*
X194333333Y-56107200D01*
X194333333Y-56107200D02*
X194285714Y-56059580D01*
X194285714Y-56059580D02*
X194238095Y-55964342D01*
X194238095Y-55964342D02*
X194190476Y-55773866D01*
X194190476Y-55773866D02*
X194190476Y-55535771D01*
X194190476Y-55535771D02*
X194238095Y-55345295D01*
X194238095Y-55345295D02*
X194285714Y-55250057D01*
X194285714Y-55250057D02*
X194333333Y-55202438D01*
X194333333Y-55202438D02*
X194428571Y-55154819D01*
X54654819Y-55966666D02*
X54178628Y-56299999D01*
X54654819Y-56538094D02*
X53654819Y-56538094D01*
X53654819Y-56538094D02*
X53654819Y-56157142D01*
X53654819Y-56157142D02*
X53702438Y-56061904D01*
X53702438Y-56061904D02*
X53750057Y-56014285D01*
X53750057Y-56014285D02*
X53845295Y-55966666D01*
X53845295Y-55966666D02*
X53988152Y-55966666D01*
X53988152Y-55966666D02*
X54083390Y-56014285D01*
X54083390Y-56014285D02*
X54131009Y-56061904D01*
X54131009Y-56061904D02*
X54178628Y-56157142D01*
X54178628Y-56157142D02*
X54178628Y-56538094D01*
X53750057Y-55585713D02*
X53702438Y-55538094D01*
X53702438Y-55538094D02*
X53654819Y-55442856D01*
X53654819Y-55442856D02*
X53654819Y-55204761D01*
X53654819Y-55204761D02*
X53702438Y-55109523D01*
X53702438Y-55109523D02*
X53750057Y-55061904D01*
X53750057Y-55061904D02*
X53845295Y-55014285D01*
X53845295Y-55014285D02*
X53940533Y-55014285D01*
X53940533Y-55014285D02*
X54083390Y-55061904D01*
X54083390Y-55061904D02*
X54654819Y-55633332D01*
X54654819Y-55633332D02*
X54654819Y-55014285D01*
X54654819Y-58966666D02*
X54178628Y-59299999D01*
X54654819Y-59538094D02*
X53654819Y-59538094D01*
X53654819Y-59538094D02*
X53654819Y-59157142D01*
X53654819Y-59157142D02*
X53702438Y-59061904D01*
X53702438Y-59061904D02*
X53750057Y-59014285D01*
X53750057Y-59014285D02*
X53845295Y-58966666D01*
X53845295Y-58966666D02*
X53988152Y-58966666D01*
X53988152Y-58966666D02*
X54083390Y-59014285D01*
X54083390Y-59014285D02*
X54131009Y-59061904D01*
X54131009Y-59061904D02*
X54178628Y-59157142D01*
X54178628Y-59157142D02*
X54178628Y-59538094D01*
X53654819Y-58633332D02*
X53654819Y-58014285D01*
X53654819Y-58014285D02*
X54035771Y-58347618D01*
X54035771Y-58347618D02*
X54035771Y-58204761D01*
X54035771Y-58204761D02*
X54083390Y-58109523D01*
X54083390Y-58109523D02*
X54131009Y-58061904D01*
X54131009Y-58061904D02*
X54226247Y-58014285D01*
X54226247Y-58014285D02*
X54464342Y-58014285D01*
X54464342Y-58014285D02*
X54559580Y-58061904D01*
X54559580Y-58061904D02*
X54607200Y-58109523D01*
X54607200Y-58109523D02*
X54654819Y-58204761D01*
X54654819Y-58204761D02*
X54654819Y-58490475D01*
X54654819Y-58490475D02*
X54607200Y-58585713D01*
X54607200Y-58585713D02*
X54559580Y-58633332D01*
X54238095Y-30454819D02*
X54238095Y-29454819D01*
X54238095Y-29931009D02*
X54809523Y-29931009D01*
X54809523Y-30454819D02*
X54809523Y-29454819D01*
X55809523Y-30454819D02*
X55238095Y-30454819D01*
X55523809Y-30454819D02*
X55523809Y-29454819D01*
X55523809Y-29454819D02*
X55428571Y-29597676D01*
X55428571Y-29597676D02*
X55333333Y-29692914D01*
X55333333Y-29692914D02*
X55238095Y-29740533D01*
X246157142Y-59254819D02*
X245823809Y-58778628D01*
X245585714Y-59254819D02*
X245585714Y-58254819D01*
X245585714Y-58254819D02*
X245966666Y-58254819D01*
X245966666Y-58254819D02*
X246061904Y-58302438D01*
X246061904Y-58302438D02*
X246109523Y-58350057D01*
X246109523Y-58350057D02*
X246157142Y-58445295D01*
X246157142Y-58445295D02*
X246157142Y-58588152D01*
X246157142Y-58588152D02*
X246109523Y-58683390D01*
X246109523Y-58683390D02*
X246061904Y-58731009D01*
X246061904Y-58731009D02*
X245966666Y-58778628D01*
X245966666Y-58778628D02*
X245585714Y-58778628D01*
X246490476Y-58254819D02*
X247109523Y-58254819D01*
X247109523Y-58254819D02*
X246776190Y-58635771D01*
X246776190Y-58635771D02*
X246919047Y-58635771D01*
X246919047Y-58635771D02*
X247014285Y-58683390D01*
X247014285Y-58683390D02*
X247061904Y-58731009D01*
X247061904Y-58731009D02*
X247109523Y-58826247D01*
X247109523Y-58826247D02*
X247109523Y-59064342D01*
X247109523Y-59064342D02*
X247061904Y-59159580D01*
X247061904Y-59159580D02*
X247014285Y-59207200D01*
X247014285Y-59207200D02*
X246919047Y-59254819D01*
X246919047Y-59254819D02*
X246633333Y-59254819D01*
X246633333Y-59254819D02*
X246538095Y-59207200D01*
X246538095Y-59207200D02*
X246490476Y-59159580D01*
X247966666Y-58254819D02*
X247776190Y-58254819D01*
X247776190Y-58254819D02*
X247680952Y-58302438D01*
X247680952Y-58302438D02*
X247633333Y-58350057D01*
X247633333Y-58350057D02*
X247538095Y-58492914D01*
X247538095Y-58492914D02*
X247490476Y-58683390D01*
X247490476Y-58683390D02*
X247490476Y-59064342D01*
X247490476Y-59064342D02*
X247538095Y-59159580D01*
X247538095Y-59159580D02*
X247585714Y-59207200D01*
X247585714Y-59207200D02*
X247680952Y-59254819D01*
X247680952Y-59254819D02*
X247871428Y-59254819D01*
X247871428Y-59254819D02*
X247966666Y-59207200D01*
X247966666Y-59207200D02*
X248014285Y-59159580D01*
X248014285Y-59159580D02*
X248061904Y-59064342D01*
X248061904Y-59064342D02*
X248061904Y-58826247D01*
X248061904Y-58826247D02*
X248014285Y-58731009D01*
X248014285Y-58731009D02*
X247966666Y-58683390D01*
X247966666Y-58683390D02*
X247871428Y-58635771D01*
X247871428Y-58635771D02*
X247680952Y-58635771D01*
X247680952Y-58635771D02*
X247585714Y-58683390D01*
X247585714Y-58683390D02*
X247538095Y-58731009D01*
X247538095Y-58731009D02*
X247490476Y-58826247D01*
X82054819Y-59466666D02*
X81578628Y-59799999D01*
X82054819Y-60038094D02*
X81054819Y-60038094D01*
X81054819Y-60038094D02*
X81054819Y-59657142D01*
X81054819Y-59657142D02*
X81102438Y-59561904D01*
X81102438Y-59561904D02*
X81150057Y-59514285D01*
X81150057Y-59514285D02*
X81245295Y-59466666D01*
X81245295Y-59466666D02*
X81388152Y-59466666D01*
X81388152Y-59466666D02*
X81483390Y-59514285D01*
X81483390Y-59514285D02*
X81531009Y-59561904D01*
X81531009Y-59561904D02*
X81578628Y-59657142D01*
X81578628Y-59657142D02*
X81578628Y-60038094D01*
X81054819Y-59133332D02*
X81054819Y-58466666D01*
X81054819Y-58466666D02*
X82054819Y-58895237D01*
X244238095Y-90454819D02*
X244238095Y-89454819D01*
X244238095Y-89931009D02*
X244809523Y-89931009D01*
X244809523Y-90454819D02*
X244809523Y-89454819D01*
X245714285Y-89788152D02*
X245714285Y-90454819D01*
X245476190Y-89407200D02*
X245238095Y-90121485D01*
X245238095Y-90121485D02*
X245857142Y-90121485D01*
D11*
X168527419Y-44961904D02*
X169336942Y-44961904D01*
X169336942Y-44961904D02*
X169432180Y-44914285D01*
X169432180Y-44914285D02*
X169479800Y-44866666D01*
X169479800Y-44866666D02*
X169527419Y-44771428D01*
X169527419Y-44771428D02*
X169527419Y-44580952D01*
X169527419Y-44580952D02*
X169479800Y-44485714D01*
X169479800Y-44485714D02*
X169432180Y-44438095D01*
X169432180Y-44438095D02*
X169336942Y-44390476D01*
X169336942Y-44390476D02*
X168527419Y-44390476D01*
X168622657Y-43961904D02*
X168575038Y-43914285D01*
X168575038Y-43914285D02*
X168527419Y-43819047D01*
X168527419Y-43819047D02*
X168527419Y-43580952D01*
X168527419Y-43580952D02*
X168575038Y-43485714D01*
X168575038Y-43485714D02*
X168622657Y-43438095D01*
X168622657Y-43438095D02*
X168717895Y-43390476D01*
X168717895Y-43390476D02*
X168813133Y-43390476D01*
X168813133Y-43390476D02*
X168955990Y-43438095D01*
X168955990Y-43438095D02*
X169527419Y-44009523D01*
X169527419Y-44009523D02*
X169527419Y-43390476D01*
X148520038Y-33472306D02*
X148472419Y-33567544D01*
X148472419Y-33567544D02*
X148472419Y-33710401D01*
X148472419Y-33710401D02*
X148520038Y-33853258D01*
X148520038Y-33853258D02*
X148615276Y-33948496D01*
X148615276Y-33948496D02*
X148710514Y-33996115D01*
X148710514Y-33996115D02*
X148900990Y-34043734D01*
X148900990Y-34043734D02*
X149043847Y-34043734D01*
X149043847Y-34043734D02*
X149234323Y-33996115D01*
X149234323Y-33996115D02*
X149329561Y-33948496D01*
X149329561Y-33948496D02*
X149424800Y-33853258D01*
X149424800Y-33853258D02*
X149472419Y-33710401D01*
X149472419Y-33710401D02*
X149472419Y-33615163D01*
X149472419Y-33615163D02*
X149424800Y-33472306D01*
X149424800Y-33472306D02*
X149377180Y-33424687D01*
X149377180Y-33424687D02*
X149043847Y-33424687D01*
X149043847Y-33424687D02*
X149043847Y-33615163D01*
X149472419Y-32996115D02*
X148472419Y-32996115D01*
X148472419Y-32996115D02*
X149472419Y-32424687D01*
X149472419Y-32424687D02*
X148472419Y-32424687D01*
X149472419Y-31948496D02*
X148472419Y-31948496D01*
X148472419Y-31948496D02*
X148472419Y-31710401D01*
X148472419Y-31710401D02*
X148520038Y-31567544D01*
X148520038Y-31567544D02*
X148615276Y-31472306D01*
X148615276Y-31472306D02*
X148710514Y-31424687D01*
X148710514Y-31424687D02*
X148900990Y-31377068D01*
X148900990Y-31377068D02*
X149043847Y-31377068D01*
X149043847Y-31377068D02*
X149234323Y-31424687D01*
X149234323Y-31424687D02*
X149329561Y-31472306D01*
X149329561Y-31472306D02*
X149424800Y-31567544D01*
X149424800Y-31567544D02*
X149472419Y-31710401D01*
X149472419Y-31710401D02*
X149472419Y-31948496D01*
X167146704Y-45423734D02*
X167146704Y-44947544D01*
X167432419Y-45518972D02*
X166432419Y-45185639D01*
X166432419Y-45185639D02*
X167432419Y-44852306D01*
X167432419Y-44518972D02*
X166432419Y-44518972D01*
X166432419Y-44518972D02*
X167432419Y-43947544D01*
X167432419Y-43947544D02*
X166432419Y-43947544D01*
X166432419Y-43614210D02*
X166432419Y-43042782D01*
X167432419Y-43328496D02*
X166432419Y-43328496D01*
X156257657Y-51583734D02*
X156210038Y-51536115D01*
X156210038Y-51536115D02*
X156162419Y-51440877D01*
X156162419Y-51440877D02*
X156162419Y-51202782D01*
X156162419Y-51202782D02*
X156210038Y-51107544D01*
X156210038Y-51107544D02*
X156257657Y-51059925D01*
X156257657Y-51059925D02*
X156352895Y-51012306D01*
X156352895Y-51012306D02*
X156448133Y-51012306D01*
X156448133Y-51012306D02*
X156590990Y-51059925D01*
X156590990Y-51059925D02*
X157162419Y-51631353D01*
X157162419Y-51631353D02*
X157162419Y-51012306D01*
X156162419Y-50678972D02*
X156162419Y-50059925D01*
X156162419Y-50059925D02*
X156543371Y-50393258D01*
X156543371Y-50393258D02*
X156543371Y-50250401D01*
X156543371Y-50250401D02*
X156590990Y-50155163D01*
X156590990Y-50155163D02*
X156638609Y-50107544D01*
X156638609Y-50107544D02*
X156733847Y-50059925D01*
X156733847Y-50059925D02*
X156971942Y-50059925D01*
X156971942Y-50059925D02*
X157067180Y-50107544D01*
X157067180Y-50107544D02*
X157114800Y-50155163D01*
X157114800Y-50155163D02*
X157162419Y-50250401D01*
X157162419Y-50250401D02*
X157162419Y-50536115D01*
X157162419Y-50536115D02*
X157114800Y-50631353D01*
X157114800Y-50631353D02*
X157067180Y-50678972D01*
X146248609Y-33462782D02*
X146296228Y-33319925D01*
X146296228Y-33319925D02*
X146343847Y-33272306D01*
X146343847Y-33272306D02*
X146439085Y-33224687D01*
X146439085Y-33224687D02*
X146581942Y-33224687D01*
X146581942Y-33224687D02*
X146677180Y-33272306D01*
X146677180Y-33272306D02*
X146724800Y-33319925D01*
X146724800Y-33319925D02*
X146772419Y-33415163D01*
X146772419Y-33415163D02*
X146772419Y-33796115D01*
X146772419Y-33796115D02*
X145772419Y-33796115D01*
X145772419Y-33796115D02*
X145772419Y-33462782D01*
X145772419Y-33462782D02*
X145820038Y-33367544D01*
X145820038Y-33367544D02*
X145867657Y-33319925D01*
X145867657Y-33319925D02*
X145962895Y-33272306D01*
X145962895Y-33272306D02*
X146058133Y-33272306D01*
X146058133Y-33272306D02*
X146153371Y-33319925D01*
X146153371Y-33319925D02*
X146200990Y-33367544D01*
X146200990Y-33367544D02*
X146248609Y-33462782D01*
X146248609Y-33462782D02*
X146248609Y-33796115D01*
X146486704Y-32843734D02*
X146486704Y-32367544D01*
X146772419Y-32938972D02*
X145772419Y-32605639D01*
X145772419Y-32605639D02*
X146772419Y-32272306D01*
X145772419Y-32081829D02*
X145772419Y-31510401D01*
X146772419Y-31796115D02*
X145772419Y-31796115D01*
X148482419Y-51781353D02*
X148482419Y-51162306D01*
X148482419Y-51162306D02*
X148863371Y-51495639D01*
X148863371Y-51495639D02*
X148863371Y-51352782D01*
X148863371Y-51352782D02*
X148910990Y-51257544D01*
X148910990Y-51257544D02*
X148958609Y-51209925D01*
X148958609Y-51209925D02*
X149053847Y-51162306D01*
X149053847Y-51162306D02*
X149291942Y-51162306D01*
X149291942Y-51162306D02*
X149387180Y-51209925D01*
X149387180Y-51209925D02*
X149434800Y-51257544D01*
X149434800Y-51257544D02*
X149482419Y-51352782D01*
X149482419Y-51352782D02*
X149482419Y-51638496D01*
X149482419Y-51638496D02*
X149434800Y-51733734D01*
X149434800Y-51733734D02*
X149387180Y-51781353D01*
X149387180Y-50733734D02*
X149434800Y-50686115D01*
X149434800Y-50686115D02*
X149482419Y-50733734D01*
X149482419Y-50733734D02*
X149434800Y-50781353D01*
X149434800Y-50781353D02*
X149387180Y-50733734D01*
X149387180Y-50733734D02*
X149482419Y-50733734D01*
X148482419Y-50352782D02*
X148482419Y-49733735D01*
X148482419Y-49733735D02*
X148863371Y-50067068D01*
X148863371Y-50067068D02*
X148863371Y-49924211D01*
X148863371Y-49924211D02*
X148910990Y-49828973D01*
X148910990Y-49828973D02*
X148958609Y-49781354D01*
X148958609Y-49781354D02*
X149053847Y-49733735D01*
X149053847Y-49733735D02*
X149291942Y-49733735D01*
X149291942Y-49733735D02*
X149387180Y-49781354D01*
X149387180Y-49781354D02*
X149434800Y-49828973D01*
X149434800Y-49828973D02*
X149482419Y-49924211D01*
X149482419Y-49924211D02*
X149482419Y-50209925D01*
X149482419Y-50209925D02*
X149434800Y-50305163D01*
X149434800Y-50305163D02*
X149387180Y-50352782D01*
X148482419Y-49448020D02*
X149482419Y-49114687D01*
X149482419Y-49114687D02*
X148482419Y-48781354D01*
X154372419Y-33172306D02*
X154372419Y-33743734D01*
X154372419Y-33458020D02*
X153372419Y-33458020D01*
X153372419Y-33458020D02*
X153515276Y-33553258D01*
X153515276Y-33553258D02*
X153610514Y-33648496D01*
X153610514Y-33648496D02*
X153658133Y-33743734D01*
X153372419Y-32838972D02*
X153372419Y-32172306D01*
X153372419Y-32172306D02*
X154372419Y-32600877D01*
X161197657Y-51543734D02*
X161150038Y-51496115D01*
X161150038Y-51496115D02*
X161102419Y-51400877D01*
X161102419Y-51400877D02*
X161102419Y-51162782D01*
X161102419Y-51162782D02*
X161150038Y-51067544D01*
X161150038Y-51067544D02*
X161197657Y-51019925D01*
X161197657Y-51019925D02*
X161292895Y-50972306D01*
X161292895Y-50972306D02*
X161388133Y-50972306D01*
X161388133Y-50972306D02*
X161530990Y-51019925D01*
X161530990Y-51019925D02*
X162102419Y-51591353D01*
X162102419Y-51591353D02*
X162102419Y-50972306D01*
X162102419Y-50019925D02*
X162102419Y-50591353D01*
X162102419Y-50305639D02*
X161102419Y-50305639D01*
X161102419Y-50305639D02*
X161245276Y-50400877D01*
X161245276Y-50400877D02*
X161340514Y-50496115D01*
X161340514Y-50496115D02*
X161388133Y-50591353D01*
X163682419Y-51251353D02*
X163682419Y-50584687D01*
X163682419Y-50584687D02*
X164682419Y-51013258D01*
X145930038Y-51162306D02*
X145882419Y-51257544D01*
X145882419Y-51257544D02*
X145882419Y-51400401D01*
X145882419Y-51400401D02*
X145930038Y-51543258D01*
X145930038Y-51543258D02*
X146025276Y-51638496D01*
X146025276Y-51638496D02*
X146120514Y-51686115D01*
X146120514Y-51686115D02*
X146310990Y-51733734D01*
X146310990Y-51733734D02*
X146453847Y-51733734D01*
X146453847Y-51733734D02*
X146644323Y-51686115D01*
X146644323Y-51686115D02*
X146739561Y-51638496D01*
X146739561Y-51638496D02*
X146834800Y-51543258D01*
X146834800Y-51543258D02*
X146882419Y-51400401D01*
X146882419Y-51400401D02*
X146882419Y-51305163D01*
X146882419Y-51305163D02*
X146834800Y-51162306D01*
X146834800Y-51162306D02*
X146787180Y-51114687D01*
X146787180Y-51114687D02*
X146453847Y-51114687D01*
X146453847Y-51114687D02*
X146453847Y-51305163D01*
X146882419Y-50686115D02*
X145882419Y-50686115D01*
X145882419Y-50686115D02*
X146882419Y-50114687D01*
X146882419Y-50114687D02*
X145882419Y-50114687D01*
X146882419Y-49638496D02*
X145882419Y-49638496D01*
X145882419Y-49638496D02*
X145882419Y-49400401D01*
X145882419Y-49400401D02*
X145930038Y-49257544D01*
X145930038Y-49257544D02*
X146025276Y-49162306D01*
X146025276Y-49162306D02*
X146120514Y-49114687D01*
X146120514Y-49114687D02*
X146310990Y-49067068D01*
X146310990Y-49067068D02*
X146453847Y-49067068D01*
X146453847Y-49067068D02*
X146644323Y-49114687D01*
X146644323Y-49114687D02*
X146739561Y-49162306D01*
X146739561Y-49162306D02*
X146834800Y-49257544D01*
X146834800Y-49257544D02*
X146882419Y-49400401D01*
X146882419Y-49400401D02*
X146882419Y-49638496D01*
X161167657Y-32343734D02*
X161120038Y-32296115D01*
X161120038Y-32296115D02*
X161072419Y-32200877D01*
X161072419Y-32200877D02*
X161072419Y-31962782D01*
X161072419Y-31962782D02*
X161120038Y-31867544D01*
X161120038Y-31867544D02*
X161167657Y-31819925D01*
X161167657Y-31819925D02*
X161262895Y-31772306D01*
X161262895Y-31772306D02*
X161358133Y-31772306D01*
X161358133Y-31772306D02*
X161500990Y-31819925D01*
X161500990Y-31819925D02*
X162072419Y-32391353D01*
X162072419Y-32391353D02*
X162072419Y-31772306D01*
X161072419Y-31153258D02*
X161072419Y-31058020D01*
X161072419Y-31058020D02*
X161120038Y-30962782D01*
X161120038Y-30962782D02*
X161167657Y-30915163D01*
X161167657Y-30915163D02*
X161262895Y-30867544D01*
X161262895Y-30867544D02*
X161453371Y-30819925D01*
X161453371Y-30819925D02*
X161691466Y-30819925D01*
X161691466Y-30819925D02*
X161881942Y-30867544D01*
X161881942Y-30867544D02*
X161977180Y-30915163D01*
X161977180Y-30915163D02*
X162024800Y-30962782D01*
X162024800Y-30962782D02*
X162072419Y-31058020D01*
X162072419Y-31058020D02*
X162072419Y-31153258D01*
X162072419Y-31153258D02*
X162024800Y-31248496D01*
X162024800Y-31248496D02*
X161977180Y-31296115D01*
X161977180Y-31296115D02*
X161881942Y-31343734D01*
X161881942Y-31343734D02*
X161691466Y-31391353D01*
X161691466Y-31391353D02*
X161453371Y-31391353D01*
X161453371Y-31391353D02*
X161262895Y-31343734D01*
X161262895Y-31343734D02*
X161167657Y-31296115D01*
X161167657Y-31296115D02*
X161120038Y-31248496D01*
X161120038Y-31248496D02*
X161072419Y-31153258D01*
X153702419Y-50479925D02*
X153702419Y-50956115D01*
X153702419Y-50956115D02*
X154178609Y-51003734D01*
X154178609Y-51003734D02*
X154130990Y-50956115D01*
X154130990Y-50956115D02*
X154083371Y-50860877D01*
X154083371Y-50860877D02*
X154083371Y-50622782D01*
X154083371Y-50622782D02*
X154130990Y-50527544D01*
X154130990Y-50527544D02*
X154178609Y-50479925D01*
X154178609Y-50479925D02*
X154273847Y-50432306D01*
X154273847Y-50432306D02*
X154511942Y-50432306D01*
X154511942Y-50432306D02*
X154607180Y-50479925D01*
X154607180Y-50479925D02*
X154654800Y-50527544D01*
X154654800Y-50527544D02*
X154702419Y-50622782D01*
X154702419Y-50622782D02*
X154702419Y-50860877D01*
X154702419Y-50860877D02*
X154654800Y-50956115D01*
X154654800Y-50956115D02*
X154607180Y-51003734D01*
X150772419Y-33938972D02*
X151772419Y-33605639D01*
X151772419Y-33605639D02*
X150772419Y-33272306D01*
X151772419Y-32938972D02*
X150772419Y-32938972D01*
X151772419Y-32462782D02*
X150772419Y-32462782D01*
X150772419Y-32462782D02*
X151772419Y-31891354D01*
X151772419Y-31891354D02*
X150772419Y-31891354D01*
X156992419Y-31892306D02*
X156992419Y-32463734D01*
X156992419Y-32178020D02*
X155992419Y-32178020D01*
X155992419Y-32178020D02*
X156135276Y-32273258D01*
X156135276Y-32273258D02*
X156230514Y-32368496D01*
X156230514Y-32368496D02*
X156278133Y-32463734D01*
X155992419Y-31035163D02*
X155992419Y-31225639D01*
X155992419Y-31225639D02*
X156040038Y-31320877D01*
X156040038Y-31320877D02*
X156087657Y-31368496D01*
X156087657Y-31368496D02*
X156230514Y-31463734D01*
X156230514Y-31463734D02*
X156420990Y-31511353D01*
X156420990Y-31511353D02*
X156801942Y-31511353D01*
X156801942Y-31511353D02*
X156897180Y-31463734D01*
X156897180Y-31463734D02*
X156944800Y-31416115D01*
X156944800Y-31416115D02*
X156992419Y-31320877D01*
X156992419Y-31320877D02*
X156992419Y-31130401D01*
X156992419Y-31130401D02*
X156944800Y-31035163D01*
X156944800Y-31035163D02*
X156897180Y-30987544D01*
X156897180Y-30987544D02*
X156801942Y-30939925D01*
X156801942Y-30939925D02*
X156563847Y-30939925D01*
X156563847Y-30939925D02*
X156468609Y-30987544D01*
X156468609Y-30987544D02*
X156420990Y-31035163D01*
X156420990Y-31035163D02*
X156373371Y-31130401D01*
X156373371Y-31130401D02*
X156373371Y-31320877D01*
X156373371Y-31320877D02*
X156420990Y-31416115D01*
X156420990Y-31416115D02*
X156468609Y-31463734D01*
X156468609Y-31463734D02*
X156563847Y-31511353D01*
X159512419Y-31872306D02*
X159512419Y-32443734D01*
X159512419Y-32158020D02*
X158512419Y-32158020D01*
X158512419Y-32158020D02*
X158655276Y-32253258D01*
X158655276Y-32253258D02*
X158750514Y-32348496D01*
X158750514Y-32348496D02*
X158798133Y-32443734D01*
X159512419Y-31396115D02*
X159512419Y-31205639D01*
X159512419Y-31205639D02*
X159464800Y-31110401D01*
X159464800Y-31110401D02*
X159417180Y-31062782D01*
X159417180Y-31062782D02*
X159274323Y-30967544D01*
X159274323Y-30967544D02*
X159083847Y-30919925D01*
X159083847Y-30919925D02*
X158702895Y-30919925D01*
X158702895Y-30919925D02*
X158607657Y-30967544D01*
X158607657Y-30967544D02*
X158560038Y-31015163D01*
X158560038Y-31015163D02*
X158512419Y-31110401D01*
X158512419Y-31110401D02*
X158512419Y-31300877D01*
X158512419Y-31300877D02*
X158560038Y-31396115D01*
X158560038Y-31396115D02*
X158607657Y-31443734D01*
X158607657Y-31443734D02*
X158702895Y-31491353D01*
X158702895Y-31491353D02*
X158940990Y-31491353D01*
X158940990Y-31491353D02*
X159036228Y-31443734D01*
X159036228Y-31443734D02*
X159083847Y-31396115D01*
X159083847Y-31396115D02*
X159131466Y-31300877D01*
X159131466Y-31300877D02*
X159131466Y-31110401D01*
X159131466Y-31110401D02*
X159083847Y-31015163D01*
X159083847Y-31015163D02*
X159036228Y-30967544D01*
X159036228Y-30967544D02*
X158940990Y-30919925D01*
X151485752Y-50627544D02*
X152152419Y-50627544D01*
X151104800Y-50865639D02*
X151819085Y-51103734D01*
X151819085Y-51103734D02*
X151819085Y-50484687D01*
X158647657Y-51563734D02*
X158600038Y-51516115D01*
X158600038Y-51516115D02*
X158552419Y-51420877D01*
X158552419Y-51420877D02*
X158552419Y-51182782D01*
X158552419Y-51182782D02*
X158600038Y-51087544D01*
X158600038Y-51087544D02*
X158647657Y-51039925D01*
X158647657Y-51039925D02*
X158742895Y-50992306D01*
X158742895Y-50992306D02*
X158838133Y-50992306D01*
X158838133Y-50992306D02*
X158980990Y-51039925D01*
X158980990Y-51039925D02*
X159552419Y-51611353D01*
X159552419Y-51611353D02*
X159552419Y-50992306D01*
X158647657Y-50611353D02*
X158600038Y-50563734D01*
X158600038Y-50563734D02*
X158552419Y-50468496D01*
X158552419Y-50468496D02*
X158552419Y-50230401D01*
X158552419Y-50230401D02*
X158600038Y-50135163D01*
X158600038Y-50135163D02*
X158647657Y-50087544D01*
X158647657Y-50087544D02*
X158742895Y-50039925D01*
X158742895Y-50039925D02*
X158838133Y-50039925D01*
X158838133Y-50039925D02*
X158980990Y-50087544D01*
X158980990Y-50087544D02*
X159552419Y-50658972D01*
X159552419Y-50658972D02*
X159552419Y-50039925D01*
X163592419Y-31487544D02*
X163592419Y-31678020D01*
X163592419Y-31678020D02*
X163640038Y-31773258D01*
X163640038Y-31773258D02*
X163687657Y-31820877D01*
X163687657Y-31820877D02*
X163830514Y-31916115D01*
X163830514Y-31916115D02*
X164020990Y-31963734D01*
X164020990Y-31963734D02*
X164401942Y-31963734D01*
X164401942Y-31963734D02*
X164497180Y-31916115D01*
X164497180Y-31916115D02*
X164544800Y-31868496D01*
X164544800Y-31868496D02*
X164592419Y-31773258D01*
X164592419Y-31773258D02*
X164592419Y-31582782D01*
X164592419Y-31582782D02*
X164544800Y-31487544D01*
X164544800Y-31487544D02*
X164497180Y-31439925D01*
X164497180Y-31439925D02*
X164401942Y-31392306D01*
X164401942Y-31392306D02*
X164163847Y-31392306D01*
X164163847Y-31392306D02*
X164068609Y-31439925D01*
X164068609Y-31439925D02*
X164020990Y-31487544D01*
X164020990Y-31487544D02*
X163973371Y-31582782D01*
X163973371Y-31582782D02*
X163973371Y-31773258D01*
X163973371Y-31773258D02*
X164020990Y-31868496D01*
X164020990Y-31868496D02*
X164068609Y-31916115D01*
X164068609Y-31916115D02*
X164163847Y-31963734D01*
D10*
X238490476Y-50184819D02*
X238490476Y-50899104D01*
X238490476Y-50899104D02*
X238442857Y-51041961D01*
X238442857Y-51041961D02*
X238347619Y-51137200D01*
X238347619Y-51137200D02*
X238204762Y-51184819D01*
X238204762Y-51184819D02*
X238109524Y-51184819D01*
X239490476Y-51184819D02*
X238919048Y-51184819D01*
X239204762Y-51184819D02*
X239204762Y-50184819D01*
X239204762Y-50184819D02*
X239109524Y-50327676D01*
X239109524Y-50327676D02*
X239014286Y-50422914D01*
X239014286Y-50422914D02*
X238919048Y-50470533D01*
X240442857Y-51184819D02*
X239871429Y-51184819D01*
X240157143Y-51184819D02*
X240157143Y-50184819D01*
X240157143Y-50184819D02*
X240061905Y-50327676D01*
X240061905Y-50327676D02*
X239966667Y-50422914D01*
X239966667Y-50422914D02*
X239871429Y-50470533D01*
X210457142Y-56254819D02*
X210123809Y-55778628D01*
X209885714Y-56254819D02*
X209885714Y-55254819D01*
X209885714Y-55254819D02*
X210266666Y-55254819D01*
X210266666Y-55254819D02*
X210361904Y-55302438D01*
X210361904Y-55302438D02*
X210409523Y-55350057D01*
X210409523Y-55350057D02*
X210457142Y-55445295D01*
X210457142Y-55445295D02*
X210457142Y-55588152D01*
X210457142Y-55588152D02*
X210409523Y-55683390D01*
X210409523Y-55683390D02*
X210361904Y-55731009D01*
X210361904Y-55731009D02*
X210266666Y-55778628D01*
X210266666Y-55778628D02*
X209885714Y-55778628D01*
X210838095Y-55350057D02*
X210885714Y-55302438D01*
X210885714Y-55302438D02*
X210980952Y-55254819D01*
X210980952Y-55254819D02*
X211219047Y-55254819D01*
X211219047Y-55254819D02*
X211314285Y-55302438D01*
X211314285Y-55302438D02*
X211361904Y-55350057D01*
X211361904Y-55350057D02*
X211409523Y-55445295D01*
X211409523Y-55445295D02*
X211409523Y-55540533D01*
X211409523Y-55540533D02*
X211361904Y-55683390D01*
X211361904Y-55683390D02*
X210790476Y-56254819D01*
X210790476Y-56254819D02*
X211409523Y-56254819D01*
X211742857Y-55254819D02*
X212409523Y-55254819D01*
X212409523Y-55254819D02*
X211980952Y-56254819D01*
X134233333Y-30009580D02*
X134185714Y-30057200D01*
X134185714Y-30057200D02*
X134042857Y-30104819D01*
X134042857Y-30104819D02*
X133947619Y-30104819D01*
X133947619Y-30104819D02*
X133804762Y-30057200D01*
X133804762Y-30057200D02*
X133709524Y-29961961D01*
X133709524Y-29961961D02*
X133661905Y-29866723D01*
X133661905Y-29866723D02*
X133614286Y-29676247D01*
X133614286Y-29676247D02*
X133614286Y-29533390D01*
X133614286Y-29533390D02*
X133661905Y-29342914D01*
X133661905Y-29342914D02*
X133709524Y-29247676D01*
X133709524Y-29247676D02*
X133804762Y-29152438D01*
X133804762Y-29152438D02*
X133947619Y-29104819D01*
X133947619Y-29104819D02*
X134042857Y-29104819D01*
X134042857Y-29104819D02*
X134185714Y-29152438D01*
X134185714Y-29152438D02*
X134233333Y-29200057D01*
X135138095Y-29104819D02*
X134661905Y-29104819D01*
X134661905Y-29104819D02*
X134614286Y-29581009D01*
X134614286Y-29581009D02*
X134661905Y-29533390D01*
X134661905Y-29533390D02*
X134757143Y-29485771D01*
X134757143Y-29485771D02*
X134995238Y-29485771D01*
X134995238Y-29485771D02*
X135090476Y-29533390D01*
X135090476Y-29533390D02*
X135138095Y-29581009D01*
X135138095Y-29581009D02*
X135185714Y-29676247D01*
X135185714Y-29676247D02*
X135185714Y-29914342D01*
X135185714Y-29914342D02*
X135138095Y-30009580D01*
X135138095Y-30009580D02*
X135090476Y-30057200D01*
X135090476Y-30057200D02*
X134995238Y-30104819D01*
X134995238Y-30104819D02*
X134757143Y-30104819D01*
X134757143Y-30104819D02*
X134661905Y-30057200D01*
X134661905Y-30057200D02*
X134614286Y-30009580D01*
X106909580Y-73866666D02*
X106957200Y-73914285D01*
X106957200Y-73914285D02*
X107004819Y-74057142D01*
X107004819Y-74057142D02*
X107004819Y-74152380D01*
X107004819Y-74152380D02*
X106957200Y-74295237D01*
X106957200Y-74295237D02*
X106861961Y-74390475D01*
X106861961Y-74390475D02*
X106766723Y-74438094D01*
X106766723Y-74438094D02*
X106576247Y-74485713D01*
X106576247Y-74485713D02*
X106433390Y-74485713D01*
X106433390Y-74485713D02*
X106242914Y-74438094D01*
X106242914Y-74438094D02*
X106147676Y-74390475D01*
X106147676Y-74390475D02*
X106052438Y-74295237D01*
X106052438Y-74295237D02*
X106004819Y-74152380D01*
X106004819Y-74152380D02*
X106004819Y-74057142D01*
X106004819Y-74057142D02*
X106052438Y-73914285D01*
X106052438Y-73914285D02*
X106100057Y-73866666D01*
X106100057Y-73485713D02*
X106052438Y-73438094D01*
X106052438Y-73438094D02*
X106004819Y-73342856D01*
X106004819Y-73342856D02*
X106004819Y-73104761D01*
X106004819Y-73104761D02*
X106052438Y-73009523D01*
X106052438Y-73009523D02*
X106100057Y-72961904D01*
X106100057Y-72961904D02*
X106195295Y-72914285D01*
X106195295Y-72914285D02*
X106290533Y-72914285D01*
X106290533Y-72914285D02*
X106433390Y-72961904D01*
X106433390Y-72961904D02*
X107004819Y-73533332D01*
X107004819Y-73533332D02*
X107004819Y-72914285D01*
X106057142Y-44654819D02*
X105723809Y-44178628D01*
X105485714Y-44654819D02*
X105485714Y-43654819D01*
X105485714Y-43654819D02*
X105866666Y-43654819D01*
X105866666Y-43654819D02*
X105961904Y-43702438D01*
X105961904Y-43702438D02*
X106009523Y-43750057D01*
X106009523Y-43750057D02*
X106057142Y-43845295D01*
X106057142Y-43845295D02*
X106057142Y-43988152D01*
X106057142Y-43988152D02*
X106009523Y-44083390D01*
X106009523Y-44083390D02*
X105961904Y-44131009D01*
X105961904Y-44131009D02*
X105866666Y-44178628D01*
X105866666Y-44178628D02*
X105485714Y-44178628D01*
X107009523Y-44654819D02*
X106438095Y-44654819D01*
X106723809Y-44654819D02*
X106723809Y-43654819D01*
X106723809Y-43654819D02*
X106628571Y-43797676D01*
X106628571Y-43797676D02*
X106533333Y-43892914D01*
X106533333Y-43892914D02*
X106438095Y-43940533D01*
X107628571Y-43654819D02*
X107723809Y-43654819D01*
X107723809Y-43654819D02*
X107819047Y-43702438D01*
X107819047Y-43702438D02*
X107866666Y-43750057D01*
X107866666Y-43750057D02*
X107914285Y-43845295D01*
X107914285Y-43845295D02*
X107961904Y-44035771D01*
X107961904Y-44035771D02*
X107961904Y-44273866D01*
X107961904Y-44273866D02*
X107914285Y-44464342D01*
X107914285Y-44464342D02*
X107866666Y-44559580D01*
X107866666Y-44559580D02*
X107819047Y-44607200D01*
X107819047Y-44607200D02*
X107723809Y-44654819D01*
X107723809Y-44654819D02*
X107628571Y-44654819D01*
X107628571Y-44654819D02*
X107533333Y-44607200D01*
X107533333Y-44607200D02*
X107485714Y-44559580D01*
X107485714Y-44559580D02*
X107438095Y-44464342D01*
X107438095Y-44464342D02*
X107390476Y-44273866D01*
X107390476Y-44273866D02*
X107390476Y-44035771D01*
X107390476Y-44035771D02*
X107438095Y-43845295D01*
X107438095Y-43845295D02*
X107485714Y-43750057D01*
X107485714Y-43750057D02*
X107533333Y-43702438D01*
X107533333Y-43702438D02*
X107628571Y-43654819D01*
X186257142Y-61454819D02*
X185923809Y-60978628D01*
X185685714Y-61454819D02*
X185685714Y-60454819D01*
X185685714Y-60454819D02*
X186066666Y-60454819D01*
X186066666Y-60454819D02*
X186161904Y-60502438D01*
X186161904Y-60502438D02*
X186209523Y-60550057D01*
X186209523Y-60550057D02*
X186257142Y-60645295D01*
X186257142Y-60645295D02*
X186257142Y-60788152D01*
X186257142Y-60788152D02*
X186209523Y-60883390D01*
X186209523Y-60883390D02*
X186161904Y-60931009D01*
X186161904Y-60931009D02*
X186066666Y-60978628D01*
X186066666Y-60978628D02*
X185685714Y-60978628D01*
X186638095Y-60550057D02*
X186685714Y-60502438D01*
X186685714Y-60502438D02*
X186780952Y-60454819D01*
X186780952Y-60454819D02*
X187019047Y-60454819D01*
X187019047Y-60454819D02*
X187114285Y-60502438D01*
X187114285Y-60502438D02*
X187161904Y-60550057D01*
X187161904Y-60550057D02*
X187209523Y-60645295D01*
X187209523Y-60645295D02*
X187209523Y-60740533D01*
X187209523Y-60740533D02*
X187161904Y-60883390D01*
X187161904Y-60883390D02*
X186590476Y-61454819D01*
X186590476Y-61454819D02*
X187209523Y-61454819D01*
X188161904Y-61454819D02*
X187590476Y-61454819D01*
X187876190Y-61454819D02*
X187876190Y-60454819D01*
X187876190Y-60454819D02*
X187780952Y-60597676D01*
X187780952Y-60597676D02*
X187685714Y-60692914D01*
X187685714Y-60692914D02*
X187590476Y-60740533D01*
X124290476Y-34854819D02*
X124290476Y-35569104D01*
X124290476Y-35569104D02*
X124242857Y-35711961D01*
X124242857Y-35711961D02*
X124147619Y-35807200D01*
X124147619Y-35807200D02*
X124004762Y-35854819D01*
X124004762Y-35854819D02*
X123909524Y-35854819D01*
X125290476Y-35854819D02*
X124719048Y-35854819D01*
X125004762Y-35854819D02*
X125004762Y-34854819D01*
X125004762Y-34854819D02*
X124909524Y-34997676D01*
X124909524Y-34997676D02*
X124814286Y-35092914D01*
X124814286Y-35092914D02*
X124719048Y-35140533D01*
X125623810Y-34854819D02*
X126242857Y-34854819D01*
X126242857Y-34854819D02*
X125909524Y-35235771D01*
X125909524Y-35235771D02*
X126052381Y-35235771D01*
X126052381Y-35235771D02*
X126147619Y-35283390D01*
X126147619Y-35283390D02*
X126195238Y-35331009D01*
X126195238Y-35331009D02*
X126242857Y-35426247D01*
X126242857Y-35426247D02*
X126242857Y-35664342D01*
X126242857Y-35664342D02*
X126195238Y-35759580D01*
X126195238Y-35759580D02*
X126147619Y-35807200D01*
X126147619Y-35807200D02*
X126052381Y-35854819D01*
X126052381Y-35854819D02*
X125766667Y-35854819D01*
X125766667Y-35854819D02*
X125671429Y-35807200D01*
X125671429Y-35807200D02*
X125623810Y-35759580D01*
X158590476Y-90754819D02*
X158590476Y-91469104D01*
X158590476Y-91469104D02*
X158542857Y-91611961D01*
X158542857Y-91611961D02*
X158447619Y-91707200D01*
X158447619Y-91707200D02*
X158304762Y-91754819D01*
X158304762Y-91754819D02*
X158209524Y-91754819D01*
X159590476Y-91754819D02*
X159019048Y-91754819D01*
X159304762Y-91754819D02*
X159304762Y-90754819D01*
X159304762Y-90754819D02*
X159209524Y-90897676D01*
X159209524Y-90897676D02*
X159114286Y-90992914D01*
X159114286Y-90992914D02*
X159019048Y-91040533D01*
X159971429Y-90850057D02*
X160019048Y-90802438D01*
X160019048Y-90802438D02*
X160114286Y-90754819D01*
X160114286Y-90754819D02*
X160352381Y-90754819D01*
X160352381Y-90754819D02*
X160447619Y-90802438D01*
X160447619Y-90802438D02*
X160495238Y-90850057D01*
X160495238Y-90850057D02*
X160542857Y-90945295D01*
X160542857Y-90945295D02*
X160542857Y-91040533D01*
X160542857Y-91040533D02*
X160495238Y-91183390D01*
X160495238Y-91183390D02*
X159923810Y-91754819D01*
X159923810Y-91754819D02*
X160542857Y-91754819D01*
X217854819Y-67642857D02*
X217378628Y-67976190D01*
X217854819Y-68214285D02*
X216854819Y-68214285D01*
X216854819Y-68214285D02*
X216854819Y-67833333D01*
X216854819Y-67833333D02*
X216902438Y-67738095D01*
X216902438Y-67738095D02*
X216950057Y-67690476D01*
X216950057Y-67690476D02*
X217045295Y-67642857D01*
X217045295Y-67642857D02*
X217188152Y-67642857D01*
X217188152Y-67642857D02*
X217283390Y-67690476D01*
X217283390Y-67690476D02*
X217331009Y-67738095D01*
X217331009Y-67738095D02*
X217378628Y-67833333D01*
X217378628Y-67833333D02*
X217378628Y-68214285D01*
X216854819Y-67309523D02*
X216854819Y-66690476D01*
X216854819Y-66690476D02*
X217235771Y-67023809D01*
X217235771Y-67023809D02*
X217235771Y-66880952D01*
X217235771Y-66880952D02*
X217283390Y-66785714D01*
X217283390Y-66785714D02*
X217331009Y-66738095D01*
X217331009Y-66738095D02*
X217426247Y-66690476D01*
X217426247Y-66690476D02*
X217664342Y-66690476D01*
X217664342Y-66690476D02*
X217759580Y-66738095D01*
X217759580Y-66738095D02*
X217807200Y-66785714D01*
X217807200Y-66785714D02*
X217854819Y-66880952D01*
X217854819Y-66880952D02*
X217854819Y-67166666D01*
X217854819Y-67166666D02*
X217807200Y-67261904D01*
X217807200Y-67261904D02*
X217759580Y-67309523D01*
X216950057Y-66309523D02*
X216902438Y-66261904D01*
X216902438Y-66261904D02*
X216854819Y-66166666D01*
X216854819Y-66166666D02*
X216854819Y-65928571D01*
X216854819Y-65928571D02*
X216902438Y-65833333D01*
X216902438Y-65833333D02*
X216950057Y-65785714D01*
X216950057Y-65785714D02*
X217045295Y-65738095D01*
X217045295Y-65738095D02*
X217140533Y-65738095D01*
X217140533Y-65738095D02*
X217283390Y-65785714D01*
X217283390Y-65785714D02*
X217854819Y-66357142D01*
X217854819Y-66357142D02*
X217854819Y-65738095D01*
X87757142Y-54554819D02*
X87423809Y-54078628D01*
X87185714Y-54554819D02*
X87185714Y-53554819D01*
X87185714Y-53554819D02*
X87566666Y-53554819D01*
X87566666Y-53554819D02*
X87661904Y-53602438D01*
X87661904Y-53602438D02*
X87709523Y-53650057D01*
X87709523Y-53650057D02*
X87757142Y-53745295D01*
X87757142Y-53745295D02*
X87757142Y-53888152D01*
X87757142Y-53888152D02*
X87709523Y-53983390D01*
X87709523Y-53983390D02*
X87661904Y-54031009D01*
X87661904Y-54031009D02*
X87566666Y-54078628D01*
X87566666Y-54078628D02*
X87185714Y-54078628D01*
X88709523Y-54554819D02*
X88138095Y-54554819D01*
X88423809Y-54554819D02*
X88423809Y-53554819D01*
X88423809Y-53554819D02*
X88328571Y-53697676D01*
X88328571Y-53697676D02*
X88233333Y-53792914D01*
X88233333Y-53792914D02*
X88138095Y-53840533D01*
X89614285Y-53554819D02*
X89138095Y-53554819D01*
X89138095Y-53554819D02*
X89090476Y-54031009D01*
X89090476Y-54031009D02*
X89138095Y-53983390D01*
X89138095Y-53983390D02*
X89233333Y-53935771D01*
X89233333Y-53935771D02*
X89471428Y-53935771D01*
X89471428Y-53935771D02*
X89566666Y-53983390D01*
X89566666Y-53983390D02*
X89614285Y-54031009D01*
X89614285Y-54031009D02*
X89661904Y-54126247D01*
X89661904Y-54126247D02*
X89661904Y-54364342D01*
X89661904Y-54364342D02*
X89614285Y-54459580D01*
X89614285Y-54459580D02*
X89566666Y-54507200D01*
X89566666Y-54507200D02*
X89471428Y-54554819D01*
X89471428Y-54554819D02*
X89233333Y-54554819D01*
X89233333Y-54554819D02*
X89138095Y-54507200D01*
X89138095Y-54507200D02*
X89090476Y-54459580D01*
X196454819Y-72342857D02*
X195978628Y-72676190D01*
X196454819Y-72914285D02*
X195454819Y-72914285D01*
X195454819Y-72914285D02*
X195454819Y-72533333D01*
X195454819Y-72533333D02*
X195502438Y-72438095D01*
X195502438Y-72438095D02*
X195550057Y-72390476D01*
X195550057Y-72390476D02*
X195645295Y-72342857D01*
X195645295Y-72342857D02*
X195788152Y-72342857D01*
X195788152Y-72342857D02*
X195883390Y-72390476D01*
X195883390Y-72390476D02*
X195931009Y-72438095D01*
X195931009Y-72438095D02*
X195978628Y-72533333D01*
X195978628Y-72533333D02*
X195978628Y-72914285D01*
X196454819Y-71390476D02*
X196454819Y-71961904D01*
X196454819Y-71676190D02*
X195454819Y-71676190D01*
X195454819Y-71676190D02*
X195597676Y-71771428D01*
X195597676Y-71771428D02*
X195692914Y-71866666D01*
X195692914Y-71866666D02*
X195740533Y-71961904D01*
X196454819Y-70914285D02*
X196454819Y-70723809D01*
X196454819Y-70723809D02*
X196407200Y-70628571D01*
X196407200Y-70628571D02*
X196359580Y-70580952D01*
X196359580Y-70580952D02*
X196216723Y-70485714D01*
X196216723Y-70485714D02*
X196026247Y-70438095D01*
X196026247Y-70438095D02*
X195645295Y-70438095D01*
X195645295Y-70438095D02*
X195550057Y-70485714D01*
X195550057Y-70485714D02*
X195502438Y-70533333D01*
X195502438Y-70533333D02*
X195454819Y-70628571D01*
X195454819Y-70628571D02*
X195454819Y-70819047D01*
X195454819Y-70819047D02*
X195502438Y-70914285D01*
X195502438Y-70914285D02*
X195550057Y-70961904D01*
X195550057Y-70961904D02*
X195645295Y-71009523D01*
X195645295Y-71009523D02*
X195883390Y-71009523D01*
X195883390Y-71009523D02*
X195978628Y-70961904D01*
X195978628Y-70961904D02*
X196026247Y-70914285D01*
X196026247Y-70914285D02*
X196073866Y-70819047D01*
X196073866Y-70819047D02*
X196073866Y-70628571D01*
X196073866Y-70628571D02*
X196026247Y-70533333D01*
X196026247Y-70533333D02*
X195978628Y-70485714D01*
X195978628Y-70485714D02*
X195883390Y-70438095D01*
X119166666Y-40154819D02*
X119166666Y-40869104D01*
X119166666Y-40869104D02*
X119119047Y-41011961D01*
X119119047Y-41011961D02*
X119023809Y-41107200D01*
X119023809Y-41107200D02*
X118880952Y-41154819D01*
X118880952Y-41154819D02*
X118785714Y-41154819D01*
X119785714Y-40583390D02*
X119690476Y-40535771D01*
X119690476Y-40535771D02*
X119642857Y-40488152D01*
X119642857Y-40488152D02*
X119595238Y-40392914D01*
X119595238Y-40392914D02*
X119595238Y-40345295D01*
X119595238Y-40345295D02*
X119642857Y-40250057D01*
X119642857Y-40250057D02*
X119690476Y-40202438D01*
X119690476Y-40202438D02*
X119785714Y-40154819D01*
X119785714Y-40154819D02*
X119976190Y-40154819D01*
X119976190Y-40154819D02*
X120071428Y-40202438D01*
X120071428Y-40202438D02*
X120119047Y-40250057D01*
X120119047Y-40250057D02*
X120166666Y-40345295D01*
X120166666Y-40345295D02*
X120166666Y-40392914D01*
X120166666Y-40392914D02*
X120119047Y-40488152D01*
X120119047Y-40488152D02*
X120071428Y-40535771D01*
X120071428Y-40535771D02*
X119976190Y-40583390D01*
X119976190Y-40583390D02*
X119785714Y-40583390D01*
X119785714Y-40583390D02*
X119690476Y-40631009D01*
X119690476Y-40631009D02*
X119642857Y-40678628D01*
X119642857Y-40678628D02*
X119595238Y-40773866D01*
X119595238Y-40773866D02*
X119595238Y-40964342D01*
X119595238Y-40964342D02*
X119642857Y-41059580D01*
X119642857Y-41059580D02*
X119690476Y-41107200D01*
X119690476Y-41107200D02*
X119785714Y-41154819D01*
X119785714Y-41154819D02*
X119976190Y-41154819D01*
X119976190Y-41154819D02*
X120071428Y-41107200D01*
X120071428Y-41107200D02*
X120119047Y-41059580D01*
X120119047Y-41059580D02*
X120166666Y-40964342D01*
X120166666Y-40964342D02*
X120166666Y-40773866D01*
X120166666Y-40773866D02*
X120119047Y-40678628D01*
X120119047Y-40678628D02*
X120071428Y-40631009D01*
X120071428Y-40631009D02*
X119976190Y-40583390D01*
X244638095Y-30454819D02*
X244638095Y-29454819D01*
X244638095Y-29931009D02*
X245209523Y-29931009D01*
X245209523Y-30454819D02*
X245209523Y-29454819D01*
X245590476Y-29454819D02*
X246209523Y-29454819D01*
X246209523Y-29454819D02*
X245876190Y-29835771D01*
X245876190Y-29835771D02*
X246019047Y-29835771D01*
X246019047Y-29835771D02*
X246114285Y-29883390D01*
X246114285Y-29883390D02*
X246161904Y-29931009D01*
X246161904Y-29931009D02*
X246209523Y-30026247D01*
X246209523Y-30026247D02*
X246209523Y-30264342D01*
X246209523Y-30264342D02*
X246161904Y-30359580D01*
X246161904Y-30359580D02*
X246114285Y-30407200D01*
X246114285Y-30407200D02*
X246019047Y-30454819D01*
X246019047Y-30454819D02*
X245733333Y-30454819D01*
X245733333Y-30454819D02*
X245638095Y-30407200D01*
X245638095Y-30407200D02*
X245590476Y-30359580D01*
X152733333Y-85559580D02*
X152685714Y-85607200D01*
X152685714Y-85607200D02*
X152542857Y-85654819D01*
X152542857Y-85654819D02*
X152447619Y-85654819D01*
X152447619Y-85654819D02*
X152304762Y-85607200D01*
X152304762Y-85607200D02*
X152209524Y-85511961D01*
X152209524Y-85511961D02*
X152161905Y-85416723D01*
X152161905Y-85416723D02*
X152114286Y-85226247D01*
X152114286Y-85226247D02*
X152114286Y-85083390D01*
X152114286Y-85083390D02*
X152161905Y-84892914D01*
X152161905Y-84892914D02*
X152209524Y-84797676D01*
X152209524Y-84797676D02*
X152304762Y-84702438D01*
X152304762Y-84702438D02*
X152447619Y-84654819D01*
X152447619Y-84654819D02*
X152542857Y-84654819D01*
X152542857Y-84654819D02*
X152685714Y-84702438D01*
X152685714Y-84702438D02*
X152733333Y-84750057D01*
X153066667Y-84654819D02*
X153733333Y-84654819D01*
X153733333Y-84654819D02*
X153304762Y-85654819D01*
X104857142Y-51754819D02*
X104523809Y-51278628D01*
X104285714Y-51754819D02*
X104285714Y-50754819D01*
X104285714Y-50754819D02*
X104666666Y-50754819D01*
X104666666Y-50754819D02*
X104761904Y-50802438D01*
X104761904Y-50802438D02*
X104809523Y-50850057D01*
X104809523Y-50850057D02*
X104857142Y-50945295D01*
X104857142Y-50945295D02*
X104857142Y-51088152D01*
X104857142Y-51088152D02*
X104809523Y-51183390D01*
X104809523Y-51183390D02*
X104761904Y-51231009D01*
X104761904Y-51231009D02*
X104666666Y-51278628D01*
X104666666Y-51278628D02*
X104285714Y-51278628D01*
X105809523Y-51754819D02*
X105238095Y-51754819D01*
X105523809Y-51754819D02*
X105523809Y-50754819D01*
X105523809Y-50754819D02*
X105428571Y-50897676D01*
X105428571Y-50897676D02*
X105333333Y-50992914D01*
X105333333Y-50992914D02*
X105238095Y-51040533D01*
X106666666Y-51088152D02*
X106666666Y-51754819D01*
X106428571Y-50707200D02*
X106190476Y-51421485D01*
X106190476Y-51421485D02*
X106809523Y-51421485D01*
X138433333Y-85059580D02*
X138385714Y-85107200D01*
X138385714Y-85107200D02*
X138242857Y-85154819D01*
X138242857Y-85154819D02*
X138147619Y-85154819D01*
X138147619Y-85154819D02*
X138004762Y-85107200D01*
X138004762Y-85107200D02*
X137909524Y-85011961D01*
X137909524Y-85011961D02*
X137861905Y-84916723D01*
X137861905Y-84916723D02*
X137814286Y-84726247D01*
X137814286Y-84726247D02*
X137814286Y-84583390D01*
X137814286Y-84583390D02*
X137861905Y-84392914D01*
X137861905Y-84392914D02*
X137909524Y-84297676D01*
X137909524Y-84297676D02*
X138004762Y-84202438D01*
X138004762Y-84202438D02*
X138147619Y-84154819D01*
X138147619Y-84154819D02*
X138242857Y-84154819D01*
X138242857Y-84154819D02*
X138385714Y-84202438D01*
X138385714Y-84202438D02*
X138433333Y-84250057D01*
X139290476Y-84154819D02*
X139100000Y-84154819D01*
X139100000Y-84154819D02*
X139004762Y-84202438D01*
X139004762Y-84202438D02*
X138957143Y-84250057D01*
X138957143Y-84250057D02*
X138861905Y-84392914D01*
X138861905Y-84392914D02*
X138814286Y-84583390D01*
X138814286Y-84583390D02*
X138814286Y-84964342D01*
X138814286Y-84964342D02*
X138861905Y-85059580D01*
X138861905Y-85059580D02*
X138909524Y-85107200D01*
X138909524Y-85107200D02*
X139004762Y-85154819D01*
X139004762Y-85154819D02*
X139195238Y-85154819D01*
X139195238Y-85154819D02*
X139290476Y-85107200D01*
X139290476Y-85107200D02*
X139338095Y-85059580D01*
X139338095Y-85059580D02*
X139385714Y-84964342D01*
X139385714Y-84964342D02*
X139385714Y-84726247D01*
X139385714Y-84726247D02*
X139338095Y-84631009D01*
X139338095Y-84631009D02*
X139290476Y-84583390D01*
X139290476Y-84583390D02*
X139195238Y-84535771D01*
X139195238Y-84535771D02*
X139004762Y-84535771D01*
X139004762Y-84535771D02*
X138909524Y-84583390D01*
X138909524Y-84583390D02*
X138861905Y-84631009D01*
X138861905Y-84631009D02*
X138814286Y-84726247D01*
X104857142Y-66554819D02*
X104523809Y-66078628D01*
X104285714Y-66554819D02*
X104285714Y-65554819D01*
X104285714Y-65554819D02*
X104666666Y-65554819D01*
X104666666Y-65554819D02*
X104761904Y-65602438D01*
X104761904Y-65602438D02*
X104809523Y-65650057D01*
X104809523Y-65650057D02*
X104857142Y-65745295D01*
X104857142Y-65745295D02*
X104857142Y-65888152D01*
X104857142Y-65888152D02*
X104809523Y-65983390D01*
X104809523Y-65983390D02*
X104761904Y-66031009D01*
X104761904Y-66031009D02*
X104666666Y-66078628D01*
X104666666Y-66078628D02*
X104285714Y-66078628D01*
X105809523Y-66554819D02*
X105238095Y-66554819D01*
X105523809Y-66554819D02*
X105523809Y-65554819D01*
X105523809Y-65554819D02*
X105428571Y-65697676D01*
X105428571Y-65697676D02*
X105333333Y-65792914D01*
X105333333Y-65792914D02*
X105238095Y-65840533D01*
X106761904Y-66554819D02*
X106190476Y-66554819D01*
X106476190Y-66554819D02*
X106476190Y-65554819D01*
X106476190Y-65554819D02*
X106380952Y-65697676D01*
X106380952Y-65697676D02*
X106285714Y-65792914D01*
X106285714Y-65792914D02*
X106190476Y-65840533D01*
X77433333Y-51654819D02*
X77100000Y-51178628D01*
X76861905Y-51654819D02*
X76861905Y-50654819D01*
X76861905Y-50654819D02*
X77242857Y-50654819D01*
X77242857Y-50654819D02*
X77338095Y-50702438D01*
X77338095Y-50702438D02*
X77385714Y-50750057D01*
X77385714Y-50750057D02*
X77433333Y-50845295D01*
X77433333Y-50845295D02*
X77433333Y-50988152D01*
X77433333Y-50988152D02*
X77385714Y-51083390D01*
X77385714Y-51083390D02*
X77338095Y-51131009D01*
X77338095Y-51131009D02*
X77242857Y-51178628D01*
X77242857Y-51178628D02*
X76861905Y-51178628D01*
X77909524Y-51654819D02*
X78100000Y-51654819D01*
X78100000Y-51654819D02*
X78195238Y-51607200D01*
X78195238Y-51607200D02*
X78242857Y-51559580D01*
X78242857Y-51559580D02*
X78338095Y-51416723D01*
X78338095Y-51416723D02*
X78385714Y-51226247D01*
X78385714Y-51226247D02*
X78385714Y-50845295D01*
X78385714Y-50845295D02*
X78338095Y-50750057D01*
X78338095Y-50750057D02*
X78290476Y-50702438D01*
X78290476Y-50702438D02*
X78195238Y-50654819D01*
X78195238Y-50654819D02*
X78004762Y-50654819D01*
X78004762Y-50654819D02*
X77909524Y-50702438D01*
X77909524Y-50702438D02*
X77861905Y-50750057D01*
X77861905Y-50750057D02*
X77814286Y-50845295D01*
X77814286Y-50845295D02*
X77814286Y-51083390D01*
X77814286Y-51083390D02*
X77861905Y-51178628D01*
X77861905Y-51178628D02*
X77909524Y-51226247D01*
X77909524Y-51226247D02*
X78004762Y-51273866D01*
X78004762Y-51273866D02*
X78195238Y-51273866D01*
X78195238Y-51273866D02*
X78290476Y-51226247D01*
X78290476Y-51226247D02*
X78338095Y-51178628D01*
X78338095Y-51178628D02*
X78385714Y-51083390D01*
X218954819Y-64742857D02*
X218478628Y-65076190D01*
X218954819Y-65314285D02*
X217954819Y-65314285D01*
X217954819Y-65314285D02*
X217954819Y-64933333D01*
X217954819Y-64933333D02*
X218002438Y-64838095D01*
X218002438Y-64838095D02*
X218050057Y-64790476D01*
X218050057Y-64790476D02*
X218145295Y-64742857D01*
X218145295Y-64742857D02*
X218288152Y-64742857D01*
X218288152Y-64742857D02*
X218383390Y-64790476D01*
X218383390Y-64790476D02*
X218431009Y-64838095D01*
X218431009Y-64838095D02*
X218478628Y-64933333D01*
X218478628Y-64933333D02*
X218478628Y-65314285D01*
X217954819Y-64409523D02*
X217954819Y-63790476D01*
X217954819Y-63790476D02*
X218335771Y-64123809D01*
X218335771Y-64123809D02*
X218335771Y-63980952D01*
X218335771Y-63980952D02*
X218383390Y-63885714D01*
X218383390Y-63885714D02*
X218431009Y-63838095D01*
X218431009Y-63838095D02*
X218526247Y-63790476D01*
X218526247Y-63790476D02*
X218764342Y-63790476D01*
X218764342Y-63790476D02*
X218859580Y-63838095D01*
X218859580Y-63838095D02*
X218907200Y-63885714D01*
X218907200Y-63885714D02*
X218954819Y-63980952D01*
X218954819Y-63980952D02*
X218954819Y-64266666D01*
X218954819Y-64266666D02*
X218907200Y-64361904D01*
X218907200Y-64361904D02*
X218859580Y-64409523D01*
X218954819Y-62838095D02*
X218954819Y-63409523D01*
X218954819Y-63123809D02*
X217954819Y-63123809D01*
X217954819Y-63123809D02*
X218097676Y-63219047D01*
X218097676Y-63219047D02*
X218192914Y-63314285D01*
X218192914Y-63314285D02*
X218240533Y-63409523D01*
X218954819Y-58942857D02*
X218478628Y-59276190D01*
X218954819Y-59514285D02*
X217954819Y-59514285D01*
X217954819Y-59514285D02*
X217954819Y-59133333D01*
X217954819Y-59133333D02*
X218002438Y-59038095D01*
X218002438Y-59038095D02*
X218050057Y-58990476D01*
X218050057Y-58990476D02*
X218145295Y-58942857D01*
X218145295Y-58942857D02*
X218288152Y-58942857D01*
X218288152Y-58942857D02*
X218383390Y-58990476D01*
X218383390Y-58990476D02*
X218431009Y-59038095D01*
X218431009Y-59038095D02*
X218478628Y-59133333D01*
X218478628Y-59133333D02*
X218478628Y-59514285D01*
X218050057Y-58561904D02*
X218002438Y-58514285D01*
X218002438Y-58514285D02*
X217954819Y-58419047D01*
X217954819Y-58419047D02*
X217954819Y-58180952D01*
X217954819Y-58180952D02*
X218002438Y-58085714D01*
X218002438Y-58085714D02*
X218050057Y-58038095D01*
X218050057Y-58038095D02*
X218145295Y-57990476D01*
X218145295Y-57990476D02*
X218240533Y-57990476D01*
X218240533Y-57990476D02*
X218383390Y-58038095D01*
X218383390Y-58038095D02*
X218954819Y-58609523D01*
X218954819Y-58609523D02*
X218954819Y-57990476D01*
X218954819Y-57514285D02*
X218954819Y-57323809D01*
X218954819Y-57323809D02*
X218907200Y-57228571D01*
X218907200Y-57228571D02*
X218859580Y-57180952D01*
X218859580Y-57180952D02*
X218716723Y-57085714D01*
X218716723Y-57085714D02*
X218526247Y-57038095D01*
X218526247Y-57038095D02*
X218145295Y-57038095D01*
X218145295Y-57038095D02*
X218050057Y-57085714D01*
X218050057Y-57085714D02*
X218002438Y-57133333D01*
X218002438Y-57133333D02*
X217954819Y-57228571D01*
X217954819Y-57228571D02*
X217954819Y-57419047D01*
X217954819Y-57419047D02*
X218002438Y-57514285D01*
X218002438Y-57514285D02*
X218050057Y-57561904D01*
X218050057Y-57561904D02*
X218145295Y-57609523D01*
X218145295Y-57609523D02*
X218383390Y-57609523D01*
X218383390Y-57609523D02*
X218478628Y-57561904D01*
X218478628Y-57561904D02*
X218526247Y-57514285D01*
X218526247Y-57514285D02*
X218573866Y-57419047D01*
X218573866Y-57419047D02*
X218573866Y-57228571D01*
X218573866Y-57228571D02*
X218526247Y-57133333D01*
X218526247Y-57133333D02*
X218478628Y-57085714D01*
X218478628Y-57085714D02*
X218383390Y-57038095D01*
X54654819Y-62166666D02*
X54178628Y-62499999D01*
X54654819Y-62738094D02*
X53654819Y-62738094D01*
X53654819Y-62738094D02*
X53654819Y-62357142D01*
X53654819Y-62357142D02*
X53702438Y-62261904D01*
X53702438Y-62261904D02*
X53750057Y-62214285D01*
X53750057Y-62214285D02*
X53845295Y-62166666D01*
X53845295Y-62166666D02*
X53988152Y-62166666D01*
X53988152Y-62166666D02*
X54083390Y-62214285D01*
X54083390Y-62214285D02*
X54131009Y-62261904D01*
X54131009Y-62261904D02*
X54178628Y-62357142D01*
X54178628Y-62357142D02*
X54178628Y-62738094D01*
X53988152Y-61309523D02*
X54654819Y-61309523D01*
X53607200Y-61547618D02*
X54321485Y-61785713D01*
X54321485Y-61785713D02*
X54321485Y-61166666D01*
X87057142Y-67754819D02*
X86723809Y-67278628D01*
X86485714Y-67754819D02*
X86485714Y-66754819D01*
X86485714Y-66754819D02*
X86866666Y-66754819D01*
X86866666Y-66754819D02*
X86961904Y-66802438D01*
X86961904Y-66802438D02*
X87009523Y-66850057D01*
X87009523Y-66850057D02*
X87057142Y-66945295D01*
X87057142Y-66945295D02*
X87057142Y-67088152D01*
X87057142Y-67088152D02*
X87009523Y-67183390D01*
X87009523Y-67183390D02*
X86961904Y-67231009D01*
X86961904Y-67231009D02*
X86866666Y-67278628D01*
X86866666Y-67278628D02*
X86485714Y-67278628D01*
X88009523Y-67754819D02*
X87438095Y-67754819D01*
X87723809Y-67754819D02*
X87723809Y-66754819D01*
X87723809Y-66754819D02*
X87628571Y-66897676D01*
X87628571Y-66897676D02*
X87533333Y-66992914D01*
X87533333Y-66992914D02*
X87438095Y-67040533D01*
X88580952Y-67183390D02*
X88485714Y-67135771D01*
X88485714Y-67135771D02*
X88438095Y-67088152D01*
X88438095Y-67088152D02*
X88390476Y-66992914D01*
X88390476Y-66992914D02*
X88390476Y-66945295D01*
X88390476Y-66945295D02*
X88438095Y-66850057D01*
X88438095Y-66850057D02*
X88485714Y-66802438D01*
X88485714Y-66802438D02*
X88580952Y-66754819D01*
X88580952Y-66754819D02*
X88771428Y-66754819D01*
X88771428Y-66754819D02*
X88866666Y-66802438D01*
X88866666Y-66802438D02*
X88914285Y-66850057D01*
X88914285Y-66850057D02*
X88961904Y-66945295D01*
X88961904Y-66945295D02*
X88961904Y-66992914D01*
X88961904Y-66992914D02*
X88914285Y-67088152D01*
X88914285Y-67088152D02*
X88866666Y-67135771D01*
X88866666Y-67135771D02*
X88771428Y-67183390D01*
X88771428Y-67183390D02*
X88580952Y-67183390D01*
X88580952Y-67183390D02*
X88485714Y-67231009D01*
X88485714Y-67231009D02*
X88438095Y-67278628D01*
X88438095Y-67278628D02*
X88390476Y-67373866D01*
X88390476Y-67373866D02*
X88390476Y-67564342D01*
X88390476Y-67564342D02*
X88438095Y-67659580D01*
X88438095Y-67659580D02*
X88485714Y-67707200D01*
X88485714Y-67707200D02*
X88580952Y-67754819D01*
X88580952Y-67754819D02*
X88771428Y-67754819D01*
X88771428Y-67754819D02*
X88866666Y-67707200D01*
X88866666Y-67707200D02*
X88914285Y-67659580D01*
X88914285Y-67659580D02*
X88961904Y-67564342D01*
X88961904Y-67564342D02*
X88961904Y-67373866D01*
X88961904Y-67373866D02*
X88914285Y-67278628D01*
X88914285Y-67278628D02*
X88866666Y-67231009D01*
X88866666Y-67231009D02*
X88771428Y-67183390D01*
X77363333Y-63164819D02*
X77030000Y-62688628D01*
X76791905Y-63164819D02*
X76791905Y-62164819D01*
X76791905Y-62164819D02*
X77172857Y-62164819D01*
X77172857Y-62164819D02*
X77268095Y-62212438D01*
X77268095Y-62212438D02*
X77315714Y-62260057D01*
X77315714Y-62260057D02*
X77363333Y-62355295D01*
X77363333Y-62355295D02*
X77363333Y-62498152D01*
X77363333Y-62498152D02*
X77315714Y-62593390D01*
X77315714Y-62593390D02*
X77268095Y-62641009D01*
X77268095Y-62641009D02*
X77172857Y-62688628D01*
X77172857Y-62688628D02*
X76791905Y-62688628D01*
X78220476Y-62164819D02*
X78030000Y-62164819D01*
X78030000Y-62164819D02*
X77934762Y-62212438D01*
X77934762Y-62212438D02*
X77887143Y-62260057D01*
X77887143Y-62260057D02*
X77791905Y-62402914D01*
X77791905Y-62402914D02*
X77744286Y-62593390D01*
X77744286Y-62593390D02*
X77744286Y-62974342D01*
X77744286Y-62974342D02*
X77791905Y-63069580D01*
X77791905Y-63069580D02*
X77839524Y-63117200D01*
X77839524Y-63117200D02*
X77934762Y-63164819D01*
X77934762Y-63164819D02*
X78125238Y-63164819D01*
X78125238Y-63164819D02*
X78220476Y-63117200D01*
X78220476Y-63117200D02*
X78268095Y-63069580D01*
X78268095Y-63069580D02*
X78315714Y-62974342D01*
X78315714Y-62974342D02*
X78315714Y-62736247D01*
X78315714Y-62736247D02*
X78268095Y-62641009D01*
X78268095Y-62641009D02*
X78220476Y-62593390D01*
X78220476Y-62593390D02*
X78125238Y-62545771D01*
X78125238Y-62545771D02*
X77934762Y-62545771D01*
X77934762Y-62545771D02*
X77839524Y-62593390D01*
X77839524Y-62593390D02*
X77791905Y-62641009D01*
X77791905Y-62641009D02*
X77744286Y-62736247D01*
X84054819Y-59842857D02*
X83578628Y-60176190D01*
X84054819Y-60414285D02*
X83054819Y-60414285D01*
X83054819Y-60414285D02*
X83054819Y-60033333D01*
X83054819Y-60033333D02*
X83102438Y-59938095D01*
X83102438Y-59938095D02*
X83150057Y-59890476D01*
X83150057Y-59890476D02*
X83245295Y-59842857D01*
X83245295Y-59842857D02*
X83388152Y-59842857D01*
X83388152Y-59842857D02*
X83483390Y-59890476D01*
X83483390Y-59890476D02*
X83531009Y-59938095D01*
X83531009Y-59938095D02*
X83578628Y-60033333D01*
X83578628Y-60033333D02*
X83578628Y-60414285D01*
X84054819Y-58890476D02*
X84054819Y-59461904D01*
X84054819Y-59176190D02*
X83054819Y-59176190D01*
X83054819Y-59176190D02*
X83197676Y-59271428D01*
X83197676Y-59271428D02*
X83292914Y-59366666D01*
X83292914Y-59366666D02*
X83340533Y-59461904D01*
X83054819Y-58033333D02*
X83054819Y-58223809D01*
X83054819Y-58223809D02*
X83102438Y-58319047D01*
X83102438Y-58319047D02*
X83150057Y-58366666D01*
X83150057Y-58366666D02*
X83292914Y-58461904D01*
X83292914Y-58461904D02*
X83483390Y-58509523D01*
X83483390Y-58509523D02*
X83864342Y-58509523D01*
X83864342Y-58509523D02*
X83959580Y-58461904D01*
X83959580Y-58461904D02*
X84007200Y-58414285D01*
X84007200Y-58414285D02*
X84054819Y-58319047D01*
X84054819Y-58319047D02*
X84054819Y-58128571D01*
X84054819Y-58128571D02*
X84007200Y-58033333D01*
X84007200Y-58033333D02*
X83959580Y-57985714D01*
X83959580Y-57985714D02*
X83864342Y-57938095D01*
X83864342Y-57938095D02*
X83626247Y-57938095D01*
X83626247Y-57938095D02*
X83531009Y-57985714D01*
X83531009Y-57985714D02*
X83483390Y-58033333D01*
X83483390Y-58033333D02*
X83435771Y-58128571D01*
X83435771Y-58128571D02*
X83435771Y-58319047D01*
X83435771Y-58319047D02*
X83483390Y-58414285D01*
X83483390Y-58414285D02*
X83531009Y-58461904D01*
X83531009Y-58461904D02*
X83626247Y-58509523D01*
X175766666Y-72954819D02*
X175766666Y-73669104D01*
X175766666Y-73669104D02*
X175719047Y-73811961D01*
X175719047Y-73811961D02*
X175623809Y-73907200D01*
X175623809Y-73907200D02*
X175480952Y-73954819D01*
X175480952Y-73954819D02*
X175385714Y-73954819D01*
X176147619Y-72954819D02*
X176814285Y-72954819D01*
X176814285Y-72954819D02*
X176385714Y-73954819D01*
X104957142Y-56554819D02*
X104623809Y-56078628D01*
X104385714Y-56554819D02*
X104385714Y-55554819D01*
X104385714Y-55554819D02*
X104766666Y-55554819D01*
X104766666Y-55554819D02*
X104861904Y-55602438D01*
X104861904Y-55602438D02*
X104909523Y-55650057D01*
X104909523Y-55650057D02*
X104957142Y-55745295D01*
X104957142Y-55745295D02*
X104957142Y-55888152D01*
X104957142Y-55888152D02*
X104909523Y-55983390D01*
X104909523Y-55983390D02*
X104861904Y-56031009D01*
X104861904Y-56031009D02*
X104766666Y-56078628D01*
X104766666Y-56078628D02*
X104385714Y-56078628D01*
X105909523Y-56554819D02*
X105338095Y-56554819D01*
X105623809Y-56554819D02*
X105623809Y-55554819D01*
X105623809Y-55554819D02*
X105528571Y-55697676D01*
X105528571Y-55697676D02*
X105433333Y-55792914D01*
X105433333Y-55792914D02*
X105338095Y-55840533D01*
X106242857Y-55554819D02*
X106861904Y-55554819D01*
X106861904Y-55554819D02*
X106528571Y-55935771D01*
X106528571Y-55935771D02*
X106671428Y-55935771D01*
X106671428Y-55935771D02*
X106766666Y-55983390D01*
X106766666Y-55983390D02*
X106814285Y-56031009D01*
X106814285Y-56031009D02*
X106861904Y-56126247D01*
X106861904Y-56126247D02*
X106861904Y-56364342D01*
X106861904Y-56364342D02*
X106814285Y-56459580D01*
X106814285Y-56459580D02*
X106766666Y-56507200D01*
X106766666Y-56507200D02*
X106671428Y-56554819D01*
X106671428Y-56554819D02*
X106385714Y-56554819D01*
X106385714Y-56554819D02*
X106290476Y-56507200D01*
X106290476Y-56507200D02*
X106242857Y-56459580D01*
X193109580Y-48106666D02*
X193157200Y-48154285D01*
X193157200Y-48154285D02*
X193204819Y-48297142D01*
X193204819Y-48297142D02*
X193204819Y-48392380D01*
X193204819Y-48392380D02*
X193157200Y-48535237D01*
X193157200Y-48535237D02*
X193061961Y-48630475D01*
X193061961Y-48630475D02*
X192966723Y-48678094D01*
X192966723Y-48678094D02*
X192776247Y-48725713D01*
X192776247Y-48725713D02*
X192633390Y-48725713D01*
X192633390Y-48725713D02*
X192442914Y-48678094D01*
X192442914Y-48678094D02*
X192347676Y-48630475D01*
X192347676Y-48630475D02*
X192252438Y-48535237D01*
X192252438Y-48535237D02*
X192204819Y-48392380D01*
X192204819Y-48392380D02*
X192204819Y-48297142D01*
X192204819Y-48297142D02*
X192252438Y-48154285D01*
X192252438Y-48154285D02*
X192300057Y-48106666D01*
X192204819Y-47773332D02*
X192204819Y-47154285D01*
X192204819Y-47154285D02*
X192585771Y-47487618D01*
X192585771Y-47487618D02*
X192585771Y-47344761D01*
X192585771Y-47344761D02*
X192633390Y-47249523D01*
X192633390Y-47249523D02*
X192681009Y-47201904D01*
X192681009Y-47201904D02*
X192776247Y-47154285D01*
X192776247Y-47154285D02*
X193014342Y-47154285D01*
X193014342Y-47154285D02*
X193109580Y-47201904D01*
X193109580Y-47201904D02*
X193157200Y-47249523D01*
X193157200Y-47249523D02*
X193204819Y-47344761D01*
X193204819Y-47344761D02*
X193204819Y-47630475D01*
X193204819Y-47630475D02*
X193157200Y-47725713D01*
X193157200Y-47725713D02*
X193109580Y-47773332D01*
X225884819Y-72342857D02*
X225408628Y-72676190D01*
X225884819Y-72914285D02*
X224884819Y-72914285D01*
X224884819Y-72914285D02*
X224884819Y-72533333D01*
X224884819Y-72533333D02*
X224932438Y-72438095D01*
X224932438Y-72438095D02*
X224980057Y-72390476D01*
X224980057Y-72390476D02*
X225075295Y-72342857D01*
X225075295Y-72342857D02*
X225218152Y-72342857D01*
X225218152Y-72342857D02*
X225313390Y-72390476D01*
X225313390Y-72390476D02*
X225361009Y-72438095D01*
X225361009Y-72438095D02*
X225408628Y-72533333D01*
X225408628Y-72533333D02*
X225408628Y-72914285D01*
X224980057Y-71961904D02*
X224932438Y-71914285D01*
X224932438Y-71914285D02*
X224884819Y-71819047D01*
X224884819Y-71819047D02*
X224884819Y-71580952D01*
X224884819Y-71580952D02*
X224932438Y-71485714D01*
X224932438Y-71485714D02*
X224980057Y-71438095D01*
X224980057Y-71438095D02*
X225075295Y-71390476D01*
X225075295Y-71390476D02*
X225170533Y-71390476D01*
X225170533Y-71390476D02*
X225313390Y-71438095D01*
X225313390Y-71438095D02*
X225884819Y-72009523D01*
X225884819Y-72009523D02*
X225884819Y-71390476D01*
X225313390Y-70819047D02*
X225265771Y-70914285D01*
X225265771Y-70914285D02*
X225218152Y-70961904D01*
X225218152Y-70961904D02*
X225122914Y-71009523D01*
X225122914Y-71009523D02*
X225075295Y-71009523D01*
X225075295Y-71009523D02*
X224980057Y-70961904D01*
X224980057Y-70961904D02*
X224932438Y-70914285D01*
X224932438Y-70914285D02*
X224884819Y-70819047D01*
X224884819Y-70819047D02*
X224884819Y-70628571D01*
X224884819Y-70628571D02*
X224932438Y-70533333D01*
X224932438Y-70533333D02*
X224980057Y-70485714D01*
X224980057Y-70485714D02*
X225075295Y-70438095D01*
X225075295Y-70438095D02*
X225122914Y-70438095D01*
X225122914Y-70438095D02*
X225218152Y-70485714D01*
X225218152Y-70485714D02*
X225265771Y-70533333D01*
X225265771Y-70533333D02*
X225313390Y-70628571D01*
X225313390Y-70628571D02*
X225313390Y-70819047D01*
X225313390Y-70819047D02*
X225361009Y-70914285D01*
X225361009Y-70914285D02*
X225408628Y-70961904D01*
X225408628Y-70961904D02*
X225503866Y-71009523D01*
X225503866Y-71009523D02*
X225694342Y-71009523D01*
X225694342Y-71009523D02*
X225789580Y-70961904D01*
X225789580Y-70961904D02*
X225837200Y-70914285D01*
X225837200Y-70914285D02*
X225884819Y-70819047D01*
X225884819Y-70819047D02*
X225884819Y-70628571D01*
X225884819Y-70628571D02*
X225837200Y-70533333D01*
X225837200Y-70533333D02*
X225789580Y-70485714D01*
X225789580Y-70485714D02*
X225694342Y-70438095D01*
X225694342Y-70438095D02*
X225503866Y-70438095D01*
X225503866Y-70438095D02*
X225408628Y-70485714D01*
X225408628Y-70485714D02*
X225361009Y-70533333D01*
X225361009Y-70533333D02*
X225313390Y-70628571D01*
X246257142Y-64554819D02*
X245923809Y-64078628D01*
X245685714Y-64554819D02*
X245685714Y-63554819D01*
X245685714Y-63554819D02*
X246066666Y-63554819D01*
X246066666Y-63554819D02*
X246161904Y-63602438D01*
X246161904Y-63602438D02*
X246209523Y-63650057D01*
X246209523Y-63650057D02*
X246257142Y-63745295D01*
X246257142Y-63745295D02*
X246257142Y-63888152D01*
X246257142Y-63888152D02*
X246209523Y-63983390D01*
X246209523Y-63983390D02*
X246161904Y-64031009D01*
X246161904Y-64031009D02*
X246066666Y-64078628D01*
X246066666Y-64078628D02*
X245685714Y-64078628D01*
X246590476Y-63554819D02*
X247209523Y-63554819D01*
X247209523Y-63554819D02*
X246876190Y-63935771D01*
X246876190Y-63935771D02*
X247019047Y-63935771D01*
X247019047Y-63935771D02*
X247114285Y-63983390D01*
X247114285Y-63983390D02*
X247161904Y-64031009D01*
X247161904Y-64031009D02*
X247209523Y-64126247D01*
X247209523Y-64126247D02*
X247209523Y-64364342D01*
X247209523Y-64364342D02*
X247161904Y-64459580D01*
X247161904Y-64459580D02*
X247114285Y-64507200D01*
X247114285Y-64507200D02*
X247019047Y-64554819D01*
X247019047Y-64554819D02*
X246733333Y-64554819D01*
X246733333Y-64554819D02*
X246638095Y-64507200D01*
X246638095Y-64507200D02*
X246590476Y-64459580D01*
X248066666Y-63888152D02*
X248066666Y-64554819D01*
X247828571Y-63507200D02*
X247590476Y-64221485D01*
X247590476Y-64221485D02*
X248209523Y-64221485D01*
X230738095Y-48444819D02*
X230738095Y-49254342D01*
X230738095Y-49254342D02*
X230785714Y-49349580D01*
X230785714Y-49349580D02*
X230833333Y-49397200D01*
X230833333Y-49397200D02*
X230928571Y-49444819D01*
X230928571Y-49444819D02*
X231119047Y-49444819D01*
X231119047Y-49444819D02*
X231214285Y-49397200D01*
X231214285Y-49397200D02*
X231261904Y-49349580D01*
X231261904Y-49349580D02*
X231309523Y-49254342D01*
X231309523Y-49254342D02*
X231309523Y-48444819D01*
X232214285Y-48444819D02*
X232023809Y-48444819D01*
X232023809Y-48444819D02*
X231928571Y-48492438D01*
X231928571Y-48492438D02*
X231880952Y-48540057D01*
X231880952Y-48540057D02*
X231785714Y-48682914D01*
X231785714Y-48682914D02*
X231738095Y-48873390D01*
X231738095Y-48873390D02*
X231738095Y-49254342D01*
X231738095Y-49254342D02*
X231785714Y-49349580D01*
X231785714Y-49349580D02*
X231833333Y-49397200D01*
X231833333Y-49397200D02*
X231928571Y-49444819D01*
X231928571Y-49444819D02*
X232119047Y-49444819D01*
X232119047Y-49444819D02*
X232214285Y-49397200D01*
X232214285Y-49397200D02*
X232261904Y-49349580D01*
X232261904Y-49349580D02*
X232309523Y-49254342D01*
X232309523Y-49254342D02*
X232309523Y-49016247D01*
X232309523Y-49016247D02*
X232261904Y-48921009D01*
X232261904Y-48921009D02*
X232214285Y-48873390D01*
X232214285Y-48873390D02*
X232119047Y-48825771D01*
X232119047Y-48825771D02*
X231928571Y-48825771D01*
X231928571Y-48825771D02*
X231833333Y-48873390D01*
X231833333Y-48873390D02*
X231785714Y-48921009D01*
X231785714Y-48921009D02*
X231738095Y-49016247D01*
X54138095Y-90354819D02*
X54138095Y-89354819D01*
X54138095Y-89831009D02*
X54709523Y-89831009D01*
X54709523Y-90354819D02*
X54709523Y-89354819D01*
X55138095Y-89450057D02*
X55185714Y-89402438D01*
X55185714Y-89402438D02*
X55280952Y-89354819D01*
X55280952Y-89354819D02*
X55519047Y-89354819D01*
X55519047Y-89354819D02*
X55614285Y-89402438D01*
X55614285Y-89402438D02*
X55661904Y-89450057D01*
X55661904Y-89450057D02*
X55709523Y-89545295D01*
X55709523Y-89545295D02*
X55709523Y-89640533D01*
X55709523Y-89640533D02*
X55661904Y-89783390D01*
X55661904Y-89783390D02*
X55090476Y-90354819D01*
X55090476Y-90354819D02*
X55709523Y-90354819D01*
X218954819Y-61842857D02*
X218478628Y-62176190D01*
X218954819Y-62414285D02*
X217954819Y-62414285D01*
X217954819Y-62414285D02*
X217954819Y-62033333D01*
X217954819Y-62033333D02*
X218002438Y-61938095D01*
X218002438Y-61938095D02*
X218050057Y-61890476D01*
X218050057Y-61890476D02*
X218145295Y-61842857D01*
X218145295Y-61842857D02*
X218288152Y-61842857D01*
X218288152Y-61842857D02*
X218383390Y-61890476D01*
X218383390Y-61890476D02*
X218431009Y-61938095D01*
X218431009Y-61938095D02*
X218478628Y-62033333D01*
X218478628Y-62033333D02*
X218478628Y-62414285D01*
X217954819Y-61509523D02*
X217954819Y-60890476D01*
X217954819Y-60890476D02*
X218335771Y-61223809D01*
X218335771Y-61223809D02*
X218335771Y-61080952D01*
X218335771Y-61080952D02*
X218383390Y-60985714D01*
X218383390Y-60985714D02*
X218431009Y-60938095D01*
X218431009Y-60938095D02*
X218526247Y-60890476D01*
X218526247Y-60890476D02*
X218764342Y-60890476D01*
X218764342Y-60890476D02*
X218859580Y-60938095D01*
X218859580Y-60938095D02*
X218907200Y-60985714D01*
X218907200Y-60985714D02*
X218954819Y-61080952D01*
X218954819Y-61080952D02*
X218954819Y-61366666D01*
X218954819Y-61366666D02*
X218907200Y-61461904D01*
X218907200Y-61461904D02*
X218859580Y-61509523D01*
X217954819Y-60271428D02*
X217954819Y-60176190D01*
X217954819Y-60176190D02*
X218002438Y-60080952D01*
X218002438Y-60080952D02*
X218050057Y-60033333D01*
X218050057Y-60033333D02*
X218145295Y-59985714D01*
X218145295Y-59985714D02*
X218335771Y-59938095D01*
X218335771Y-59938095D02*
X218573866Y-59938095D01*
X218573866Y-59938095D02*
X218764342Y-59985714D01*
X218764342Y-59985714D02*
X218859580Y-60033333D01*
X218859580Y-60033333D02*
X218907200Y-60080952D01*
X218907200Y-60080952D02*
X218954819Y-60176190D01*
X218954819Y-60176190D02*
X218954819Y-60271428D01*
X218954819Y-60271428D02*
X218907200Y-60366666D01*
X218907200Y-60366666D02*
X218859580Y-60414285D01*
X218859580Y-60414285D02*
X218764342Y-60461904D01*
X218764342Y-60461904D02*
X218573866Y-60509523D01*
X218573866Y-60509523D02*
X218335771Y-60509523D01*
X218335771Y-60509523D02*
X218145295Y-60461904D01*
X218145295Y-60461904D02*
X218050057Y-60414285D01*
X218050057Y-60414285D02*
X218002438Y-60366666D01*
X218002438Y-60366666D02*
X217954819Y-60271428D01*
X147266666Y-88554819D02*
X147266666Y-89269104D01*
X147266666Y-89269104D02*
X147219047Y-89411961D01*
X147219047Y-89411961D02*
X147123809Y-89507200D01*
X147123809Y-89507200D02*
X146980952Y-89554819D01*
X146980952Y-89554819D02*
X146885714Y-89554819D01*
X147695238Y-88650057D02*
X147742857Y-88602438D01*
X147742857Y-88602438D02*
X147838095Y-88554819D01*
X147838095Y-88554819D02*
X148076190Y-88554819D01*
X148076190Y-88554819D02*
X148171428Y-88602438D01*
X148171428Y-88602438D02*
X148219047Y-88650057D01*
X148219047Y-88650057D02*
X148266666Y-88745295D01*
X148266666Y-88745295D02*
X148266666Y-88840533D01*
X148266666Y-88840533D02*
X148219047Y-88983390D01*
X148219047Y-88983390D02*
X147647619Y-89554819D01*
X147647619Y-89554819D02*
X148266666Y-89554819D01*
X84054819Y-55866666D02*
X83578628Y-56199999D01*
X84054819Y-56438094D02*
X83054819Y-56438094D01*
X83054819Y-56438094D02*
X83054819Y-56057142D01*
X83054819Y-56057142D02*
X83102438Y-55961904D01*
X83102438Y-55961904D02*
X83150057Y-55914285D01*
X83150057Y-55914285D02*
X83245295Y-55866666D01*
X83245295Y-55866666D02*
X83388152Y-55866666D01*
X83388152Y-55866666D02*
X83483390Y-55914285D01*
X83483390Y-55914285D02*
X83531009Y-55961904D01*
X83531009Y-55961904D02*
X83578628Y-56057142D01*
X83578628Y-56057142D02*
X83578628Y-56438094D01*
X83483390Y-55295237D02*
X83435771Y-55390475D01*
X83435771Y-55390475D02*
X83388152Y-55438094D01*
X83388152Y-55438094D02*
X83292914Y-55485713D01*
X83292914Y-55485713D02*
X83245295Y-55485713D01*
X83245295Y-55485713D02*
X83150057Y-55438094D01*
X83150057Y-55438094D02*
X83102438Y-55390475D01*
X83102438Y-55390475D02*
X83054819Y-55295237D01*
X83054819Y-55295237D02*
X83054819Y-55104761D01*
X83054819Y-55104761D02*
X83102438Y-55009523D01*
X83102438Y-55009523D02*
X83150057Y-54961904D01*
X83150057Y-54961904D02*
X83245295Y-54914285D01*
X83245295Y-54914285D02*
X83292914Y-54914285D01*
X83292914Y-54914285D02*
X83388152Y-54961904D01*
X83388152Y-54961904D02*
X83435771Y-55009523D01*
X83435771Y-55009523D02*
X83483390Y-55104761D01*
X83483390Y-55104761D02*
X83483390Y-55295237D01*
X83483390Y-55295237D02*
X83531009Y-55390475D01*
X83531009Y-55390475D02*
X83578628Y-55438094D01*
X83578628Y-55438094D02*
X83673866Y-55485713D01*
X83673866Y-55485713D02*
X83864342Y-55485713D01*
X83864342Y-55485713D02*
X83959580Y-55438094D01*
X83959580Y-55438094D02*
X84007200Y-55390475D01*
X84007200Y-55390475D02*
X84054819Y-55295237D01*
X84054819Y-55295237D02*
X84054819Y-55104761D01*
X84054819Y-55104761D02*
X84007200Y-55009523D01*
X84007200Y-55009523D02*
X83959580Y-54961904D01*
X83959580Y-54961904D02*
X83864342Y-54914285D01*
X83864342Y-54914285D02*
X83673866Y-54914285D01*
X83673866Y-54914285D02*
X83578628Y-54961904D01*
X83578628Y-54961904D02*
X83531009Y-55009523D01*
X83531009Y-55009523D02*
X83483390Y-55104761D01*
D12*
%TO.C,R37*%
X118110000Y-63772936D02*
X118110000Y-65227064D01*
X116290000Y-63772936D02*
X116290000Y-65227064D01*
%TO.C,R23*%
X193677064Y-65990000D02*
X192222936Y-65990000D01*
X193677064Y-67810000D02*
X192222936Y-67810000D01*
%TO.C,U7*%
X124160000Y-54430000D02*
X124160000Y-74870000D01*
X124160000Y-74870000D02*
X125810000Y-74870000D01*
X127810000Y-74870000D02*
X129460000Y-74870000D01*
X129460000Y-54430000D02*
X124160000Y-54430000D01*
X129460000Y-74870000D02*
X129460000Y-54430000D01*
X131950000Y-74930000D02*
X121670000Y-74930000D01*
X121670000Y-54370000D01*
X131950000Y-54370000D01*
X131950000Y-74930000D01*
X125810000Y-74870000D02*
G75*
G02*
X127810000Y-74870000I1000000J0D01*
G01*
%TO.C,R25*%
X210622936Y-62890000D02*
X212077064Y-62890000D01*
X210622936Y-64710000D02*
X212077064Y-64710000D01*
%TO.C,R35*%
X239682936Y-60400000D02*
X241137064Y-60400000D01*
X239682936Y-62220000D02*
X241137064Y-62220000D01*
%TO.C,U1*%
X65540000Y-46890000D02*
X65540000Y-72410000D01*
X65540000Y-72410000D02*
X70840000Y-72410000D01*
X67190000Y-46890000D02*
X65540000Y-46890000D01*
X70840000Y-46890000D02*
X69190000Y-46890000D01*
X70840000Y-72410000D02*
X70840000Y-46890000D01*
X63050000Y-46830000D02*
X73330000Y-46830000D01*
X73330000Y-72470000D01*
X63050000Y-72470000D01*
X63050000Y-46830000D01*
X69190000Y-46890000D02*
G75*
G02*
X67190000Y-46890000I-1000000J0D01*
G01*
%TO.C,C1*%
X59840000Y-47038752D02*
X59840000Y-45616248D01*
X61660000Y-47038752D02*
X61660000Y-45616248D01*
%TO.C,R26*%
X210622936Y-59990000D02*
X212077064Y-59990000D01*
X210622936Y-61810000D02*
X212077064Y-61810000D01*
%TO.C,R12*%
X104892936Y-60430000D02*
X106347064Y-60430000D01*
X104892936Y-62250000D02*
X106347064Y-62250000D01*
%TO.C,J14*%
X138120000Y-37420000D02*
X139500000Y-37420000D01*
X138120000Y-38800000D02*
X138120000Y-37420000D01*
X138120000Y-40070000D02*
X138120000Y-47800000D01*
X138120000Y-40070000D02*
X140880000Y-40070000D01*
X138120000Y-47800000D02*
X140880000Y-47800000D01*
X140880000Y-40070000D02*
X140880000Y-47800000D01*
%TO.C,R5*%
X59777064Y-64100000D02*
X58322936Y-64100000D01*
X59777064Y-65920000D02*
X58322936Y-65920000D01*
%TO.C,R33*%
X239732936Y-66100000D02*
X241187064Y-66100000D01*
X239732936Y-67920000D02*
X241187064Y-67920000D01*
%TO.C,R1*%
X59390000Y-68672936D02*
X59390000Y-70127064D01*
X61210000Y-68672936D02*
X61210000Y-70127064D01*
%TO.C,R22*%
X193677064Y-63290000D02*
X192222936Y-63290000D01*
X193677064Y-65110000D02*
X192222936Y-65110000D01*
%TO.C,J1*%
X138140000Y-27910000D02*
X138140000Y-30410000D01*
X138140000Y-30410000D02*
X140640000Y-30410000D01*
X138440000Y-27800000D02*
X138940000Y-27800000D01*
X138440000Y-28610000D02*
X139440000Y-28610000D01*
X138940000Y-26590000D02*
X145660000Y-26590000D01*
X138940000Y-27800000D02*
X138940000Y-26590000D01*
X139440000Y-28610000D02*
X139440000Y-30110000D01*
X145160000Y-28610000D02*
X145160000Y-30110000D01*
X145660000Y-26590000D02*
X145660000Y-27800000D01*
X145660000Y-27800000D02*
X146160000Y-27800000D01*
X146160000Y-28610000D02*
X145160000Y-28610000D01*
X138440000Y-26090000D02*
X146160000Y-26090000D01*
X146160000Y-30110000D01*
X138440000Y-30110000D01*
X138440000Y-26090000D01*
%TO.C,R24*%
X210672936Y-65940000D02*
X212127064Y-65940000D01*
X210672936Y-67760000D02*
X212127064Y-67760000D01*
%TO.C,J9*%
X113920000Y-58205000D02*
X113920000Y-55555000D01*
X116680000Y-55555000D02*
X113920000Y-55555000D01*
X116680000Y-58205000D02*
X113920000Y-58205000D01*
X116680000Y-58205000D02*
X116680000Y-55555000D01*
X116680000Y-59475000D02*
X116680000Y-60855000D01*
X116680000Y-60855000D02*
X115300000Y-60855000D01*
%TO.C,U4*%
X94460000Y-47020000D02*
X94460000Y-72540000D01*
X94460000Y-72540000D02*
X96110000Y-72540000D01*
X98110000Y-72540000D02*
X99760000Y-72540000D01*
X99760000Y-47020000D02*
X94460000Y-47020000D01*
X99760000Y-72540000D02*
X99760000Y-47020000D01*
X102250000Y-72600000D02*
X91970000Y-72600000D01*
X91970000Y-46960000D01*
X102250000Y-46960000D01*
X102250000Y-72600000D01*
X96110000Y-72540000D02*
G75*
G02*
X98110000Y-72540000I1000000J0D01*
G01*
%TO.C,R17*%
X88277064Y-61590000D02*
X86822936Y-61590000D01*
X88277064Y-63410000D02*
X86822936Y-63410000D01*
%TO.C,C4*%
X223000000Y-49141252D02*
X223000000Y-47718748D01*
X224820000Y-49141252D02*
X224820000Y-47718748D01*
%TO.C,U5*%
X199540000Y-49890000D02*
X199540000Y-75410000D01*
X199540000Y-75410000D02*
X204840000Y-75410000D01*
X201190000Y-49890000D02*
X199540000Y-49890000D01*
X204840000Y-49890000D02*
X203190000Y-49890000D01*
X204840000Y-75410000D02*
X204840000Y-49890000D01*
X197050000Y-49830000D02*
X207330000Y-49830000D01*
X207330000Y-75470000D01*
X197050000Y-75470000D01*
X197050000Y-49830000D01*
X203190000Y-49890000D02*
G75*
G02*
X201190000Y-49890000I-1000000J0D01*
G01*
%TO.C,R20*%
X193677064Y-56790000D02*
X192222936Y-56790000D01*
X193677064Y-58610000D02*
X192222936Y-58610000D01*
%TO.C,R2*%
X59677064Y-54900000D02*
X58222936Y-54900000D01*
X59677064Y-56720000D02*
X58222936Y-56720000D01*
%TO.C,R3*%
X59727064Y-57800000D02*
X58272936Y-57800000D01*
X59727064Y-59620000D02*
X58272936Y-59620000D01*
%TO.C,U3*%
X169120000Y-59340000D02*
X170500000Y-59340000D01*
X169120000Y-60720000D02*
X169120000Y-59340000D01*
X169120000Y-61990000D02*
X169120000Y-79880000D01*
X169120000Y-61990000D02*
X171880000Y-61990000D01*
X169120000Y-79880000D02*
X171880000Y-79880000D01*
X171880000Y-61990000D02*
X171880000Y-79880000D01*
D11*
X140395000Y-56870000D02*
X172145000Y-56870000D01*
X172145000Y-82270000D01*
X140395000Y-82270000D01*
X140395000Y-56870000D01*
D12*
%TO.C,R36*%
X239632936Y-57650000D02*
X241087064Y-57650000D01*
X239632936Y-59470000D02*
X241087064Y-59470000D01*
%TO.C,R7*%
X76872936Y-58380000D02*
X78327064Y-58380000D01*
X76872936Y-60200000D02*
X78327064Y-60200000D01*
D11*
%TO.C,U2*%
X162380000Y-33230000D02*
X169060000Y-33260000D01*
X169030000Y-39940000D02*
X169060000Y-33260000D01*
D12*
%TO.C,J11*%
X237970000Y-54710000D02*
X237970000Y-54830000D01*
X237970000Y-54830000D02*
X240630000Y-54830000D01*
X239300000Y-52170000D02*
X240630000Y-52170000D01*
X240630000Y-52170000D02*
X240630000Y-53500000D01*
X240630000Y-54710000D02*
X240630000Y-54830000D01*
%TO.C,R27*%
X210672936Y-56990000D02*
X212127064Y-56990000D01*
X210672936Y-58810000D02*
X212127064Y-58810000D01*
%TO.C,C5*%
X135111252Y-26890000D02*
X133688748Y-26890000D01*
X135111252Y-28710000D02*
X133688748Y-28710000D01*
%TO.C,C2*%
X103790000Y-72988748D02*
X103790000Y-74411252D01*
X105610000Y-72988748D02*
X105610000Y-74411252D01*
%TO.C,R10*%
X103190000Y-48227064D02*
X103190000Y-46772936D01*
X105010000Y-48227064D02*
X105010000Y-46772936D01*
%TO.C,R21*%
X193727064Y-59740000D02*
X192272936Y-59740000D01*
X193727064Y-61560000D02*
X192272936Y-61560000D01*
%TO.C,J13*%
X121500000Y-39380000D02*
X121500000Y-38000000D01*
X122880000Y-39380000D02*
X121500000Y-39380000D01*
X124150000Y-36620000D02*
X134420000Y-36620000D01*
X124150000Y-39380000D02*
X124150000Y-36620000D01*
X124150000Y-39380000D02*
X134420000Y-39380000D01*
X134420000Y-39380000D02*
X134420000Y-36620000D01*
%TO.C,J12*%
X149340000Y-91110000D02*
X149340000Y-93610000D01*
X149340000Y-93610000D02*
X151840000Y-93610000D01*
X149640000Y-91000000D02*
X150140000Y-91000000D01*
X149640000Y-91810000D02*
X150640000Y-91810000D01*
X150140000Y-89790000D02*
X156860000Y-89790000D01*
X150140000Y-91000000D02*
X150140000Y-89790000D01*
X150640000Y-91810000D02*
X150640000Y-93310000D01*
X156360000Y-91810000D02*
X156360000Y-93310000D01*
X156860000Y-89790000D02*
X156860000Y-91000000D01*
X156860000Y-91000000D02*
X157360000Y-91000000D01*
X157360000Y-91810000D02*
X156360000Y-91810000D01*
X149640000Y-89290000D02*
X157360000Y-89290000D01*
X157360000Y-93310000D01*
X149640000Y-93310000D01*
X149640000Y-89290000D01*
%TO.C,R32*%
X223387064Y-66100000D02*
X221932936Y-66100000D01*
X223387064Y-67920000D02*
X221932936Y-67920000D01*
%TO.C,R15*%
X88727064Y-55090000D02*
X87272936Y-55090000D01*
X88727064Y-56910000D02*
X87272936Y-56910000D01*
%TO.C,R19*%
X192890000Y-70572936D02*
X192890000Y-72027064D01*
X194710000Y-70572936D02*
X194710000Y-72027064D01*
D13*
%TO.C,J8*%
X117750000Y-46850000D02*
X117750000Y-41850000D01*
X121250000Y-46850000D02*
X117750000Y-46850000D01*
X136000000Y-41850000D02*
X117750000Y-41850000D01*
X136000000Y-41850000D02*
X136000000Y-46850000D01*
X136000000Y-46850000D02*
X133300000Y-46850000D01*
D14*
X120778000Y-41136000D02*
G75*
G02*
X120578000Y-41136000I-100000J0D01*
G01*
X120578000Y-41136000D02*
G75*
G02*
X120778000Y-41136000I100000J0D01*
G01*
D12*
%TO.C,C7*%
X152188748Y-86140000D02*
X153611252Y-86140000D01*
X152188748Y-87960000D02*
X153611252Y-87960000D01*
%TO.C,R14*%
X105022936Y-52340000D02*
X106477064Y-52340000D01*
X105022936Y-54160000D02*
X106477064Y-54160000D01*
%TO.C,C6*%
X141801248Y-83840000D02*
X143223752Y-83840000D01*
X141801248Y-85660000D02*
X143223752Y-85660000D01*
%TO.C,R11*%
X104792936Y-63230000D02*
X106247064Y-63230000D01*
X104792936Y-65050000D02*
X106247064Y-65050000D01*
%TO.C,R9*%
X76872936Y-52280000D02*
X78327064Y-52280000D01*
X76872936Y-54100000D02*
X78327064Y-54100000D01*
%TO.C,R31*%
X223387064Y-63200000D02*
X221932936Y-63200000D01*
X223387064Y-65020000D02*
X221932936Y-65020000D01*
%TO.C,R29*%
X223437064Y-57400000D02*
X221982936Y-57400000D01*
X223437064Y-59220000D02*
X221982936Y-59220000D01*
%TO.C,R4*%
X59777064Y-60950000D02*
X58322936Y-60950000D01*
X59777064Y-62770000D02*
X58322936Y-62770000D01*
%TO.C,R18*%
X88227064Y-64340000D02*
X86772936Y-64340000D01*
X88227064Y-66160000D02*
X86772936Y-66160000D01*
%TO.C,R6*%
X76802936Y-63630000D02*
X78257064Y-63630000D01*
X76802936Y-65450000D02*
X78257064Y-65450000D01*
%TO.C,R16*%
X88227064Y-58740000D02*
X86772936Y-58740000D01*
X88227064Y-60560000D02*
X86772936Y-60560000D01*
%TO.C,J7*%
X176587500Y-75045000D02*
X177967500Y-75045000D01*
X176587500Y-76425000D02*
X176587500Y-75045000D01*
X176587500Y-77695000D02*
X176587500Y-80345000D01*
X176587500Y-77695000D02*
X179347500Y-77695000D01*
X176587500Y-80345000D02*
X179347500Y-80345000D01*
X179347500Y-77695000D02*
X179347500Y-80345000D01*
%TO.C,R13*%
X104822936Y-57090000D02*
X106277064Y-57090000D01*
X104822936Y-58910000D02*
X106277064Y-58910000D01*
%TO.C,C3*%
X193690000Y-48651252D02*
X193690000Y-47228748D01*
X195510000Y-48651252D02*
X195510000Y-47228748D01*
%TO.C,R28*%
X222690000Y-70972936D02*
X222690000Y-72427064D01*
X224510000Y-70972936D02*
X224510000Y-72427064D01*
%TO.C,R34*%
X239682936Y-63150000D02*
X241137064Y-63150000D01*
X239682936Y-64970000D02*
X241137064Y-64970000D01*
%TO.C,U6*%
X228850000Y-49990000D02*
X228850000Y-75510000D01*
X228850000Y-75510000D02*
X234150000Y-75510000D01*
X230500000Y-49990000D02*
X228850000Y-49990000D01*
X234150000Y-49990000D02*
X232500000Y-49990000D01*
X234150000Y-75510000D02*
X234150000Y-49990000D01*
X226360000Y-49930000D02*
X236640000Y-49930000D01*
X236640000Y-75570000D01*
X226360000Y-75570000D01*
X226360000Y-49930000D01*
X232500000Y-49990000D02*
G75*
G02*
X230500000Y-49990000I-1000000J0D01*
G01*
%TO.C,R30*%
X223387064Y-60300000D02*
X221932936Y-60300000D01*
X223387064Y-62120000D02*
X221932936Y-62120000D01*
%TO.C,J2*%
X138090000Y-88860000D02*
X138090000Y-91360000D01*
X138090000Y-91360000D02*
X140590000Y-91360000D01*
X138390000Y-88750000D02*
X138890000Y-88750000D01*
X138390000Y-89560000D02*
X139390000Y-89560000D01*
X138890000Y-87540000D02*
X145610000Y-87540000D01*
X138890000Y-88750000D02*
X138890000Y-87540000D01*
X139390000Y-89560000D02*
X139390000Y-91060000D01*
X145110000Y-89560000D02*
X145110000Y-91060000D01*
X145610000Y-87540000D02*
X145610000Y-88750000D01*
X145610000Y-88750000D02*
X146110000Y-88750000D01*
X146110000Y-89560000D02*
X145110000Y-89560000D01*
X138390000Y-87040000D02*
X146110000Y-87040000D01*
X146110000Y-91060000D01*
X138390000Y-91060000D01*
X138390000Y-87040000D01*
%TO.C,R8*%
X76872936Y-55330000D02*
X78327064Y-55330000D01*
X76872936Y-57150000D02*
X78327064Y-57150000D01*
%TD*%
M02*
