%TF.GenerationSoftware,KiCad,Pcbnew,9.0.7*%
%TF.CreationDate,2026-03-16T20:52:18-05:00*%
%TF.ProjectId,MainBoard4Layer,4d61696e-426f-4617-9264-344c61796572,rev?*%
%TF.SameCoordinates,Original*%
%TF.FileFunction,Soldermask,Top*%
%TF.FilePolarity,Negative*%
%FSLAX46Y46*%
G04 Gerber Fmt 4.6, Leading zero omitted, Abs format (unit mm)*
G04 Created by KiCad (PCBNEW 9.0.7) date 2026-03-16 20:52:18*
%MOMM*%
%LPD*%
G01*
G04 APERTURE LIST*
G04 Aperture macros list*
%AMRoundRect*
0 Rectangle with rounded corners*
0 $1 Rounding radius*
0 $2 $3 $4 $5 $6 $7 $8 $9 X,Y pos of 4 corners*
0 Add a 4 corners polygon primitive as box body*
4,1,4,$2,$3,$4,$5,$6,$7,$8,$9,$2,$3,0*
0 Add four circle primitives for the rounded corners*
1,1,$1+$1,$2,$3*
1,1,$1+$1,$4,$5*
1,1,$1+$1,$6,$7*
1,1,$1+$1,$8,$9*
0 Add four rect primitives between the rounded corners*
20,1,$1+$1,$2,$3,$4,$5,0*
20,1,$1+$1,$4,$5,$6,$7,0*
20,1,$1+$1,$6,$7,$8,$9,0*
20,1,$1+$1,$8,$9,$2,$3,0*%
G04 Aperture macros list end*
%ADD10RoundRect,0.250000X-0.625000X0.400000X-0.625000X-0.400000X0.625000X-0.400000X0.625000X0.400000X0*%
%ADD11RoundRect,0.250000X0.400000X0.625000X-0.400000X0.625000X-0.400000X-0.625000X0.400000X-0.625000X0*%
%ADD12RoundRect,0.250000X0.550000X0.550000X-0.550000X0.550000X-0.550000X-0.550000X0.550000X-0.550000X0*%
%ADD13C,1.600000*%
%ADD14RoundRect,0.250000X-0.400000X-0.625000X0.400000X-0.625000X0.400000X0.625000X-0.400000X0.625000X0*%
%ADD15RoundRect,0.250000X-0.550000X-0.550000X0.550000X-0.550000X0.550000X0.550000X-0.550000X0.550000X0*%
%ADD16RoundRect,0.250000X0.650000X-0.412500X0.650000X0.412500X-0.650000X0.412500X-0.650000X-0.412500X0*%
%ADD17R,1.700000X1.700000*%
%ADD18C,1.700000*%
%ADD19RoundRect,0.250000X-0.600000X-0.750000X0.600000X-0.750000X0.600000X0.750000X-0.600000X0.750000X0*%
%ADD20O,1.700000X2.000000*%
%ADD21C,3.200000*%
%ADD22RoundRect,0.250000X0.412500X0.650000X-0.412500X0.650000X-0.412500X-0.650000X0.412500X-0.650000X0*%
%ADD23RoundRect,0.250000X-0.650000X0.412500X-0.650000X-0.412500X0.650000X-0.412500X0.650000X0.412500X0*%
%ADD24RoundRect,0.250000X0.625000X-0.400000X0.625000X0.400000X-0.625000X0.400000X-0.625000X-0.400000X0*%
%ADD25R,1.358000X1.358000*%
%ADD26C,1.358000*%
%ADD27RoundRect,0.250000X-0.412500X-0.650000X0.412500X-0.650000X0.412500X0.650000X-0.412500X0.650000X0*%
%ADD28R,1.550000X1.550000*%
%ADD29C,1.550000*%
G04 APERTURE END LIST*
D10*
%TO.C,R37*%
X117200000Y-62950000D03*
X117200000Y-66050000D03*
%TD*%
D11*
%TO.C,R23*%
X194500000Y-66900000D03*
X191400000Y-66900000D03*
%TD*%
D12*
%TO.C,U7*%
X130620000Y-73540000D03*
D13*
X130620000Y-71000000D03*
X130620000Y-68460000D03*
X130620000Y-65920000D03*
X130620000Y-63380000D03*
X130620000Y-60840000D03*
X130620000Y-58300000D03*
X130620000Y-55760000D03*
X123000000Y-55760000D03*
X123000000Y-58300000D03*
X123000000Y-60840000D03*
X123000000Y-63380000D03*
X123000000Y-65920000D03*
X123000000Y-68460000D03*
X123000000Y-71000000D03*
X123000000Y-73540000D03*
%TD*%
D14*
%TO.C,R25*%
X209800000Y-63800000D03*
X212900000Y-63800000D03*
%TD*%
%TO.C,R35*%
X238860000Y-61310000D03*
X241960000Y-61310000D03*
%TD*%
D15*
%TO.C,U1*%
X64380000Y-48220000D03*
D13*
X64380000Y-50760000D03*
X64380000Y-53300000D03*
X64380000Y-55840000D03*
X64380000Y-58380000D03*
X64380000Y-60920000D03*
X64380000Y-63460000D03*
X64380000Y-66000000D03*
X64380000Y-68540000D03*
X64380000Y-71080000D03*
X72000000Y-71080000D03*
X72000000Y-68540000D03*
X72000000Y-66000000D03*
X72000000Y-63460000D03*
X72000000Y-60920000D03*
X72000000Y-58380000D03*
X72000000Y-55840000D03*
X72000000Y-53300000D03*
X72000000Y-50760000D03*
X72000000Y-48220000D03*
%TD*%
D16*
%TO.C,C1*%
X60750000Y-47890000D03*
X60750000Y-44765000D03*
%TD*%
D14*
%TO.C,R26*%
X209800000Y-60900000D03*
X212900000Y-60900000D03*
%TD*%
%TO.C,R12*%
X104070000Y-61340000D03*
X107170000Y-61340000D03*
%TD*%
D17*
%TO.C,J14*%
X139500000Y-38800000D03*
D18*
X139500000Y-41340000D03*
X139500000Y-43880000D03*
X139500000Y-46420000D03*
%TD*%
D11*
%TO.C,R5*%
X60600000Y-65010000D03*
X57500000Y-65010000D03*
%TD*%
D14*
%TO.C,R33*%
X238910000Y-67010000D03*
X242010000Y-67010000D03*
%TD*%
D10*
%TO.C,R1*%
X60300000Y-67850000D03*
X60300000Y-70950000D03*
%TD*%
D11*
%TO.C,R22*%
X194500000Y-64200000D03*
X191400000Y-64200000D03*
%TD*%
D19*
%TO.C,J1*%
X141050000Y-27800000D03*
D20*
X143550000Y-27800000D03*
%TD*%
D14*
%TO.C,R24*%
X209850000Y-66850000D03*
X212950000Y-66850000D03*
%TD*%
D17*
%TO.C,J9*%
X115300000Y-59475000D03*
D18*
X115300000Y-56935000D03*
%TD*%
D12*
%TO.C,U4*%
X100920000Y-71210000D03*
D13*
X100920000Y-68670000D03*
X100920000Y-66130000D03*
X100920000Y-63590000D03*
X100920000Y-61050000D03*
X100920000Y-58510000D03*
X100920000Y-55970000D03*
X100920000Y-53430000D03*
X100920000Y-50890000D03*
X100920000Y-48350000D03*
X93300000Y-48350000D03*
X93300000Y-50890000D03*
X93300000Y-53430000D03*
X93300000Y-55970000D03*
X93300000Y-58510000D03*
X93300000Y-61050000D03*
X93300000Y-63590000D03*
X93300000Y-66130000D03*
X93300000Y-68670000D03*
X93300000Y-71210000D03*
%TD*%
D11*
%TO.C,R17*%
X89100000Y-62500000D03*
X86000000Y-62500000D03*
%TD*%
D16*
%TO.C,C4*%
X223910000Y-49992500D03*
X223910000Y-46867500D03*
%TD*%
D15*
%TO.C,U5*%
X198380000Y-51220000D03*
D13*
X198380000Y-53760000D03*
X198380000Y-56300000D03*
X198380000Y-58840000D03*
X198380000Y-61380000D03*
X198380000Y-63920000D03*
X198380000Y-66460000D03*
X198380000Y-69000000D03*
X198380000Y-71540000D03*
X198380000Y-74080000D03*
X206000000Y-74080000D03*
X206000000Y-71540000D03*
X206000000Y-69000000D03*
X206000000Y-66460000D03*
X206000000Y-63920000D03*
X206000000Y-61380000D03*
X206000000Y-58840000D03*
X206000000Y-56300000D03*
X206000000Y-53760000D03*
X206000000Y-51220000D03*
%TD*%
D11*
%TO.C,R20*%
X194500000Y-57700000D03*
X191400000Y-57700000D03*
%TD*%
%TO.C,R2*%
X60500000Y-55810000D03*
X57400000Y-55810000D03*
%TD*%
%TO.C,R3*%
X60550000Y-58710000D03*
X57450000Y-58710000D03*
%TD*%
D17*
%TO.C,U3*%
X170500000Y-60720000D03*
D18*
X170500000Y-63260000D03*
X170500000Y-65800000D03*
X170500000Y-68340000D03*
X170500000Y-70880000D03*
X170500000Y-73420000D03*
X170500000Y-75960000D03*
X170500000Y-78500000D03*
%TD*%
D21*
%TO.C,H1*%
X60000000Y-30000000D03*
%TD*%
D14*
%TO.C,R36*%
X238810000Y-58560000D03*
X241910000Y-58560000D03*
%TD*%
%TO.C,R7*%
X76050000Y-59290000D03*
X79150000Y-59290000D03*
%TD*%
D21*
%TO.C,H4*%
X240000000Y-90000000D03*
%TD*%
D17*
%TO.C,U2*%
X146380000Y-53280000D03*
D18*
X148920000Y-53280000D03*
X151460000Y-53280000D03*
X154000000Y-53280000D03*
X156540000Y-53280000D03*
X159080000Y-53280000D03*
X161620000Y-53280000D03*
X164160000Y-53280000D03*
X164160000Y-35500000D03*
X161620000Y-35500000D03*
X159080000Y-35500000D03*
X156540000Y-35500000D03*
X154000000Y-35500000D03*
X151460000Y-35500000D03*
X148920000Y-35500000D03*
X146380000Y-35500000D03*
%TD*%
D17*
%TO.C,J11*%
X239300000Y-53500000D03*
%TD*%
D14*
%TO.C,R27*%
X209850000Y-57900000D03*
X212950000Y-57900000D03*
%TD*%
D22*
%TO.C,C5*%
X135962500Y-27800000D03*
X132837500Y-27800000D03*
%TD*%
D23*
%TO.C,C2*%
X104700000Y-72137500D03*
X104700000Y-75262500D03*
%TD*%
D24*
%TO.C,R10*%
X104100000Y-49050000D03*
X104100000Y-45950000D03*
%TD*%
D11*
%TO.C,R21*%
X194550000Y-60650000D03*
X191450000Y-60650000D03*
%TD*%
D17*
%TO.C,J13*%
X122880000Y-38000000D03*
D18*
X125420000Y-38000000D03*
X127960000Y-38000000D03*
X130500000Y-38000000D03*
X133040000Y-38000000D03*
%TD*%
D19*
%TO.C,J12*%
X152250000Y-91000000D03*
D20*
X154750000Y-91000000D03*
%TD*%
D11*
%TO.C,R32*%
X224210000Y-67010000D03*
X221110000Y-67010000D03*
%TD*%
%TO.C,R15*%
X89550000Y-56000000D03*
X86450000Y-56000000D03*
%TD*%
D10*
%TO.C,R19*%
X193800000Y-69750000D03*
X193800000Y-72850000D03*
%TD*%
D25*
%TO.C,J8*%
X121000000Y-44000000D03*
D26*
X122250000Y-46000000D03*
X123500000Y-44000000D03*
X124750000Y-46000000D03*
X126000000Y-44000000D03*
X127250000Y-46000000D03*
X128500000Y-44000000D03*
X129750000Y-46000000D03*
X131000000Y-44000000D03*
X132250000Y-46000000D03*
%TD*%
D21*
%TO.C,H3*%
X240000000Y-30000000D03*
%TD*%
D27*
%TO.C,C7*%
X151337500Y-87050000D03*
X154462500Y-87050000D03*
%TD*%
D14*
%TO.C,R14*%
X104200000Y-53250000D03*
X107300000Y-53250000D03*
%TD*%
D27*
%TO.C,C6*%
X140950000Y-84750000D03*
X144075000Y-84750000D03*
%TD*%
D14*
%TO.C,R11*%
X103970000Y-64140000D03*
X107070000Y-64140000D03*
%TD*%
%TO.C,R9*%
X76050000Y-53190000D03*
X79150000Y-53190000D03*
%TD*%
D11*
%TO.C,R31*%
X224210000Y-64110000D03*
X221110000Y-64110000D03*
%TD*%
%TO.C,R29*%
X224260000Y-58310000D03*
X221160000Y-58310000D03*
%TD*%
%TO.C,R4*%
X60600000Y-61860000D03*
X57500000Y-61860000D03*
%TD*%
%TO.C,R18*%
X89050000Y-65250000D03*
X85950000Y-65250000D03*
%TD*%
D14*
%TO.C,R6*%
X75980000Y-64540000D03*
X79080000Y-64540000D03*
%TD*%
D11*
%TO.C,R16*%
X89050000Y-59650000D03*
X85950000Y-59650000D03*
%TD*%
D17*
%TO.C,J7*%
X177967500Y-76425000D03*
D18*
X177967500Y-78965000D03*
%TD*%
D14*
%TO.C,R13*%
X104000000Y-58000000D03*
X107100000Y-58000000D03*
%TD*%
D16*
%TO.C,C3*%
X194600000Y-49502500D03*
X194600000Y-46377500D03*
%TD*%
D10*
%TO.C,R28*%
X223600000Y-70150000D03*
X223600000Y-73250000D03*
%TD*%
D14*
%TO.C,R34*%
X238860000Y-64060000D03*
X241960000Y-64060000D03*
%TD*%
D15*
%TO.C,U6*%
X227690000Y-51320000D03*
D13*
X227690000Y-53860000D03*
X227690000Y-56400000D03*
X227690000Y-58940000D03*
X227690000Y-61480000D03*
X227690000Y-64020000D03*
X227690000Y-66560000D03*
X227690000Y-69100000D03*
X227690000Y-71640000D03*
X227690000Y-74180000D03*
X235310000Y-74180000D03*
X235310000Y-71640000D03*
X235310000Y-69100000D03*
X235310000Y-66560000D03*
X235310000Y-64020000D03*
X235310000Y-61480000D03*
X235310000Y-58940000D03*
X235310000Y-56400000D03*
X235310000Y-53860000D03*
X235310000Y-51320000D03*
%TD*%
D21*
%TO.C,H2*%
X60000000Y-90000000D03*
%TD*%
D11*
%TO.C,R30*%
X224210000Y-61210000D03*
X221110000Y-61210000D03*
%TD*%
D19*
%TO.C,J2*%
X141000000Y-88750000D03*
D20*
X143500000Y-88750000D03*
%TD*%
D14*
%TO.C,R8*%
X76050000Y-56240000D03*
X79150000Y-56240000D03*
%TD*%
D28*
%TO.C,L2*%
X119920000Y-29900000D03*
D29*
X122460000Y-29900000D03*
X125000000Y-29900000D03*
X127540000Y-29900000D03*
X130080000Y-29900000D03*
X130080000Y-90100000D03*
X127540000Y-90100000D03*
X125000000Y-90100000D03*
X122460000Y-90100000D03*
X119920000Y-90100000D03*
%TD*%
D28*
%TO.C,L1*%
X80080000Y-90100000D03*
D29*
X77540000Y-90100000D03*
X75000000Y-90100000D03*
X72460000Y-90100000D03*
X69920000Y-90100000D03*
X69920000Y-29900000D03*
X72460000Y-29900000D03*
X75000000Y-29900000D03*
X77540000Y-29900000D03*
X80080000Y-29900000D03*
%TD*%
D28*
%TO.C,L4*%
X230080000Y-90100000D03*
D29*
X227540000Y-90100000D03*
X225000000Y-90100000D03*
X222460000Y-90100000D03*
X219920000Y-90100000D03*
X219920000Y-29900000D03*
X222460000Y-29900000D03*
X225000000Y-29900000D03*
X227540000Y-29900000D03*
X230080000Y-29900000D03*
%TD*%
D28*
%TO.C,L3*%
X180080000Y-90100000D03*
D29*
X177540000Y-90100000D03*
X175000000Y-90100000D03*
X172460000Y-90100000D03*
X169920000Y-90100000D03*
X169920000Y-29900000D03*
X172460000Y-29900000D03*
X175000000Y-29900000D03*
X177540000Y-29900000D03*
X180080000Y-29900000D03*
%TD*%
M02*
