%TF.GenerationSoftware,KiCad,Pcbnew,9.0.7*%
%TF.CreationDate,2026-03-16T20:52:18-05:00*%
%TF.ProjectId,MainBoard4Layer,4d61696e-426f-4617-9264-344c61796572,rev?*%
%TF.SameCoordinates,Original*%
%TF.FileFunction,Paste,Top*%
%TF.FilePolarity,Positive*%
%FSLAX46Y46*%
G04 Gerber Fmt 4.6, Leading zero omitted, Abs format (unit mm)*
G04 Created by KiCad (PCBNEW 9.0.7) date 2026-03-16 20:52:18*
%MOMM*%
%LPD*%
G01*
G04 APERTURE LIST*
G04 Aperture macros list*
%AMRoundRect*
0 Rectangle with rounded corners*
0 $1 Rounding radius*
0 $2 $3 $4 $5 $6 $7 $8 $9 X,Y pos of 4 corners*
0 Add a 4 corners polygon primitive as box body*
4,1,4,$2,$3,$4,$5,$6,$7,$8,$9,$2,$3,0*
0 Add four circle primitives for the rounded corners*
1,1,$1+$1,$2,$3*
1,1,$1+$1,$4,$5*
1,1,$1+$1,$6,$7*
1,1,$1+$1,$8,$9*
0 Add four rect primitives between the rounded corners*
20,1,$1+$1,$2,$3,$4,$5,0*
20,1,$1+$1,$4,$5,$6,$7,0*
20,1,$1+$1,$6,$7,$8,$9,0*
20,1,$1+$1,$8,$9,$2,$3,0*%
G04 Aperture macros list end*
%ADD10RoundRect,0.250000X-0.625000X0.400000X-0.625000X-0.400000X0.625000X-0.400000X0.625000X0.400000X0*%
%ADD11RoundRect,0.250000X0.400000X0.625000X-0.400000X0.625000X-0.400000X-0.625000X0.400000X-0.625000X0*%
%ADD12RoundRect,0.250000X-0.400000X-0.625000X0.400000X-0.625000X0.400000X0.625000X-0.400000X0.625000X0*%
%ADD13RoundRect,0.250000X0.650000X-0.412500X0.650000X0.412500X-0.650000X0.412500X-0.650000X-0.412500X0*%
%ADD14RoundRect,0.250000X0.412500X0.650000X-0.412500X0.650000X-0.412500X-0.650000X0.412500X-0.650000X0*%
%ADD15RoundRect,0.250000X-0.650000X0.412500X-0.650000X-0.412500X0.650000X-0.412500X0.650000X0.412500X0*%
%ADD16RoundRect,0.250000X0.625000X-0.400000X0.625000X0.400000X-0.625000X0.400000X-0.625000X-0.400000X0*%
%ADD17RoundRect,0.250000X-0.412500X-0.650000X0.412500X-0.650000X0.412500X0.650000X-0.412500X0.650000X0*%
G04 APERTURE END LIST*
D10*
%TO.C,R37*%
X117200000Y-62950000D03*
X117200000Y-66050000D03*
%TD*%
D11*
%TO.C,R23*%
X194500000Y-66900000D03*
X191400000Y-66900000D03*
%TD*%
D12*
%TO.C,R25*%
X209800000Y-63800000D03*
X212900000Y-63800000D03*
%TD*%
%TO.C,R35*%
X238860000Y-61310000D03*
X241960000Y-61310000D03*
%TD*%
D13*
%TO.C,C1*%
X60750000Y-47890000D03*
X60750000Y-44765000D03*
%TD*%
D12*
%TO.C,R26*%
X209800000Y-60900000D03*
X212900000Y-60900000D03*
%TD*%
%TO.C,R12*%
X104070000Y-61340000D03*
X107170000Y-61340000D03*
%TD*%
D11*
%TO.C,R5*%
X60600000Y-65010000D03*
X57500000Y-65010000D03*
%TD*%
D12*
%TO.C,R33*%
X238910000Y-67010000D03*
X242010000Y-67010000D03*
%TD*%
D10*
%TO.C,R1*%
X60300000Y-67850000D03*
X60300000Y-70950000D03*
%TD*%
D11*
%TO.C,R22*%
X194500000Y-64200000D03*
X191400000Y-64200000D03*
%TD*%
D12*
%TO.C,R24*%
X209850000Y-66850000D03*
X212950000Y-66850000D03*
%TD*%
D11*
%TO.C,R17*%
X89100000Y-62500000D03*
X86000000Y-62500000D03*
%TD*%
D13*
%TO.C,C4*%
X223910000Y-49992500D03*
X223910000Y-46867500D03*
%TD*%
D11*
%TO.C,R20*%
X194500000Y-57700000D03*
X191400000Y-57700000D03*
%TD*%
%TO.C,R2*%
X60500000Y-55810000D03*
X57400000Y-55810000D03*
%TD*%
%TO.C,R3*%
X60550000Y-58710000D03*
X57450000Y-58710000D03*
%TD*%
D12*
%TO.C,R36*%
X238810000Y-58560000D03*
X241910000Y-58560000D03*
%TD*%
%TO.C,R7*%
X76050000Y-59290000D03*
X79150000Y-59290000D03*
%TD*%
%TO.C,R27*%
X209850000Y-57900000D03*
X212950000Y-57900000D03*
%TD*%
D14*
%TO.C,C5*%
X135962500Y-27800000D03*
X132837500Y-27800000D03*
%TD*%
D15*
%TO.C,C2*%
X104700000Y-72137500D03*
X104700000Y-75262500D03*
%TD*%
D16*
%TO.C,R10*%
X104100000Y-49050000D03*
X104100000Y-45950000D03*
%TD*%
D11*
%TO.C,R21*%
X194550000Y-60650000D03*
X191450000Y-60650000D03*
%TD*%
%TO.C,R32*%
X224210000Y-67010000D03*
X221110000Y-67010000D03*
%TD*%
%TO.C,R15*%
X89550000Y-56000000D03*
X86450000Y-56000000D03*
%TD*%
D10*
%TO.C,R19*%
X193800000Y-69750000D03*
X193800000Y-72850000D03*
%TD*%
D17*
%TO.C,C7*%
X151337500Y-87050000D03*
X154462500Y-87050000D03*
%TD*%
D12*
%TO.C,R14*%
X104200000Y-53250000D03*
X107300000Y-53250000D03*
%TD*%
D17*
%TO.C,C6*%
X140950000Y-84750000D03*
X144075000Y-84750000D03*
%TD*%
D12*
%TO.C,R11*%
X103970000Y-64140000D03*
X107070000Y-64140000D03*
%TD*%
%TO.C,R9*%
X76050000Y-53190000D03*
X79150000Y-53190000D03*
%TD*%
D11*
%TO.C,R31*%
X224210000Y-64110000D03*
X221110000Y-64110000D03*
%TD*%
%TO.C,R29*%
X224260000Y-58310000D03*
X221160000Y-58310000D03*
%TD*%
%TO.C,R4*%
X60600000Y-61860000D03*
X57500000Y-61860000D03*
%TD*%
%TO.C,R18*%
X89050000Y-65250000D03*
X85950000Y-65250000D03*
%TD*%
D12*
%TO.C,R6*%
X75980000Y-64540000D03*
X79080000Y-64540000D03*
%TD*%
D11*
%TO.C,R16*%
X89050000Y-59650000D03*
X85950000Y-59650000D03*
%TD*%
D12*
%TO.C,R13*%
X104000000Y-58000000D03*
X107100000Y-58000000D03*
%TD*%
D13*
%TO.C,C3*%
X194600000Y-49502500D03*
X194600000Y-46377500D03*
%TD*%
D10*
%TO.C,R28*%
X223600000Y-70150000D03*
X223600000Y-73250000D03*
%TD*%
D12*
%TO.C,R34*%
X238860000Y-64060000D03*
X241960000Y-64060000D03*
%TD*%
D11*
%TO.C,R30*%
X224210000Y-61210000D03*
X221110000Y-61210000D03*
%TD*%
D12*
%TO.C,R8*%
X76050000Y-56240000D03*
X79150000Y-56240000D03*
%TD*%
M02*
