%TF.GenerationSoftware,KiCad,Pcbnew,9.0.7*%
%TF.CreationDate,2026-03-08T17:21:47-06:00*%
%TF.ProjectId,BTN_Board,42544e5f-426f-4617-9264-2e6b69636164,rev?*%
%TF.SameCoordinates,Original*%
%TF.FileFunction,Legend,Bot*%
%TF.FilePolarity,Positive*%
%FSLAX46Y46*%
G04 Gerber Fmt 4.6, Leading zero omitted, Abs format (unit mm)*
G04 Created by KiCad (PCBNEW 9.0.7) date 2026-03-08 17:21:47*
%MOMM*%
%LPD*%
G01*
G04 APERTURE LIST*
%ADD10C,0.100000*%
G04 APERTURE END LIST*
D10*
X164037217Y-50151390D02*
X164180074Y-50103771D01*
X164180074Y-50103771D02*
X164227693Y-50056152D01*
X164227693Y-50056152D02*
X164275312Y-49960914D01*
X164275312Y-49960914D02*
X164275312Y-49818057D01*
X164275312Y-49818057D02*
X164227693Y-49722819D01*
X164227693Y-49722819D02*
X164180074Y-49675200D01*
X164180074Y-49675200D02*
X164084836Y-49627580D01*
X164084836Y-49627580D02*
X163703884Y-49627580D01*
X163703884Y-49627580D02*
X163703884Y-50627580D01*
X163703884Y-50627580D02*
X164037217Y-50627580D01*
X164037217Y-50627580D02*
X164132455Y-50579961D01*
X164132455Y-50579961D02*
X164180074Y-50532342D01*
X164180074Y-50532342D02*
X164227693Y-50437104D01*
X164227693Y-50437104D02*
X164227693Y-50341866D01*
X164227693Y-50341866D02*
X164180074Y-50246628D01*
X164180074Y-50246628D02*
X164132455Y-50199009D01*
X164132455Y-50199009D02*
X164037217Y-50151390D01*
X164037217Y-50151390D02*
X163703884Y-50151390D01*
X164561027Y-50627580D02*
X165132455Y-50627580D01*
X164846741Y-49627580D02*
X164846741Y-50627580D01*
X165465789Y-49627580D02*
X165465789Y-50627580D01*
X165465789Y-50627580D02*
X166037217Y-49627580D01*
X166037217Y-49627580D02*
X166037217Y-50627580D01*
X105537217Y-50151390D02*
X105680074Y-50103771D01*
X105680074Y-50103771D02*
X105727693Y-50056152D01*
X105727693Y-50056152D02*
X105775312Y-49960914D01*
X105775312Y-49960914D02*
X105775312Y-49818057D01*
X105775312Y-49818057D02*
X105727693Y-49722819D01*
X105727693Y-49722819D02*
X105680074Y-49675200D01*
X105680074Y-49675200D02*
X105584836Y-49627580D01*
X105584836Y-49627580D02*
X105203884Y-49627580D01*
X105203884Y-49627580D02*
X105203884Y-50627580D01*
X105203884Y-50627580D02*
X105537217Y-50627580D01*
X105537217Y-50627580D02*
X105632455Y-50579961D01*
X105632455Y-50579961D02*
X105680074Y-50532342D01*
X105680074Y-50532342D02*
X105727693Y-50437104D01*
X105727693Y-50437104D02*
X105727693Y-50341866D01*
X105727693Y-50341866D02*
X105680074Y-50246628D01*
X105680074Y-50246628D02*
X105632455Y-50199009D01*
X105632455Y-50199009D02*
X105537217Y-50151390D01*
X105537217Y-50151390D02*
X105203884Y-50151390D01*
X106061027Y-50627580D02*
X106632455Y-50627580D01*
X106346741Y-49627580D02*
X106346741Y-50627580D01*
X106965789Y-49627580D02*
X106965789Y-50627580D01*
X106965789Y-50627580D02*
X107537217Y-49627580D01*
X107537217Y-49627580D02*
X107537217Y-50627580D01*
X77537217Y-50151390D02*
X77680074Y-50103771D01*
X77680074Y-50103771D02*
X77727693Y-50056152D01*
X77727693Y-50056152D02*
X77775312Y-49960914D01*
X77775312Y-49960914D02*
X77775312Y-49818057D01*
X77775312Y-49818057D02*
X77727693Y-49722819D01*
X77727693Y-49722819D02*
X77680074Y-49675200D01*
X77680074Y-49675200D02*
X77584836Y-49627580D01*
X77584836Y-49627580D02*
X77203884Y-49627580D01*
X77203884Y-49627580D02*
X77203884Y-50627580D01*
X77203884Y-50627580D02*
X77537217Y-50627580D01*
X77537217Y-50627580D02*
X77632455Y-50579961D01*
X77632455Y-50579961D02*
X77680074Y-50532342D01*
X77680074Y-50532342D02*
X77727693Y-50437104D01*
X77727693Y-50437104D02*
X77727693Y-50341866D01*
X77727693Y-50341866D02*
X77680074Y-50246628D01*
X77680074Y-50246628D02*
X77632455Y-50199009D01*
X77632455Y-50199009D02*
X77537217Y-50151390D01*
X77537217Y-50151390D02*
X77203884Y-50151390D01*
X78061027Y-50627580D02*
X78632455Y-50627580D01*
X78346741Y-49627580D02*
X78346741Y-50627580D01*
X78965789Y-49627580D02*
X78965789Y-50627580D01*
X78965789Y-50627580D02*
X79537217Y-49627580D01*
X79537217Y-49627580D02*
X79537217Y-50627580D01*
X129037217Y-50151390D02*
X129180074Y-50103771D01*
X129180074Y-50103771D02*
X129227693Y-50056152D01*
X129227693Y-50056152D02*
X129275312Y-49960914D01*
X129275312Y-49960914D02*
X129275312Y-49818057D01*
X129275312Y-49818057D02*
X129227693Y-49722819D01*
X129227693Y-49722819D02*
X129180074Y-49675200D01*
X129180074Y-49675200D02*
X129084836Y-49627580D01*
X129084836Y-49627580D02*
X128703884Y-49627580D01*
X128703884Y-49627580D02*
X128703884Y-50627580D01*
X128703884Y-50627580D02*
X129037217Y-50627580D01*
X129037217Y-50627580D02*
X129132455Y-50579961D01*
X129132455Y-50579961D02*
X129180074Y-50532342D01*
X129180074Y-50532342D02*
X129227693Y-50437104D01*
X129227693Y-50437104D02*
X129227693Y-50341866D01*
X129227693Y-50341866D02*
X129180074Y-50246628D01*
X129180074Y-50246628D02*
X129132455Y-50199009D01*
X129132455Y-50199009D02*
X129037217Y-50151390D01*
X129037217Y-50151390D02*
X128703884Y-50151390D01*
X129561027Y-50627580D02*
X130132455Y-50627580D01*
X129846741Y-49627580D02*
X129846741Y-50627580D01*
X130465789Y-49627580D02*
X130465789Y-50627580D01*
X130465789Y-50627580D02*
X131037217Y-49627580D01*
X131037217Y-49627580D02*
X131037217Y-50627580D01*
X146537217Y-50151390D02*
X146680074Y-50103771D01*
X146680074Y-50103771D02*
X146727693Y-50056152D01*
X146727693Y-50056152D02*
X146775312Y-49960914D01*
X146775312Y-49960914D02*
X146775312Y-49818057D01*
X146775312Y-49818057D02*
X146727693Y-49722819D01*
X146727693Y-49722819D02*
X146680074Y-49675200D01*
X146680074Y-49675200D02*
X146584836Y-49627580D01*
X146584836Y-49627580D02*
X146203884Y-49627580D01*
X146203884Y-49627580D02*
X146203884Y-50627580D01*
X146203884Y-50627580D02*
X146537217Y-50627580D01*
X146537217Y-50627580D02*
X146632455Y-50579961D01*
X146632455Y-50579961D02*
X146680074Y-50532342D01*
X146680074Y-50532342D02*
X146727693Y-50437104D01*
X146727693Y-50437104D02*
X146727693Y-50341866D01*
X146727693Y-50341866D02*
X146680074Y-50246628D01*
X146680074Y-50246628D02*
X146632455Y-50199009D01*
X146632455Y-50199009D02*
X146537217Y-50151390D01*
X146537217Y-50151390D02*
X146203884Y-50151390D01*
X147061027Y-50627580D02*
X147632455Y-50627580D01*
X147346741Y-49627580D02*
X147346741Y-50627580D01*
X147965789Y-49627580D02*
X147965789Y-50627580D01*
X147965789Y-50627580D02*
X148537217Y-49627580D01*
X148537217Y-49627580D02*
X148537217Y-50627580D01*
%TO.C,SW4*%
X158600000Y-48900000D02*
X158600000Y-51400000D01*
X158600000Y-53700000D02*
X158600000Y-56300000D01*
X158600000Y-58600000D02*
X158600000Y-61100000D01*
X158600000Y-61100000D02*
X170900000Y-61100000D01*
X170900000Y-48900000D02*
X158600000Y-48900000D01*
X170900000Y-51400000D02*
X170900000Y-48900000D01*
X170900000Y-56300000D02*
X170900000Y-53700000D01*
X170900000Y-61100000D02*
X170900000Y-58600000D01*
X168335534Y-54935534D02*
G75*
G02*
X161264466Y-54935534I-3535534J0D01*
G01*
X161264466Y-54935534D02*
G75*
G02*
X168335534Y-54935534I3535534J0D01*
G01*
%TO.C,SW1*%
X100100000Y-48900000D02*
X100100000Y-51400000D01*
X100100000Y-53700000D02*
X100100000Y-56300000D01*
X100100000Y-58600000D02*
X100100000Y-61100000D01*
X100100000Y-61100000D02*
X112400000Y-61100000D01*
X112400000Y-48900000D02*
X100100000Y-48900000D01*
X112400000Y-51400000D02*
X112400000Y-48900000D01*
X112400000Y-56300000D02*
X112400000Y-53700000D01*
X112400000Y-61100000D02*
X112400000Y-58600000D01*
X109835534Y-54935534D02*
G75*
G02*
X102764466Y-54935534I-3535534J0D01*
G01*
X102764466Y-54935534D02*
G75*
G02*
X109835534Y-54935534I3535534J0D01*
G01*
%TO.C,SW5*%
X72100000Y-48900000D02*
X72100000Y-51400000D01*
X72100000Y-53700000D02*
X72100000Y-56300000D01*
X72100000Y-58600000D02*
X72100000Y-61100000D01*
X72100000Y-61100000D02*
X84400000Y-61100000D01*
X84400000Y-48900000D02*
X72100000Y-48900000D01*
X84400000Y-51400000D02*
X84400000Y-48900000D01*
X84400000Y-56300000D02*
X84400000Y-53700000D01*
X84400000Y-61100000D02*
X84400000Y-58600000D01*
X81835534Y-54935534D02*
G75*
G02*
X74764466Y-54935534I-3535534J0D01*
G01*
X74764466Y-54935534D02*
G75*
G02*
X81835534Y-54935534I3535534J0D01*
G01*
%TO.C,SW2*%
X123600000Y-48900000D02*
X123600000Y-51400000D01*
X123600000Y-53700000D02*
X123600000Y-56300000D01*
X123600000Y-58600000D02*
X123600000Y-61100000D01*
X123600000Y-61100000D02*
X135900000Y-61100000D01*
X135900000Y-48900000D02*
X123600000Y-48900000D01*
X135900000Y-51400000D02*
X135900000Y-48900000D01*
X135900000Y-56300000D02*
X135900000Y-53700000D01*
X135900000Y-61100000D02*
X135900000Y-58600000D01*
X133335534Y-54935534D02*
G75*
G02*
X126264466Y-54935534I-3535534J0D01*
G01*
X126264466Y-54935534D02*
G75*
G02*
X133335534Y-54935534I3535534J0D01*
G01*
%TO.C,SW3*%
X141100000Y-48900000D02*
X141100000Y-51400000D01*
X141100000Y-53700000D02*
X141100000Y-56300000D01*
X141100000Y-58600000D02*
X141100000Y-61100000D01*
X141100000Y-61100000D02*
X153400000Y-61100000D01*
X153400000Y-48900000D02*
X141100000Y-48900000D01*
X153400000Y-51400000D02*
X153400000Y-48900000D01*
X153400000Y-56300000D02*
X153400000Y-53700000D01*
X153400000Y-61100000D02*
X153400000Y-58600000D01*
X150835534Y-54935534D02*
G75*
G02*
X143764466Y-54935534I-3535534J0D01*
G01*
X143764466Y-54935534D02*
G75*
G02*
X150835534Y-54935534I3535534J0D01*
G01*
%TD*%
M02*
