M48
; DRILL file {KiCad 9.0.7} date 2026-03-08T17:21:53-0600
; FORMAT={-:-/ absolute / metric / decimal}
; #@! TF.CreationDate,2026-03-08T17:21:53-06:00
; #@! TF.GenerationSoftware,Kicad,Pcbnew,9.0.7
; #@! TF.FileFunction,Plated,1,2,PTH
FMAT,2
METRIC
; #@! TA.AperFunction,Plated,PTH,ViaDrill
T1C0.300
; #@! TA.AperFunction,Plated,PTH,ComponentDrill
T2C0.850
; #@! TA.AperFunction,Plated,PTH,ComponentDrill
T3C1.300
%
G90
G05
T1
X80.45Y-57.5
X103.45Y-57.5
X126.95Y-57.5
X144.45Y-57.5
X162.45Y-57.5
T2
X91.0Y-50.75
X91.0Y-53.25
X91.0Y-55.75
X91.0Y-58.25
X91.0Y-60.75
X93.0Y-49.5
X93.0Y-52.0
X93.0Y-54.5
X93.0Y-57.0
X93.0Y-59.5
T3
X72.0Y-52.5
X72.0Y-57.5
X84.5Y-52.5
X84.5Y-57.5
X100.0Y-52.5
X100.0Y-57.5
X112.5Y-52.5
X112.5Y-57.5
X123.5Y-52.5
X123.5Y-57.5
X136.0Y-52.5
X136.0Y-57.5
X141.0Y-52.5
X141.0Y-57.5
X153.5Y-52.5
X153.5Y-57.5
X158.5Y-52.5
X158.5Y-57.5
X171.0Y-52.5
X171.0Y-57.5
M30
