%TF.GenerationSoftware,KiCad,Pcbnew,9.0.7*%
%TF.CreationDate,2026-03-08T17:21:47-06:00*%
%TF.ProjectId,BTN_Board,42544e5f-426f-4617-9264-2e6b69636164,rev?*%
%TF.SameCoordinates,Original*%
%TF.FileFunction,Copper,L2,Bot*%
%TF.FilePolarity,Positive*%
%FSLAX46Y46*%
G04 Gerber Fmt 4.6, Leading zero omitted, Abs format (unit mm)*
G04 Created by KiCad (PCBNEW 9.0.7) date 2026-03-08 17:21:47*
%MOMM*%
%LPD*%
G01*
G04 APERTURE LIST*
%TA.AperFunction,ComponentPad*%
%ADD10O,3.200000X1.900000*%
%TD*%
%TA.AperFunction,ComponentPad*%
%ADD11R,1.358000X1.358000*%
%TD*%
%TA.AperFunction,ComponentPad*%
%ADD12C,1.358000*%
%TD*%
%TA.AperFunction,ViaPad*%
%ADD13C,0.600000*%
%TD*%
G04 APERTURE END LIST*
D10*
%TO.P,SW4,1,C*%
%TO.N,/Btn5*%
X171000000Y-57500000D03*
X158500000Y-57500000D03*
%TO.P,SW4,2,D*%
%TO.N,/5V_In*%
X171000000Y-52500000D03*
X158500000Y-52500000D03*
%TD*%
%TO.P,SW1,1,C*%
%TO.N,/Btn2*%
X112500000Y-57500000D03*
X100000000Y-57500000D03*
%TO.P,SW1,2,D*%
%TO.N,/5V_In*%
X112500000Y-52500000D03*
X100000000Y-52500000D03*
%TD*%
%TO.P,SW5,1,C*%
%TO.N,/Btn1*%
X84500000Y-57500000D03*
X72000000Y-57500000D03*
%TO.P,SW5,2,D*%
%TO.N,/5V_In*%
X84500000Y-52500000D03*
X72000000Y-52500000D03*
%TD*%
%TO.P,SW2,1,C*%
%TO.N,/Btn3*%
X136000000Y-57500000D03*
X123500000Y-57500000D03*
%TO.P,SW2,2,D*%
%TO.N,/5V_In*%
X136000000Y-52500000D03*
X123500000Y-52500000D03*
%TD*%
D11*
%TO.P,J2,1,Pin_1*%
%TO.N,/5V_In*%
X93000000Y-49500000D03*
D12*
%TO.P,J2,2,Pin_2*%
%TO.N,/Btn1*%
X91000000Y-50750000D03*
%TO.P,J2,3,Pin_3*%
%TO.N,/Btn2*%
X93000000Y-52000000D03*
%TO.P,J2,4,Pin_4*%
%TO.N,/Btn3*%
X91000000Y-53250000D03*
%TO.P,J2,5,Pin_5*%
%TO.N,/Btn4*%
X93000000Y-54500000D03*
%TO.P,J2,6,Pin_6*%
%TO.N,/Btn5*%
X91000000Y-55750000D03*
%TO.P,J2,7,Pin_7*%
%TO.N,unconnected-(J2-Pin_7-Pad7)*%
X93000000Y-57000000D03*
%TO.P,J2,8,Pin_8*%
%TO.N,unconnected-(J2-Pin_8-Pad8)*%
X91000000Y-58250000D03*
%TO.P,J2,9,Pin_9*%
%TO.N,unconnected-(J2-Pin_9-Pad9)*%
X93000000Y-59500000D03*
%TO.P,J2,10,Pin_10*%
%TO.N,GND*%
X91000000Y-60750000D03*
%TD*%
D10*
%TO.P,SW3,1,C*%
%TO.N,/Btn4*%
X153500000Y-57500000D03*
X141000000Y-57500000D03*
%TO.P,SW3,2,D*%
%TO.N,/5V_In*%
X153500000Y-52500000D03*
X141000000Y-52500000D03*
%TD*%
D13*
%TO.N,GND*%
X126950000Y-57500000D03*
X162450000Y-57500000D03*
X80450000Y-57500000D03*
X144450000Y-57500000D03*
X103450000Y-57500000D03*
%TD*%
%TA.AperFunction,Conductor*%
%TO.N,GND*%
G36*
X179002702Y-43000617D02*
G01*
X179386771Y-43017386D01*
X179397506Y-43018326D01*
X179775971Y-43068152D01*
X179786597Y-43070025D01*
X180159284Y-43152648D01*
X180169710Y-43155442D01*
X180533765Y-43270227D01*
X180543911Y-43273920D01*
X180896578Y-43420000D01*
X180906369Y-43424566D01*
X181244942Y-43600816D01*
X181254310Y-43606224D01*
X181576244Y-43811318D01*
X181585105Y-43817523D01*
X181887930Y-44049889D01*
X181896217Y-44056843D01*
X182177635Y-44314715D01*
X182185284Y-44322364D01*
X182443156Y-44603782D01*
X182450110Y-44612069D01*
X182682476Y-44914894D01*
X182688681Y-44923755D01*
X182893775Y-45245689D01*
X182899183Y-45255057D01*
X183075430Y-45593623D01*
X183080002Y-45603427D01*
X183226075Y-45956078D01*
X183229775Y-45966244D01*
X183344554Y-46330278D01*
X183347354Y-46340727D01*
X183429971Y-46713389D01*
X183431849Y-46724042D01*
X183481671Y-47102473D01*
X183482614Y-47113249D01*
X183499382Y-47497297D01*
X183499500Y-47502706D01*
X183499500Y-62497293D01*
X183499382Y-62502702D01*
X183482614Y-62886750D01*
X183481671Y-62897526D01*
X183431849Y-63275957D01*
X183429971Y-63286610D01*
X183347354Y-63659272D01*
X183344554Y-63669721D01*
X183229775Y-64033755D01*
X183226075Y-64043921D01*
X183080002Y-64396572D01*
X183075430Y-64406376D01*
X182899183Y-64744942D01*
X182893775Y-64754310D01*
X182688681Y-65076244D01*
X182682476Y-65085105D01*
X182450110Y-65387930D01*
X182443156Y-65396217D01*
X182185284Y-65677635D01*
X182177635Y-65685284D01*
X181896217Y-65943156D01*
X181887930Y-65950110D01*
X181585105Y-66182476D01*
X181576244Y-66188681D01*
X181254310Y-66393775D01*
X181244942Y-66399183D01*
X180906376Y-66575430D01*
X180896572Y-66580002D01*
X180543921Y-66726075D01*
X180533755Y-66729775D01*
X180169721Y-66844554D01*
X180159272Y-66847354D01*
X179786610Y-66929971D01*
X179775957Y-66931849D01*
X179397526Y-66981671D01*
X179386750Y-66982614D01*
X179002703Y-66999382D01*
X178997294Y-66999500D01*
X64002706Y-66999500D01*
X63997297Y-66999382D01*
X63613249Y-66982614D01*
X63602473Y-66981671D01*
X63224042Y-66931849D01*
X63213389Y-66929971D01*
X62840727Y-66847354D01*
X62830278Y-66844554D01*
X62466244Y-66729775D01*
X62456078Y-66726075D01*
X62103427Y-66580002D01*
X62093623Y-66575430D01*
X61755057Y-66399183D01*
X61745689Y-66393775D01*
X61423755Y-66188681D01*
X61414894Y-66182476D01*
X61112069Y-65950110D01*
X61103782Y-65943156D01*
X60822364Y-65685284D01*
X60814715Y-65677635D01*
X60556843Y-65396217D01*
X60549889Y-65387930D01*
X60317523Y-65085105D01*
X60311318Y-65076244D01*
X60106224Y-64754310D01*
X60100816Y-64744942D01*
X59924569Y-64406376D01*
X59919997Y-64396572D01*
X59773924Y-64043921D01*
X59770224Y-64033755D01*
X59655442Y-63669710D01*
X59652648Y-63659284D01*
X59570025Y-63286597D01*
X59568152Y-63275971D01*
X59518326Y-62897506D01*
X59517386Y-62886771D01*
X59500618Y-62502702D01*
X59500500Y-62497293D01*
X59500500Y-57385837D01*
X69899500Y-57385837D01*
X69899500Y-57614162D01*
X69935215Y-57839660D01*
X70005770Y-58056803D01*
X70068288Y-58179500D01*
X70109421Y-58260228D01*
X70243621Y-58444937D01*
X70405063Y-58606379D01*
X70589772Y-58740579D01*
X70685884Y-58789550D01*
X70793196Y-58844229D01*
X70793198Y-58844229D01*
X70793201Y-58844231D01*
X70908845Y-58881806D01*
X71010339Y-58914784D01*
X71235838Y-58950500D01*
X71235843Y-58950500D01*
X72764162Y-58950500D01*
X72989660Y-58914784D01*
X73206799Y-58844231D01*
X73410228Y-58740579D01*
X73594937Y-58606379D01*
X73756379Y-58444937D01*
X73890579Y-58260228D01*
X73994231Y-58056799D01*
X74064784Y-57839660D01*
X74100500Y-57614162D01*
X74100500Y-57385837D01*
X82399500Y-57385837D01*
X82399500Y-57614162D01*
X82435215Y-57839660D01*
X82505770Y-58056803D01*
X82568288Y-58179500D01*
X82609421Y-58260228D01*
X82743621Y-58444937D01*
X82905063Y-58606379D01*
X83089772Y-58740579D01*
X83185884Y-58789550D01*
X83293196Y-58844229D01*
X83293198Y-58844229D01*
X83293201Y-58844231D01*
X83408845Y-58881806D01*
X83510339Y-58914784D01*
X83735838Y-58950500D01*
X83735843Y-58950500D01*
X85264162Y-58950500D01*
X85489660Y-58914784D01*
X85706799Y-58844231D01*
X85910228Y-58740579D01*
X86094937Y-58606379D01*
X86256379Y-58444937D01*
X86390579Y-58260228D01*
X86494231Y-58056799D01*
X86564784Y-57839660D01*
X86600500Y-57614162D01*
X86600500Y-57385837D01*
X86564784Y-57160339D01*
X86494229Y-56943196D01*
X86430865Y-56818838D01*
X86390579Y-56739772D01*
X86256379Y-56555063D01*
X86094937Y-56393621D01*
X85910228Y-56259421D01*
X85855634Y-56231604D01*
X85706803Y-56155770D01*
X85489660Y-56085215D01*
X85264162Y-56049500D01*
X85264157Y-56049500D01*
X83735843Y-56049500D01*
X83735838Y-56049500D01*
X83510339Y-56085215D01*
X83293196Y-56155770D01*
X83089771Y-56259421D01*
X82905061Y-56393622D01*
X82743622Y-56555061D01*
X82609421Y-56739771D01*
X82505770Y-56943196D01*
X82435215Y-57160339D01*
X82399500Y-57385837D01*
X74100500Y-57385837D01*
X74064784Y-57160339D01*
X73994229Y-56943196D01*
X73930865Y-56818838D01*
X73890579Y-56739772D01*
X73756379Y-56555063D01*
X73594937Y-56393621D01*
X73410228Y-56259421D01*
X73355634Y-56231604D01*
X73206803Y-56155770D01*
X72989660Y-56085215D01*
X72764162Y-56049500D01*
X72764157Y-56049500D01*
X71235843Y-56049500D01*
X71235838Y-56049500D01*
X71010339Y-56085215D01*
X70793196Y-56155770D01*
X70589771Y-56259421D01*
X70405061Y-56393622D01*
X70243622Y-56555061D01*
X70109421Y-56739771D01*
X70005770Y-56943196D01*
X69935215Y-57160339D01*
X69899500Y-57385837D01*
X59500500Y-57385837D01*
X59500500Y-54878711D01*
X64149500Y-54878711D01*
X64149500Y-55121288D01*
X64181161Y-55361785D01*
X64243947Y-55596104D01*
X64278491Y-55679500D01*
X64336776Y-55820212D01*
X64458064Y-56030289D01*
X64458066Y-56030292D01*
X64458067Y-56030293D01*
X64605733Y-56222736D01*
X64605739Y-56222743D01*
X64777256Y-56394260D01*
X64777262Y-56394265D01*
X64969711Y-56541936D01*
X65179788Y-56663224D01*
X65403900Y-56756054D01*
X65638211Y-56818838D01*
X65818586Y-56842584D01*
X65878711Y-56850500D01*
X65878712Y-56850500D01*
X66121289Y-56850500D01*
X66169388Y-56844167D01*
X66361789Y-56818838D01*
X66596100Y-56756054D01*
X66820212Y-56663224D01*
X67030289Y-56541936D01*
X67222738Y-56394265D01*
X67394265Y-56222738D01*
X67541936Y-56030289D01*
X67663224Y-55820212D01*
X67756054Y-55596100D01*
X67818838Y-55361789D01*
X67850500Y-55121288D01*
X67850500Y-54878712D01*
X67818838Y-54638211D01*
X67756054Y-54403900D01*
X67663224Y-54179788D01*
X67541936Y-53969711D01*
X67445652Y-53844231D01*
X67394266Y-53777263D01*
X67394260Y-53777256D01*
X67222743Y-53605739D01*
X67222736Y-53605733D01*
X67030293Y-53458067D01*
X67030292Y-53458066D01*
X67030289Y-53458064D01*
X66820212Y-53336776D01*
X66800215Y-53328493D01*
X66596104Y-53243947D01*
X66361785Y-53181161D01*
X66121289Y-53149500D01*
X66121288Y-53149500D01*
X65878712Y-53149500D01*
X65878711Y-53149500D01*
X65638214Y-53181161D01*
X65403895Y-53243947D01*
X65179794Y-53336773D01*
X65179785Y-53336777D01*
X64969706Y-53458067D01*
X64777263Y-53605733D01*
X64777256Y-53605739D01*
X64605739Y-53777256D01*
X64605733Y-53777263D01*
X64458067Y-53969706D01*
X64336777Y-54179785D01*
X64336773Y-54179794D01*
X64243947Y-54403895D01*
X64181161Y-54638214D01*
X64149500Y-54878711D01*
X59500500Y-54878711D01*
X59500500Y-52385837D01*
X69899500Y-52385837D01*
X69899500Y-52614162D01*
X69935215Y-52839660D01*
X70005770Y-53056803D01*
X70068288Y-53179500D01*
X70109421Y-53260228D01*
X70243621Y-53444937D01*
X70405063Y-53606379D01*
X70589772Y-53740579D01*
X70661755Y-53777256D01*
X70793196Y-53844229D01*
X70793198Y-53844229D01*
X70793201Y-53844231D01*
X70908845Y-53881806D01*
X71010339Y-53914784D01*
X71235838Y-53950500D01*
X71235843Y-53950500D01*
X72764162Y-53950500D01*
X72989660Y-53914784D01*
X73206799Y-53844231D01*
X73410228Y-53740579D01*
X73594937Y-53606379D01*
X73756379Y-53444937D01*
X73890579Y-53260228D01*
X73994231Y-53056799D01*
X74064784Y-52839660D01*
X74100500Y-52614162D01*
X74100500Y-52385837D01*
X82399500Y-52385837D01*
X82399500Y-52614162D01*
X82435215Y-52839660D01*
X82505770Y-53056803D01*
X82568288Y-53179500D01*
X82609421Y-53260228D01*
X82743621Y-53444937D01*
X82905063Y-53606379D01*
X83089772Y-53740579D01*
X83161755Y-53777256D01*
X83293196Y-53844229D01*
X83293198Y-53844229D01*
X83293201Y-53844231D01*
X83408845Y-53881806D01*
X83510339Y-53914784D01*
X83735838Y-53950500D01*
X83735843Y-53950500D01*
X85264162Y-53950500D01*
X85489660Y-53914784D01*
X85706799Y-53844231D01*
X85910228Y-53740579D01*
X86094937Y-53606379D01*
X86256379Y-53444937D01*
X86390579Y-53260228D01*
X86494231Y-53056799D01*
X86564784Y-52839660D01*
X86600500Y-52614162D01*
X86600500Y-52385837D01*
X86564784Y-52160339D01*
X86494229Y-51943196D01*
X86439550Y-51835884D01*
X86390579Y-51739772D01*
X86256379Y-51555063D01*
X86094937Y-51393621D01*
X85910228Y-51259421D01*
X85855634Y-51231604D01*
X85706803Y-51155770D01*
X85489660Y-51085215D01*
X85264162Y-51049500D01*
X85264157Y-51049500D01*
X83735843Y-51049500D01*
X83735838Y-51049500D01*
X83510339Y-51085215D01*
X83293196Y-51155770D01*
X83089771Y-51259421D01*
X82905061Y-51393622D01*
X82743622Y-51555061D01*
X82609421Y-51739771D01*
X82505770Y-51943196D01*
X82435215Y-52160339D01*
X82399500Y-52385837D01*
X74100500Y-52385837D01*
X74064784Y-52160339D01*
X73994229Y-51943196D01*
X73939550Y-51835884D01*
X73890579Y-51739772D01*
X73756379Y-51555063D01*
X73594937Y-51393621D01*
X73410228Y-51259421D01*
X73355634Y-51231604D01*
X73206803Y-51155770D01*
X72989660Y-51085215D01*
X72764162Y-51049500D01*
X72764157Y-51049500D01*
X71235843Y-51049500D01*
X71235838Y-51049500D01*
X71010339Y-51085215D01*
X70793196Y-51155770D01*
X70589771Y-51259421D01*
X70405061Y-51393622D01*
X70243622Y-51555061D01*
X70109421Y-51739771D01*
X70005770Y-51943196D01*
X69935215Y-52160339D01*
X69899500Y-52385837D01*
X59500500Y-52385837D01*
X59500500Y-50657165D01*
X89820500Y-50657165D01*
X89820500Y-50842834D01*
X89849542Y-51026196D01*
X89849543Y-51026200D01*
X89906915Y-51202771D01*
X89991201Y-51368193D01*
X90100328Y-51518393D01*
X90231607Y-51649672D01*
X90381807Y-51758799D01*
X90547229Y-51843085D01*
X90667209Y-51882069D01*
X90724885Y-51921507D01*
X90752083Y-51985865D01*
X90740168Y-52054712D01*
X90692924Y-52106187D01*
X90667211Y-52117930D01*
X90627245Y-52130916D01*
X90547226Y-52156916D01*
X90381806Y-52241201D01*
X90333639Y-52276197D01*
X90231607Y-52350328D01*
X90231605Y-52350330D01*
X90231604Y-52350330D01*
X90100330Y-52481604D01*
X90100330Y-52481605D01*
X90100328Y-52481607D01*
X90053462Y-52546111D01*
X89991201Y-52631806D01*
X89906916Y-52797226D01*
X89849542Y-52973803D01*
X89820500Y-53157165D01*
X89820500Y-53342834D01*
X89846705Y-53508284D01*
X89849543Y-53526200D01*
X89906915Y-53702771D01*
X89991201Y-53868193D01*
X90100328Y-54018393D01*
X90231607Y-54149672D01*
X90381807Y-54258799D01*
X90547229Y-54343085D01*
X90667209Y-54382069D01*
X90724885Y-54421507D01*
X90752083Y-54485865D01*
X90740168Y-54554712D01*
X90692924Y-54606187D01*
X90667211Y-54617930D01*
X90547229Y-54656915D01*
X90547226Y-54656916D01*
X90381806Y-54741201D01*
X90336250Y-54774300D01*
X90231607Y-54850328D01*
X90231605Y-54850330D01*
X90231604Y-54850330D01*
X90100330Y-54981604D01*
X90100330Y-54981605D01*
X90100328Y-54981607D01*
X90053462Y-55046111D01*
X89991201Y-55131806D01*
X89906916Y-55297226D01*
X89849542Y-55473803D01*
X89820500Y-55657165D01*
X89820500Y-55842834D01*
X89846705Y-56008284D01*
X89849543Y-56026200D01*
X89906915Y-56202771D01*
X89991201Y-56368193D01*
X90100328Y-56518393D01*
X90231607Y-56649672D01*
X90381807Y-56758799D01*
X90547229Y-56843085D01*
X90667209Y-56882069D01*
X90724885Y-56921507D01*
X90752083Y-56985865D01*
X90740168Y-57054712D01*
X90692924Y-57106187D01*
X90667211Y-57117930D01*
X90627245Y-57130916D01*
X90547226Y-57156916D01*
X90381806Y-57241201D01*
X90333639Y-57276197D01*
X90231607Y-57350328D01*
X90231605Y-57350330D01*
X90231604Y-57350330D01*
X90100330Y-57481604D01*
X90100330Y-57481605D01*
X90100328Y-57481607D01*
X90053462Y-57546111D01*
X89991201Y-57631806D01*
X89906916Y-57797226D01*
X89849542Y-57973803D01*
X89820500Y-58157165D01*
X89820500Y-58342834D01*
X89846705Y-58508284D01*
X89849543Y-58526200D01*
X89906915Y-58702771D01*
X89991201Y-58868193D01*
X90100328Y-59018393D01*
X90231607Y-59149672D01*
X90381807Y-59258799D01*
X90547229Y-59343085D01*
X90668019Y-59382332D01*
X90725693Y-59421768D01*
X90752891Y-59486127D01*
X90740976Y-59554973D01*
X90693732Y-59606449D01*
X90668018Y-59618193D01*
X90547417Y-59657379D01*
X90382065Y-59741631D01*
X90360704Y-59757150D01*
X90360704Y-59757151D01*
X90931828Y-60328274D01*
X90835956Y-60353963D01*
X90739044Y-60409916D01*
X90659916Y-60489044D01*
X90603963Y-60585956D01*
X90578274Y-60681827D01*
X90007151Y-60110704D01*
X90007150Y-60110704D01*
X89991631Y-60132065D01*
X89907379Y-60297416D01*
X89850031Y-60473916D01*
X89821000Y-60657211D01*
X89821000Y-60842788D01*
X89850031Y-61026083D01*
X89907379Y-61202583D01*
X89991629Y-61367931D01*
X90007151Y-61389294D01*
X90007151Y-61389295D01*
X90578274Y-60818172D01*
X90603963Y-60914044D01*
X90659916Y-61010956D01*
X90739044Y-61090084D01*
X90835956Y-61146037D01*
X90931827Y-61171725D01*
X90360704Y-61742847D01*
X90360704Y-61742848D01*
X90382068Y-61758370D01*
X90547416Y-61842620D01*
X90723916Y-61899968D01*
X90907212Y-61929000D01*
X91092788Y-61929000D01*
X91276083Y-61899968D01*
X91452583Y-61842620D01*
X91617933Y-61758368D01*
X91617940Y-61758364D01*
X91639294Y-61742848D01*
X91639295Y-61742847D01*
X91068173Y-61171725D01*
X91164044Y-61146037D01*
X91260956Y-61090084D01*
X91340084Y-61010956D01*
X91396037Y-60914044D01*
X91421725Y-60818172D01*
X91992847Y-61389295D01*
X91992848Y-61389294D01*
X92008364Y-61367940D01*
X92008368Y-61367933D01*
X92092620Y-61202583D01*
X92149968Y-61026083D01*
X92179000Y-60842788D01*
X92179000Y-60657213D01*
X92172895Y-60618669D01*
X92181849Y-60549375D01*
X92226845Y-60495923D01*
X92293597Y-60475283D01*
X92360910Y-60494008D01*
X92368251Y-60498950D01*
X92381807Y-60508799D01*
X92547229Y-60593085D01*
X92723800Y-60650457D01*
X92792564Y-60661348D01*
X92907166Y-60679500D01*
X92907171Y-60679500D01*
X93092834Y-60679500D01*
X93194701Y-60663365D01*
X93276200Y-60650457D01*
X93452771Y-60593085D01*
X93618193Y-60508799D01*
X93768393Y-60399672D01*
X93899672Y-60268393D01*
X94008799Y-60118193D01*
X94093085Y-59952771D01*
X94150457Y-59776200D01*
X94163365Y-59694701D01*
X94179500Y-59592834D01*
X94179500Y-59407165D01*
X94154507Y-59249371D01*
X94150457Y-59223800D01*
X94093085Y-59047229D01*
X94008799Y-58881807D01*
X93899672Y-58731607D01*
X93768393Y-58600328D01*
X93618193Y-58491201D01*
X93452771Y-58406915D01*
X93332788Y-58367929D01*
X93275114Y-58328493D01*
X93247916Y-58264135D01*
X93259831Y-58195288D01*
X93307075Y-58143813D01*
X93332785Y-58132071D01*
X93452771Y-58093085D01*
X93618193Y-58008799D01*
X93768393Y-57899672D01*
X93899672Y-57768393D01*
X94008799Y-57618193D01*
X94093085Y-57452771D01*
X94114833Y-57385837D01*
X97899500Y-57385837D01*
X97899500Y-57614162D01*
X97935215Y-57839660D01*
X98005770Y-58056803D01*
X98068288Y-58179500D01*
X98109421Y-58260228D01*
X98243621Y-58444937D01*
X98405063Y-58606379D01*
X98589772Y-58740579D01*
X98685884Y-58789550D01*
X98793196Y-58844229D01*
X98793198Y-58844229D01*
X98793201Y-58844231D01*
X98908845Y-58881806D01*
X99010339Y-58914784D01*
X99235838Y-58950500D01*
X99235843Y-58950500D01*
X100764162Y-58950500D01*
X100989660Y-58914784D01*
X101206799Y-58844231D01*
X101410228Y-58740579D01*
X101594937Y-58606379D01*
X101756379Y-58444937D01*
X101890579Y-58260228D01*
X101994231Y-58056799D01*
X102064784Y-57839660D01*
X102100500Y-57614162D01*
X102100500Y-57385837D01*
X110399500Y-57385837D01*
X110399500Y-57614162D01*
X110435215Y-57839660D01*
X110505770Y-58056803D01*
X110568288Y-58179500D01*
X110609421Y-58260228D01*
X110743621Y-58444937D01*
X110905063Y-58606379D01*
X111089772Y-58740579D01*
X111185884Y-58789550D01*
X111293196Y-58844229D01*
X111293198Y-58844229D01*
X111293201Y-58844231D01*
X111408845Y-58881806D01*
X111510339Y-58914784D01*
X111735838Y-58950500D01*
X111735843Y-58950500D01*
X113264162Y-58950500D01*
X113489660Y-58914784D01*
X113706799Y-58844231D01*
X113910228Y-58740579D01*
X114094937Y-58606379D01*
X114256379Y-58444937D01*
X114390579Y-58260228D01*
X114494231Y-58056799D01*
X114564784Y-57839660D01*
X114600500Y-57614162D01*
X114600500Y-57385837D01*
X121399500Y-57385837D01*
X121399500Y-57614162D01*
X121435215Y-57839660D01*
X121505770Y-58056803D01*
X121568288Y-58179500D01*
X121609421Y-58260228D01*
X121743621Y-58444937D01*
X121905063Y-58606379D01*
X122089772Y-58740579D01*
X122185884Y-58789550D01*
X122293196Y-58844229D01*
X122293198Y-58844229D01*
X122293201Y-58844231D01*
X122408845Y-58881806D01*
X122510339Y-58914784D01*
X122735838Y-58950500D01*
X122735843Y-58950500D01*
X124264162Y-58950500D01*
X124489660Y-58914784D01*
X124706799Y-58844231D01*
X124910228Y-58740579D01*
X125094937Y-58606379D01*
X125256379Y-58444937D01*
X125390579Y-58260228D01*
X125494231Y-58056799D01*
X125564784Y-57839660D01*
X125600500Y-57614162D01*
X125600500Y-57385837D01*
X133899500Y-57385837D01*
X133899500Y-57614162D01*
X133935215Y-57839660D01*
X134005770Y-58056803D01*
X134068288Y-58179500D01*
X134109421Y-58260228D01*
X134243621Y-58444937D01*
X134405063Y-58606379D01*
X134589772Y-58740579D01*
X134685884Y-58789550D01*
X134793196Y-58844229D01*
X134793198Y-58844229D01*
X134793201Y-58844231D01*
X134908845Y-58881806D01*
X135010339Y-58914784D01*
X135235838Y-58950500D01*
X135235843Y-58950500D01*
X136764162Y-58950500D01*
X136989660Y-58914784D01*
X137206799Y-58844231D01*
X137410228Y-58740579D01*
X137594937Y-58606379D01*
X137756379Y-58444937D01*
X137890579Y-58260228D01*
X137994231Y-58056799D01*
X138064784Y-57839660D01*
X138100500Y-57614162D01*
X138100500Y-57385837D01*
X138899500Y-57385837D01*
X138899500Y-57614162D01*
X138935215Y-57839660D01*
X139005770Y-58056803D01*
X139068288Y-58179500D01*
X139109421Y-58260228D01*
X139243621Y-58444937D01*
X139405063Y-58606379D01*
X139589772Y-58740579D01*
X139685884Y-58789550D01*
X139793196Y-58844229D01*
X139793198Y-58844229D01*
X139793201Y-58844231D01*
X139908845Y-58881806D01*
X140010339Y-58914784D01*
X140235838Y-58950500D01*
X140235843Y-58950500D01*
X141764162Y-58950500D01*
X141989660Y-58914784D01*
X142206799Y-58844231D01*
X142410228Y-58740579D01*
X142594937Y-58606379D01*
X142756379Y-58444937D01*
X142890579Y-58260228D01*
X142994231Y-58056799D01*
X143064784Y-57839660D01*
X143100500Y-57614162D01*
X143100500Y-57385837D01*
X151399500Y-57385837D01*
X151399500Y-57614162D01*
X151435215Y-57839660D01*
X151505770Y-58056803D01*
X151568288Y-58179500D01*
X151609421Y-58260228D01*
X151743621Y-58444937D01*
X151905063Y-58606379D01*
X152089772Y-58740579D01*
X152185884Y-58789550D01*
X152293196Y-58844229D01*
X152293198Y-58844229D01*
X152293201Y-58844231D01*
X152408845Y-58881806D01*
X152510339Y-58914784D01*
X152735838Y-58950500D01*
X152735843Y-58950500D01*
X154264162Y-58950500D01*
X154489660Y-58914784D01*
X154706799Y-58844231D01*
X154910228Y-58740579D01*
X155094937Y-58606379D01*
X155256379Y-58444937D01*
X155390579Y-58260228D01*
X155494231Y-58056799D01*
X155564784Y-57839660D01*
X155600500Y-57614162D01*
X155600500Y-57385837D01*
X156399500Y-57385837D01*
X156399500Y-57614162D01*
X156435215Y-57839660D01*
X156505770Y-58056803D01*
X156568288Y-58179500D01*
X156609421Y-58260228D01*
X156743621Y-58444937D01*
X156905063Y-58606379D01*
X157089772Y-58740579D01*
X157185884Y-58789550D01*
X157293196Y-58844229D01*
X157293198Y-58844229D01*
X157293201Y-58844231D01*
X157408845Y-58881806D01*
X157510339Y-58914784D01*
X157735838Y-58950500D01*
X157735843Y-58950500D01*
X159264162Y-58950500D01*
X159489660Y-58914784D01*
X159706799Y-58844231D01*
X159910228Y-58740579D01*
X160094937Y-58606379D01*
X160256379Y-58444937D01*
X160390579Y-58260228D01*
X160494231Y-58056799D01*
X160564784Y-57839660D01*
X160600500Y-57614162D01*
X160600500Y-57385837D01*
X168899500Y-57385837D01*
X168899500Y-57614162D01*
X168935215Y-57839660D01*
X169005770Y-58056803D01*
X169068288Y-58179500D01*
X169109421Y-58260228D01*
X169243621Y-58444937D01*
X169405063Y-58606379D01*
X169589772Y-58740579D01*
X169685884Y-58789550D01*
X169793196Y-58844229D01*
X169793198Y-58844229D01*
X169793201Y-58844231D01*
X169908845Y-58881806D01*
X170010339Y-58914784D01*
X170235838Y-58950500D01*
X170235843Y-58950500D01*
X171764162Y-58950500D01*
X171989660Y-58914784D01*
X172206799Y-58844231D01*
X172410228Y-58740579D01*
X172594937Y-58606379D01*
X172756379Y-58444937D01*
X172890579Y-58260228D01*
X172994231Y-58056799D01*
X173064784Y-57839660D01*
X173100500Y-57614162D01*
X173100500Y-57385837D01*
X173064784Y-57160339D01*
X172994229Y-56943196D01*
X172930865Y-56818838D01*
X172890579Y-56739772D01*
X172756379Y-56555063D01*
X172594937Y-56393621D01*
X172410228Y-56259421D01*
X172355634Y-56231604D01*
X172206803Y-56155770D01*
X171989660Y-56085215D01*
X171764162Y-56049500D01*
X171764157Y-56049500D01*
X170235843Y-56049500D01*
X170235838Y-56049500D01*
X170010339Y-56085215D01*
X169793196Y-56155770D01*
X169589771Y-56259421D01*
X169405061Y-56393622D01*
X169243622Y-56555061D01*
X169109421Y-56739771D01*
X169005770Y-56943196D01*
X168935215Y-57160339D01*
X168899500Y-57385837D01*
X160600500Y-57385837D01*
X160564784Y-57160339D01*
X160494229Y-56943196D01*
X160430865Y-56818838D01*
X160390579Y-56739772D01*
X160256379Y-56555063D01*
X160094937Y-56393621D01*
X159910228Y-56259421D01*
X159855634Y-56231604D01*
X159706803Y-56155770D01*
X159489660Y-56085215D01*
X159264162Y-56049500D01*
X159264157Y-56049500D01*
X157735843Y-56049500D01*
X157735838Y-56049500D01*
X157510339Y-56085215D01*
X157293196Y-56155770D01*
X157089771Y-56259421D01*
X156905061Y-56393622D01*
X156743622Y-56555061D01*
X156609421Y-56739771D01*
X156505770Y-56943196D01*
X156435215Y-57160339D01*
X156399500Y-57385837D01*
X155600500Y-57385837D01*
X155564784Y-57160339D01*
X155494229Y-56943196D01*
X155430865Y-56818838D01*
X155390579Y-56739772D01*
X155256379Y-56555063D01*
X155094937Y-56393621D01*
X154910228Y-56259421D01*
X154855634Y-56231604D01*
X154706803Y-56155770D01*
X154489660Y-56085215D01*
X154264162Y-56049500D01*
X154264157Y-56049500D01*
X152735843Y-56049500D01*
X152735838Y-56049500D01*
X152510339Y-56085215D01*
X152293196Y-56155770D01*
X152089771Y-56259421D01*
X151905061Y-56393622D01*
X151743622Y-56555061D01*
X151609421Y-56739771D01*
X151505770Y-56943196D01*
X151435215Y-57160339D01*
X151399500Y-57385837D01*
X143100500Y-57385837D01*
X143064784Y-57160339D01*
X142994229Y-56943196D01*
X142930865Y-56818838D01*
X142890579Y-56739772D01*
X142756379Y-56555063D01*
X142594937Y-56393621D01*
X142410228Y-56259421D01*
X142355634Y-56231604D01*
X142206803Y-56155770D01*
X141989660Y-56085215D01*
X141764162Y-56049500D01*
X141764157Y-56049500D01*
X140235843Y-56049500D01*
X140235838Y-56049500D01*
X140010339Y-56085215D01*
X139793196Y-56155770D01*
X139589771Y-56259421D01*
X139405061Y-56393622D01*
X139243622Y-56555061D01*
X139109421Y-56739771D01*
X139005770Y-56943196D01*
X138935215Y-57160339D01*
X138899500Y-57385837D01*
X138100500Y-57385837D01*
X138064784Y-57160339D01*
X137994229Y-56943196D01*
X137930865Y-56818838D01*
X137890579Y-56739772D01*
X137756379Y-56555063D01*
X137594937Y-56393621D01*
X137410228Y-56259421D01*
X137355634Y-56231604D01*
X137206803Y-56155770D01*
X136989660Y-56085215D01*
X136764162Y-56049500D01*
X136764157Y-56049500D01*
X135235843Y-56049500D01*
X135235838Y-56049500D01*
X135010339Y-56085215D01*
X134793196Y-56155770D01*
X134589771Y-56259421D01*
X134405061Y-56393622D01*
X134243622Y-56555061D01*
X134109421Y-56739771D01*
X134005770Y-56943196D01*
X133935215Y-57160339D01*
X133899500Y-57385837D01*
X125600500Y-57385837D01*
X125564784Y-57160339D01*
X125494229Y-56943196D01*
X125430865Y-56818838D01*
X125390579Y-56739772D01*
X125256379Y-56555063D01*
X125094937Y-56393621D01*
X124910228Y-56259421D01*
X124855634Y-56231604D01*
X124706803Y-56155770D01*
X124489660Y-56085215D01*
X124264162Y-56049500D01*
X124264157Y-56049500D01*
X122735843Y-56049500D01*
X122735838Y-56049500D01*
X122510339Y-56085215D01*
X122293196Y-56155770D01*
X122089771Y-56259421D01*
X121905061Y-56393622D01*
X121743622Y-56555061D01*
X121609421Y-56739771D01*
X121505770Y-56943196D01*
X121435215Y-57160339D01*
X121399500Y-57385837D01*
X114600500Y-57385837D01*
X114564784Y-57160339D01*
X114494229Y-56943196D01*
X114430865Y-56818838D01*
X114390579Y-56739772D01*
X114256379Y-56555063D01*
X114094937Y-56393621D01*
X113910228Y-56259421D01*
X113855634Y-56231604D01*
X113706803Y-56155770D01*
X113489660Y-56085215D01*
X113264162Y-56049500D01*
X113264157Y-56049500D01*
X111735843Y-56049500D01*
X111735838Y-56049500D01*
X111510339Y-56085215D01*
X111293196Y-56155770D01*
X111089771Y-56259421D01*
X110905061Y-56393622D01*
X110743622Y-56555061D01*
X110609421Y-56739771D01*
X110505770Y-56943196D01*
X110435215Y-57160339D01*
X110399500Y-57385837D01*
X102100500Y-57385837D01*
X102064784Y-57160339D01*
X101994229Y-56943196D01*
X101930865Y-56818838D01*
X101890579Y-56739772D01*
X101756379Y-56555063D01*
X101594937Y-56393621D01*
X101410228Y-56259421D01*
X101355634Y-56231604D01*
X101206803Y-56155770D01*
X100989660Y-56085215D01*
X100764162Y-56049500D01*
X100764157Y-56049500D01*
X99235843Y-56049500D01*
X99235838Y-56049500D01*
X99010339Y-56085215D01*
X98793196Y-56155770D01*
X98589771Y-56259421D01*
X98405061Y-56393622D01*
X98243622Y-56555061D01*
X98109421Y-56739771D01*
X98005770Y-56943196D01*
X97935215Y-57160339D01*
X97899500Y-57385837D01*
X94114833Y-57385837D01*
X94150457Y-57276200D01*
X94163365Y-57194701D01*
X94179500Y-57092834D01*
X94179500Y-56907165D01*
X94156000Y-56758798D01*
X94150457Y-56723800D01*
X94093085Y-56547229D01*
X94008799Y-56381807D01*
X93899672Y-56231607D01*
X93768393Y-56100328D01*
X93618193Y-55991201D01*
X93452771Y-55906915D01*
X93332788Y-55867929D01*
X93275114Y-55828493D01*
X93247916Y-55764135D01*
X93259831Y-55695288D01*
X93307075Y-55643813D01*
X93332785Y-55632071D01*
X93452771Y-55593085D01*
X93618193Y-55508799D01*
X93768393Y-55399672D01*
X93899672Y-55268393D01*
X94008799Y-55118193D01*
X94093085Y-54952771D01*
X94117149Y-54878711D01*
X116149500Y-54878711D01*
X116149500Y-55121288D01*
X116181161Y-55361785D01*
X116243947Y-55596104D01*
X116278491Y-55679500D01*
X116336776Y-55820212D01*
X116458064Y-56030289D01*
X116458066Y-56030292D01*
X116458067Y-56030293D01*
X116605733Y-56222736D01*
X116605739Y-56222743D01*
X116777256Y-56394260D01*
X116777262Y-56394265D01*
X116969711Y-56541936D01*
X117179788Y-56663224D01*
X117403900Y-56756054D01*
X117638211Y-56818838D01*
X117818586Y-56842584D01*
X117878711Y-56850500D01*
X117878712Y-56850500D01*
X118121289Y-56850500D01*
X118169388Y-56844167D01*
X118361789Y-56818838D01*
X118596100Y-56756054D01*
X118820212Y-56663224D01*
X119030289Y-56541936D01*
X119222738Y-56394265D01*
X119394265Y-56222738D01*
X119541936Y-56030289D01*
X119663224Y-55820212D01*
X119756054Y-55596100D01*
X119818838Y-55361789D01*
X119850500Y-55121288D01*
X119850500Y-54878712D01*
X119850500Y-54878711D01*
X175149500Y-54878711D01*
X175149500Y-55121288D01*
X175181161Y-55361785D01*
X175243947Y-55596104D01*
X175278491Y-55679500D01*
X175336776Y-55820212D01*
X175458064Y-56030289D01*
X175458066Y-56030292D01*
X175458067Y-56030293D01*
X175605733Y-56222736D01*
X175605739Y-56222743D01*
X175777256Y-56394260D01*
X175777262Y-56394265D01*
X175969711Y-56541936D01*
X176179788Y-56663224D01*
X176403900Y-56756054D01*
X176638211Y-56818838D01*
X176818586Y-56842584D01*
X176878711Y-56850500D01*
X176878712Y-56850500D01*
X177121289Y-56850500D01*
X177169388Y-56844167D01*
X177361789Y-56818838D01*
X177596100Y-56756054D01*
X177820212Y-56663224D01*
X178030289Y-56541936D01*
X178222738Y-56394265D01*
X178394265Y-56222738D01*
X178541936Y-56030289D01*
X178663224Y-55820212D01*
X178756054Y-55596100D01*
X178818838Y-55361789D01*
X178850500Y-55121288D01*
X178850500Y-54878712D01*
X178818838Y-54638211D01*
X178756054Y-54403900D01*
X178663224Y-54179788D01*
X178541936Y-53969711D01*
X178445652Y-53844231D01*
X178394266Y-53777263D01*
X178394260Y-53777256D01*
X178222743Y-53605739D01*
X178222736Y-53605733D01*
X178030293Y-53458067D01*
X178030292Y-53458066D01*
X178030289Y-53458064D01*
X177820212Y-53336776D01*
X177800215Y-53328493D01*
X177596104Y-53243947D01*
X177361785Y-53181161D01*
X177121289Y-53149500D01*
X177121288Y-53149500D01*
X176878712Y-53149500D01*
X176878711Y-53149500D01*
X176638214Y-53181161D01*
X176403895Y-53243947D01*
X176179794Y-53336773D01*
X176179785Y-53336777D01*
X175969706Y-53458067D01*
X175777263Y-53605733D01*
X175777256Y-53605739D01*
X175605739Y-53777256D01*
X175605733Y-53777263D01*
X175458067Y-53969706D01*
X175336777Y-54179785D01*
X175336773Y-54179794D01*
X175243947Y-54403895D01*
X175181161Y-54638214D01*
X175149500Y-54878711D01*
X119850500Y-54878711D01*
X119818838Y-54638211D01*
X119756054Y-54403900D01*
X119663224Y-54179788D01*
X119541936Y-53969711D01*
X119445652Y-53844231D01*
X119394266Y-53777263D01*
X119394260Y-53777256D01*
X119222743Y-53605739D01*
X119222736Y-53605733D01*
X119030293Y-53458067D01*
X119030292Y-53458066D01*
X119030289Y-53458064D01*
X118820212Y-53336776D01*
X118800215Y-53328493D01*
X118596104Y-53243947D01*
X118361785Y-53181161D01*
X118121289Y-53149500D01*
X118121288Y-53149500D01*
X117878712Y-53149500D01*
X117878711Y-53149500D01*
X117638214Y-53181161D01*
X117403895Y-53243947D01*
X117179794Y-53336773D01*
X117179785Y-53336777D01*
X116969706Y-53458067D01*
X116777263Y-53605733D01*
X116777256Y-53605739D01*
X116605739Y-53777256D01*
X116605733Y-53777263D01*
X116458067Y-53969706D01*
X116336777Y-54179785D01*
X116336773Y-54179794D01*
X116243947Y-54403895D01*
X116181161Y-54638214D01*
X116149500Y-54878711D01*
X94117149Y-54878711D01*
X94150457Y-54776200D01*
X94172312Y-54638214D01*
X94179500Y-54592834D01*
X94179500Y-54407165D01*
X94154507Y-54249371D01*
X94150457Y-54223800D01*
X94093085Y-54047229D01*
X94008799Y-53881807D01*
X93899672Y-53731607D01*
X93768393Y-53600328D01*
X93618193Y-53491201D01*
X93452771Y-53406915D01*
X93332788Y-53367929D01*
X93275114Y-53328493D01*
X93247916Y-53264135D01*
X93259831Y-53195288D01*
X93307075Y-53143813D01*
X93332785Y-53132071D01*
X93452771Y-53093085D01*
X93618193Y-53008799D01*
X93768393Y-52899672D01*
X93899672Y-52768393D01*
X94008799Y-52618193D01*
X94093085Y-52452771D01*
X94114833Y-52385837D01*
X97899500Y-52385837D01*
X97899500Y-52614162D01*
X97935215Y-52839660D01*
X98005770Y-53056803D01*
X98068288Y-53179500D01*
X98109421Y-53260228D01*
X98243621Y-53444937D01*
X98405063Y-53606379D01*
X98589772Y-53740579D01*
X98661755Y-53777256D01*
X98793196Y-53844229D01*
X98793198Y-53844229D01*
X98793201Y-53844231D01*
X98908845Y-53881806D01*
X99010339Y-53914784D01*
X99235838Y-53950500D01*
X99235843Y-53950500D01*
X100764162Y-53950500D01*
X100989660Y-53914784D01*
X101206799Y-53844231D01*
X101410228Y-53740579D01*
X101594937Y-53606379D01*
X101756379Y-53444937D01*
X101890579Y-53260228D01*
X101994231Y-53056799D01*
X102064784Y-52839660D01*
X102100500Y-52614162D01*
X102100500Y-52385837D01*
X110399500Y-52385837D01*
X110399500Y-52614162D01*
X110435215Y-52839660D01*
X110505770Y-53056803D01*
X110568288Y-53179500D01*
X110609421Y-53260228D01*
X110743621Y-53444937D01*
X110905063Y-53606379D01*
X111089772Y-53740579D01*
X111161755Y-53777256D01*
X111293196Y-53844229D01*
X111293198Y-53844229D01*
X111293201Y-53844231D01*
X111408845Y-53881806D01*
X111510339Y-53914784D01*
X111735838Y-53950500D01*
X111735843Y-53950500D01*
X113264162Y-53950500D01*
X113489660Y-53914784D01*
X113706799Y-53844231D01*
X113910228Y-53740579D01*
X114094937Y-53606379D01*
X114256379Y-53444937D01*
X114390579Y-53260228D01*
X114494231Y-53056799D01*
X114564784Y-52839660D01*
X114600500Y-52614162D01*
X114600500Y-52385837D01*
X121399500Y-52385837D01*
X121399500Y-52614162D01*
X121435215Y-52839660D01*
X121505770Y-53056803D01*
X121568288Y-53179500D01*
X121609421Y-53260228D01*
X121743621Y-53444937D01*
X121905063Y-53606379D01*
X122089772Y-53740579D01*
X122161755Y-53777256D01*
X122293196Y-53844229D01*
X122293198Y-53844229D01*
X122293201Y-53844231D01*
X122408845Y-53881806D01*
X122510339Y-53914784D01*
X122735838Y-53950500D01*
X122735843Y-53950500D01*
X124264162Y-53950500D01*
X124489660Y-53914784D01*
X124706799Y-53844231D01*
X124910228Y-53740579D01*
X125094937Y-53606379D01*
X125256379Y-53444937D01*
X125390579Y-53260228D01*
X125494231Y-53056799D01*
X125564784Y-52839660D01*
X125600500Y-52614162D01*
X125600500Y-52385837D01*
X133899500Y-52385837D01*
X133899500Y-52614162D01*
X133935215Y-52839660D01*
X134005770Y-53056803D01*
X134068288Y-53179500D01*
X134109421Y-53260228D01*
X134243621Y-53444937D01*
X134405063Y-53606379D01*
X134589772Y-53740579D01*
X134661755Y-53777256D01*
X134793196Y-53844229D01*
X134793198Y-53844229D01*
X134793201Y-53844231D01*
X134908845Y-53881806D01*
X135010339Y-53914784D01*
X135235838Y-53950500D01*
X135235843Y-53950500D01*
X136764162Y-53950500D01*
X136989660Y-53914784D01*
X137206799Y-53844231D01*
X137410228Y-53740579D01*
X137594937Y-53606379D01*
X137756379Y-53444937D01*
X137890579Y-53260228D01*
X137994231Y-53056799D01*
X138064784Y-52839660D01*
X138100500Y-52614162D01*
X138100500Y-52385837D01*
X138899500Y-52385837D01*
X138899500Y-52614162D01*
X138935215Y-52839660D01*
X139005770Y-53056803D01*
X139068288Y-53179500D01*
X139109421Y-53260228D01*
X139243621Y-53444937D01*
X139405063Y-53606379D01*
X139589772Y-53740579D01*
X139661755Y-53777256D01*
X139793196Y-53844229D01*
X139793198Y-53844229D01*
X139793201Y-53844231D01*
X139908845Y-53881806D01*
X140010339Y-53914784D01*
X140235838Y-53950500D01*
X140235843Y-53950500D01*
X141764162Y-53950500D01*
X141989660Y-53914784D01*
X142206799Y-53844231D01*
X142410228Y-53740579D01*
X142594937Y-53606379D01*
X142756379Y-53444937D01*
X142890579Y-53260228D01*
X142994231Y-53056799D01*
X143064784Y-52839660D01*
X143100500Y-52614162D01*
X143100500Y-52385837D01*
X151399500Y-52385837D01*
X151399500Y-52614162D01*
X151435215Y-52839660D01*
X151505770Y-53056803D01*
X151568288Y-53179500D01*
X151609421Y-53260228D01*
X151743621Y-53444937D01*
X151905063Y-53606379D01*
X152089772Y-53740579D01*
X152161755Y-53777256D01*
X152293196Y-53844229D01*
X152293198Y-53844229D01*
X152293201Y-53844231D01*
X152408845Y-53881806D01*
X152510339Y-53914784D01*
X152735838Y-53950500D01*
X152735843Y-53950500D01*
X154264162Y-53950500D01*
X154489660Y-53914784D01*
X154706799Y-53844231D01*
X154910228Y-53740579D01*
X155094937Y-53606379D01*
X155256379Y-53444937D01*
X155390579Y-53260228D01*
X155494231Y-53056799D01*
X155564784Y-52839660D01*
X155600500Y-52614162D01*
X155600500Y-52385837D01*
X156399500Y-52385837D01*
X156399500Y-52614162D01*
X156435215Y-52839660D01*
X156505770Y-53056803D01*
X156568288Y-53179500D01*
X156609421Y-53260228D01*
X156743621Y-53444937D01*
X156905063Y-53606379D01*
X157089772Y-53740579D01*
X157161755Y-53777256D01*
X157293196Y-53844229D01*
X157293198Y-53844229D01*
X157293201Y-53844231D01*
X157408845Y-53881806D01*
X157510339Y-53914784D01*
X157735838Y-53950500D01*
X157735843Y-53950500D01*
X159264162Y-53950500D01*
X159489660Y-53914784D01*
X159706799Y-53844231D01*
X159910228Y-53740579D01*
X160094937Y-53606379D01*
X160256379Y-53444937D01*
X160390579Y-53260228D01*
X160494231Y-53056799D01*
X160564784Y-52839660D01*
X160600500Y-52614162D01*
X160600500Y-52385837D01*
X168899500Y-52385837D01*
X168899500Y-52614162D01*
X168935215Y-52839660D01*
X169005770Y-53056803D01*
X169068288Y-53179500D01*
X169109421Y-53260228D01*
X169243621Y-53444937D01*
X169405063Y-53606379D01*
X169589772Y-53740579D01*
X169661755Y-53777256D01*
X169793196Y-53844229D01*
X169793198Y-53844229D01*
X169793201Y-53844231D01*
X169908845Y-53881806D01*
X170010339Y-53914784D01*
X170235838Y-53950500D01*
X170235843Y-53950500D01*
X171764162Y-53950500D01*
X171989660Y-53914784D01*
X172206799Y-53844231D01*
X172410228Y-53740579D01*
X172594937Y-53606379D01*
X172756379Y-53444937D01*
X172890579Y-53260228D01*
X172994231Y-53056799D01*
X173064784Y-52839660D01*
X173100500Y-52614162D01*
X173100500Y-52385837D01*
X173064784Y-52160339D01*
X172994229Y-51943196D01*
X172939550Y-51835884D01*
X172890579Y-51739772D01*
X172756379Y-51555063D01*
X172594937Y-51393621D01*
X172410228Y-51259421D01*
X172355634Y-51231604D01*
X172206803Y-51155770D01*
X171989660Y-51085215D01*
X171764162Y-51049500D01*
X171764157Y-51049500D01*
X170235843Y-51049500D01*
X170235838Y-51049500D01*
X170010339Y-51085215D01*
X169793196Y-51155770D01*
X169589771Y-51259421D01*
X169405061Y-51393622D01*
X169243622Y-51555061D01*
X169109421Y-51739771D01*
X169005770Y-51943196D01*
X168935215Y-52160339D01*
X168899500Y-52385837D01*
X160600500Y-52385837D01*
X160564784Y-52160339D01*
X160494229Y-51943196D01*
X160439550Y-51835884D01*
X160390579Y-51739772D01*
X160256379Y-51555063D01*
X160094937Y-51393621D01*
X159910228Y-51259421D01*
X159855634Y-51231604D01*
X159706803Y-51155770D01*
X159489660Y-51085215D01*
X159264162Y-51049500D01*
X159264157Y-51049500D01*
X157735843Y-51049500D01*
X157735838Y-51049500D01*
X157510339Y-51085215D01*
X157293196Y-51155770D01*
X157089771Y-51259421D01*
X156905061Y-51393622D01*
X156743622Y-51555061D01*
X156609421Y-51739771D01*
X156505770Y-51943196D01*
X156435215Y-52160339D01*
X156399500Y-52385837D01*
X155600500Y-52385837D01*
X155564784Y-52160339D01*
X155494229Y-51943196D01*
X155439550Y-51835884D01*
X155390579Y-51739772D01*
X155256379Y-51555063D01*
X155094937Y-51393621D01*
X154910228Y-51259421D01*
X154855634Y-51231604D01*
X154706803Y-51155770D01*
X154489660Y-51085215D01*
X154264162Y-51049500D01*
X154264157Y-51049500D01*
X152735843Y-51049500D01*
X152735838Y-51049500D01*
X152510339Y-51085215D01*
X152293196Y-51155770D01*
X152089771Y-51259421D01*
X151905061Y-51393622D01*
X151743622Y-51555061D01*
X151609421Y-51739771D01*
X151505770Y-51943196D01*
X151435215Y-52160339D01*
X151399500Y-52385837D01*
X143100500Y-52385837D01*
X143064784Y-52160339D01*
X142994229Y-51943196D01*
X142939550Y-51835884D01*
X142890579Y-51739772D01*
X142756379Y-51555063D01*
X142594937Y-51393621D01*
X142410228Y-51259421D01*
X142355634Y-51231604D01*
X142206803Y-51155770D01*
X141989660Y-51085215D01*
X141764162Y-51049500D01*
X141764157Y-51049500D01*
X140235843Y-51049500D01*
X140235838Y-51049500D01*
X140010339Y-51085215D01*
X139793196Y-51155770D01*
X139589771Y-51259421D01*
X139405061Y-51393622D01*
X139243622Y-51555061D01*
X139109421Y-51739771D01*
X139005770Y-51943196D01*
X138935215Y-52160339D01*
X138899500Y-52385837D01*
X138100500Y-52385837D01*
X138064784Y-52160339D01*
X137994229Y-51943196D01*
X137939550Y-51835884D01*
X137890579Y-51739772D01*
X137756379Y-51555063D01*
X137594937Y-51393621D01*
X137410228Y-51259421D01*
X137355634Y-51231604D01*
X137206803Y-51155770D01*
X136989660Y-51085215D01*
X136764162Y-51049500D01*
X136764157Y-51049500D01*
X135235843Y-51049500D01*
X135235838Y-51049500D01*
X135010339Y-51085215D01*
X134793196Y-51155770D01*
X134589771Y-51259421D01*
X134405061Y-51393622D01*
X134243622Y-51555061D01*
X134109421Y-51739771D01*
X134005770Y-51943196D01*
X133935215Y-52160339D01*
X133899500Y-52385837D01*
X125600500Y-52385837D01*
X125564784Y-52160339D01*
X125494229Y-51943196D01*
X125439550Y-51835884D01*
X125390579Y-51739772D01*
X125256379Y-51555063D01*
X125094937Y-51393621D01*
X124910228Y-51259421D01*
X124855634Y-51231604D01*
X124706803Y-51155770D01*
X124489660Y-51085215D01*
X124264162Y-51049500D01*
X124264157Y-51049500D01*
X122735843Y-51049500D01*
X122735838Y-51049500D01*
X122510339Y-51085215D01*
X122293196Y-51155770D01*
X122089771Y-51259421D01*
X121905061Y-51393622D01*
X121743622Y-51555061D01*
X121609421Y-51739771D01*
X121505770Y-51943196D01*
X121435215Y-52160339D01*
X121399500Y-52385837D01*
X114600500Y-52385837D01*
X114564784Y-52160339D01*
X114494229Y-51943196D01*
X114439550Y-51835884D01*
X114390579Y-51739772D01*
X114256379Y-51555063D01*
X114094937Y-51393621D01*
X113910228Y-51259421D01*
X113855634Y-51231604D01*
X113706803Y-51155770D01*
X113489660Y-51085215D01*
X113264162Y-51049500D01*
X113264157Y-51049500D01*
X111735843Y-51049500D01*
X111735838Y-51049500D01*
X111510339Y-51085215D01*
X111293196Y-51155770D01*
X111089771Y-51259421D01*
X110905061Y-51393622D01*
X110743622Y-51555061D01*
X110609421Y-51739771D01*
X110505770Y-51943196D01*
X110435215Y-52160339D01*
X110399500Y-52385837D01*
X102100500Y-52385837D01*
X102064784Y-52160339D01*
X101994229Y-51943196D01*
X101939550Y-51835884D01*
X101890579Y-51739772D01*
X101756379Y-51555063D01*
X101594937Y-51393621D01*
X101410228Y-51259421D01*
X101355634Y-51231604D01*
X101206803Y-51155770D01*
X100989660Y-51085215D01*
X100764162Y-51049500D01*
X100764157Y-51049500D01*
X99235843Y-51049500D01*
X99235838Y-51049500D01*
X99010339Y-51085215D01*
X98793196Y-51155770D01*
X98589771Y-51259421D01*
X98405061Y-51393622D01*
X98243622Y-51555061D01*
X98109421Y-51739771D01*
X98005770Y-51943196D01*
X97935215Y-52160339D01*
X97899500Y-52385837D01*
X94114833Y-52385837D01*
X94150457Y-52276200D01*
X94163365Y-52194701D01*
X94179500Y-52092834D01*
X94179500Y-51907165D01*
X94154507Y-51749371D01*
X94150457Y-51723800D01*
X94093085Y-51547229D01*
X94008799Y-51381807D01*
X93899672Y-51231607D01*
X93768393Y-51100328D01*
X93618193Y-50991201D01*
X93466645Y-50913984D01*
X93415849Y-50866010D01*
X93399054Y-50798189D01*
X93421591Y-50732054D01*
X93476306Y-50688602D01*
X93522939Y-50679499D01*
X93726872Y-50679499D01*
X93786483Y-50673091D01*
X93921331Y-50622796D01*
X94036546Y-50536546D01*
X94122796Y-50421331D01*
X94173091Y-50286483D01*
X94179500Y-50226873D01*
X94179499Y-48773128D01*
X94173091Y-48713517D01*
X94122796Y-48578669D01*
X94122795Y-48578668D01*
X94122793Y-48578664D01*
X94036547Y-48463455D01*
X94036544Y-48463452D01*
X93921335Y-48377206D01*
X93921328Y-48377202D01*
X93786482Y-48326908D01*
X93786483Y-48326908D01*
X93726883Y-48320501D01*
X93726881Y-48320500D01*
X93726873Y-48320500D01*
X93726864Y-48320500D01*
X92273129Y-48320500D01*
X92273123Y-48320501D01*
X92213516Y-48326908D01*
X92078671Y-48377202D01*
X92078664Y-48377206D01*
X91963455Y-48463452D01*
X91963452Y-48463455D01*
X91877206Y-48578664D01*
X91877202Y-48578671D01*
X91826908Y-48713517D01*
X91820501Y-48773116D01*
X91820501Y-48773123D01*
X91820500Y-48773135D01*
X91820500Y-49644821D01*
X91800815Y-49711860D01*
X91748011Y-49757615D01*
X91678853Y-49767559D01*
X91623619Y-49745142D01*
X91618197Y-49741203D01*
X91452773Y-49656916D01*
X91452772Y-49656915D01*
X91452771Y-49656915D01*
X91276200Y-49599543D01*
X91276198Y-49599542D01*
X91276196Y-49599542D01*
X91092834Y-49570500D01*
X91092829Y-49570500D01*
X90907171Y-49570500D01*
X90907166Y-49570500D01*
X90723803Y-49599542D01*
X90547226Y-49656916D01*
X90381806Y-49741201D01*
X90345528Y-49767559D01*
X90231607Y-49850328D01*
X90231605Y-49850330D01*
X90231604Y-49850330D01*
X90100330Y-49981604D01*
X90100330Y-49981605D01*
X90100328Y-49981607D01*
X90053462Y-50046111D01*
X89991201Y-50131806D01*
X89906916Y-50297226D01*
X89849542Y-50473803D01*
X89820500Y-50657165D01*
X59500500Y-50657165D01*
X59500500Y-47502706D01*
X59500618Y-47497297D01*
X59503377Y-47434108D01*
X59517386Y-47113226D01*
X59518326Y-47102495D01*
X59568152Y-46724025D01*
X59570025Y-46713405D01*
X59652649Y-46340709D01*
X59655440Y-46330295D01*
X59770230Y-45966227D01*
X59773917Y-45956095D01*
X59920003Y-45603412D01*
X59924561Y-45593638D01*
X60100822Y-45255045D01*
X60106217Y-45245700D01*
X60311325Y-44923744D01*
X60317515Y-44914905D01*
X60549896Y-44612060D01*
X60556834Y-44603791D01*
X60814726Y-44322352D01*
X60822352Y-44314726D01*
X61103791Y-44056834D01*
X61112060Y-44049896D01*
X61414905Y-43817515D01*
X61423744Y-43811325D01*
X61745700Y-43606217D01*
X61755045Y-43600822D01*
X62093638Y-43424561D01*
X62103412Y-43420003D01*
X62456095Y-43273917D01*
X62466227Y-43270230D01*
X62830295Y-43155440D01*
X62840709Y-43152649D01*
X63213405Y-43070025D01*
X63224025Y-43068152D01*
X63602495Y-43018326D01*
X63613226Y-43017386D01*
X63997297Y-43000617D01*
X64002706Y-43000500D01*
X64065892Y-43000500D01*
X178934108Y-43000500D01*
X178997294Y-43000500D01*
X179002702Y-43000617D01*
G37*
%TD.AperFunction*%
%TD*%
M02*
